<?xml version="1.0" encoding="utf-8"?>
<!-- Generator: Adobe Illustrator 25.2.3, SVG Export Plug-In . SVG Version: 6.00 Build 0)  -->
<svg version="1.1" id="Layer_1" xmlns="http://www.w3.org/2000/svg" xmlns:xlink="http://www.w3.org/1999/xlink" x="0px" y="0px"
	 viewBox="0 0 24 24" style="enable-background:new 0 0 24 24;" xml:space="preserve">
<style type="text/css">
	.st0{fill:#810C33;}
</style>
<g>
	<g>
		<g>
			<path class="st0" d="M18.1,13.4c-0.1,0-0.2,0-0.3-0.1l-4.7-2.2c-0.3-0.1-0.4-0.4-0.4-0.6c0-0.3,0.1-0.5,0.4-0.6l4.7-2
				c0.1-0.1,0.4-0.1,0.5,0l4.7,2.2c0.2,0.1,0.3,0.2,0.4,0.4c0,0.2,0,0.4-0.1,0.5c-0.1,0.1-0.2,0.2-0.3,0.3l-4.7,2
				C18.3,13.3,18.2,13.4,18.1,13.4z M18.1,12.6C18.1,12.6,18,12.6,18.1,12.6L18.1,12.6z M13.6,10.5l4.5,2.1l4.6-2l-4.5-2.1
				L13.6,10.5z M22.8,10.7L22.8,10.7L22.8,10.7z M22.8,10.6L22.8,10.6L22.8,10.6z M18.2,8.5L18.2,8.5L18.2,8.5z"/>
		</g>
		<g>
			<path class="st0" d="M18.2,15.5c-0.1,0-0.3,0-0.4,0c-0.2,0-0.4,0-0.6,0c-0.3,0-0.5-0.1-0.8-0.1c-0.4-0.1-0.9-0.2-1.3-0.3
				c-0.2-0.1-0.4-0.2-0.5-0.3c-0.1-0.1-0.1-0.1-0.2-0.3c-0.1-0.2-0.2-0.4-0.2-0.7c0,0,0-0.1,0-0.1l0-2.4c0-0.1,0.1-0.3,0.2-0.3
				c0.1-0.1,0.2-0.1,0.4,0l3.4,1.6l3.5-1.5c0.1,0,0.3,0,0.4,0c0.1,0.1,0.1,0.2,0.1,0.3l0,2.3c0,0.3-0.1,0.5-0.2,0.7
				c0,0,0,0.1-0.1,0.1c-0.2,0.2-0.4,0.4-0.7,0.5c-0.7,0.2-1.4,0.3-2.1,0.4l-0.1-0.4l0,0.4C18.6,15.5,18.4,15.5,18.2,15.5z
				 M14.9,11.9l0,1.8v0c0,0.1,0,0.2,0.1,0.3c0,0,0.1,0.1,0.1,0.1c0.1,0.1,0.1,0.1,0.3,0.1c0.4,0.1,0.8,0.3,1.3,0.3
				c0.2,0,0.5,0.1,0.7,0.1c0.2,0,0.4,0,0.5,0c0.4,0,0.7,0,1.1,0h0.1c0.7,0,1.3-0.1,2-0.3c0.1,0,0.3-0.1,0.3-0.2l0,0
				c0.1-0.1,0.1-0.2,0.1-0.4l0-1.8l-3,1.3c-0.2,0.1-0.4,0.1-0.5,0L14.9,11.9z M21.2,14.1L21.2,14.1L21.2,14.1z M18.1,12.6
				C18.1,12.6,18,12.6,18.1,12.6L18.1,12.6z"/>
		</g>
		<g>
			<path class="st0" d="M23.2,12.8c-0.2,0-0.4-0.1-0.4-0.4l0-1.8c0-0.2,0.1-0.4,0.4-0.4c0.2,0,0.4,0.1,0.4,0.4l0,1.8
				C23.6,12.7,23.4,12.8,23.2,12.8L23.2,12.8z"/>
		</g>
	</g>
	<g>
		<g>
			<g>
				<path class="st0" d="M15,21.1c-0.2,0-0.4-0.1-0.4-0.4s0.1-0.4,0.4-0.4c0.8,0,1.5-0.7,1.5-1.5v-3.8c0-0.2,0.1-0.4,0.4-0.4
					c0.2,0,0.4,0.1,0.4,0.4v3.8C17.3,20.1,16.2,21.1,15,21.1z"/>
			</g>
			<g>
				<path class="st0" d="M2.1,17.5c-0.2,0-0.4-0.1-0.4-0.4V1.8C1.7,1.3,2.1,1,2.5,1h13.9c0.4,0,0.8,0.4,0.8,0.8v6.8
					c0,0.2-0.1,0.4-0.4,0.4c-0.2,0-0.4-0.1-0.4-0.4V1.8c0,0,0-0.1-0.1-0.1H2.5c0,0-0.1,0-0.1,0.1v15.4C2.4,17.3,2.3,17.5,2.1,17.5z"
					/>
			</g>
			<g>
				<g>
					<path class="st0" d="M15.3,21.1H2.7c-0.6,0-1.2-0.2-1.6-0.7s-0.7-1-0.7-1.6v-1.7c0-0.2,0.1-0.4,0.4-0.4h12.6
						c0.2,0,0.4,0.1,0.4,0.4v1.7c0,0.4,0.1,0.8,0.4,1.1c0.3,0.3,0.7,0.4,1.1,0.4c0.2,0,0.4,0.1,0.4,0.4S15.5,21.1,15.3,21.1z
						 M1.1,17.5v1.3c0,0.4,0.1,0.8,0.4,1.1c0.3,0.3,0.7,0.4,1.1,0.4h11c-0.4-0.4-0.6-0.9-0.6-1.5v-1.3H1.1z"/>
				</g>
			</g>
		</g>
		<g>
			<g>
				<g>
					<path class="st0" d="M5.6,23.1c-0.4,0-0.7-0.1-0.9-0.4c-0.3-0.3-0.4-0.6-0.4-0.9v-1.1c0-0.2,0.1-0.4,0.4-0.4
						c0.2,0,0.4,0.1,0.4,0.4v1.1c0,0.1,0.1,0.3,0.2,0.4s0.3,0.2,0.4,0.2l0,0h12.8c0.3,0,0.6-0.3,0.6-0.6v-6.7c0-0.2,0.1-0.4,0.4-0.4
						c0.2,0,0.4,0.1,0.4,0.4v6.7c0,0.7-0.6,1.3-1.3,1.3H5.6L5.6,23.1z"/>
				</g>
				<g>
					<path class="st0" d="M19.3,8.9c-0.2,0-0.4-0.1-0.4-0.4V3.3c0,0,0-0.1-0.1-0.1h-1.6c-0.2,0-0.4-0.1-0.4-0.4s0.1-0.4,0.4-0.4h1.6
						c0.4,0,0.8,0.4,0.8,0.8v5.2C19.7,8.7,19.5,8.9,19.3,8.9z"/>
				</g>
			</g>
		</g>
	</g>
	<g>
		<g>
			<path class="st0" d="M5.7,15.4c-0.8,0-1.4-0.7-1.4-1.4v-1.4c0-0.2,0.1-0.4,0.4-0.4h2.2c0.2,0,0.4,0.1,0.4,0.4V14
				C7.2,14.8,6.5,15.4,5.7,15.4z M5,12.8v1.1c0,0.4,0.3,0.7,0.7,0.7c0.4,0,0.7-0.3,0.7-0.7v-1.1H5z"/>
		</g>
		<g>
			<path class="st0" d="M6.8,12.8H4.6c-0.2,0-0.4-0.1-0.4-0.4V5.2c0-0.1,0-0.3,0.1-0.4l1.1-1.9c0.1-0.1,0.2-0.2,0.3-0.2l0,0
				c0.1,0,0.3,0.1,0.3,0.2l1,1.9C7.2,5,7.2,5.1,7.2,5.2v7.2C7.2,12.7,7,12.8,6.8,12.8z M5,12.1h1.4V5.2c0,0,0-0.1,0-0.2L5.7,3.8
				L5,5.1c0,0,0,0.1,0,0.1C5,5.2,5,12.1,5,12.1z"/>
		</g>
	</g>
	<g>
		<path class="st0" d="M11.5,4.2H8.6C8.4,4.2,8.3,4,8.3,3.8s0.1-0.4,0.4-0.4h2.9c0.2,0,0.4,0.1,0.4,0.4S11.7,4.2,11.5,4.2z"/>
	</g>
	<g>
		<path class="st0" d="M11.5,6.3H8.6C8.4,6.3,8.3,6.2,8.3,6s0.1-0.4,0.4-0.4h2.9c0.2,0,0.4,0.1,0.4,0.4S11.7,6.3,11.5,6.3z"/>
	</g>
	<g>
		<path class="st0" d="M11.5,8.5H8.6c-0.2,0-0.4-0.1-0.4-0.4c0-0.2,0.1-0.4,0.4-0.4h2.9c0.2,0,0.4,0.1,0.4,0.4
			C11.9,8.4,11.7,8.5,11.5,8.5z"/>
	</g>
	<g>
		<path class="st0" d="M11.5,10.7H8.6c-0.2,0-0.4-0.1-0.4-0.4c0-0.2,0.1-0.4,0.4-0.4h2.9c0.2,0,0.4,0.1,0.4,0.4
			C11.9,10.5,11.7,10.7,11.5,10.7z"/>
	</g>
	<g>
		<path class="st0" d="M11.5,12.8H8.6c-0.2,0-0.4-0.1-0.4-0.4c0-0.2,0.1-0.4,0.4-0.4h2.9c0.2,0,0.4,0.1,0.4,0.4
			C11.9,12.7,11.7,12.8,11.5,12.8z"/>
	</g>
	<g>
		<path class="st0" d="M11.5,15H8.6c-0.2,0-0.4-0.1-0.4-0.4s0.1-0.4,0.4-0.4h2.9c0.2,0,0.4,0.1,0.4,0.4S11.7,15,11.5,15z"/>
	</g>
</g>
</svg>
