<?xml version="1.0" encoding="utf-8"?>
<!-- Generator: Adobe Illustrator 25.2.3, SVG Export Plug-In . SVG Version: 6.00 Build 0)  -->
<svg version="1.1" id="Layer_1" xmlns="http://www.w3.org/2000/svg" xmlns:xlink="http://www.w3.org/1999/xlink" x="0px" y="0px"
	 viewBox="0 0 24 24.1" style="enable-background:new 0 0 24 24.1;" xml:space="preserve">
<style type="text/css">
	.st0{fill:#810C33;}
</style>
<g>
	<path class="st0" d="M19.2,21.1H4.8c-1.1,0-1.9-0.8-1.9-1.9V6.4c0-1.1,0.8-1.9,1.9-1.9h14.3c1.1,0,1.9,0.8,1.9,1.9v12.8
		C21,20.3,20.2,21.1,19.2,21.1z M4.8,6C4.6,6,4.5,6.2,4.5,6.4v12.8c0,0.2,0.2,0.4,0.4,0.4h14.3c0.2,0,0.4-0.2,0.4-0.4V6.4
		c0-0.2-0.2-0.4-0.4-0.4H4.8z M20.3,9H3.7C3.3,9,3,8.7,3,8.3c0-0.5,0.3-0.8,0.8-0.8h16.6c0.5,0,0.8,0.3,0.8,0.8
		C21,8.7,20.7,9,20.3,9z M6.7,6.8C6.3,6.8,6,6.5,6,6V3.8C6,3.3,6.3,3,6.7,3c0.5,0,0.8,0.3,0.8,0.8V6C7.5,6.5,7.2,6.8,6.7,6.8z
		 M17.3,6.8c-0.5,0-0.8-0.3-0.8-0.8V3.8c0-0.5,0.3-0.8,0.8-0.8S18,3.3,18,3.8V6C18,6.5,17.7,6.8,17.3,6.8z"/>
	<circle class="st0" cx="7.5" cy="17.3" r="0.8"/>
	<circle class="st0" cx="7.5" cy="14.3" r="0.8"/>
	<circle class="st0" cx="9.7" cy="17.3" r="0.8"/>
	<circle class="st0" cx="9.7" cy="14.3" r="0.8"/>
	<circle class="st0" cx="9.7" cy="11.3" r="0.8"/>
	<circle class="st0" cx="14.3" cy="17.3" r="0.8"/>
	<circle class="st0" cx="14.3" cy="14.3" r="0.8"/>
	<circle class="st0" cx="14.3" cy="11.3" r="0.8"/>
	<circle class="st0" cx="16.5" cy="14.3" r="0.8"/>
	<circle class="st0" cx="16.5" cy="11.3" r="0.8"/>
	<circle class="st0" cx="12" cy="17.3" r="0.8"/>
	<circle class="st0" cx="12" cy="14.3" r="0.8"/>
	<circle class="st0" cx="12" cy="11.3" r="0.8"/>
</g>
</svg>
