<?xml version="1.0" encoding="utf-8"?>
<!-- Generator: Adobe Illustrator 25.2.3, SVG Export Plug-In . SVG Version: 6.00 Build 0)  -->
<svg version="1.1" id="Layer_1" xmlns="http://www.w3.org/2000/svg" xmlns:xlink="http://www.w3.org/1999/xlink" x="0px" y="0px"
	 viewBox="0 0 895.7 441.2" style="enable-background:new 0 0 895.7 441.2;" xml:space="preserve">
<style type="text/css">
	.st0{opacity:0.7;fill:#F4F4F4;}
	.st1{clip-path:url(#SVGID_2_);}
	.st2{opacity:0.7;clip-path:url(#SVGID_2_);fill:#FFFFFF;}
	.st3{clip-path:url(#SVGID_4_);}
	.st4{opacity:0.7;clip-path:url(#SVGID_4_);fill:#FFFFFF;}
	.st5{fill:none;stroke:#8D4A5E;stroke-width:6;stroke-linecap:round;stroke-linejoin:round;stroke-miterlimit:10;}
	.st6{fill:url(#SVGID_15_);}
	.st7{fill:#811435;}
	.st8{fill:url(#SVGID_16_);}
	.st9{opacity:0.6;fill:none;stroke:#DDDDDD;stroke-width:2;stroke-linecap:round;stroke-linejoin:round;stroke-miterlimit:10;}
	.st10{fill:url(#SVGID_17_);}
	.st11{fill:url(#SVGID_18_);}
	.st12{fill:url(#SVGID_19_);}
	.st13{fill:url(#SVGID_20_);}
	.st14{fill:#77787B;}
	.st15{fill:url(#SVGID_21_);}
	.st16{fill:url(#SVGID_22_);}
	.st17{fill:url(#SVGID_23_);}
	.st18{fill:url(#SVGID_24_);}
	.st19{fill:#810C33;}
	.st20{fill:none;stroke:url(#SVGID_25_);stroke-width:8;stroke-linecap:round;stroke-miterlimit:10;}
	.st21{fill:none;stroke:url(#SVGID_26_);stroke-width:8;stroke-linecap:round;stroke-miterlimit:10;}
	.st22{fill:#FCE0F1;}
	.st23{fill:#E2E2E2;}
	.st24{fill:url(#SVGID_27_);}
	.st25{fill:url(#SVGID_28_);}
	.st26{fill:url(#SVGID_29_);}
	.st27{fill:url(#SVGID_30_);}
	.st28{fill:url(#SVGID_31_);}
	.st29{fill:url(#SVGID_32_);}
	.st30{fill:url(#SVGID_33_);}
	.st31{fill:url(#SVGID_34_);}
	.st32{fill:url(#SVGID_35_);}
	.st33{fill:url(#SVGID_36_);}
	.st34{fill:url(#SVGID_37_);}
	.st35{fill:url(#SVGID_38_);}
	.st36{fill:url(#SVGID_39_);}
	.st37{fill:url(#SVGID_40_);}
	.st38{fill:url(#SVGID_41_);}
	.st39{fill:url(#SVGID_42_);}
	.st40{fill:url(#SVGID_43_);}
	.st41{fill:url(#SVGID_44_);}
	.st42{fill:url(#SVGID_45_);}
	.st43{fill:url(#SVGID_46_);}
	.st44{fill:url(#SVGID_47_);}
	.st45{fill:url(#SVGID_48_);}
	.st46{fill:url(#SVGID_49_);}
	.st47{fill:url(#SVGID_50_);}
	.st48{fill:url(#SVGID_51_);}
	.st49{fill:url(#SVGID_52_);}
	.st50{fill:url(#SVGID_53_);}
	.st51{fill:url(#SVGID_54_);}
	.st52{fill:url(#SVGID_55_);}
	.st53{fill:url(#SVGID_56_);}
	.st54{fill:url(#SVGID_57_);}
	.st55{fill:url(#SVGID_58_);}
	.st56{fill:url(#SVGID_59_);}
	.st57{fill:url(#SVGID_60_);}
	.st58{fill:url(#SVGID_61_);}
	.st59{fill:url(#SVGID_62_);}
	.st60{fill:url(#SVGID_63_);}
	.st61{fill:url(#SVGID_64_);}
	.st62{fill:url(#SVGID_65_);}
	.st63{fill:url(#SVGID_66_);}
	.st64{fill:url(#SVGID_67_);}
	.st65{fill:url(#SVGID_68_);}
	.st66{fill:url(#SVGID_69_);}
	.st67{fill:url(#SVGID_70_);}
	.st68{fill:url(#SVGID_71_);}
	.st69{fill:url(#SVGID_72_);}
	.st70{fill:url(#SVGID_73_);}
	.st71{fill:url(#SVGID_74_);}
	.st72{fill:url(#SVGID_75_);}
	.st73{fill:url(#SVGID_76_);}
	.st74{fill:url(#SVGID_77_);}
	.st75{fill:url(#SVGID_78_);}
	.st76{fill:url(#SVGID_79_);}
	.st77{fill:url(#SVGID_80_);}
	.st78{fill:url(#SVGID_81_);}
	.st79{fill:url(#SVGID_82_);}
	.st80{fill:url(#SVGID_83_);}
	.st81{fill:url(#SVGID_84_);}
	.st82{fill:url(#SVGID_85_);}
	.st83{fill:url(#SVGID_86_);}
	.st84{fill:url(#SVGID_87_);}
	.st85{fill:url(#SVGID_88_);}
	.st86{fill:url(#SVGID_89_);}
	.st87{fill:url(#SVGID_90_);}
	.st88{fill:url(#SVGID_91_);}
	.st89{fill:url(#SVGID_92_);}
	.st90{fill:url(#SVGID_93_);}
	.st91{fill:url(#SVGID_94_);}
	.st92{fill:url(#SVGID_95_);}
	.st93{fill:url(#SVGID_96_);}
	.st94{fill:url(#SVGID_97_);}
	.st95{fill:url(#SVGID_98_);}
	.st96{fill:url(#SVGID_99_);}
	.st97{fill:url(#SVGID_100_);}
	.st98{fill:url(#SVGID_101_);}
	.st99{fill:url(#SVGID_102_);}
	.st100{fill:url(#SVGID_103_);}
	.st101{fill:url(#SVGID_104_);}
	.st102{fill:#EFEFEF;}
	.st103{fill:url(#SVGID_105_);}
	.st104{fill:#F4F4F4;}
</style>
<g>
	<path class="st0" d="M434.2,397.5H5.3c-2.9,0-5.3-2.4-5.3-5.3V79.1c0-2.9,2.4-5.3,5.3-5.3h428.8c2.9,0,5.3,2.4,5.3,5.3v313.1
		C439.5,395.1,437.1,397.5,434.2,397.5z"/>
	<g>
		<g>
			<path class="st7" d="M232.5,38.9V8.7h12.8c1.4,0,2.7,0.3,3.8,0.9c1.2,0.6,2.2,1.3,3,2.3c0.9,1,1.5,2,2,3.2
				c0.5,1.2,0.7,2.4,0.7,3.7c0,1.7-0.4,3.3-1.2,4.8c-0.8,1.5-1.9,2.8-3.3,3.7c-1.4,1-3,1.4-4.9,1.4h-7.1v10.1H232.5z M238.4,23.6
				h6.8c0.7,0,1.3-0.2,1.9-0.6c0.6-0.4,1-1,1.4-1.7c0.3-0.8,0.5-1.6,0.5-2.6c0-1-0.2-1.9-0.6-2.7s-0.9-1.3-1.5-1.7
				c-0.6-0.4-1.3-0.6-2-0.6h-6.5V23.6z"/>
			<path class="st7" d="M280,33.8v5.1h-21V8.7h20.6v5.1h-14.7v7.3h12.7v4.8h-12.7v7.9H280z"/>
			<path class="st7" d="M284.6,38.9V8.7h13.4c1.4,0,2.7,0.3,3.8,0.9c1.2,0.6,2.2,1.3,3.1,2.3c0.9,1,1.5,2,2,3.2
				c0.5,1.2,0.7,2.4,0.7,3.7c0,1.3-0.2,2.5-0.7,3.7s-1.1,2.2-1.9,3.1c-0.8,0.9-1.8,1.6-2.9,2l6.9,11.4h-6.5l-6.2-10.1h-5.9v10.1
				H284.6z M290.4,23.6h7.4c0.7,0,1.4-0.2,2-0.7s1-1,1.4-1.8c0.3-0.7,0.5-1.6,0.5-2.5c0-1-0.2-1.8-0.6-2.5c-0.4-0.7-0.9-1.3-1.5-1.7
				c-0.6-0.4-1.3-0.6-2-0.6h-7.1V23.6z"/>
			<path class="st7" d="M312.8,38.9V8.7h5.9v30.2H312.8z"/>
			<path class="st7" d="M337.9,39.1c-2.2,0-4.2-0.4-6-1.3s-3.3-2-4.6-3.5c-1.3-1.5-2.3-3.1-3-4.9s-1.1-3.7-1.1-5.6
				c0-2,0.4-3.9,1.1-5.8c0.8-1.8,1.8-3.5,3.1-4.9s2.9-2.6,4.7-3.4c1.8-0.8,3.8-1.3,5.9-1.3c2.2,0,4.2,0.4,6,1.3s3.3,2.1,4.6,3.5
				c1.3,1.5,2.3,3.1,3,4.9s1.1,3.7,1.1,5.6c0,2-0.4,3.9-1.1,5.7s-1.8,3.5-3.1,4.9c-1.3,1.4-2.9,2.6-4.7,3.4S340,39.1,337.9,39.1z
				 M329.1,23.8c0,1.3,0.2,2.6,0.6,3.8c0.4,1.2,1,2.3,1.7,3.3c0.8,1,1.7,1.7,2.8,2.3c1.1,0.6,2.3,0.8,3.7,0.8c1.4,0,2.7-0.3,3.8-0.9
				s2-1.4,2.8-2.3c0.7-1,1.3-2.1,1.7-3.3s0.6-2.4,0.6-3.6c0-1.3-0.2-2.6-0.6-3.8c-0.4-1.2-1-2.3-1.7-3.2c-0.8-0.9-1.7-1.7-2.8-2.3
				c-1.1-0.6-2.3-0.8-3.7-0.8c-1.4,0-2.7,0.3-3.8,0.9c-1.1,0.6-2,1.4-2.7,2.3s-1.3,2-1.7,3.2C329.3,21.4,329.1,22.6,329.1,23.8z"/>
			<path class="st7" d="M357.2,38.9V8.7h11c3.3,0,6,0.7,8.2,2c2.2,1.3,3.9,3.2,5,5.4s1.7,4.8,1.7,7.6c0,3.1-0.6,5.7-1.8,8
				c-1.2,2.3-2.9,4-5.2,5.3s-4.9,1.9-7.9,1.9H357.2z M377.1,23.8c0-2-0.4-3.7-1.1-5.2s-1.7-2.7-3.1-3.5c-1.3-0.8-2.9-1.3-4.8-1.3
				H363v19.9h5.1c1.9,0,3.6-0.4,4.9-1.3c1.3-0.9,2.3-2.1,3-3.6C376.8,27.4,377.1,25.7,377.1,23.8z"/>
			<path class="st7" d="M400.5,39.1c-2.2,0-4.2-0.4-6-1.3c-1.8-0.9-3.3-2-4.6-3.5c-1.3-1.5-2.3-3.1-3-4.9c-0.7-1.8-1.1-3.7-1.1-5.6
				c0-2,0.4-3.9,1.1-5.8c0.8-1.8,1.8-3.5,3.1-4.9s2.9-2.6,4.7-3.4c1.8-0.8,3.8-1.3,5.9-1.3c2.2,0,4.2,0.4,6,1.3
				c1.8,0.9,3.3,2.1,4.6,3.5c1.3,1.5,2.3,3.1,3,4.9c0.7,1.8,1.1,3.7,1.1,5.6c0,2-0.4,3.9-1.1,5.7c-0.7,1.8-1.8,3.5-3.1,4.9
				c-1.3,1.4-2.9,2.6-4.7,3.4C404.6,38.7,402.6,39.1,400.5,39.1z M391.7,23.8c0,1.3,0.2,2.6,0.6,3.8c0.4,1.2,1,2.3,1.7,3.3
				c0.8,1,1.7,1.7,2.8,2.3s2.3,0.8,3.7,0.8c1.4,0,2.7-0.3,3.8-0.9s2-1.4,2.8-2.3c0.7-1,1.3-2.1,1.7-3.3s0.6-2.4,0.6-3.6
				c0-1.3-0.2-2.6-0.6-3.8c-0.4-1.2-1-2.3-1.7-3.2c-0.8-0.9-1.7-1.7-2.8-2.3s-2.3-0.8-3.7-0.8c-1.4,0-2.7,0.3-3.8,0.9
				c-1.1,0.6-2,1.4-2.7,2.3c-0.7,1-1.3,2-1.7,3.2C391.9,21.4,391.7,22.6,391.7,23.8z"/>
			<path class="st7" d="M430,38.9V8.7h11c3.3,0,6,0.7,8.3,2c2.2,1.3,3.9,3.2,5,5.4c1.1,2.3,1.7,4.8,1.7,7.6c0,3.1-0.6,5.7-1.8,8
				c-1.2,2.3-2.9,4-5.2,5.3c-2.2,1.2-4.9,1.9-7.9,1.9H430z M449.9,23.8c0-2-0.4-3.7-1.1-5.2c-0.7-1.5-1.7-2.7-3.1-3.5
				c-1.3-0.8-2.9-1.3-4.8-1.3h-5.1v19.9h5.1c1.9,0,3.6-0.4,4.9-1.3c1.3-0.9,2.3-2.1,3-3.6C449.6,27.4,449.9,25.7,449.9,23.8z"/>
			<path class="st7" d="M481.4,33.8v5.1h-21V8.7H481v5.1h-14.7v7.3H479v4.8h-12.7v7.9H481.4z"/>
			<path class="st7" d="M517.2,33.8v5.1h-21V8.7h20.6v5.1h-14.7v7.3h12.7v4.8h-12.7v7.9H517.2z"/>
			<path class="st7" d="M520.2,32.5c0.4,0.3,1,0.6,2,0.9s2,0.5,3.3,0.5c1.1,0,2-0.2,2.7-0.6c0.7-0.4,1.3-0.9,1.6-1.7
				c0.4-0.8,0.6-1.7,0.8-2.9c0.1-1.2,0.2-2.7,0.2-4.3V8.7h5.9v15.2c0,2.2-0.1,4.3-0.4,6.2c-0.3,1.9-0.8,3.5-1.5,4.8
				s-1.8,2.4-3.3,3.1c-1.5,0.7-3.5,1.1-5.9,1.1c-1.4,0-2.6-0.2-3.7-0.5c-1.1-0.3-2.1-0.8-3-1.4L520.2,32.5z"/>
			<path class="st7" d="M563.6,33.8v5.1h-21V8.7h20.6v5.1h-14.7v7.3h12.7v4.8h-12.7v7.9H563.6z"/>
			<path class="st7" d="M565.8,23.6c0-1.8,0.3-3.7,1-5.4c0.7-1.8,1.6-3.4,2.9-4.8c1.3-1.5,2.8-2.6,4.7-3.5c1.8-0.9,3.9-1.3,6.3-1.3
				c2.8,0,5.2,0.6,7.2,1.8c2,1.2,3.5,2.8,4.5,4.8l-4.5,3.1c-0.5-1.1-1.2-2-2-2.7c-0.8-0.7-1.7-1.1-2.6-1.4s-1.9-0.4-2.8-0.4
				c-1.5,0-2.8,0.3-3.8,0.9c-1.1,0.6-2,1.4-2.7,2.3s-1.3,2-1.6,3.2c-0.4,1.2-0.5,2.4-0.5,3.6c0,1.3,0.2,2.6,0.6,3.8
				c0.4,1.2,1,2.3,1.8,3.3c0.8,1,1.7,1.7,2.8,2.3c1.1,0.6,2.3,0.8,3.6,0.8c0.9,0,1.9-0.2,2.8-0.5c1-0.3,1.9-0.8,2.7-1.5
				c0.8-0.7,1.5-1.6,1.9-2.6l4.8,2.8c-0.6,1.5-1.6,2.8-2.9,3.8c-1.3,1-2.9,1.8-4.5,2.4c-1.7,0.5-3.3,0.8-5,0.8
				c-2.2,0-4.1-0.4-5.9-1.3c-1.8-0.9-3.3-2.1-4.6-3.6c-1.3-1.5-2.3-3.2-3-5C566.2,27.3,565.8,25.5,565.8,23.6z"/>
			<path class="st7" d="M609.6,39.1c-2.4,0-4.5-0.4-6.1-1.2c-1.7-0.8-3-1.9-4.1-3.3c-1-1.4-1.8-3-2.3-4.8c-0.5-1.8-0.7-3.7-0.7-5.6
				V8.7h5.9v15.4c0,1.2,0.1,2.5,0.4,3.6c0.2,1.2,0.6,2.2,1.2,3.2c0.6,0.9,1.3,1.7,2.3,2.2c0.9,0.5,2.1,0.8,3.5,0.8
				c1.4,0,2.6-0.3,3.6-0.8c0.9-0.6,1.7-1.3,2.3-2.2s1-2,1.2-3.2c0.3-1.2,0.4-2.4,0.4-3.6V8.7h5.8v15.4c0,2.1-0.2,4-0.7,5.8
				c-0.5,1.8-1.3,3.4-2.3,4.8c-1.1,1.4-2.4,2.5-4.1,3.2C613.9,38.7,611.9,39.1,609.6,39.1z"/>
			<path class="st7" d="M626.9,23.6c0-1.8,0.3-3.7,1-5.4c0.7-1.8,1.6-3.4,2.9-4.8c1.3-1.5,2.8-2.6,4.7-3.5c1.8-0.9,3.9-1.3,6.3-1.3
				c2.8,0,5.2,0.6,7.2,1.8c2,1.2,3.5,2.8,4.5,4.8l-4.5,3.1c-0.5-1.1-1.2-2-2-2.7c-0.8-0.7-1.7-1.1-2.6-1.4s-1.9-0.4-2.8-0.4
				c-1.5,0-2.8,0.3-3.8,0.9c-1.1,0.6-2,1.4-2.7,2.3s-1.3,2-1.6,3.2c-0.4,1.2-0.5,2.4-0.5,3.6c0,1.3,0.2,2.6,0.6,3.8
				c0.4,1.2,1,2.3,1.8,3.3c0.8,1,1.7,1.7,2.8,2.3c1.1,0.6,2.3,0.8,3.6,0.8c0.9,0,1.9-0.2,2.8-0.5c1-0.3,1.9-0.8,2.7-1.5
				c0.8-0.7,1.5-1.6,1.9-2.6l4.8,2.8c-0.6,1.5-1.6,2.8-2.9,3.8c-1.3,1-2.9,1.8-4.5,2.4c-1.7,0.5-3.3,0.8-5,0.8
				c-2.2,0-4.1-0.4-5.9-1.3c-1.8-0.9-3.3-2.1-4.6-3.6c-1.3-1.5-2.3-3.2-3-5C627.3,27.3,626.9,25.5,626.9,23.6z"/>
			<path class="st7" d="M657.9,38.9V8.7h5.9v30.2H657.9z"/>
			<path class="st7" d="M682.9,39.1c-2.2,0-4.2-0.4-6-1.3s-3.3-2-4.6-3.5s-2.3-3.1-3-4.9c-0.7-1.8-1.1-3.7-1.1-5.6
				c0-2,0.4-3.9,1.1-5.8s1.8-3.5,3.1-4.9c1.3-1.4,2.9-2.6,4.7-3.4c1.8-0.8,3.8-1.3,5.9-1.3c2.2,0,4.2,0.4,6,1.3
				c1.8,0.9,3.3,2.1,4.6,3.5c1.3,1.5,2.3,3.1,3,4.9s1.1,3.7,1.1,5.6c0,2-0.4,3.9-1.1,5.7s-1.8,3.5-3.1,4.9c-1.3,1.4-2.9,2.6-4.7,3.4
				C687,38.7,685.1,39.1,682.9,39.1z M674.2,23.8c0,1.3,0.2,2.6,0.6,3.8c0.4,1.2,1,2.3,1.7,3.3c0.8,1,1.7,1.7,2.8,2.3
				c1.1,0.6,2.3,0.8,3.7,0.8c1.4,0,2.7-0.3,3.8-0.9c1.1-0.6,2-1.4,2.8-2.3c0.7-1,1.3-2.1,1.7-3.3s0.6-2.4,0.6-3.6
				c0-1.3-0.2-2.6-0.6-3.8s-1-2.3-1.7-3.2c-0.8-0.9-1.7-1.7-2.8-2.3c-1.1-0.6-2.3-0.8-3.7-0.8c-1.4,0-2.7,0.3-3.8,0.9
				c-1.1,0.6-2,1.4-2.7,2.3c-0.7,1-1.3,2-1.7,3.2C674.4,21.4,674.2,22.6,674.2,23.8z M684.9,6.2l-3.7-1.1l2.3-5.1h5.3L684.9,6.2z"/>
			<path class="st7" d="M708.1,19.5v19.4h-5.9V8.7h4.7l15.6,19.9V8.8h5.9v30.2h-4.9L708.1,19.5z"/>
		</g>
	</g>
	<linearGradient id="SVGID_2_" gradientUnits="userSpaceOnUse" x1="418.1983" y1="295.2408" x2="308.2799" y2="278.6778">
		<stop  offset="0" style="stop-color:#00DCCC"/>
		<stop  offset="1" style="stop-color:#C7F0B9"/>
	</linearGradient>
	<path style="fill:url(#SVGID_2_);" d="M404.9,302.9h-83.5c-8.8,0-16-7.2-16-16l0,0c0-8.8,7.2-16,16-16h83.5c8.8,0,16,7.2,16,16l0,0
		C420.9,295.8,413.7,302.9,404.9,302.9z"/>
	<g>
		<path class="st14" d="M188.4,118.4c0-0.8,0.1-1.5,0.2-2.2c0.1-0.7,0.4-1.4,0.7-2c0.3-0.6,0.8-1.3,1.5-1.8c0.6-0.6,1.4-1.2,2.5-1.7
			c0.6-0.3,1.2-0.7,1.8-1c0.6-0.3,1.2-0.6,1.7-1c0.5-0.3,0.9-0.7,1.3-1.1c0.3-0.4,0.5-0.9,0.5-1.4c0-0.5-0.1-0.9-0.4-1.3
			s-0.7-0.8-1.2-1.1s-1.2-0.4-1.9-0.4c-0.6,0-1.1,0.1-1.6,0.2c-0.5,0.2-0.9,0.4-1.3,0.6c-0.4,0.2-0.7,0.5-1,0.8s-0.5,0.5-0.7,0.7
			l-1.6-1.8c0.2-0.2,0.4-0.4,0.8-0.7c0.4-0.3,0.8-0.6,1.4-0.9c0.6-0.3,1.2-0.6,2-0.8c0.8-0.2,1.6-0.3,2.5-0.3c1.2,0,2.3,0.2,3.1,0.6
			c0.9,0.4,1.6,1,2,1.7c0.5,0.7,0.7,1.5,0.7,2.4c0,0.8-0.2,1.5-0.5,2c-0.3,0.6-0.7,1.1-1.2,1.5c-0.5,0.4-1,0.8-1.6,1.1
			c-0.5,0.3-1,0.6-1.5,0.8c-0.9,0.4-1.6,0.8-2.3,1.2c-0.6,0.4-1.1,0.7-1.6,1.1c-0.4,0.3-0.7,0.7-1,1.1c-0.2,0.4-0.4,0.8-0.5,1.3
			h10.4v2.4H188.4z"/>
		<path class="st14" d="M219.5,109.9c0,1.7-0.3,3.2-1,4.6c-0.7,1.3-1.5,2.4-2.7,3.1c-1.1,0.8-2.4,1.1-3.8,1.1s-2.7-0.4-3.8-1.1
			c-1.1-0.8-2-1.8-2.7-3.1c-0.6-1.3-1-2.8-1-4.6s0.3-3.2,1-4.6c0.7-1.3,1.5-2.4,2.7-3.1c1.1-0.8,2.4-1.1,3.8-1.1s2.7,0.4,3.8,1.1
			c1.1,0.8,2,1.8,2.7,3.1C219.1,106.7,219.5,108.2,219.5,109.9z M216.8,109.9c0-1.3-0.2-2.4-0.6-3.4c-0.4-1-1-1.7-1.7-2.3
			s-1.6-0.8-2.5-0.8c-1,0-1.8,0.3-2.5,0.8c-0.7,0.5-1.3,1.3-1.7,2.3c-0.4,1-0.6,2.1-0.6,3.4c0,1.3,0.2,2.4,0.6,3.3
			c0.4,1,1,1.7,1.7,2.2c0.7,0.5,1.6,0.8,2.5,0.8c0.9,0,1.8-0.3,2.5-0.8s1.3-1.3,1.7-2.2C216.6,112.3,216.8,111.2,216.8,109.9z"/>
		<path class="st14" d="M222.3,118.4c0-0.8,0.1-1.5,0.2-2.2c0.1-0.7,0.4-1.4,0.7-2c0.3-0.6,0.8-1.3,1.5-1.8c0.6-0.6,1.4-1.2,2.5-1.7
			c0.6-0.3,1.2-0.7,1.8-1c0.6-0.3,1.2-0.6,1.7-1c0.5-0.3,0.9-0.7,1.3-1.1c0.3-0.4,0.5-0.9,0.5-1.4c0-0.5-0.1-0.9-0.4-1.3
			s-0.7-0.8-1.2-1.1s-1.2-0.4-1.9-0.4c-0.6,0-1.1,0.1-1.6,0.2c-0.5,0.2-0.9,0.4-1.3,0.6c-0.4,0.2-0.7,0.5-1,0.8s-0.5,0.5-0.7,0.7
			l-1.6-1.8c0.2-0.2,0.4-0.4,0.8-0.7c0.4-0.3,0.8-0.6,1.4-0.9c0.6-0.3,1.2-0.6,2-0.8c0.8-0.2,1.6-0.3,2.5-0.3c1.2,0,2.3,0.2,3.1,0.6
			c0.9,0.4,1.6,1,2,1.7c0.5,0.7,0.7,1.5,0.7,2.4c0,0.8-0.2,1.5-0.5,2c-0.3,0.6-0.7,1.1-1.2,1.5c-0.5,0.4-1,0.8-1.6,1.1
			c-0.5,0.3-1,0.6-1.5,0.8c-0.9,0.4-1.6,0.8-2.3,1.2c-0.6,0.4-1.1,0.7-1.6,1.1c-0.4,0.3-0.7,0.7-1,1.1c-0.2,0.4-0.4,0.8-0.5,1.3
			h10.4v2.4H222.3z"/>
		<path class="st14" d="M253.4,109.9c0,1.7-0.3,3.2-1,4.6c-0.7,1.3-1.5,2.4-2.7,3.1c-1.1,0.8-2.4,1.1-3.8,1.1s-2.7-0.4-3.8-1.1
			c-1.1-0.8-2-1.8-2.7-3.1c-0.6-1.3-1-2.8-1-4.6s0.3-3.2,1-4.6c0.7-1.3,1.5-2.4,2.7-3.1c1.1-0.8,2.4-1.1,3.8-1.1s2.7,0.4,3.8,1.1
			c1.1,0.8,2,1.8,2.7,3.1C253.1,106.7,253.4,108.2,253.4,109.9z M250.8,109.9c0-1.3-0.2-2.4-0.6-3.4c-0.4-1-1-1.7-1.7-2.3
			s-1.6-0.8-2.5-0.8c-1,0-1.8,0.3-2.5,0.8c-0.7,0.5-1.3,1.3-1.7,2.3c-0.4,1-0.6,2.1-0.6,3.4c0,1.3,0.2,2.4,0.6,3.3
			c0.4,1,1,1.7,1.7,2.2c0.7,0.5,1.6,0.8,2.5,0.8c0.9,0,1.8-0.3,2.5-0.8s1.3-1.3,1.7-2.2C250.6,112.3,250.8,111.2,250.8,109.9z"/>
	</g>
	<polygon class="st7" points="136.2,118.4 121.8,110.1 136.2,101.8 	"/>
	<polygon class="st7" points="308.3,118.4 322.7,110.1 308.3,101.8 	"/>
	<linearGradient id="SVGID_4_" gradientUnits="userSpaceOnUse" x1="335.1169" y1="436.9927" x2="314.9512" y2="416.827">
		<stop  offset="0" style="stop-color:#00DCCC"/>
		<stop  offset="1" style="stop-color:#C7F0B9"/>
	</linearGradient>
	<path style="fill:url(#SVGID_4_);" d="M325.5,441.2L325.5,441.2c-7.6,0-13.8-6.2-13.8-13.8l0,0c0-7.6,6.2-13.8,13.8-13.8l0,0
		c7.6,0,13.8,6.2,13.8,13.8l0,0C339.3,435,333.1,441.2,325.5,441.2z"/>
	<g>
		<path class="st14" d="M369.8,420.1l-5.9,8.2c-0.1,0.2-0.3,0.3-0.5,0.3h-0.1c-0.2,0-0.4-0.1-0.6-0.3l-5.9-8.2v15.2
			c0,0.3-0.3,0.6-0.6,0.6c-0.4,0-0.7-0.3-0.7-0.6v-17.1c0-0.2,0.1-0.4,0.3-0.5c0,0,0,0,0.1-0.1c0.3-0.2,0.7-0.1,0.9,0.2l6.6,9.1
			l6.5-9.1c0.2-0.3,0.6-0.3,0.9-0.2c0.1,0.1,0.1,0.1,0.2,0.2c0.1,0.1,0.1,0.2,0.1,0.3v17.1c0,0.3-0.3,0.6-0.6,0.6
			c-0.4,0-0.6-0.3-0.6-0.6V420.1z"/>
		<path class="st14" d="M376.7,429.5c0-3.6,2.8-6.5,6.3-6.5c3.3,0,6,2.6,6.2,6v0v0.1c0,0.3-0.3,0.6-0.6,0.6h-10.6c0.1,2.8,2.3,5,5,5
			c1.7,0,3.3-0.9,4.2-2.3c0.2-0.3,0.6-0.4,0.8-0.2c0.3,0.2,0.4,0.6,0.2,0.9c-1.1,1.8-3,2.9-5.2,2.9
			C379.5,435.9,376.7,433,376.7,429.5z M378,428.4h9.8c-0.4-2.4-2.5-4.2-4.9-4.2C380.5,424.2,378.5,426,378,428.4z"/>
		<path class="st14" d="M392.8,433.2c0.2-0.3,0.6-0.3,0.9-0.1c0.9,0.7,2.3,1.5,4,1.5c1,0,1.9-0.3,2.5-0.8c0.6-0.4,1-1,1-1.6
			c0-0.6-0.3-1-0.9-1.6c-0.6-0.4-1.5-0.7-2.7-1l-0.1,0c-1.2-0.2-2.2-0.5-2.9-1c-0.8-0.5-1.4-1.3-1.4-2.3c0-1,0.6-1.9,1.4-2.5
			c0.8-0.5,1.8-0.9,3.2-0.9c1.7,0,2.8,0.8,3.9,1.4c0.3,0.2,0.4,0.6,0.2,0.9c-0.2,0.3-0.6,0.4-0.9,0.2c-0.9-0.6-1.9-1.3-3.2-1.3
			c-1.1,0-1.9,0.3-2.5,0.7c-0.5,0.4-0.8,1-0.8,1.5c0,0.5,0.2,0.9,0.7,1.3c0.6,0.4,1.5,0.7,2.6,0.9h0.1c1.2,0.2,2.2,0.6,3.1,1.1
			c0.8,0.6,1.5,1.6,1.5,2.6c0,1.1-0.6,2-1.5,2.6c-0.9,0.7-2,1-3.2,1c-2.1,0-3.7-1-4.8-1.8C392.6,433.8,392.5,433.5,392.8,433.2z"/>
		<path class="st14" d="M405.7,429.5c0-3.6,2.8-6.5,6.3-6.5c3.3,0,6,2.6,6.2,6v0v0.1c0,0.3-0.3,0.6-0.6,0.6H407c0.1,2.8,2.3,5,5,5
			c1.7,0,3.3-0.9,4.2-2.3c0.2-0.3,0.6-0.4,0.8-0.2c0.3,0.2,0.4,0.6,0.2,0.9c-1.1,1.8-3,2.9-5.2,2.9
			C408.5,435.9,405.7,433,405.7,429.5z M407.1,428.4h9.8c-0.4-2.4-2.5-4.2-4.9-4.2C409.6,424.2,407.5,426,407.1,428.4z"/>
		<path class="st14" d="M421.8,433.2c0.2-0.3,0.6-0.3,0.9-0.1c0.9,0.7,2.3,1.5,4,1.5c1,0,1.9-0.3,2.5-0.8c0.6-0.4,1-1,1-1.6
			c0-0.6-0.3-1-0.9-1.6c-0.6-0.4-1.5-0.7-2.7-1l-0.1,0c-1.2-0.2-2.2-0.5-2.9-1c-0.8-0.5-1.4-1.3-1.4-2.3c0-1,0.6-1.9,1.4-2.5
			c0.8-0.5,1.8-0.9,3.2-0.9c1.7,0,2.8,0.8,3.9,1.4c0.3,0.2,0.4,0.6,0.2,0.9s-0.6,0.4-0.9,0.2c-1-0.6-1.9-1.3-3.2-1.3
			c-1.1,0-1.9,0.3-2.5,0.7c-0.5,0.4-0.8,1-0.8,1.5c0,0.5,0.2,0.9,0.7,1.3c0.6,0.4,1.5,0.7,2.6,0.9h0.1c1.2,0.2,2.2,0.6,3.1,1.1
			c0.8,0.6,1.5,1.6,1.5,2.6c0,1.1-0.6,2-1.5,2.6c-0.9,0.7-2,1-3.2,1c-2.1,0-3.7-1-4.8-1.8C421.6,433.8,421.6,433.5,421.8,433.2z"/>
		<path class="st14" d="M448.1,423.6c0,0.3-0.3,0.6-0.6,0.6h-1.7v9.4c0,0.6,0.6,0.9,0.9,0.9s0.7,0.3,0.7,0.7c0,0.3-0.3,0.6-0.7,0.6
			c-1.3,0-2.3-1-2.3-2.2v-9.4h-1.6c-0.6,0-0.6-0.3-0.6-0.6s0-0.6,0.6-0.6h1.6v-4.8c0-0.3,0.3-0.6,0.6-0.6c0.3,0,0.7,0.3,0.7,0.6v4.8
			h1.7C447.8,423,448.1,423.3,448.1,423.6z"/>
		<path class="st14" d="M452.3,423.6c0-0.4,0.3-0.6,0.7-0.6c0.3,0,0.6,0.3,0.6,0.6v2.8c0.1-0.1,0.1-0.2,0.2-0.3
			c1-1.5,2.7-3.2,5.2-3.2c0.3,0,0.6,0.3,0.6,0.6c0,0.3-0.3,0.6-0.6,0.6c-1.7,0-2.8,1-3.7,2.1c-0.9,1.2-1.4,2.5-1.6,3
			c-0.1,0.1-0.1,0.2-0.1,0.2v5.7c0,0.4-0.3,0.6-0.6,0.6c-0.4,0-0.7-0.3-0.7-0.6V423.6z"/>
		<path class="st14" d="M474.1,423.6v11.7c0,0.3-0.3,0.6-0.6,0.6c-0.3,0-0.6-0.3-0.6-0.6v-1.9c-1.1,1.5-2.9,2.6-4.9,2.6
			c-3.4,0-6.1-2.9-6.1-6.5s2.7-6.5,6.1-6.5c2,0,3.7,1,4.9,2.5v-1.9c0-0.4,0.3-0.6,0.6-0.6C473.8,423,474.1,423.2,474.1,423.6z
			 M472.8,429.4c0-2.9-2.2-5.2-4.9-5.2c-2.6,0-4.9,2.3-4.9,5.2s2.2,5.2,4.9,5.2C470.6,434.6,472.8,432.3,472.8,429.4z"/>
		<path class="st14" d="M479.6,429.7v-0.3v-0.3v-11.1c0-0.3,0.3-0.6,0.6-0.6c0.4,0,0.7,0.3,0.7,0.6v7.4c1.1-1.5,2.9-2.5,5-2.5
			c3.5,0,6.3,2.9,6.3,6.5c0,3.5-2.8,6.4-6.3,6.4c-2,0-3.8-1-5-2.5v1.9c0,0.3-0.3,0.6-0.7,0.6c-0.3,0-0.6-0.3-0.6-0.6V429.7z
			 M480.9,429.5c0,2.8,2.2,5.1,5,5.1c2.7,0,5-2.3,5-5.1c0-2.9-2.2-5.2-5-5.2c-2.7,0-4.9,2.2-5,5V429.5z"/>
		<path class="st14" d="M507.8,423.6v11.7c0,0.3-0.3,0.6-0.6,0.6s-0.6-0.3-0.6-0.6v-1.9c-1.1,1.5-2.9,2.6-4.9,2.6
			c-3.4,0-6.1-2.9-6.1-6.5s2.7-6.5,6.1-6.5c2,0,3.7,1,4.9,2.5v-1.9c0-0.4,0.3-0.6,0.6-0.6S507.8,423.2,507.8,423.6z M506.6,429.4
			c0-2.9-2.2-5.2-4.9-5.2c-2.6,0-4.9,2.3-4.9,5.2s2.2,5.2,4.9,5.2C504.4,434.6,506.6,432.3,506.6,429.4z"/>
		<path class="st14" d="M514.5,439.7c0.5,0,1-0.4,1-1v-15.1c0-0.4,0.3-0.7,0.7-0.7s0.6,0.3,0.6,0.7v15.1c0,1.3-1,2.2-2.2,2.2
			c-0.4,0-0.6-0.3-0.6-0.6C513.9,440,514.2,439.7,514.5,439.7z M515.5,419.4c0-0.3,0.3-0.6,0.7-0.6c0.3,0,0.6,0.3,0.6,0.6v0.6
			c0,0.3-0.3,0.7-0.6,0.7c-0.3,0-0.7-0.3-0.7-0.7V419.4z"/>
		<path class="st14" d="M533.4,423.6v11.7c0,0.3-0.3,0.6-0.6,0.6c-0.3,0-0.6-0.3-0.6-0.6v-1.9c-1.1,1.5-2.9,2.6-4.9,2.6
			c-3.4,0-6.1-2.9-6.1-6.5s2.7-6.5,6.1-6.5c2,0,3.7,1,4.9,2.5v-1.9c0-0.4,0.3-0.6,0.6-0.6C533.1,423,533.4,423.2,533.4,423.6z
			 M532.1,429.4c0-2.9-2.2-5.2-4.9-5.2c-2.6,0-4.9,2.3-4.9,5.2s2.2,5.2,4.9,5.2C529.9,434.6,532.1,432.3,532.1,429.4z"/>
		<path class="st14" d="M549.2,433.4c-1.1,1.5-2.9,2.5-5,2.5c-3.5,0-6.3-2.9-6.3-6.4c0-3.6,2.8-6.5,6.3-6.5c2,0,3.8,1,5,2.5v-7.4
			c0-0.3,0.3-0.6,0.7-0.6c0.3,0,0.6,0.3,0.6,0.6v11.1v0.3v5.8c0,0.3-0.3,0.6-0.6,0.6c-0.4,0-0.7-0.3-0.7-0.6V433.4z M549.2,429.7
			v-0.4c-0.1-2.8-2.3-5-5-5c-2.7,0-5,2.3-5,5.2c0,2.8,2.2,5.1,5,5.1C546.9,434.6,549.1,432.4,549.2,429.7z"/>
		<path class="st14" d="M561.8,423c3.4,0,6.1,3,6.1,6.5s-2.7,6.5-6.1,6.5c-3.4,0-6.1-3-6.1-6.5S558.4,423,561.8,423z M561.8,434.6
			c2.6,0,4.9-2.3,4.9-5.2s-2.2-5.2-4.9-5.2s-4.9,2.3-4.9,5.2S559.2,434.6,561.8,434.6z"/>
		<path class="st14" d="M571.9,433.2c0.2-0.3,0.6-0.3,0.9-0.1c0.9,0.7,2.3,1.5,4,1.5c1,0,1.9-0.3,2.5-0.8c0.6-0.4,1-1,1-1.6
			c0-0.6-0.3-1-0.9-1.6c-0.6-0.4-1.5-0.7-2.7-1l-0.1,0c-1.2-0.2-2.2-0.5-2.9-1c-0.8-0.5-1.4-1.3-1.4-2.3c0-1,0.6-1.9,1.4-2.5
			c0.8-0.5,1.8-0.9,3.2-0.9c1.7,0,2.8,0.8,3.9,1.4c0.3,0.2,0.4,0.6,0.2,0.9c-0.2,0.3-0.6,0.4-0.9,0.2c-1-0.6-1.9-1.3-3.2-1.3
			c-1.1,0-1.9,0.3-2.5,0.7c-0.5,0.4-0.8,1-0.8,1.5c0,0.5,0.2,0.9,0.7,1.3c0.6,0.4,1.5,0.7,2.6,0.9h0.1c1.2,0.2,2.2,0.6,3.1,1.1
			c0.8,0.6,1.5,1.6,1.5,2.6c0,1.1-0.6,2-1.5,2.6c-0.9,0.7-2,1-3.2,1c-2.1,0-3.7-1-4.8-1.8C571.7,433.8,571.7,433.5,571.9,433.2z"/>
	</g>
	<g>
		<g>
			<g>
				<path class="st14" d="M51.6,183.2v2.4H37.4v-21h14v2.4H40v6.8h9.8v2.2H40v7.2H51.6z"/>
				<path class="st14" d="M57.9,169.5v16.1h-2.7v-21h2.2L70.3,181v-16.4H73v20.9h-2.4L57.9,169.5z"/>
				<path class="st14" d="M77.4,185.5v-3.3h2.2v3.3H77.4z"/>
			</g>
		</g>
		<g>
			<g>
				<path class="st14" d="M174.6,185.5v-21h13.9v2.4h-11.2v7h9.4v2.2h-9.4v9.4H174.6z"/>
				<path class="st14" d="M206,183.2v2.4h-14.2v-21h14v2.4h-11.3v6.8h9.8v2.2h-9.8v7.2H206z"/>
				<path class="st14" d="M225.8,180.1c0,1.1-0.3,2-0.8,2.8c-0.6,0.8-1.3,1.4-2.2,1.9c-0.9,0.5-2,0.7-3.1,0.7h-10v-21h10.4
					c1,0,1.8,0.3,2.6,0.8c0.7,0.5,1.3,1.2,1.7,2s0.6,1.7,0.6,2.6c0,1-0.3,2-0.8,2.9c-0.5,0.9-1.3,1.6-2.2,2c1.2,0.4,2.2,1,2.8,2
					C225.4,177.7,225.8,178.8,225.8,180.1z M212.3,166.9v7h6.7c0.6,0,1.2-0.2,1.7-0.5c0.5-0.3,0.9-0.7,1.2-1.3
					c0.3-0.5,0.4-1.1,0.4-1.7c0-0.7-0.1-1.3-0.4-1.8c-0.3-0.5-0.6-0.9-1.1-1.3c-0.5-0.3-1-0.5-1.6-0.5H212.3z M223.1,179.7
					c0-0.6-0.1-1.2-0.4-1.8c-0.3-0.6-0.7-1-1.2-1.3s-1-0.5-1.7-0.5h-7.5v7.2h7.3c0.6,0,1.2-0.2,1.8-0.5c0.5-0.3,0.9-0.8,1.2-1.3
					C222.9,180.9,223.1,180.3,223.1,179.7z"/>
				<path class="st14" d="M229.5,185.5v-21h9c0.9,0,1.8,0.2,2.5,0.6c0.8,0.4,1.4,0.9,2,1.5c0.6,0.6,1,1.4,1.3,2.2
					c0.3,0.8,0.5,1.6,0.5,2.4c0,1-0.2,1.9-0.5,2.7c-0.4,0.9-0.9,1.6-1.5,2.2s-1.4,1-2.3,1.3l5.1,8h-3l-4.8-7.5h-5.6v7.5H229.5z
					 M232.1,175.6h6.4c0.7,0,1.4-0.2,1.9-0.6c0.5-0.4,1-0.9,1.3-1.6c0.3-0.7,0.5-1.4,0.5-2.2c0-0.8-0.2-1.5-0.5-2.2
					c-0.4-0.7-0.8-1.2-1.4-1.6c-0.6-0.4-1.2-0.6-1.9-0.6h-6.2V175.6z"/>
				<path class="st14" d="M248.3,185.5v-3.3h2.2v3.3H248.3z"/>
			</g>
		</g>
		<g>
			<g>
				<path class="st14" d="M353.6,185.5v-16l-6.9,12.3h-1.6l-6.9-12.3v16h-2.7v-21h2.8l7.6,13.6l7.6-13.6h2.8v21H353.6z"/>
				<path class="st14" d="M359.7,183.5l13.5-16.5H360v-2.4h16.4v2.1l-13.3,16.5h13.3v2.4h-16.6V183.5z"/>
				<path class="st14" d="M388,185.7c-1.5,0-2.8-0.3-4-0.9c-1.2-0.6-2.2-1.4-3.1-2.4c-0.9-1-1.6-2.2-2-3.4c-0.5-1.3-0.7-2.6-0.7-3.9
					c0-1.4,0.3-2.7,0.8-4c0.5-1.3,1.2-2.4,2.1-3.4c0.9-1,1.9-1.8,3.1-2.4s2.5-0.9,3.9-0.9c1.5,0,2.8,0.3,4,0.9s2.2,1.4,3.1,2.5
					c0.9,1,1.5,2.2,2,3.4s0.7,2.5,0.7,3.9c0,1.4-0.2,2.7-0.7,4c-0.5,1.3-1.2,2.4-2.1,3.4c-0.9,1-1.9,1.8-3.1,2.3
					C390.7,185.4,389.4,185.7,388,185.7z M380.8,175c0,1.1,0.2,2.1,0.5,3.1c0.3,1,0.8,1.9,1.5,2.6c0.6,0.8,1.4,1.4,2.3,1.8
					c0.9,0.5,1.9,0.7,3,0.7c1.1,0,2.1-0.2,3-0.7s1.6-1.1,2.3-1.9c0.6-0.8,1.1-1.7,1.4-2.7c0.3-1,0.5-2,0.5-3c0-1.1-0.2-2.1-0.5-3.1
					c-0.3-1-0.8-1.9-1.5-2.6c-0.6-0.8-1.4-1.4-2.3-1.8c-0.9-0.4-1.8-0.7-2.9-0.7c-1.1,0-2.1,0.2-3,0.7c-0.9,0.5-1.6,1.1-2.3,1.9
					c-0.6,0.8-1.1,1.7-1.4,2.6S380.8,174,380.8,175z"/>
				<path class="st14" d="M400.6,185.5v-3.3h2.2v3.3H400.6z"/>
			</g>
		</g>
	</g>
	<g>
		<g>
			<g>
				<path class="st14" d="M42.3,220.9h2.2l8.6,21h-2.8l-2.4-6.1h-9l-2.4,6.1h-2.8L42.3,220.9z M47.1,233.6l-3.7-9.7l-3.7,9.7H47.1z"
					/>
				<path class="st14" d="M72,236.4c0,1.1-0.3,2-0.8,2.8s-1.3,1.4-2.2,1.9c-0.9,0.5-2,0.7-3.1,0.7h-10v-21h10.4c1,0,1.8,0.3,2.6,0.8
					c0.7,0.5,1.3,1.2,1.7,2c0.4,0.8,0.6,1.7,0.6,2.6c0,1-0.3,2-0.8,2.9c-0.5,0.9-1.3,1.6-2.2,2c1.2,0.4,2.2,1,2.9,2
					C71.7,234,72,235.1,72,236.4z M58.6,223.2v7h6.7c0.6,0,1.2-0.2,1.7-0.5c0.5-0.3,0.9-0.7,1.2-1.3c0.3-0.5,0.4-1.1,0.4-1.7
					c0-0.7-0.1-1.3-0.4-1.8c-0.3-0.5-0.6-0.9-1.1-1.3c-0.5-0.3-1-0.5-1.6-0.5H58.6z M69.3,236c0-0.6-0.1-1.2-0.4-1.8
					c-0.3-0.6-0.7-1-1.2-1.3c-0.5-0.3-1-0.5-1.7-0.5h-7.5v7.2h7.3c0.7,0,1.2-0.2,1.8-0.5s0.9-0.8,1.2-1.3
					C69.2,237.2,69.3,236.6,69.3,236z"/>
				<path class="st14" d="M75.7,241.8v-21h9c0.9,0,1.8,0.2,2.5,0.6c0.8,0.4,1.4,0.9,2,1.5c0.6,0.6,1,1.4,1.3,2.2
					c0.3,0.8,0.5,1.6,0.5,2.4c0,1-0.2,1.9-0.5,2.7s-0.9,1.6-1.5,2.2s-1.4,1-2.3,1.3l5.1,8h-3l-4.8-7.5h-5.6v7.5H75.7z M78.4,232h6.3
					c0.7,0,1.4-0.2,1.9-0.6c0.5-0.4,1-0.9,1.3-1.6c0.3-0.7,0.5-1.4,0.5-2.2c0-0.8-0.2-1.5-0.5-2.2c-0.4-0.7-0.8-1.2-1.4-1.6
					c-0.6-0.4-1.2-0.6-1.9-0.6h-6.2V232z"/>
				<path class="st14" d="M94.5,241.8v-3.3h2.2v3.3H94.5z"/>
			</g>
		</g>
		<g>
			<g>
				<path class="st14" d="M203.7,241.8v-16l-6.9,12.3h-1.6l-6.9-12.3v16h-2.7v-21h2.8l7.6,13.6l7.6-13.6h2.8v21H203.7z"/>
				<path class="st14" d="M217.7,220.9h2.2l8.6,21h-2.8l-2.4-6.1h-9l-2.4,6.1h-2.8L217.7,220.9z M222.5,233.6l-3.7-9.7l-3.7,9.7
					H222.5z"/>
				<path class="st14" d="M229.8,220.9l6.4,10.9l6.4-10.9h2.9l-8,13.3v7.6h-2.7v-7.7l-7.9-13.3H229.8z"/>
				<path class="st14" d="M245.3,241.8v-3.3h2.2v3.3H245.3z"/>
			</g>
		</g>
		<g>
			<g>
				<path class="st14" d="M341.8,238.5c0.4,0.3,0.9,0.5,1.6,0.7c0.7,0.2,1.4,0.3,2.3,0.3c0.9,0,1.7-0.2,2.3-0.5
					c0.6-0.3,1-0.8,1.4-1.4c0.3-0.6,0.5-1.4,0.6-2.4c0.1-1,0.2-2.1,0.2-3.4v-11.1h2.7v10.6c0,1.5-0.1,3-0.2,4.2s-0.5,2.4-0.9,3.4
					c-0.5,0.9-1.2,1.7-2.1,2.2c-0.9,0.5-2.2,0.8-3.7,0.8c-1,0-1.9-0.1-2.6-0.3c-0.7-0.2-1.4-0.5-2.1-1L341.8,238.5z"/>
				<path class="st14" d="M366.2,242c-1.7,0-3.1-0.3-4.2-0.9c-1.1-0.6-2.1-1.4-2.7-2.4c-0.7-1-1.2-2.1-1.5-3.4
					c-0.3-1.3-0.5-2.6-0.5-3.9v-10.6h2.7v10.6c0,1,0.1,2,0.3,3s0.5,1.8,1,2.6c0.5,0.8,1.1,1.4,1.9,1.8c0.8,0.5,1.8,0.7,3,0.7
					c1.2,0,2.2-0.2,3-0.7c0.8-0.5,1.4-1.1,1.9-1.9c0.5-0.8,0.8-1.6,1-2.6c0.2-1,0.3-1.9,0.3-3v-10.6h2.7v10.6c0,1.4-0.2,2.8-0.5,4
					c-0.3,1.3-0.8,2.4-1.6,3.4c-0.7,1-1.6,1.7-2.8,2.3C369.2,241.7,367.9,242,366.2,242z"/>
				<path class="st14" d="M382.5,225.8v16.1h-2.7v-21h2.2l12.8,16.4v-16.4h2.7v20.9h-2.4L382.5,225.8z"/>
				<path class="st14" d="M402,241.8v-3.3h2.2v3.3H402z"/>
			</g>
		</g>
	</g>
	<g>
		<g>
			<g>
				<path class="st14" d="M37.4,293.7c0.3,0.2,0.7,0.4,1.4,0.6c0.6,0.2,1.4,0.4,2.3,0.4c0.8,0,1.4-0.1,1.9-0.4
					c0.5-0.3,0.9-0.7,1.1-1.2s0.4-1.2,0.5-2c0.1-0.8,0.1-1.8,0.1-3v-10.9h4.1v10.6c0,1.6-0.1,3-0.3,4.3s-0.5,2.4-1,3.3
					c-0.5,0.9-1.3,1.7-2.3,2.2c-1,0.5-2.4,0.8-4.1,0.8c-0.9,0-1.8-0.1-2.5-0.3c-0.7-0.2-1.4-0.5-2.1-1L37.4,293.7z"/>
				<path class="st14" d="M61.9,298.3c-1.7,0-3.1-0.3-4.3-0.8c-1.2-0.6-2.1-1.3-2.8-2.3c-0.7-1-1.2-2.1-1.6-3.4
					c-0.3-1.2-0.5-2.6-0.5-3.9v-10.7h4.1v10.7c0,0.9,0.1,1.7,0.2,2.5c0.2,0.8,0.4,1.6,0.8,2.2c0.4,0.6,0.9,1.2,1.6,1.5
					c0.6,0.4,1.5,0.6,2.4,0.6c1,0,1.8-0.2,2.5-0.6c0.7-0.4,1.2-0.9,1.6-1.6c0.4-0.6,0.7-1.4,0.8-2.2c0.2-0.8,0.3-1.6,0.3-2.5v-10.7
					h4v10.7c0,1.4-0.2,2.8-0.5,4c-0.3,1.3-0.9,2.4-1.6,3.3s-1.7,1.7-2.8,2.2C64.9,298,63.5,298.3,61.9,298.3z"/>
				<path class="st14" d="M75.1,298.2v-21h4.1v17.4h10.7v3.6H75.1z"/>
				<path class="st14" d="M91.9,298.2v-4.3h3.2v4.3H91.9z"/>
			</g>
		</g>
		<g>
			<g>
				<path class="st14" d="M199,277.2h4.1l7.7,21h-4.2l-1.7-5.2h-7.7l-1.8,5.2h-4.2L199,277.2z M203.9,290.1l-2.9-8.7l-2.9,8.7H203.9
					z"/>
				<path class="st14" d="M221.1,298.3c-1.4,0-2.6-0.3-3.9-0.8c-1.2-0.6-2.3-1.3-3.2-2.3c-0.9-1-1.6-2.1-2.1-3.4
					c-0.5-1.3-0.8-2.7-0.8-4.2c0-1.4,0.3-2.8,0.8-4.1c0.5-1.3,1.2-2.4,2.2-3.4s2-1.7,3.2-2.3c1.2-0.6,2.6-0.8,4-0.8
					c2,0,3.7,0.4,5.1,1.3c1.4,0.8,2.5,1.9,3.2,3.3l-3,2.2c-0.5-1-1.3-1.8-2.2-2.4c-1-0.6-2-0.8-3.1-0.8c-0.9,0-1.7,0.2-2.4,0.6
					c-0.7,0.4-1.4,0.9-1.9,1.5c-0.5,0.6-0.9,1.4-1.2,2.2c-0.3,0.8-0.4,1.7-0.4,2.7c0,1,0.2,1.9,0.5,2.8c0.3,0.8,0.7,1.6,1.3,2.2
					c0.6,0.6,1.2,1.1,2,1.5c0.7,0.4,1.6,0.5,2.5,0.5c1.1,0,2.1-0.3,3.1-0.8c1-0.6,1.9-1.4,2.7-2.4v4
					C225.4,297.4,223.4,298.3,221.1,298.3z M226.9,290.4h-4.2v-3h7.6v10.8h-3.4V290.4z"/>
				<path class="st14" d="M233.3,298.2v-4.3h3.2v4.3H233.3z"/>
			</g>
		</g>
		<g>
			<g>
				<path class="st14" d="M339.8,282.7c-0.1-0.1-0.4-0.3-0.8-0.6c-0.4-0.2-0.8-0.5-1.3-0.7c-0.5-0.2-1.1-0.4-1.7-0.6
					c-0.6-0.2-1.2-0.3-1.9-0.3c-1.1,0-1.9,0.2-2.5,0.6c-0.6,0.4-0.8,1-0.8,1.7c0,0.6,0.2,1,0.5,1.4s0.9,0.6,1.6,0.9
					c0.7,0.2,1.6,0.5,2.7,0.8c1.4,0.3,2.6,0.7,3.6,1.2c1,0.5,1.8,1.1,2.3,1.9c0.5,0.8,0.8,1.8,0.8,3.1c0,1.1-0.2,2.1-0.6,2.9
					c-0.4,0.8-1,1.4-1.7,1.9c-0.7,0.5-1.6,0.8-2.5,1.1c-0.9,0.2-1.9,0.3-3,0.3c-1,0-2.1-0.1-3.1-0.3c-1-0.2-2-0.5-3-0.9
					s-1.9-0.9-2.7-1.5l1.8-3.5c0.2,0.2,0.5,0.4,0.9,0.7c0.5,0.3,1,0.6,1.7,0.9c0.7,0.3,1.4,0.5,2.1,0.7c0.8,0.2,1.5,0.3,2.3,0.3
					c1.1,0,1.9-0.2,2.5-0.6c0.6-0.4,0.9-0.9,0.9-1.6c0-0.6-0.2-1.1-0.7-1.5c-0.5-0.4-1.1-0.7-1.9-0.9c-0.8-0.3-1.8-0.6-2.9-0.9
					c-1.3-0.4-2.4-0.8-3.3-1.2c-0.9-0.5-1.5-1-2-1.8s-0.6-1.6-0.6-2.6c0-1.4,0.3-2.6,1-3.6c0.7-1,1.6-1.7,2.8-2.2s2.5-0.8,3.9-0.8
					c1,0,1.9,0.1,2.8,0.3c0.9,0.2,1.7,0.5,2.5,0.9c0.8,0.4,1.5,0.7,2.1,1.2L339.8,282.7z"/>
				<path class="st14" d="M360,294.6v3.6h-14.6v-21h14.3v3.6h-10.2v5.1h8.8v3.3h-8.8v5.5H360z"/>
				<path class="st14" d="M363.2,298.2v-21h8.9c1,0,1.9,0.2,2.7,0.6c0.8,0.4,1.5,0.9,2.1,1.6s1.1,1.4,1.4,2.2
					c0.3,0.8,0.5,1.7,0.5,2.5c0,1.2-0.3,2.3-0.8,3.4s-1.3,1.9-2.3,2.6c-1,0.7-2.1,1-3.4,1h-5v7H363.2z M367.2,287.6h4.7
					c0.5,0,0.9-0.1,1.3-0.4c0.4-0.3,0.7-0.7,0.9-1.2c0.2-0.5,0.4-1.1,0.4-1.8c0-0.7-0.1-1.3-0.4-1.9c-0.3-0.5-0.6-0.9-1-1.2
					c-0.4-0.3-0.9-0.4-1.4-0.4h-4.5V287.6z"/>
				<path class="st14" d="M397.2,280.8h-6.7v17.4h-4v-17.4h-6.7v-3.6h17.5V280.8z"/>
				<path class="st14" d="M397.5,298.2v-4.3h3.2v4.3H397.5z"/>
			</g>
		</g>
	</g>
	<line class="st9" x1="14.2" y1="143.5" x2="425.3" y2="143.5"/>
	<line class="st9" x1="14.2" y1="203.7" x2="425.3" y2="203.7"/>
	<line class="st9" x1="14.2" y1="259.2" x2="425.3" y2="259.2"/>
	<line class="st9" x1="14.2" y1="315.9" x2="425.3" y2="315.9"/>
	<line class="st9" x1="147" y1="378.6" x2="147" y2="143.5"/>
	<line class="st9" x1="293.5" y1="378.6" x2="293.5" y2="143.5"/>
	<linearGradient id="SVGID_6_" gradientUnits="userSpaceOnUse" x1="415.6149" y1="373.0994" x2="25.3432" y2="314.2916">
		<stop  offset="0" style="stop-color:#00DCCC"/>
		<stop  offset="1" style="stop-color:#C7F0B9"/>
	</linearGradient>
	<path style="fill:url(#SVGID_6_);" d="M409.6,359.6H30.8c-8.8,0-16-7.2-16-16l0,0c0-8.8,7.2-16,16-16h378.8c8.8,0,16,7.2,16,16l0,0
		C425.6,352.5,418.5,359.6,409.6,359.6z"/>
	<g>
		<g>
			<g>
				<path class="st14" d="M47.9,354.6c-1.5,0-2.9-0.3-4.2-0.9s-2.3-1.4-3.2-2.4c-0.9-1-1.6-2.2-2.1-3.4c-0.5-1.3-0.7-2.6-0.7-3.9
					c0-1.4,0.3-2.7,0.8-4c0.5-1.3,1.2-2.4,2.2-3.4c0.9-1,2-1.8,3.2-2.4c1.2-0.6,2.6-0.9,4.1-0.9c1.5,0,2.9,0.3,4.2,0.9
					s2.3,1.4,3.2,2.5c0.9,1,1.6,2.2,2.1,3.4s0.7,2.6,0.7,3.9c0,1.4-0.3,2.7-0.8,4c-0.5,1.3-1.2,2.4-2.1,3.4c-0.9,1-2,1.8-3.2,2.3
					C50.8,354.3,49.4,354.6,47.9,354.6z M41.8,344c0,0.9,0.1,1.8,0.4,2.6s0.7,1.6,1.2,2.3s1.2,1.2,1.9,1.6s1.6,0.6,2.6,0.6
					c1,0,1.9-0.2,2.6-0.6c0.8-0.4,1.4-0.9,1.9-1.6s0.9-1.4,1.2-2.3s0.4-1.7,0.4-2.5c0-0.9-0.1-1.8-0.4-2.6s-0.7-1.6-1.2-2.2
					c-0.5-0.7-1.2-1.2-1.9-1.6s-1.6-0.6-2.6-0.6c-1,0-1.9,0.2-2.6,0.6c-0.8,0.4-1.4,0.9-1.9,1.6c-0.5,0.7-0.9,1.4-1.2,2.2
					C42,342.3,41.8,343.1,41.8,344z"/>
				<path class="st14" d="M60,343.8c0-1.3,0.2-2.5,0.7-3.8c0.5-1.2,1.1-2.4,2-3.4c0.9-1,2-1.8,3.2-2.4c1.3-0.6,2.7-0.9,4.4-0.9
					c1.9,0,3.6,0.4,5,1.3c1.4,0.8,2.5,1.9,3.1,3.3l-3.1,2.2c-0.4-0.8-0.8-1.4-1.4-1.9c-0.6-0.5-1.2-0.8-1.8-1
					c-0.6-0.2-1.3-0.3-1.9-0.3c-1,0-1.9,0.2-2.7,0.6c-0.8,0.4-1.4,1-1.9,1.6c-0.5,0.7-0.9,1.4-1.1,2.2c-0.2,0.8-0.4,1.7-0.4,2.5
					c0,0.9,0.1,1.8,0.4,2.7s0.7,1.6,1.3,2.3c0.5,0.7,1.2,1.2,1.9,1.6c0.8,0.4,1.6,0.6,2.5,0.6c0.6,0,1.3-0.1,2-0.3
					c0.7-0.2,1.3-0.6,1.9-1c0.6-0.5,1-1.1,1.3-1.8l3.3,1.9c-0.4,1-1.1,1.9-2,2.7c-0.9,0.7-2,1.3-3.1,1.7s-2.3,0.6-3.5,0.6
					c-1.5,0-2.9-0.3-4.1-0.9c-1.2-0.6-2.3-1.4-3.2-2.5c-0.9-1-1.6-2.2-2.1-3.5C60.3,346.4,60,345.1,60,343.8z"/>
				<path class="st14" d="M97.2,337.1h-6.7v17.4h-4v-17.4h-6.7v-3.6h17.5V337.1z"/>
				<path class="st14" d="M97.5,354.5v-4.3h3.2v4.3H97.5z"/>
			</g>
		</g>
		<g>
			<g>
				<path class="st14" d="M192.8,341v13.5h-4.1v-21h3.2l10.8,13.8v-13.8h4.1v20.9h-3.4L192.8,341z"/>
				<path class="st14" d="M220.2,354.6c-1.5,0-2.9-0.3-4.2-0.9s-2.3-1.4-3.2-2.4c-0.9-1-1.6-2.2-2.1-3.4c-0.5-1.3-0.7-2.6-0.7-3.9
					c0-1.4,0.3-2.7,0.8-4c0.5-1.3,1.2-2.4,2.2-3.4c0.9-1,2-1.8,3.2-2.4c1.2-0.6,2.6-0.9,4.1-0.9c1.5,0,2.9,0.3,4.2,0.9
					s2.3,1.4,3.2,2.5c0.9,1,1.6,2.2,2.1,3.4s0.7,2.6,0.7,3.9c0,1.4-0.3,2.7-0.8,4c-0.5,1.3-1.2,2.4-2.1,3.4c-0.9,1-2,1.8-3.2,2.3
					C223.1,354.3,221.7,354.6,220.2,354.6z M214.2,344c0,0.9,0.1,1.8,0.4,2.6s0.7,1.6,1.2,2.3s1.2,1.2,1.9,1.6s1.6,0.6,2.6,0.6
					c1,0,1.9-0.2,2.6-0.6c0.8-0.4,1.4-0.9,1.9-1.6s0.9-1.4,1.2-2.3s0.4-1.7,0.4-2.5c0-0.9-0.1-1.8-0.4-2.6s-0.7-1.6-1.2-2.2
					c-0.5-0.7-1.2-1.2-1.9-1.6s-1.6-0.6-2.6-0.6c-1,0-1.9,0.2-2.6,0.6c-0.8,0.4-1.4,0.9-1.9,1.6c-0.5,0.7-0.9,1.4-1.2,2.2
					C214.3,342.3,214.2,343.1,214.2,344z"/>
				<path class="st14" d="M235,333.5l5.7,16.1l5.6-16.1h4.3l-7.9,21h-3.9l-8-21H235z"/>
				<path class="st14" d="M250.4,354.5v-4.3h3.2v4.3H250.4z"/>
			</g>
		</g>
		<g>
			<g>
				<path class="st14" d="M347.1,354.5v-21h7.6c2.3,0,4.2,0.5,5.7,1.4c1.5,0.9,2.7,2.2,3.5,3.8s1.2,3.3,1.2,5.3c0,2.1-0.4,4-1.3,5.6
					c-0.8,1.6-2,2.8-3.6,3.7c-1.5,0.9-3.4,1.3-5.5,1.3H347.1z M360.9,344c0-1.4-0.2-2.6-0.7-3.6c-0.5-1-1.2-1.8-2.1-2.4
					c-0.9-0.6-2-0.9-3.4-0.9h-3.5v13.8h3.5c1.3,0,2.5-0.3,3.4-0.9c0.9-0.6,1.6-1.4,2.1-2.5C360.7,346.5,360.9,345.3,360.9,344z"/>
				<path class="st14" d="M368.2,354.5v-21h4.1v21H368.2z"/>
				<path class="st14" d="M375.4,343.8c0-1.3,0.2-2.5,0.7-3.8s1.1-2.4,2-3.4c0.9-1,2-1.8,3.2-2.4s2.7-0.9,4.4-0.9
					c1.9,0,3.6,0.4,5,1.3c1.4,0.8,2.5,1.9,3.1,3.3l-3.1,2.2c-0.4-0.8-0.8-1.4-1.4-1.9s-1.2-0.8-1.8-1c-0.7-0.2-1.3-0.3-1.9-0.3
					c-1,0-1.9,0.2-2.7,0.6c-0.8,0.4-1.4,1-1.9,1.6c-0.5,0.7-0.9,1.4-1.1,2.2c-0.2,0.8-0.4,1.7-0.4,2.5c0,0.9,0.1,1.8,0.4,2.7
					c0.3,0.9,0.7,1.6,1.3,2.3c0.5,0.7,1.2,1.2,1.9,1.6c0.8,0.4,1.6,0.6,2.5,0.6c0.7,0,1.3-0.1,2-0.3c0.7-0.2,1.3-0.6,1.9-1
					s1-1.1,1.3-1.8l3.3,1.9c-0.4,1-1.1,1.9-2,2.7c-0.9,0.7-2,1.3-3.1,1.7s-2.3,0.6-3.5,0.6c-1.5,0-2.9-0.3-4.1-0.9
					c-1.2-0.6-2.3-1.4-3.2-2.5s-1.6-2.2-2.1-3.5C375.6,346.4,375.4,345.1,375.4,343.8z"/>
				<path class="st14" d="M396.4,354.5v-4.3h3.2v4.3H396.4z"/>
			</g>
		</g>
	</g>
	<path class="st0" d="M890.3,397.5H461.5c-2.9,0-5.3-2.4-5.3-5.3V79.1c0-2.9,2.4-5.3,5.3-5.3h428.8c2.9,0,5.3,2.4,5.3,5.3v313.1
		C895.7,395.1,893.3,397.5,890.3,397.5z"/>
	<linearGradient id="SVGID_8_" gradientUnits="userSpaceOnUse" x1="577.6884" y1="239.7146" x2="467.77" y2="223.1516">
		<stop  offset="0" style="stop-color:#00DCCC"/>
		<stop  offset="1" style="stop-color:#C7F0B9"/>
	</linearGradient>
	<path style="fill:url(#SVGID_8_);" d="M564.4,247.4h-83.5c-8.8,0-16-7.2-16-16l0,0c0-8.8,7.2-16,16-16h83.5c8.8,0,16,7.2,16,16l0,0
		C580.4,240.2,573.2,247.4,564.4,247.4z"/>
	<g>
		<path class="st14" d="M645.6,118.4c0-0.8,0.1-1.5,0.2-2.2c0.1-0.7,0.4-1.4,0.7-2c0.3-0.6,0.8-1.3,1.5-1.8c0.6-0.6,1.4-1.2,2.5-1.7
			c0.6-0.3,1.2-0.7,1.8-1s1.2-0.6,1.7-1c0.5-0.3,0.9-0.7,1.3-1.1c0.3-0.4,0.5-0.9,0.5-1.4c0-0.5-0.1-0.9-0.4-1.3s-0.7-0.8-1.2-1.1
			s-1.2-0.4-1.9-0.4c-0.6,0-1.1,0.1-1.6,0.2c-0.5,0.2-0.9,0.4-1.3,0.6c-0.4,0.2-0.7,0.5-1,0.8c-0.3,0.3-0.5,0.5-0.7,0.7l-1.6-1.8
			c0.2-0.2,0.4-0.4,0.8-0.7s0.8-0.6,1.4-0.9c0.6-0.3,1.2-0.6,2-0.8c0.8-0.2,1.6-0.3,2.5-0.3c1.2,0,2.3,0.2,3.1,0.6
			c0.9,0.4,1.6,1,2,1.7c0.5,0.7,0.7,1.5,0.7,2.4c0,0.8-0.2,1.5-0.5,2c-0.3,0.6-0.7,1.1-1.2,1.5s-1,0.8-1.6,1.1
			c-0.5,0.3-1,0.6-1.5,0.8c-0.9,0.4-1.6,0.8-2.3,1.2c-0.6,0.4-1.1,0.7-1.5,1.1c-0.4,0.3-0.7,0.7-1,1.1c-0.2,0.4-0.4,0.8-0.5,1.3
			h10.4v2.4H645.6z"/>
		<path class="st14" d="M676.7,109.9c0,1.7-0.3,3.2-1,4.6c-0.7,1.3-1.5,2.4-2.7,3.1c-1.1,0.8-2.4,1.1-3.8,1.1
			c-1.4,0-2.7-0.4-3.8-1.1c-1.1-0.8-2-1.8-2.7-3.1c-0.6-1.3-1-2.8-1-4.6s0.3-3.2,1-4.6c0.7-1.3,1.5-2.4,2.7-3.1
			c1.1-0.8,2.4-1.1,3.8-1.1c1.4,0,2.7,0.4,3.8,1.1c1.1,0.8,2,1.8,2.7,3.1C676.4,106.7,676.7,108.2,676.7,109.9z M674.1,109.9
			c0-1.3-0.2-2.4-0.6-3.4c-0.4-1-1-1.7-1.7-2.3c-0.7-0.5-1.6-0.8-2.5-0.8c-1,0-1.8,0.3-2.5,0.8s-1.3,1.3-1.7,2.3
			c-0.4,1-0.6,2.1-0.6,3.4c0,1.3,0.2,2.4,0.6,3.3c0.4,1,1,1.7,1.7,2.2s1.6,0.8,2.5,0.8c0.9,0,1.8-0.3,2.5-0.8
			c0.7-0.5,1.3-1.3,1.7-2.2C673.9,112.3,674.1,111.2,674.1,109.9z"/>
		<path class="st14" d="M679.6,118.4c0-0.8,0.1-1.5,0.2-2.2c0.1-0.7,0.4-1.4,0.7-2c0.3-0.6,0.8-1.3,1.5-1.8c0.6-0.6,1.4-1.2,2.5-1.7
			c0.6-0.3,1.2-0.7,1.8-1s1.2-0.6,1.7-1c0.5-0.3,0.9-0.7,1.3-1.1c0.3-0.4,0.5-0.9,0.5-1.4c0-0.5-0.1-0.9-0.4-1.3s-0.7-0.8-1.2-1.1
			s-1.2-0.4-1.9-0.4c-0.6,0-1.1,0.1-1.6,0.2c-0.5,0.2-0.9,0.4-1.3,0.6c-0.4,0.2-0.7,0.5-1,0.8c-0.3,0.3-0.5,0.5-0.7,0.7l-1.6-1.8
			c0.2-0.2,0.4-0.4,0.8-0.7s0.8-0.6,1.4-0.9c0.6-0.3,1.2-0.6,2-0.8c0.8-0.2,1.6-0.3,2.5-0.3c1.2,0,2.3,0.2,3.1,0.6
			c0.9,0.4,1.6,1,2,1.7c0.5,0.7,0.7,1.5,0.7,2.4c0,0.8-0.2,1.5-0.5,2c-0.3,0.6-0.7,1.1-1.2,1.5s-1,0.8-1.6,1.1
			c-0.5,0.3-1,0.6-1.5,0.8c-0.9,0.4-1.6,0.8-2.3,1.2c-0.6,0.4-1.1,0.7-1.5,1.1c-0.4,0.3-0.7,0.7-1,1.1c-0.2,0.4-0.4,0.8-0.5,1.3
			h10.4v2.4H679.6z"/>
		<path class="st14" d="M706.7,116.1v2.4h-10.6v-2.4h4.2v-11.5c-0.2,0.2-0.5,0.5-0.8,0.8c-0.4,0.3-0.8,0.5-1.3,0.8s-0.9,0.4-1.4,0.6
			c-0.5,0.1-0.9,0.2-1.3,0.2v-2.5c0.4,0,0.9-0.1,1.4-0.4s1-0.5,1.5-0.9c0.5-0.3,0.9-0.7,1.3-0.9c0.3-0.3,0.5-0.5,0.6-0.6h2.7v14.5
			H706.7z"/>
	</g>
	<polygon class="st7" points="589.8,118.4 575.4,110.1 589.8,101.8 	"/>
	<polygon class="st7" points="761.9,118.4 776.4,110.1 761.9,101.8 	"/>
	<g>
		<g>
			<g>
				<path class="st14" d="M496.4,220.9h4.1l7.7,21h-4.2l-1.7-5.2h-7.7l-1.8,5.2h-4.2L496.4,220.9z M501.4,233.8l-2.9-8.7l-2.9,8.7
					H501.4z"/>
				<path class="st14" d="M527.5,236.4c0,1.2-0.3,2.2-0.9,3c-0.6,0.8-1.4,1.4-2.5,1.8c-1,0.4-2.2,0.6-3.4,0.6h-10.1v-21h11.2
					c1,0,1.8,0.3,2.6,0.8c0.7,0.5,1.3,1.2,1.7,2c0.4,0.8,0.6,1.7,0.6,2.6c0,1-0.3,2-0.8,2.9c-0.5,0.9-1.3,1.6-2.2,2
					c1.2,0.4,2.2,1,2.9,1.9C527.1,233.9,527.5,235.1,527.5,236.4z M514.7,224.4v5.3h5.4c0.5,0,0.9-0.1,1.2-0.3s0.7-0.5,0.9-0.9
					c0.2-0.4,0.3-0.9,0.3-1.4c0-0.5-0.1-1-0.3-1.4c-0.2-0.4-0.5-0.7-0.8-0.9c-0.3-0.2-0.7-0.3-1.2-0.3H514.7z M523.4,235.7
					c0-0.5-0.1-1-0.3-1.4c-0.2-0.4-0.5-0.8-0.9-1s-0.8-0.4-1.3-0.4h-6.3v5.5h6.1c0.5,0,0.9-0.1,1.3-0.4c0.4-0.2,0.7-0.6,1-1
					C523.3,236.6,523.4,236.2,523.4,235.7z"/>
				<path class="st14" d="M530.7,241.8v-21h9.3c1,0,1.9,0.2,2.7,0.6c0.8,0.4,1.5,0.9,2.1,1.6s1.1,1.4,1.4,2.2
					c0.3,0.8,0.5,1.7,0.5,2.5c0,0.9-0.2,1.7-0.5,2.6c-0.3,0.8-0.7,1.5-1.3,2.1s-1.2,1.1-2,1.4l4.8,7.9h-4.5l-4.3-7h-4.1v7H530.7z
					 M534.7,231.2h5.1c0.5,0,1-0.2,1.4-0.5c0.4-0.3,0.7-0.7,0.9-1.2c0.2-0.5,0.4-1.1,0.4-1.7c0-0.7-0.1-1.3-0.4-1.8
					c-0.3-0.5-0.6-0.9-1-1.2c-0.4-0.3-0.9-0.4-1.4-0.4h-4.9V231.2z"/>
				<path class="st14" d="M549.8,241.8v-4.3h3.2v4.3H549.8z"/>
			</g>
		</g>
		<g>
			<g>
				<path class="st14" d="M657.8,241.8v-13.8l-5.4,10.2h-2.3l-5.4-10.2v13.8h-4.1v-21h4.4l6.2,11.9l6.3-11.9h4.3v21H657.8z"/>
				<path class="st14" d="M672,220.9h4.1l7.7,21h-4.2l-1.7-5.2h-7.7l-1.8,5.2h-4.2L672,220.9z M676.9,233.8l-2.9-8.7l-2.9,8.7H676.9
					z"/>
				<path class="st14" d="M686.3,220.9l5.2,9.9l5.3-9.9h4.4l-7.6,13.6v7.3h-4v-7.4l-7.6-13.6H686.3z"/>
				<path class="st14" d="M700.6,241.8v-4.3h3.2v4.3H700.6z"/>
			</g>
		</g>
		<g>
			<g>
				<path class="st14" d="M797.5,237.4c0.3,0.2,0.7,0.4,1.4,0.6c0.7,0.2,1.4,0.4,2.3,0.4c0.8,0,1.4-0.1,1.9-0.4
					c0.5-0.3,0.9-0.7,1.1-1.2c0.3-0.5,0.4-1.2,0.5-2s0.1-1.8,0.1-3v-10.9h4.1v10.6c0,1.6-0.1,3-0.3,4.3c-0.2,1.3-0.5,2.4-1,3.3
					c-0.5,0.9-1.3,1.7-2.3,2.2c-1,0.5-2.4,0.8-4.1,0.8c-0.9,0-1.8-0.1-2.5-0.3c-0.7-0.2-1.4-0.5-2.1-1L797.5,237.4z"/>
				<path class="st14" d="M822,242c-1.7,0-3.1-0.3-4.3-0.8c-1.2-0.6-2.1-1.3-2.8-2.3c-0.7-1-1.2-2.1-1.6-3.4
					c-0.3-1.2-0.5-2.6-0.5-3.9v-10.7h4.1v10.7c0,0.9,0.1,1.7,0.3,2.5c0.2,0.8,0.4,1.6,0.8,2.2s0.9,1.2,1.6,1.5
					c0.7,0.4,1.5,0.6,2.4,0.6c1,0,1.8-0.2,2.5-0.6c0.7-0.4,1.2-0.9,1.6-1.6c0.4-0.6,0.7-1.4,0.8-2.2c0.2-0.8,0.3-1.6,0.3-2.5v-10.7
					h4v10.7c0,1.4-0.2,2.8-0.5,4c-0.3,1.3-0.9,2.4-1.6,3.3c-0.7,1-1.7,1.7-2.8,2.2C825,241.7,823.6,242,822,242z"/>
				<path class="st14" d="M839.3,228.4v13.5h-4.1v-21h3.2l10.8,13.8v-13.8h4.1v20.9H850L839.3,228.4z"/>
				<path class="st14" d="M857.3,241.8v-4.3h3.2v4.3H857.3z"/>
			</g>
		</g>
	</g>
	<g>
		<g>
			<g>
				<path class="st14" d="M494.2,294.9c0.4,0.3,0.9,0.5,1.5,0.7c0.7,0.2,1.4,0.3,2.3,0.3c0.9,0,1.7-0.2,2.3-0.5
					c0.6-0.3,1-0.8,1.4-1.4c0.3-0.6,0.5-1.4,0.6-2.4c0.1-1,0.2-2.1,0.2-3.4v-11.1h2.7v10.6c0,1.5-0.1,3-0.2,4.2
					c-0.2,1.3-0.5,2.4-0.9,3.4c-0.5,0.9-1.2,1.7-2.1,2.2c-0.9,0.5-2.2,0.8-3.7,0.8c-1,0-1.9-0.1-2.6-0.3c-0.7-0.2-1.4-0.5-2.1-1
					L494.2,294.9z"/>
				<path class="st14" d="M518.7,298.3c-1.7,0-3.1-0.3-4.2-0.9c-1.1-0.6-2.1-1.4-2.7-2.4c-0.7-1-1.2-2.1-1.5-3.4
					c-0.3-1.3-0.5-2.6-0.5-3.9v-10.6h2.7v10.6c0,1,0.1,2,0.3,3s0.5,1.8,1,2.6c0.5,0.8,1.1,1.4,1.9,1.8s1.8,0.7,3,0.7
					c1.2,0,2.2-0.2,3-0.7s1.4-1.1,1.9-1.9c0.5-0.8,0.8-1.6,1-2.6c0.2-1,0.3-1.9,0.3-3v-10.6h2.7v10.6c0,1.4-0.2,2.8-0.5,4
					c-0.3,1.3-0.8,2.4-1.6,3.4c-0.7,1-1.6,1.7-2.8,2.3C521.7,298,520.3,298.3,518.7,298.3z"/>
				<path class="st14" d="M532.3,298.2v-21h2.7v18.6h11.7v2.4H532.3z"/>
				<path class="st14" d="M549,298.2v-3.3h2.2v3.3H549z"/>
			</g>
		</g>
		<g>
			<g>
				<path class="st14" d="M657,277.2h2.2l8.6,21H665l-2.4-6.1h-9l-2.4,6.1h-2.8L657,277.2z M661.8,289.9l-3.7-9.7l-3.7,9.7H661.8z"
					/>
				<path class="st14" d="M678.3,298.3c-1.4,0-2.7-0.3-3.9-0.9s-2.2-1.4-3.1-2.4c-0.9-1-1.6-2.2-2.1-3.4c-0.5-1.3-0.7-2.6-0.7-3.9
					c0-1.4,0.2-2.8,0.7-4c0.5-1.3,1.2-2.4,2.1-3.4c0.9-1,1.9-1.8,3.1-2.3c1.2-0.6,2.5-0.8,3.9-0.8c2,0,3.7,0.4,5,1.3
					c1.3,0.8,2.3,1.9,3,3.3l-2,1.4c-0.6-1.2-1.4-2.1-2.5-2.7c-1.1-0.6-2.2-0.9-3.5-0.9c-1.1,0-2,0.2-2.9,0.7
					c-0.9,0.5-1.6,1.1-2.2,1.8c-0.6,0.8-1.1,1.7-1.4,2.6c-0.3,1-0.5,2-0.5,3.1c0,1.1,0.2,2.2,0.5,3.2s0.9,1.9,1.6,2.6
					c0.7,0.8,1.4,1.4,2.3,1.8c0.9,0.4,1.8,0.6,2.9,0.6c1.2,0,2.3-0.3,3.4-0.9s2.1-1.5,3.1-2.8v2.7
					C683.1,297.2,680.8,298.3,678.3,298.3z M684.6,289.7h-4.5v-2h6.8v10.5h-2.2V289.7z"/>
				<path class="st14" d="M690.3,298.2v-3.3h2.2v3.3H690.3z"/>
			</g>
		</g>
		<g>
			<g>
				<path class="st14" d="M797.1,281.6c-0.2-0.3-0.6-0.5-0.9-0.8c-0.4-0.3-0.8-0.5-1.3-0.7c-0.5-0.2-1-0.4-1.6-0.5s-1.2-0.2-1.8-0.2
					c-1.6,0-2.8,0.3-3.6,0.9s-1.2,1.4-1.2,2.5c0,0.7,0.2,1.3,0.6,1.8c0.4,0.4,1,0.8,1.8,1.1c0.8,0.3,1.9,0.6,3.1,0.9
					c1.5,0.3,2.7,0.7,3.8,1.1c1.1,0.5,1.9,1.1,2.5,1.8c0.6,0.8,0.9,1.8,0.9,3c0,1-0.2,1.9-0.6,2.6s-0.9,1.3-1.6,1.8
					c-0.7,0.5-1.5,0.8-2.4,1.1c-0.9,0.2-1.9,0.3-3,0.3c-1.1,0-2.1-0.1-3.1-0.3c-1-0.2-2-0.6-2.9-1c-0.9-0.4-1.8-1-2.5-1.6l1.3-2.2
					c0.3,0.3,0.7,0.7,1.2,1c0.5,0.3,1.1,0.6,1.7,0.9c0.6,0.3,1.3,0.5,2.1,0.7c0.7,0.2,1.5,0.3,2.3,0.3c1.5,0,2.7-0.3,3.5-0.8
					s1.2-1.3,1.2-2.4c0-0.8-0.2-1.4-0.7-1.9c-0.5-0.5-1.1-0.9-2.1-1.2c-0.9-0.3-2-0.6-3.3-0.9c-1.4-0.4-2.6-0.7-3.6-1.2
					c-1-0.4-1.7-1-2.2-1.7c-0.5-0.7-0.7-1.6-0.7-2.7c0-1.3,0.3-2.5,1-3.4c0.6-0.9,1.5-1.6,2.7-2.1c1.1-0.5,2.4-0.7,3.9-0.7
					c0.9,0,1.8,0.1,2.6,0.3c0.8,0.2,1.6,0.5,2.3,0.8s1.4,0.8,1.9,1.3L797.1,281.6z"/>
				<path class="st14" d="M817,295.8v2.4h-14.2v-21h14v2.4h-11.3v6.8h9.8v2.2h-9.8v7.2H817z"/>
				<path class="st14" d="M820.6,298.2v-21h8.7c0.9,0,1.8,0.2,2.5,0.6c0.8,0.4,1.4,0.9,2,1.5c0.6,0.6,1,1.4,1.3,2.2
					c0.3,0.8,0.5,1.6,0.5,2.4c0,1.1-0.3,2.2-0.8,3.3c-0.5,1-1.2,1.9-2.2,2.5s-2,1-3.2,1h-6.3v7.5H820.6z M823.3,288.3h6.1
					c0.7,0,1.4-0.2,1.9-0.6c0.5-0.4,1-0.9,1.3-1.6c0.3-0.7,0.5-1.4,0.5-2.2c0-0.8-0.2-1.6-0.5-2.2c-0.4-0.7-0.8-1.2-1.4-1.6
					s-1.2-0.6-1.9-0.6h-5.9V288.3z"/>
				<path class="st14" d="M854.2,279.6h-7.2v18.6h-2.7v-18.6H837v-2.4h17.1V279.6z"/>
				<path class="st14" d="M854.6,298.2v-3.3h2.2v3.3H854.6z"/>
			</g>
		</g>
	</g>
	<line class="st9" x1="468.9" y1="143.5" x2="880.1" y2="143.5"/>
	<line class="st9" x1="470.4" y1="203.7" x2="881.5" y2="203.7"/>
	<line class="st9" x1="470.4" y1="259.2" x2="881.5" y2="259.2"/>
	<line class="st9" x1="470.4" y1="315.9" x2="881.5" y2="315.9"/>
	<line class="st9" x1="603" y1="378.6" x2="603" y2="143.5"/>
	<line class="st9" x1="749.5" y1="378.6" x2="749.5" y2="143.5"/>
	<linearGradient id="SVGID_10_" gradientUnits="userSpaceOnUse" x1="871.6384" y1="204.1581" x2="481.3667" y2="145.3503">
		<stop  offset="0" style="stop-color:#00DCCC"/>
		<stop  offset="1" style="stop-color:#C7F0B9"/>
	</linearGradient>
	<path style="fill:url(#SVGID_10_);" d="M865.7,190.7H486.8c-8.8,0-16-7.2-16-16l0,0c0-8.8,7.2-16,16-16h378.8c8.8,0,16,7.2,16,16
		l0,0C881.6,183.5,874.5,190.7,865.7,190.7z"/>
	<g>
		<g>
			<g>
				<path class="st14" d="M505.3,354.6c-1.5,0-2.8-0.3-4-0.9c-1.2-0.6-2.2-1.4-3.1-2.4c-0.9-1-1.6-2.2-2-3.4
					c-0.5-1.3-0.7-2.6-0.7-3.9c0-1.4,0.3-2.7,0.8-4c0.5-1.3,1.2-2.4,2.1-3.4c0.9-1,1.9-1.8,3.1-2.4s2.5-0.9,3.9-0.9
					c1.5,0,2.8,0.3,4,0.9c1.2,0.6,2.2,1.4,3.1,2.5c0.9,1,1.5,2.2,2,3.4s0.7,2.5,0.7,3.9c0,1.4-0.2,2.7-0.7,4
					c-0.5,1.3-1.2,2.4-2.1,3.4c-0.9,1-1.9,1.8-3.1,2.3C508,354.3,506.7,354.6,505.3,354.6z M498.1,344c0,1.1,0.2,2.1,0.5,3.1
					s0.8,1.9,1.5,2.6c0.6,0.8,1.4,1.4,2.3,1.8s1.9,0.7,3,0.7c1.1,0,2.1-0.2,3-0.7s1.6-1.1,2.3-1.9c0.6-0.8,1.1-1.7,1.4-2.7
					c0.3-1,0.5-2,0.5-3c0-1.1-0.2-2.1-0.5-3.1s-0.8-1.9-1.5-2.6c-0.6-0.8-1.4-1.4-2.3-1.8s-1.8-0.7-2.9-0.7c-1.1,0-2.1,0.2-3,0.7
					c-0.9,0.5-1.6,1.1-2.3,1.9s-1.1,1.7-1.4,2.6C498.3,342,498.1,343,498.1,344z"/>
				<path class="st14" d="M517.5,343.8c0-1.3,0.2-2.5,0.7-3.8s1.1-2.4,1.9-3.4c0.9-1,1.9-1.8,3.1-2.4s2.6-0.9,4.2-0.9
					c1.9,0,3.5,0.4,4.8,1.3c1.3,0.9,2.3,2,3,3.3l-2.1,1.4c-0.4-0.9-0.9-1.6-1.6-2.1c-0.6-0.5-1.3-0.9-2.1-1.1s-1.5-0.3-2.2-0.3
					c-1.2,0-2.2,0.2-3.1,0.7c-0.9,0.5-1.6,1.1-2.3,1.9s-1.1,1.7-1.4,2.6c-0.3,1-0.5,2-0.5,2.9c0,1.1,0.2,2.1,0.5,3.1
					c0.4,1,0.9,1.9,1.5,2.7c0.6,0.8,1.4,1.4,2.3,1.8s1.9,0.7,2.9,0.7c0.7,0,1.5-0.1,2.2-0.4c0.8-0.3,1.5-0.7,2.2-1.2
					c0.7-0.5,1.2-1.2,1.6-2.1l2.2,1.2c-0.4,1-1.1,1.9-2,2.7c-0.9,0.7-1.9,1.3-3,1.7s-2.2,0.6-3.3,0.6c-1.4,0-2.8-0.3-4-0.9
					c-1.2-0.6-2.2-1.4-3.1-2.5s-1.6-2.2-2-3.5C517.8,346.4,517.5,345.1,517.5,343.8z"/>
				<path class="st14" d="M554.2,335.9h-7.2v18.6h-2.7v-18.6H537v-2.4h17.1V335.9z"/>
				<path class="st14" d="M554.6,354.5v-3.3h2.2v3.3H554.6z"/>
			</g>
		</g>
		<g>
			<g>
				<path class="st14" d="M648.7,338.4v16.1h-2.7v-21h2.2l12.8,16.4v-16.4h2.7v20.9h-2.4L648.7,338.4z"/>
				<path class="st14" d="M677.3,354.6c-1.5,0-2.8-0.3-4-0.9c-1.2-0.6-2.2-1.4-3.1-2.4c-0.9-1-1.6-2.2-2-3.4
					c-0.5-1.3-0.7-2.6-0.7-3.9c0-1.4,0.3-2.7,0.8-4c0.5-1.3,1.2-2.4,2.1-3.4c0.9-1,1.9-1.8,3.1-2.4s2.5-0.9,3.9-0.9
					c1.5,0,2.8,0.3,4,0.9c1.2,0.6,2.2,1.4,3.1,2.5c0.9,1,1.5,2.2,2,3.4s0.7,2.5,0.7,3.9c0,1.4-0.2,2.7-0.7,4
					c-0.5,1.3-1.2,2.4-2.1,3.4c-0.9,1-1.9,1.8-3.1,2.3C680,354.3,678.7,354.6,677.3,354.6z M670.1,344c0,1.1,0.2,2.1,0.5,3.1
					s0.8,1.9,1.5,2.6c0.6,0.8,1.4,1.4,2.3,1.8s1.9,0.7,3,0.7c1.1,0,2.1-0.2,3-0.7s1.6-1.1,2.3-1.9c0.6-0.8,1.1-1.7,1.4-2.7
					c0.3-1,0.5-2,0.5-3c0-1.1-0.2-2.1-0.5-3.1s-0.8-1.9-1.5-2.6c-0.6-0.8-1.4-1.4-2.3-1.8s-1.8-0.7-2.9-0.7c-1.1,0-2.1,0.2-3,0.7
					c-0.9,0.5-1.6,1.1-2.3,1.9s-1.1,1.7-1.4,2.6C670.3,342,670.1,343,670.1,344z"/>
				<path class="st14" d="M690.7,333.5l6.9,17.6l6.9-17.6h2.8l-8.5,21h-2.4l-8.5-21H690.7z"/>
				<path class="st14" d="M707.5,354.5v-3.3h2.2v3.3H707.5z"/>
			</g>
		</g>
		<g>
			<g>
				<path class="st14" d="M805.1,354.5v-21h7.3c2.2,0,4.1,0.5,5.6,1.4c1.5,0.9,2.6,2.2,3.4,3.8s1.1,3.3,1.1,5.3c0,2.1-0.4,4-1.2,5.6
					s-2,2.8-3.5,3.7c-1.5,0.9-3.3,1.3-5.4,1.3H805.1z M819.8,344c0-1.6-0.3-3-0.9-4.2c-0.6-1.2-1.4-2.2-2.5-2.9s-2.5-1-4-1h-4.6
					v16.2h4.6c1.6,0,3-0.4,4.1-1.1s1.9-1.7,2.5-2.9C819.5,346.9,819.8,345.5,819.8,344z"/>
				<path class="st14" d="M826.3,354.5v-21h2.7v21H826.3z"/>
				<path class="st14" d="M832.6,343.8c0-1.3,0.2-2.5,0.7-3.8s1.1-2.4,1.9-3.4c0.9-1,1.9-1.8,3.1-2.4s2.6-0.9,4.2-0.9
					c1.9,0,3.5,0.4,4.8,1.3c1.3,0.9,2.3,2,3,3.3l-2.1,1.4c-0.4-0.9-0.9-1.6-1.6-2.1c-0.6-0.5-1.3-0.9-2.1-1.1s-1.5-0.3-2.2-0.3
					c-1.2,0-2.2,0.2-3.1,0.7c-0.9,0.5-1.6,1.1-2.3,1.9s-1.1,1.7-1.4,2.6c-0.3,1-0.5,2-0.5,2.9c0,1.1,0.2,2.1,0.5,3.1
					c0.4,1,0.9,1.9,1.5,2.7c0.6,0.8,1.4,1.4,2.3,1.8s1.9,0.7,2.9,0.7c0.7,0,1.5-0.1,2.2-0.4c0.8-0.3,1.5-0.7,2.2-1.2
					c0.7-0.5,1.2-1.2,1.6-2.1l2.2,1.2c-0.4,1-1.1,1.9-2,2.7c-0.9,0.7-1.9,1.3-3,1.7s-2.2,0.6-3.3,0.6c-1.4,0-2.8-0.3-4-0.9
					c-1.2-0.6-2.2-1.4-3.1-2.5s-1.6-2.2-2-3.5C832.8,346.4,832.6,345.1,832.6,343.8z"/>
				<path class="st14" d="M853.5,354.5v-3.3h2.2v3.3H853.5z"/>
			</g>
		</g>
	</g>
	<g>
		<g>
			<g>
				<path class="st14" d="M507.4,182v3.6h-14.6v-21h14.3v3.6h-10.2v5.1h8.8v3.3h-8.8v5.5H507.4z"/>
				<path class="st14" d="M514.7,172.1v13.5h-4.1v-21h3.2l10.8,13.8v-13.8h4.1v20.9h-3.4L514.7,172.1z"/>
				<path class="st14" d="M532.7,185.5v-4.3h3.2v4.3H532.7z"/>
			</g>
		</g>
		<g>
			<g>
				<path class="st14" d="M629.6,185.5v-21h14.1v3.6h-10v5.4h8.3v3.3h-8.3v8.7H629.6z"/>
				<path class="st14" d="M661.2,182v3.6h-14.6v-21h14.3v3.6h-10.2v5.1h8.8v3.3h-8.8v5.5H661.2z"/>
				<path class="st14" d="M681.2,180.1c0,1.2-0.3,2.2-0.9,3c-0.6,0.8-1.4,1.4-2.5,1.8c-1,0.4-2.2,0.6-3.4,0.6h-10.1v-21h11.2
					c1,0,1.8,0.3,2.6,0.8c0.7,0.5,1.3,1.2,1.7,2c0.4,0.8,0.6,1.7,0.6,2.6c0,1-0.3,2-0.8,2.9c-0.5,0.9-1.3,1.6-2.2,2
					c1.2,0.4,2.2,1,2.9,1.9C680.9,177.6,681.2,178.8,681.2,180.1z M668.4,168v5.3h5.4c0.5,0,0.9-0.1,1.2-0.3s0.7-0.5,0.9-0.9
					c0.2-0.4,0.3-0.9,0.3-1.4c0-0.5-0.1-1-0.3-1.4c-0.2-0.4-0.5-0.7-0.8-0.9c-0.3-0.2-0.7-0.3-1.2-0.3H668.4z M677.1,179.4
					c0-0.5-0.1-1-0.3-1.4c-0.2-0.4-0.5-0.8-0.9-1s-0.8-0.4-1.3-0.4h-6.3v5.5h6.1c0.5,0,0.9-0.1,1.3-0.4c0.4-0.2,0.7-0.6,1-1
					C677,180.3,677.1,179.9,677.1,179.4z"/>
				<path class="st14" d="M684.4,185.5v-21h9.3c1,0,1.9,0.2,2.7,0.6c0.8,0.4,1.5,0.9,2.1,1.6s1.1,1.4,1.4,2.2
					c0.3,0.8,0.5,1.7,0.5,2.5c0,0.9-0.2,1.7-0.5,2.6c-0.3,0.8-0.7,1.5-1.3,2.1s-1.2,1.1-2,1.4l4.8,7.9h-4.5l-4.3-7h-4.1v7H684.4z
					 M688.5,174.9h5.1c0.5,0,1-0.2,1.4-0.5c0.4-0.3,0.7-0.7,0.9-1.2c0.2-0.5,0.4-1.1,0.4-1.7c0-0.7-0.1-1.3-0.4-1.8
					c-0.3-0.5-0.6-0.9-1-1.2c-0.4-0.3-0.9-0.4-1.4-0.4h-4.9V174.9z"/>
				<path class="st14" d="M703.6,185.5v-4.3h3.2v4.3H703.6z"/>
			</g>
		</g>
		<g>
			<g>
				<path class="st14" d="M807.7,185.5v-13.8l-5.4,10.2H800l-5.4-10.2v13.8h-4.1v-21h4.4l6.2,11.9l6.3-11.9h4.3v21H807.7z"/>
				<path class="st14" d="M814.8,182.5l11.7-14.3h-11.4v-3.6h16.2v3.1L820.1,182h11.4v3.6h-16.6V182.5z"/>
				<path class="st14" d="M843.2,185.7c-1.5,0-2.9-0.3-4.2-0.9c-1.2-0.6-2.3-1.4-3.2-2.4c-0.9-1-1.6-2.2-2.1-3.4
					c-0.5-1.3-0.7-2.6-0.7-3.9c0-1.4,0.3-2.7,0.8-4c0.5-1.3,1.2-2.4,2.2-3.4c0.9-1,2-1.8,3.2-2.4c1.2-0.6,2.6-0.9,4.1-0.9
					c1.5,0,2.9,0.3,4.1,0.9c1.2,0.6,2.3,1.4,3.2,2.5c0.9,1,1.6,2.2,2.1,3.4c0.5,1.3,0.7,2.6,0.7,3.9c0,1.4-0.3,2.7-0.8,4
					c-0.5,1.3-1.2,2.4-2.1,3.4c-0.9,1-2,1.8-3.2,2.3C846,185.4,844.7,185.7,843.2,185.7z M837.1,175c0,0.9,0.1,1.8,0.4,2.6
					s0.7,1.6,1.2,2.3s1.2,1.2,1.9,1.6c0.8,0.4,1.6,0.6,2.6,0.6c1,0,1.9-0.2,2.6-0.6c0.8-0.4,1.4-0.9,1.9-1.6
					c0.5-0.7,0.9-1.4,1.2-2.3c0.3-0.8,0.4-1.7,0.4-2.5c0-0.9-0.1-1.8-0.4-2.6s-0.7-1.6-1.2-2.2c-0.5-0.7-1.2-1.2-1.9-1.6
					s-1.6-0.6-2.6-0.6c-1,0-1.9,0.2-2.6,0.6s-1.4,0.9-1.9,1.6c-0.5,0.7-0.9,1.4-1.2,2.2C837.3,173.3,837.1,174.2,837.1,175z"/>
				<path class="st14" d="M855.9,185.5v-4.3h3.2v4.3H855.9z"/>
			</g>
		</g>
	</g>
	<g>
		<g>
			<path class="st7" d="M203.3,0.9c0.7,0.2,1.4,0.5,1.9,1c0.6,0.7,0.9,1.4,0.9,2.3c0,1.1,0,2.1,0,3.2c0,1.9-1.3,3.2-3.1,3.3
				c-1.7,0.1-3.2-1.2-3.3-3c-0.1-1.3-0.1-2.6,0-3.9c0.1-1.5,1.1-2.5,2.6-2.9c0.1,0,0.1,0,0.2-0.1C202.7,0.9,203,0.9,203.3,0.9z"/>
			<path class="st7" d="M180.3,0.9c1.1,0.2,2,0.8,2.4,1.8c0.2,0.4,0.3,0.9,0.3,1.3c0,1.3,0.1,2.7,0,4c-0.1,1.6-1.6,2.8-3.3,2.8
				c-1.6-0.1-3-1.3-3.1-2.9c-0.1-1.3-0.1-2.6,0-4c0-1.3,1-2.4,2.2-2.8c0.2-0.1,0.3-0.1,0.5-0.2C179.7,0.9,180,0.9,180.3,0.9z"/>
			<path class="st7" d="M214.4,47.5c-15.3,0-30.6,0-45.9,0c0-13.7,0-27.4,0-41.1c2.2,0,4.3,0,6.5,0c0,0.7,0,1.2,0,1.8
				c0.1,1.9,1,3.3,2.6,4.2c1.6,0.9,3.3,0.8,4.9-0.2c1.5-0.9,2.3-2.3,2.3-4.1c0-0.6,0-1.1,0-1.7c4.4,0,8.8,0,13.1,0
				c0,0.8,0,1.6,0.1,2.3c0.3,1.9,1.3,3.2,3,3.8c1.7,0.7,3.4,0.5,4.9-0.7c1.2-1,1.8-2.3,1.9-3.8c0-0.5,0-1.1,0-1.6c2.2,0,4.3,0,6.5,0
				C214.4,20.2,214.4,33.8,214.4,47.5z M211.1,44.3c0-8.8,0-17.5,0-26.2c-13.1,0-26.2,0-39.4,0c0,8.8,0,17.5,0,26.2
				C184.8,44.3,197.9,44.3,211.1,44.3z"/>
			<path class="st7" d="M190,26c-1.7,0-3.4,0-5.1,0c0-1.5,0-3,0-4.5c1.7,0,3.4,0,5.1,0C190,23,190,24.5,190,26z"/>
			<path class="st7" d="M201,21.5c1.7,0,3.4,0,5.1,0c0,1.5,0,3,0,4.5c-1.7,0-3.4,0-5.1,0C201,24.6,201,23.1,201,21.5z"/>
			<path class="st7" d="M184.9,29.1c1.7,0,3.4,0,5.1,0c0,1.5,0,3,0,4.5c-1.7,0-3.4,0-5.1,0C184.9,32.1,184.9,30.6,184.9,29.1z"/>
			<path class="st7" d="M193.2,29.1c1.7,0,3.4,0,5.1,0c0,1.5,0,3,0,4.5c-1.7,0-3.4,0-5.1,0C193.2,32.1,193.2,30.6,193.2,29.1z"/>
			<path class="st7" d="M201,33.6c0-1.5,0-3,0-4.5c1.7,0,3.4,0,5.1,0c0,1.5,0,3,0,4.5C204.4,33.6,202.7,33.6,201,33.6z"/>
			<path class="st7" d="M190,41.4c-1.7,0-3.4,0-5.1,0c0-1.5,0-3,0-4.5c1.7,0,3.4,0,5.1,0C190,38.4,190,39.9,190,41.4z"/>
			<path class="st7" d="M201,41.4c0-1.5,0-3,0-4.5c1.7,0,3.4,0,5.1,0c0,1.5,0,3,0,4.5C204.4,41.4,202.7,41.4,201,41.4z"/>
			<path class="st7" d="M198.4,21.5c0,1.5,0,3,0,4.5c-1.7,0-3.4,0-5.1,0c0-1.5,0-3,0-4.5C194.9,21.5,196.6,21.5,198.4,21.5z"/>
			<path class="st7" d="M181.8,33.6c-1.7,0-3.4,0-5.1,0c0-1.5,0-3,0-4.5c1.7,0,3.4,0,5.1,0C181.8,30.6,181.8,32.1,181.8,33.6z"/>
			<path class="st7" d="M176.6,41.4c0-1.5,0-3,0-4.5c1.7,0,3.4,0,5.1,0c0,0.1,0,0.3,0,0.4c0,1.2,0,2.4,0,3.6c0,0.3-0.1,0.5-0.4,0.5
				c-1.4,0-2.9,0-4.3,0C176.9,41.4,176.8,41.4,176.6,41.4z"/>
			<path class="st7" d="M193.2,36.9c1.7,0,3.4,0,5.1,0c0,1.5,0,3,0,4.5c-1.7,0-3.4,0-5.1,0C193.2,39.9,193.2,38.4,193.2,36.9z"/>
		</g>
	</g>
</g>
</svg>
