<?xml version="1.0" encoding="utf-8"?>
<!-- Generator: Adobe Illustrator 25.2.3, SVG Export Plug-In . SVG Version: 6.00 Build 0)  -->
<svg version="1.1" id="Layer_1" xmlns="http://www.w3.org/2000/svg" xmlns:xlink="http://www.w3.org/1999/xlink" x="0px" y="0px"
	 viewBox="0 0 24 24.1" style="enable-background:new 0 0 24 24.1;" xml:space="preserve">
<style type="text/css">
	.st0{fill:#810C33;}
</style>
<g>
	<path class="st0" d="M21.5,24h-19C1.1,24,0,22.9,0,21.5v-17C0,3.1,1.1,2,2.5,2h19C22.9,2,24,3.1,24,4.5v17C24,22.9,22.9,24,21.5,24
		z M2.5,4C2.2,4,2,4.2,2,4.5v17C2,21.8,2.2,22,2.5,22h19c0.3,0,0.5-0.2,0.5-0.5v-17C22,4.2,21.8,4,21.5,4H2.5z M23,8H1
		C0.4,8,0,7.6,0,7s0.4-1,1-1h22c0.6,0,1,0.4,1,1S23.6,8,23,8z M5,5C4.4,5,4,4.6,4,4V1c0-0.6,0.4-1,1-1s1,0.4,1,1v3C6,4.6,5.6,5,5,5z
		 M19,5c-0.6,0-1-0.4-1-1V1c0-0.6,0.4-1,1-1s1,0.4,1,1v3C20,4.6,19.6,5,19,5z"/>
	<circle class="st0" cx="6" cy="19" r="1"/>
	<circle class="st0" cx="6" cy="15" r="1"/>
	<circle class="st0" cx="9" cy="19" r="1"/>
	<circle class="st0" cx="9" cy="15" r="1"/>
	<circle class="st0" cx="9" cy="11" r="1"/>
	<circle class="st0" cx="15" cy="19" r="1"/>
	<circle class="st0" cx="15" cy="15" r="1"/>
	<circle class="st0" cx="15" cy="11" r="1"/>
	<circle class="st0" cx="18" cy="15" r="1"/>
	<circle class="st0" cx="18" cy="11" r="1"/>
	<circle class="st0" cx="12" cy="19" r="1"/>
	<circle class="st0" cx="12" cy="15" r="1"/>
	<circle class="st0" cx="12" cy="11" r="1"/>
</g>
</svg>
