<?xml version="1.0" encoding="utf-8"?>
<!-- Generator: Adobe Illustrator 25.2.3, SVG Export Plug-In . SVG Version: 6.00 Build 0)  -->
<svg version="1.1"
	 id="Layer_1" xmlns:cc="http://creativecommons.org/ns#" xmlns:dc="http://purl.org/dc/elements/1.1/" xmlns:inkscape="http://www.inkscape.org/namespaces/inkscape" xmlns:rdf="http://www.w3.org/1999/02/22-rdf-syntax-ns#" xmlns:sodipodi="http://sodipodi.sourceforge.net/DTD/sodipodi-0.dtd" xmlns:svg="http://www.w3.org/2000/svg"
	 xmlns="http://www.w3.org/2000/svg" xmlns:xlink="http://www.w3.org/1999/xlink" x="0px" y="0px" viewBox="0 0 86.4 77.9"
	 style="enable-background:new 0 0 86.4 77.9;" xml:space="preserve">
<style type="text/css">
	.st0{fill:#810C33;}
</style>
<g transform="translate(0,-952.36218)">
	<path class="st0" d="M9.2,956.6c-3.3,0-6,2.7-6,6c0,3.3,2.7,6,6,6h68c3.3,0,6-2.7,6-6c0-3.3-2.7-6-6-6H9.2z M9.2,985.6
		c-3.3,0-6,2.7-6,6c0,3.3,2.7,6,6,6h68c3.3,0,6-2.7,6-6c0-3.3-2.7-6-6-6H9.2z M9.2,1014.6c-3.3,0-6,2.7-6,6c0,3.3,2.7,6,6,6h68
		c3.3,0,6-2.7,6-6c0-3.3-2.7-6-6-6H9.2z"/>
</g>
</svg>
