<?xml version="1.0" encoding="utf-8"?>
<!-- Generator: Adobe Illustrator 25.2.3, SVG Export Plug-In . SVG Version: 6.00 Build 0)  -->
<svg version="1.1" id="Layer_1" xmlns="http://www.w3.org/2000/svg" xmlns:xlink="http://www.w3.org/1999/xlink" x="0px" y="0px"
	 viewBox="0 0 24 24" style="enable-background:new 0 0 24 24;" xml:space="preserve">
<style type="text/css">
	.st0{fill:#810C33;}
</style>
<g>
	<path class="st0" d="M23.6,11.9c0-2.2-1.7-4-3.9-4.1c-0.9-1.6-2.2-2.9-3.9-3.7l0,0c0-2.1-1.7-3.7-3.7-3.7S8.4,2,8.4,4.1v0
		c-1.7,0.8-3,2.1-3.9,3.7c-2.3,0-4.1,1.9-4.1,4.1s1.9,4.1,4.1,4.1c0.8,1.4,2,2.7,3.5,3.5v1.9c0,0.2,0.1,0.3,0.2,0.4l3.7,1.7
		c0.1,0,0.2,0,0.3,0l3.7-1.7c0.2-0.1,0.2-0.2,0.2-0.4v-1.9c1.5-0.8,2.7-2,3.5-3.5C21.9,16,23.6,14.1,23.6,11.9z M12.1,1.2
		c1.6,0,2.9,1.3,2.9,2.9c0,1-0.5,2-1.4,2.5c-0.1,0.1-0.2,0.2-0.2,0.4v0h-0.8V5.3c0.7,0.2,1.4-0.1,1.6-0.7C14.3,3.9,14,3.2,13.3,3
		c-0.1,0-0.3-0.1-0.4-0.1c-0.3,0-0.6,0.1-0.8,0.3c-0.2-0.2-0.5-0.3-0.8-0.3c-0.7,0-1.2,0.5-1.2,1.2s0.5,1.2,1.2,1.2
		c0.2,0,0.3,0,0.4-0.1V7h-0.8v0c0-0.2-0.1-0.3-0.2-0.4C9.3,5.8,8.8,4,9.6,2.6C10.1,1.8,11.1,1.2,12.1,1.2z M12.5,9.4h-0.8V9h0.8V9.4
		z M12.9,8.2h-1.7c-0.2,0-0.4-0.2-0.4-0.4h2.5C13.3,8,13.2,8.2,12.9,8.2z M12.5,4.1c0-0.2,0.2-0.4,0.4-0.4s0.4,0.2,0.4,0.4
		s-0.2,0.4-0.4,0.4C12.7,4.5,12.5,4.3,12.5,4.1z M11.7,4.1c0,0.2-0.2,0.4-0.4,0.4s-0.4-0.2-0.4-0.4s0.2-0.4,0.4-0.4
		S11.7,3.9,11.7,4.1z M1.4,11.9c0-1.8,1.5-3.3,3.3-3.3S8,10.1,8,11.9s-1.5,3.3-3.3,3.3S1.4,13.7,1.4,11.9z M8.8,17.9l2.9,1.3v3.2
		l-2.9-1.3V17.9z M12.1,18.5l-2.7-1.2l2.7-1.2l2.7,1.2L12.1,18.5z M12.5,22.4v-3.2l2.9-1.3v3.2L12.5,22.4z M16.2,18.6v-1.3
		c0-0.2-0.1-0.3-0.2-0.4l-3.7-1.7c-0.1,0-0.2,0-0.3,0L8.2,17C8,17,8,17.2,8,17.3v1.3C6.9,17.9,6,17,5.4,16c2.2-0.4,3.7-2.6,3.3-4.8
		c-0.3-1.7-1.6-3-3.3-3.3C6.1,6.6,7.2,5.7,8.5,5C8.7,5.9,9.3,6.7,10,7.2v0.6c0,0.5,0.3,1,0.8,1.2v0.5c0,0.5,0.4,0.8,0.8,0.8h0.8
		c0.5,0,0.8-0.4,0.8-0.8V9c0.5-0.2,0.8-0.7,0.8-1.2V7.2c0.8-0.5,1.3-1.3,1.5-2.2C17,5.7,18,6.6,18.8,7.9c-2.2,0.4-3.7,2.6-3.3,4.8
		c0.3,1.7,1.7,3,3.3,3.3C18.1,17,17.3,17.9,16.2,18.6z M19.5,15.2c-1.8,0-3.3-1.5-3.3-3.3s1.5-3.3,3.3-3.3s3.3,1.5,3.3,3.3
		S21.3,15.2,19.5,15.2z"/>
	<path class="st0" d="M20.7,11.1c0.2,0,0.4-0.2,0.4-0.4c0-0.5-0.4-0.8-0.8-0.8h-0.4c0-0.2-0.2-0.4-0.4-0.4s-0.4,0.2-0.4,0.4h-0.4
		c-0.5,0-0.8,0.4-0.8,0.8v0.8c0,0.5,0.4,0.8,0.8,0.8h1.7v0.8h-1.7c0-0.2-0.2-0.4-0.4-0.4s-0.4,0.2-0.4,0.4c0,0.5,0.4,0.8,0.8,0.8
		h0.4c0,0.2,0.2,0.4,0.4,0.4s0.4-0.2,0.4-0.4h0.4c0.5,0,0.8-0.4,0.8-0.8v-0.8c0-0.5-0.4-0.8-0.8-0.8h-1.7v-0.8h1.7
		C20.3,10.9,20.5,11.1,20.7,11.1z"/>
	<path class="st0" d="M5.2,13L6,13.9c0.2,0.2,0.4,0.2,0.6,0c0.2-0.2,0.2-0.4,0-0.6l-0.8-0.8c0.1-0.2,0.1-0.3,0.1-0.5
		c0-0.5-0.3-1-0.8-1.2V9.9c0-0.2-0.2-0.4-0.4-0.4c-0.2,0-0.4,0.2-0.4,0.4v0.9c-0.6,0.2-0.9,0.9-0.7,1.6c0.2,0.5,0.6,0.8,1.2,0.8
		C4.9,13.2,5,13.1,5.2,13z M4.2,11.9c0-0.2,0.2-0.4,0.4-0.4c0.2,0,0.4,0.2,0.4,0.4c0,0.1,0,0.2-0.1,0.3l0,0
		c-0.1,0.1-0.2,0.1-0.3,0.1C4.5,12.3,4.2,12.2,4.2,11.9z"/>
</g>
</svg>
