<?xml version="1.0" encoding="utf-8"?>
<!-- Generator: Adobe Illustrator 25.2.3, SVG Export Plug-In . SVG Version: 6.00 Build 0)  -->
<svg version="1.1" id="Layer_1" xmlns="http://www.w3.org/2000/svg" xmlns:xlink="http://www.w3.org/1999/xlink" x="0px" y="0px"
	 viewBox="0 0 1371 264.9" style="enable-background:new 0 0 1371 264.9;" xml:space="preserve">
<style type="text/css">
	.st0{fill:#77787B;}
	.st1{fill:none;stroke:url(#SVGID_1_);stroke-width:8;stroke-linecap:round;stroke-miterlimit:10;}
	.st2{fill:none;stroke:url(#SVGID_2_);stroke-width:8;stroke-linecap:round;stroke-miterlimit:10;}
	.st3{fill:#FCE0F1;}
	.st4{fill:#811435;}
	.st5{fill:#E2E2E2;}
	.st6{fill:url(#SVGID_3_);}
	.st7{fill:url(#SVGID_4_);}
	.st8{fill:url(#SVGID_5_);}
	.st9{fill:url(#SVGID_6_);}
	.st10{fill:url(#SVGID_7_);}
	.st11{fill:url(#SVGID_8_);}
	.st12{fill:url(#SVGID_9_);}
	.st13{fill:url(#SVGID_10_);}
	.st14{fill:url(#SVGID_11_);}
	.st15{fill:url(#SVGID_12_);}
	.st16{fill:url(#SVGID_13_);}
	.st17{fill:url(#SVGID_14_);}
	.st18{fill:url(#SVGID_15_);}
	.st19{fill:url(#SVGID_16_);}
	.st20{fill:url(#SVGID_17_);}
	.st21{fill:url(#SVGID_18_);}
	.st22{fill:url(#SVGID_19_);}
	.st23{fill:url(#SVGID_20_);}
	.st24{fill:url(#SVGID_21_);}
	.st25{fill:url(#SVGID_22_);}
	.st26{fill:url(#SVGID_23_);}
	.st27{fill:url(#SVGID_24_);}
	.st28{fill:url(#SVGID_25_);}
	.st29{fill:url(#SVGID_26_);}
	.st30{fill:url(#SVGID_27_);}
	.st31{fill:url(#SVGID_28_);}
	.st32{fill:url(#SVGID_29_);}
	.st33{fill:url(#SVGID_30_);}
	.st34{fill:url(#SVGID_31_);}
	.st35{fill:url(#SVGID_32_);}
	.st36{fill:url(#SVGID_33_);}
	.st37{fill:url(#SVGID_34_);}
	.st38{fill:url(#SVGID_35_);}
	.st39{fill:url(#SVGID_36_);}
	.st40{fill:url(#SVGID_37_);}
	.st41{fill:url(#SVGID_38_);}
	.st42{fill:url(#SVGID_39_);}
	.st43{fill:url(#SVGID_40_);}
	.st44{fill:url(#SVGID_41_);}
	.st45{fill:url(#SVGID_42_);}
	.st46{fill:url(#SVGID_43_);}
	.st47{fill:url(#SVGID_44_);}
	.st48{fill:url(#SVGID_45_);}
	.st49{fill:url(#SVGID_46_);}
	.st50{fill:url(#SVGID_47_);}
	.st51{fill:url(#SVGID_48_);}
	.st52{fill:url(#SVGID_49_);}
	.st53{fill:url(#SVGID_50_);}
	.st54{fill:url(#SVGID_51_);}
	.st55{fill:url(#SVGID_52_);}
	.st56{fill:url(#SVGID_53_);}
	.st57{fill:url(#SVGID_54_);}
	.st58{fill:url(#SVGID_55_);}
	.st59{fill:url(#SVGID_56_);}
	.st60{fill:url(#SVGID_57_);}
	.st61{fill:url(#SVGID_58_);}
	.st62{fill:url(#SVGID_59_);}
	.st63{fill:url(#SVGID_60_);}
	.st64{fill:url(#SVGID_61_);}
	.st65{fill:url(#SVGID_62_);}
	.st66{fill:url(#SVGID_63_);}
	.st67{fill:url(#SVGID_64_);}
	.st68{fill:url(#SVGID_65_);}
	.st69{fill:url(#SVGID_66_);}
	.st70{fill:url(#SVGID_67_);}
	.st71{fill:url(#SVGID_68_);}
	.st72{fill:url(#SVGID_69_);}
	.st73{fill:url(#SVGID_70_);}
	.st74{fill:url(#SVGID_71_);}
	.st75{fill:url(#SVGID_72_);}
	.st76{fill:url(#SVGID_73_);}
	.st77{fill:url(#SVGID_74_);}
	.st78{fill:url(#SVGID_75_);}
	.st79{fill:url(#SVGID_76_);}
	.st80{fill:url(#SVGID_77_);}
	.st81{fill:url(#SVGID_78_);}
	.st82{fill:url(#SVGID_79_);}
	.st83{fill:url(#SVGID_80_);}
	.st84{fill:#810C33;}
</style>
<g>
	<g>
		<path class="st0" d="M7.7,40.9V18h9.6c1,0,1.9,0.2,2.8,0.6c0.8,0.4,1.6,1,2.2,1.7s1.1,1.5,1.5,2.4c0.3,0.9,0.5,1.8,0.5,2.7
			c0,1.2-0.3,2.4-0.8,3.6s-1.3,2-2.4,2.7c-1,0.7-2.2,1-3.6,1h-6.9v8.2L7.7,40.9L7.7,40.9z M10.6,30.1h6.7c0.8,0,1.5-0.2,2.1-0.6
			s1.1-1,1.4-1.7s0.5-1.5,0.5-2.4s-0.2-1.7-0.6-2.4s-0.9-1.3-1.5-1.7c-0.6-0.4-1.3-0.6-2.1-0.6h-6.5C10.6,20.7,10.6,30.1,10.6,30.1z
			"/>
		<path class="st0" d="M27.8,40.9V18h9.8c1,0,1.9,0.2,2.8,0.6c0.8,0.4,1.6,1,2.2,1.7c0.6,0.7,1.1,1.5,1.5,2.4
			c0.3,0.9,0.5,1.8,0.5,2.7c0,1.1-0.2,2.1-0.6,3c-0.4,0.9-1,1.8-1.7,2.4c-0.7,0.7-1.6,1.1-2.5,1.4l5.6,8.8H42l-5.2-8.2h-6.1V41
			L27.8,40.9L27.8,40.9z M30.7,30.1h6.9c0.8,0,1.5-0.2,2.1-0.7s1.1-1,1.4-1.8c0.3-0.7,0.5-1.5,0.5-2.4s-0.2-1.7-0.6-2.4
			s-0.9-1.3-1.5-1.7c-0.6-0.4-1.3-0.6-2.1-0.6h-6.7C30.7,20.5,30.7,30.1,30.7,30.1z"/>
		<path class="st0" d="M64.6,38.3v2.6H49V18h15.3v2.6H51.9V28h10.7v2.4H51.9v7.9H64.6z"/>
		<path class="st0" d="M82,22.8c-0.3-0.3-0.6-0.6-1-0.9s-0.9-0.5-1.5-0.8c-0.5-0.2-1.1-0.4-1.8-0.5c-0.6-0.1-1.3-0.2-2-0.2
			c-1.8,0-3.1,0.3-3.9,1s-1.3,1.6-1.3,2.7c0,0.8,0.2,1.5,0.6,1.9c0.4,0.5,1.1,0.9,2,1.2c0.9,0.3,2,0.6,3.4,0.9
			c1.6,0.3,3,0.8,4.1,1.3c1.2,0.5,2.1,1.2,2.7,2c0.6,0.8,0.9,1.9,0.9,3.3c0,1.1-0.2,2-0.6,2.8s-1,1.5-1.8,2s-1.6,0.9-2.6,1.2
			c-1,0.2-2.1,0.4-3.3,0.4c-1.2,0-2.3-0.1-3.4-0.4s-2.2-0.6-3.1-1.1c-1-0.5-1.9-1.1-2.8-1.8l1.4-2.5c0.3,0.4,0.8,0.7,1.3,1.1
			c0.5,0.4,1.2,0.7,1.9,1c0.7,0.3,1.5,0.5,2.3,0.7s1.7,0.3,2.5,0.3c1.6,0,2.9-0.3,3.8-0.9c0.9-0.6,1.4-1.5,1.4-2.6
			c0-0.9-0.3-1.5-0.8-2.1c-0.5-0.5-1.3-0.9-2.2-1.3s-2.2-0.7-3.6-1c-1.5-0.4-2.9-0.8-3.9-1.3c-1.1-0.5-1.8-1.1-2.4-1.8
			c-0.5-0.8-0.8-1.7-0.8-2.9c0-1.5,0.4-2.7,1.1-3.7s1.7-1.8,2.9-2.3c1.2-0.5,2.7-0.8,4.2-0.8c1,0,2,0.1,2.9,0.3s1.7,0.5,2.5,0.9
			s1.5,0.9,2.1,1.4L82,22.8z"/>
		<path class="st0" d="M97.7,41.1c-1.8,0-3.4-0.3-4.6-1c-1.2-0.6-2.2-1.5-3-2.6s-1.3-2.3-1.6-3.7S88,31,88,29.5V17.9h2.9v11.6
			c0,1.1,0.1,2.2,0.3,3.3s0.6,2,1.1,2.9c0.5,0.8,1.2,1.5,2.1,2s2,0.7,3.3,0.7s2.4-0.3,3.3-0.8s1.6-1.2,2.1-2s0.9-1.8,1.1-2.9
			c0.2-1.1,0.3-2.1,0.3-3.2V17.9h2.9v11.6c0,1.5-0.2,3-0.5,4.4c-0.4,1.4-0.9,2.6-1.7,3.7c-0.8,1.1-1.8,1.9-3,2.5
			S99.4,41.1,97.7,41.1z"/>
		<path class="st0" d="M112.6,40.9V18h9.6c1,0,1.9,0.2,2.8,0.6c0.8,0.4,1.6,1,2.2,1.7s1.1,1.5,1.5,2.4c0.3,0.9,0.5,1.8,0.5,2.7
			c0,1.2-0.3,2.4-0.8,3.6c-0.6,1.1-1.3,2-2.4,2.7c-1.1,0.7-2.2,1-3.5,1h-6.8v8.2L112.6,40.9L112.6,40.9z M115.5,30.1h6.7
			c0.8,0,1.5-0.2,2.1-0.6s1.1-1,1.4-1.7s0.5-1.5,0.5-2.4s-0.2-1.7-0.6-2.4c-0.4-0.7-0.9-1.3-1.5-1.7c-0.6-0.4-1.3-0.6-2.1-0.6h-6.5
			V30.1z"/>
		<path class="st0" d="M142.2,41.1c-1.8,0-3.4-0.3-4.6-1c-1.2-0.6-2.2-1.5-3-2.6s-1.3-2.3-1.6-3.7s-0.5-2.8-0.5-4.3V17.9h2.9v11.6
			c0,1.1,0.1,2.2,0.3,3.3s0.6,2,1.1,2.9c0.5,0.8,1.2,1.5,2.1,2c0.9,0.5,2,0.7,3.3,0.7s2.4-0.3,3.3-0.8c0.9-0.5,1.6-1.2,2.1-2
			s0.9-1.8,1.1-2.9c0.2-1.1,0.3-2.1,0.3-3.2V17.9h2.9v11.6c0,1.5-0.2,3-0.5,4.4c-0.4,1.4-0.9,2.6-1.7,3.7c-0.8,1.1-1.8,1.9-3,2.5
			S143.9,41.1,142.2,41.1z"/>
		<path class="st0" d="M172.6,38.3v2.6H157V18h15.3v2.6H160V28h10.7v2.4H160v7.9H172.6z"/>
		<path class="st0" d="M190.1,22.8c-0.3-0.3-0.6-0.6-1-0.9s-0.9-0.5-1.5-0.8c-0.5-0.2-1.1-0.4-1.8-0.5c-0.6-0.1-1.3-0.2-2-0.2
			c-1.8,0-3.1,0.3-3.9,1c-0.8,0.7-1.3,1.6-1.3,2.7c0,0.8,0.2,1.5,0.6,1.9c0.4,0.5,1.1,0.9,2,1.2c0.9,0.3,2,0.6,3.4,0.9
			c1.6,0.3,3,0.8,4.1,1.3c1.2,0.5,2.1,1.2,2.7,2c0.6,0.8,0.9,1.9,0.9,3.3c0,1.1-0.2,2-0.6,2.8c-0.4,0.8-1,1.5-1.8,2
			s-1.6,0.9-2.6,1.2c-1,0.2-2.1,0.4-3.3,0.4s-2.3-0.1-3.4-0.4s-2.2-0.6-3.1-1.1c-1-0.5-1.9-1.1-2.8-1.8l1.4-2.5
			c0.3,0.4,0.8,0.7,1.3,1.1c0.5,0.4,1.2,0.7,1.9,1s1.5,0.5,2.3,0.7s1.7,0.3,2.5,0.3c1.6,0,2.9-0.3,3.8-0.9c0.9-0.6,1.4-1.5,1.4-2.6
			c0-0.9-0.3-1.5-0.8-2.1c-0.5-0.5-1.3-0.9-2.2-1.3s-2.2-0.7-3.6-1c-1.5-0.4-2.9-0.8-3.9-1.3c-1.1-0.5-1.8-1.1-2.4-1.8
			s-0.8-1.7-0.8-2.9c0-1.5,0.4-2.7,1.1-3.7c0.7-1,1.7-1.8,2.9-2.3s2.7-0.8,4.2-0.8c1,0,2,0.1,2.9,0.3s1.7,0.5,2.5,0.9
			s1.5,0.9,2.1,1.4L190.1,22.8z"/>
		<path class="st0" d="M212.8,20.6h-7.9v20.3H202V20.6h-7.9V18h18.7V20.6z"/>
		<path class="st0" d="M224.7,41.1c-1.6,0-3.1-0.3-4.4-1s-2.4-1.5-3.4-2.6s-1.7-2.4-2.2-3.7c-0.5-1.4-0.8-2.8-0.8-4.3s0.3-3,0.8-4.4
			s1.3-2.6,2.3-3.7s2.1-1.9,3.4-2.6c1.3-0.6,2.7-1,4.3-1s3.1,0.3,4.4,1s2.4,1.6,3.4,2.7c0.9,1.1,1.7,2.4,2.2,3.7
			c0.5,1.4,0.8,2.8,0.8,4.2c0,1.5-0.3,3-0.8,4.4s-1.3,2.6-2.3,3.7c-1,1.1-2.1,1.9-3.4,2.6S226.2,41.1,224.7,41.1z M216.8,29.5
			c0,1.2,0.2,2.3,0.6,3.4c0.4,1.1,0.9,2,1.6,2.9c0.7,0.9,1.5,1.5,2.5,2s2,0.7,3.2,0.7s2.3-0.3,3.3-0.8s1.8-1.2,2.5-2.1
			c0.7-0.9,1.2-1.8,1.5-2.9c0.4-1.1,0.5-2.2,0.5-3.3c0-1.2-0.2-2.3-0.6-3.4c-0.4-1.1-0.9-2-1.6-2.9c-0.7-0.8-1.5-1.5-2.5-2
			s-2-0.7-3.2-0.7s-2.3,0.3-3.3,0.8s-1.8,1.2-2.5,2c-0.7,0.9-1.2,1.8-1.6,2.9C217,27.3,216.8,28.4,216.8,29.5z"/>
		<path class="st0" d="M14.7,54.3h2.5l9.4,22.9h-3.1l-2.6-6.7H11l-2.6,6.7H5.3L14.7,54.3z M20,68.3l-4.1-10.6l-4.1,10.6H20z"/>
		<path class="st0" d="M42.7,59.1c-0.3-0.3-0.6-0.6-1-0.9c-0.4-0.3-0.9-0.5-1.5-0.8c-0.5-0.2-1.1-0.4-1.8-0.5
			c-0.6-0.1-1.3-0.2-2-0.2c-1.8,0-3.1,0.3-3.9,1c-0.8,0.7-1.3,1.6-1.3,2.7c0,0.8,0.2,1.5,0.6,1.9c0.4,0.5,1.1,0.9,2,1.2
			s2,0.6,3.4,0.9c1.6,0.3,3,0.8,4.1,1.3c1.2,0.5,2.1,1.2,2.7,2s0.9,1.9,0.9,3.3c0,1.1-0.2,2-0.6,2.8c-0.4,0.8-1,1.5-1.8,2
			s-1.6,0.9-2.6,1.2c-1,0.2-2.1,0.4-3.3,0.4s-2.3-0.1-3.4-0.4c-1.1-0.3-2.2-0.6-3.1-1.1c-1-0.5-1.9-1.1-2.8-1.8l1.4-2.5
			c0.3,0.4,0.8,0.7,1.3,1.1c0.5,0.4,1.2,0.7,1.9,1s1.5,0.5,2.3,0.7s1.7,0.3,2.5,0.3c1.6,0,2.9-0.3,3.8-0.9c0.9-0.6,1.4-1.5,1.4-2.6
			c0-0.9-0.3-1.5-0.8-2.1c-0.5-0.5-1.3-0.9-2.2-1.3s-2.2-0.7-3.6-1c-1.5-0.4-2.9-0.8-3.9-1.3c-1.1-0.5-1.8-1.1-2.4-1.8
			s-0.8-1.7-0.8-2.9c0-1.5,0.4-2.7,1.1-3.7s1.7-1.8,2.9-2.3c1.2-0.5,2.7-0.8,4.2-0.8c1,0,2,0.1,2.9,0.3s1.7,0.5,2.5,0.9
			s1.5,0.9,2.1,1.4L42.7,59.1z"/>
		<path class="st0" d="M48.9,77.2V54.3h2.9v22.9H48.9z"/>
		<path class="st0" d="M66.5,77.4c-1.5,0-2.9-0.3-4.2-1s-2.4-1.5-3.4-2.6s-1.7-2.4-2.3-3.7c-0.5-1.4-0.8-2.8-0.8-4.3s0.3-3,0.8-4.4
			s1.3-2.6,2.2-3.7s2.1-1.9,3.4-2.5s2.7-0.9,4.2-0.9c2.2,0,4,0.5,5.5,1.4c1.4,0.9,2.5,2.1,3.3,3.6L73,60.8c-0.7-1.3-1.6-2.3-2.7-3
			c-1.2-0.6-2.4-1-3.8-1c-1.2,0-2.2,0.2-3.2,0.7c-0.9,0.5-1.8,1.2-2.4,2c-0.7,0.9-1.2,1.8-1.5,2.9c-0.4,1.1-0.5,2.2-0.5,3.4
			s0.2,2.4,0.6,3.5c0.4,1.1,1,2,1.7,2.9s1.6,1.5,2.5,2c1,0.5,2,0.7,3.1,0.7c1.3,0,2.6-0.3,3.7-1c1.2-0.7,2.3-1.7,3.4-3.1v3
			C71.8,76.2,69.3,77.4,66.5,77.4z M73.5,68h-4.9v-2.2H76v11.4h-2.5V68z"/>
		<path class="st0" d="M83.3,59.7v17.6h-2.9V54.4h2.5l14,17.9V54.4h2.9v22.9h-2.6L83.3,59.7z"/>
		<path class="st0" d="M112.2,54.3h2.5l9.4,22.9H121l-2.6-6.7h-9.9l-2.6,6.7h-3.1L112.2,54.3z M117.5,68.3l-4.1-10.6l-4.1,10.6
			H117.5z"/>
		<path class="st0" d="M127.1,77.2V54.3h7.9c2.5,0,4.5,0.5,6.1,1.5s2.9,2.4,3.7,4.1c0.8,1.7,1.2,3.7,1.2,5.8c0,2.3-0.5,4.3-1.4,6.1
			c-0.9,1.7-2.2,3.1-3.8,4c-1.7,0.9-3.6,1.4-5.9,1.4L127.1,77.2L127.1,77.2z M143.1,65.8c0-1.7-0.3-3.2-1-4.6
			c-0.6-1.3-1.6-2.4-2.8-3.1c-1.2-0.8-2.7-1.1-4.4-1.1h-5v17.8h5c1.8,0,3.2-0.4,4.5-1.2c1.2-0.8,2.1-1.9,2.7-3.2
			C142.8,68.9,143.1,67.4,143.1,65.8z"/>
		<path class="st0" d="M159.5,77.4c-1.6,0-3.1-0.3-4.4-1c-1.3-0.6-2.4-1.5-3.4-2.6s-1.7-2.4-2.2-3.7c-0.5-1.4-0.8-2.8-0.8-4.3
			s0.3-3,0.8-4.4s1.3-2.6,2.3-3.7c1-1.1,2.1-1.9,3.4-2.6c1.3-0.6,2.7-1,4.3-1s3.1,0.3,4.4,1c1.3,0.7,2.4,1.6,3.4,2.7
			c0.9,1.1,1.7,2.4,2.2,3.7c0.5,1.4,0.8,2.8,0.8,4.2c0,1.5-0.3,3-0.8,4.4s-1.3,2.6-2.3,3.7c-1,1.1-2.1,1.9-3.4,2.6
			S161,77.4,159.5,77.4z M151.6,65.8c0,1.2,0.2,2.3,0.6,3.4c0.4,1.1,0.9,2,1.6,2.9c0.7,0.8,1.5,1.5,2.5,2s2,0.7,3.2,0.7
			s2.3-0.3,3.3-0.8s1.8-1.2,2.5-2.1s1.2-1.8,1.5-2.9c0.4-1.1,0.5-2.2,0.5-3.3c0-1.2-0.2-2.3-0.6-3.4c-0.4-1.1-0.9-2-1.6-2.9
			c-0.7-0.8-1.5-1.5-2.5-2s-2-0.7-3.2-0.7s-2.3,0.3-3.3,0.8s-1.8,1.2-2.5,2s-1.2,1.8-1.6,2.9C151.8,63.6,151.6,64.7,151.6,65.8z"/>
	</g>
</g>
<linearGradient id="SVGID_1_" gradientUnits="userSpaceOnUse" x1="276.6638" y1="230.7753" x2="52.2362" y2="82.4248" gradientTransform="matrix(1 0 0 1 0 7.8)">
	<stop  offset="0" style="stop-color:#FF9996"/>
	<stop  offset="1" style="stop-color:#FFC680"/>
</linearGradient>
<line class="st1" x1="8" y1="164.4" x2="320.9" y2="164.4"/>
<linearGradient id="SVGID_2_" gradientUnits="userSpaceOnUse" x1="53.3109" y1="170.1911" x2="12.1891" y2="143.0089" gradientTransform="matrix(1 0 0 1 0 7.8)">
	<stop  offset="0" style="stop-color:#00DCCC"/>
	<stop  offset="1" style="stop-color:#C7F0B9"/>
</linearGradient>
<line class="st2" x1="8" y1="164.4" x2="57.5" y2="164.4"/>
<circle class="st3" cx="57.5" cy="164.4" r="18.9"/>
<g>
	<g>
		<path class="st4" d="M29.1,107.7c-0.2-0.2-0.4-0.4-0.9-0.6c-0.4-0.3-0.9-0.5-1.5-0.8c-0.6-0.2-1.2-0.5-1.9-0.7
			c-0.7-0.2-1.4-0.3-2.1-0.3c-1.3,0-2.2,0.2-2.8,0.7c-0.6,0.5-1,1.1-1,2c0,0.7,0.2,1.2,0.6,1.5c0.4,0.4,1,0.7,1.8,1s1.8,0.6,3,0.9
			c1.6,0.4,2.9,0.8,4.1,1.4c1.2,0.5,2,1.3,2.7,2.2c0.6,0.9,0.9,2.1,0.9,3.5c0,1.3-0.2,2.4-0.7,3.3c-0.5,0.9-1.1,1.6-2,2.2
			c-0.8,0.6-1.8,1-2.8,1.2c-1.1,0.3-2.2,0.4-3.3,0.4c-1.2,0-2.4-0.1-3.6-0.4c-1.2-0.2-2.3-0.6-3.4-1.1s-2.1-1-3-1.7l2.1-4
			c0.2,0.2,0.6,0.5,1.1,0.8s1.1,0.7,1.9,1s1.5,0.6,2.4,0.8s1.8,0.3,2.7,0.3c1.3,0,2.2-0.2,2.9-0.6c0.6-0.4,1-1,1-1.8
			c0-0.7-0.3-1.3-0.8-1.7s-1.2-0.8-2.2-1.1c-0.9-0.3-2-0.6-3.2-1c-1.5-0.4-2.8-0.9-3.8-1.4s-1.8-1.2-2.3-2s-0.7-1.8-0.7-3
			c0-1.6,0.4-3,1.2-4.1s1.8-2,3.2-2.5c1.3-0.6,2.8-0.9,4.4-0.9c1.1,0,2.2,0.1,3.2,0.4c1,0.2,1.9,0.6,2.8,1s1.7,0.8,2.4,1.3
			L29.1,107.7z M21.6,97.9h2.3v5.5l-2.3,0.3V97.9z M21.6,123.2h2.3v6.1h-2.3V123.2z M21.9,122.6v-18.4l1.6-0.4v18.8L21.9,122.6z"/>
		<path class="st4" d="M52.3,115.6c0,1.9-0.4,3.7-1.1,5.2s-1.8,2.7-3.1,3.6c-1.3,0.9-2.8,1.3-4.5,1.3s-3.1-0.4-4.5-1.3
			c-1.3-0.9-2.3-2-3.1-3.6c-0.8-1.5-1.1-3.2-1.1-5.2s0.4-3.7,1.1-5.2c0.8-1.5,1.8-2.7,3.1-3.6c1.3-0.9,2.8-1.3,4.5-1.3
			s3.1,0.4,4.5,1.3c1.3,0.9,2.3,2.1,3.1,3.6S52.3,113.7,52.3,115.6z M47.7,115.6c0-1.2-0.2-2.2-0.5-3.1c-0.3-0.9-0.8-1.6-1.5-2.1
			c-0.6-0.5-1.3-0.8-2.2-0.8c-0.8,0-1.6,0.3-2.2,0.8s-1.1,1.2-1.5,2.1c-0.3,0.9-0.5,1.9-0.5,3.1c0,1.2,0.2,2.2,0.5,3.1
			s0.8,1.6,1.5,2.1s1.4,0.8,2.2,0.8s1.5-0.3,2.1-0.8s1.1-1.2,1.5-2.1S47.7,116.8,47.7,115.6z"/>
		<path class="st4" d="M55.9,125.3v-4.8h3.7v4.8H55.9z"/>
		<path class="st4" d="M80.5,115.6c0,1.9-0.4,3.7-1.1,5.2s-1.8,2.7-3.1,3.6c-1.3,0.9-2.8,1.3-4.5,1.3s-3.1-0.4-4.5-1.3
			c-1.3-0.9-2.3-2-3.1-3.6c-0.8-1.6-1.1-3.2-1.1-5.2s0.4-3.7,1.1-5.2s1.8-2.7,3.1-3.6c1.3-0.9,2.8-1.3,4.5-1.3s3.1,0.4,4.5,1.3
			c1.3,0.9,2.3,2.1,3.1,3.6S80.5,113.7,80.5,115.6z M75.9,115.6c0-1.2-0.2-2.2-0.5-3.1c-0.3-0.9-0.8-1.6-1.5-2.1
			c-0.6-0.5-1.3-0.8-2.2-0.8c-0.8,0-1.6,0.3-2.2,0.8s-1.1,1.2-1.5,2.1c-0.3,0.9-0.5,1.9-0.5,3.1c0,1.2,0.2,2.2,0.5,3.1
			c0.3,0.9,0.8,1.6,1.5,2.1s1.4,0.8,2.2,0.8c0.8,0,1.5-0.3,2.1-0.8s1.1-1.2,1.5-2.1C75.7,117.8,75.9,116.8,75.9,115.6z"/>
		<path class="st4" d="M101.1,115.6c0,1.9-0.4,3.7-1.1,5.2s-1.8,2.7-3.1,3.6c-1.3,0.9-2.8,1.3-4.5,1.3s-3.1-0.4-4.5-1.3
			c-1.3-0.9-2.3-2-3.1-3.6s-1.1-3.2-1.1-5.2s0.4-3.7,1.1-5.2s1.8-2.7,3.1-3.6c1.3-0.9,2.8-1.3,4.5-1.3s3.1,0.4,4.5,1.3
			c1.3,0.9,2.3,2.1,3.1,3.6S101.1,113.7,101.1,115.6z M96.6,115.6c0-1.2-0.2-2.2-0.5-3.1c-0.3-0.9-0.8-1.6-1.5-2.1
			c-0.6-0.5-1.3-0.8-2.2-0.8c-0.8,0-1.6,0.3-2.2,0.8s-1.1,1.2-1.5,2.1c-0.3,0.9-0.5,1.9-0.5,3.1c0,1.2,0.2,2.2,0.5,3.1
			s0.8,1.6,1.5,2.1s1.4,0.8,2.2,0.8c0.8,0,1.5-0.3,2.1-0.8s1.1-1.2,1.5-2.1S96.6,116.8,96.6,115.6z"/>
	</g>
</g>
<g>
	<g>
		<path class="st4" d="M804.8,70.7H794v-4.1h18l-11.8,23.5H795L804.8,70.7z"/>
		<path class="st4" d="M823.9,70.7H813v-4.1h18l-11.8,23.5H814L823.9,70.7z"/>
		<path class="st4" d="M858.1,81.7v4.1h-16.6V61.9h16.3V66h-11.6v5.7h10.1v3.8h-10.1v6.2L858.1,81.7L858.1,81.7z"/>
		<path class="st4" d="M867.7,86.1c-1.5,0-2.9-0.2-4.3-0.7c-1.4-0.5-2.5-1.2-3.5-2.2l1.6-2.9c1.1,0.9,2.1,1.5,3.1,1.9s2,0.6,2.9,0.6
			s1.6-0.2,2.1-0.5s0.8-0.8,0.8-1.4c0-0.4-0.1-0.7-0.4-1c-0.3-0.2-0.7-0.4-1.3-0.6c-0.5-0.2-1.2-0.4-2-0.6c-1.3-0.4-2.4-0.8-3.3-1.2
			c-0.9-0.4-1.5-0.9-2-1.5c-0.4-0.6-0.7-1.4-0.7-2.3c0-1.2,0.3-2.1,0.9-3c0.6-0.8,1.4-1.5,2.5-1.9c1.1-0.5,2.3-0.7,3.7-0.7
			c1.3,0,2.4,0.2,3.6,0.6c1.1,0.4,2.1,1,3.1,1.9l-1.8,2.9c-0.9-0.7-1.7-1.2-2.6-1.5c-0.8-0.3-1.6-0.5-2.5-0.5
			c-0.5,0-0.9,0.1-1.3,0.2s-0.8,0.3-1,0.5c-0.3,0.3-0.4,0.6-0.4,1.1c0,0.4,0.1,0.7,0.4,1s0.6,0.4,1.1,0.6c0.5,0.2,1.1,0.4,1.8,0.6
			c1.4,0.4,2.6,0.8,3.6,1.2s1.7,0.9,2.2,1.5s0.7,1.4,0.7,2.5c0,1.7-0.6,3.1-1.9,4C871.6,85.6,869.8,86.1,867.7,86.1z"/>
		<path class="st4" d="M888.3,84.9c-0.4,0.2-0.8,0.3-1.4,0.5c-0.5,0.2-1.1,0.4-1.7,0.5c-0.6,0.1-1.2,0.2-1.9,0.2
			c-0.8,0-1.6-0.1-2.3-0.4c-0.7-0.3-1.2-0.8-1.7-1.4c-0.4-0.6-0.6-1.5-0.6-2.5v-10h-2.3v-3.5h2.3v-5.7h4.5v5.7h3.7v3.5h-3.7v8.5
			c0,0.6,0.2,1,0.5,1.3s0.7,0.4,1.2,0.4s0.9-0.1,1.4-0.2c0.4-0.2,0.8-0.3,1.1-0.4L888.3,84.9z"/>
		<path class="st4" d="M890.5,79.3V68.4h4.5v9.9c0,1.3,0.2,2.3,0.7,3s1.2,1,2.2,1c0.6,0,1.2-0.1,1.7-0.3s1.1-0.6,1.6-1
			s0.9-1,1.2-1.7V68.5h4.5v12.4c0,0.5,0.1,0.8,0.3,1s0.4,0.3,0.8,0.4V86c-0.4,0.1-0.8,0.1-1.1,0.2c-0.3,0-0.6,0.1-0.8,0.1
			c-0.8,0-1.5-0.2-2-0.6c-0.5-0.4-0.8-0.9-0.9-1.5l-0.1-1.4c-0.8,1.2-1.8,2.1-3,2.7c-1.2,0.6-2.6,0.9-4.1,0.9
			c-1.8,0-3.2-0.6-4.1-1.7S890.5,81.5,890.5,79.3z"/>
		<path class="st4" d="M910.3,77.1c0-1.7,0.3-3.2,1-4.6c0.7-1.4,1.6-2.4,2.8-3.2s2.5-1.2,4.1-1.2c1.3,0,2.5,0.3,3.5,1
			s1.9,1.5,2.4,2.4V61.3h4.5v19.5c0,0.5,0.1,0.8,0.2,1c0.2,0.2,0.4,0.3,0.8,0.4v3.7c-0.8,0.2-1.4,0.2-1.9,0.2c-0.8,0-1.5-0.2-2-0.6
			c-0.5-0.4-0.8-0.9-0.9-1.6l-0.1-1.1c-0.7,1.1-1.5,1.9-2.6,2.5s-2.3,0.9-3.5,0.9s-2.3-0.2-3.3-0.7s-1.9-1.1-2.7-1.9
			s-1.3-1.8-1.7-2.9C910.5,79.5,910.3,78.4,910.3,77.1z M924.1,79.4v-4.1c-0.2-0.6-0.6-1.2-1.1-1.7s-1-0.9-1.6-1.2s-1.2-0.4-1.8-0.4
			c-0.7,0-1.3,0.1-1.9,0.4c-0.6,0.3-1,0.7-1.5,1.2c-0.4,0.5-0.7,1-0.9,1.7c-0.2,0.6-0.3,1.3-0.3,2s0.1,1.4,0.4,2
			c0.2,0.6,0.6,1.2,1,1.6s1,0.8,1.6,1.1s1.2,0.4,1.9,0.4c0.4,0,0.9-0.1,1.3-0.2s0.9-0.3,1.2-0.6c0.4-0.3,0.7-0.6,1-0.9
			C923.8,80.2,924,79.8,924.1,79.4z"/>
		<path class="st4" d="M933.1,65.7v-4.5h4.5v4.5H933.1z M933.1,85.8V68.2h4.5v17.6H933.1z"/>
		<path class="st4" d="M940.4,80.7c0-1.1,0.3-2.1,1-3c0.6-0.9,1.5-1.5,2.7-2c1.1-0.5,2.5-0.7,3.9-0.7c0.7,0,1.5,0.1,2.3,0.2
			c0.8,0.1,1.4,0.3,2,0.5v-0.9c0-1.1-0.3-1.9-1-2.5s-1.6-0.9-2.9-0.9c-1,0-1.9,0.2-2.8,0.5c-0.9,0.3-1.8,0.8-2.8,1.5l-1.4-3
			c1.2-0.8,2.4-1.3,3.6-1.7c1.2-0.4,2.5-0.6,3.8-0.6c2.5,0,4.5,0.6,5.9,1.9c1.4,1.2,2.1,3,2.1,5.3v5.5c0,0.5,0.1,0.8,0.3,1
			s0.4,0.3,0.8,0.4v3.7c-0.4,0.1-0.8,0.1-1.1,0.2s-0.6,0.1-0.8,0.1c-0.9,0-1.6-0.2-2-0.6s-0.7-0.9-0.9-1.5l-0.1-0.9
			c-0.8,1-1.7,1.7-2.9,2.3c-1.1,0.5-2.3,0.8-3.5,0.8s-2.2-0.2-3.1-0.7c-0.9-0.5-1.7-1.1-2.2-2C940.7,82.6,940.4,81.7,940.4,80.7z
			 M951.4,81.5c0.2-0.3,0.4-0.5,0.6-0.8c0.2-0.3,0.2-0.5,0.2-0.7v-1.7c-0.5-0.2-1.1-0.4-1.7-0.5c-0.6-0.1-1.2-0.2-1.8-0.2
			c-1.2,0-2.1,0.2-2.9,0.7c-0.8,0.5-1.1,1.1-1.1,2c0,0.4,0.1,0.9,0.4,1.2c0.2,0.4,0.6,0.7,1.1,1c0.5,0.2,1,0.4,1.7,0.4
			s1.3-0.1,2-0.4C950.5,82.2,951,81.9,951.4,81.5z"/>
		<path class="st4" d="M977.3,85.8h-4.5v-9.7c0-1.4-0.2-2.4-0.7-3s-1.2-1-2.1-1c-0.6,0-1.2,0.2-1.8,0.5s-1.2,0.7-1.7,1.3
			c-0.5,0.5-0.9,1.2-1.1,1.9V86H961V68.6h4.1v3.3c0.4-0.8,1-1.4,1.7-1.9s1.5-0.9,2.4-1.2s1.9-0.4,2.9-0.4c1.1,0,2,0.2,2.7,0.6
			s1.2,0.9,1.6,1.6c0.4,0.7,0.6,1.4,0.8,2.2c0.1,0.8,0.2,1.7,0.2,2.5v10.5L977.3,85.8L977.3,85.8z"/>
		<path class="st4" d="M991.7,84.9c-0.4,0.2-0.8,0.3-1.4,0.5c-0.5,0.2-1.1,0.4-1.7,0.5c-0.6,0.1-1.2,0.2-1.9,0.2
			c-0.8,0-1.6-0.1-2.3-0.4c-0.7-0.3-1.2-0.8-1.7-1.4c-0.4-0.6-0.6-1.5-0.6-2.5v-10h-2.3v-3.5h2.3v-5.7h4.5v5.7h3.7v3.5h-3.7v8.5
			c0,0.6,0.2,1,0.5,1.3s0.7,0.4,1.2,0.4s0.9-0.1,1.4-0.2c0.4-0.2,0.8-0.3,1.1-0.4L991.7,84.9z"/>
		<path class="st4" d="M1002,86.1c-1.4,0-2.7-0.2-3.8-0.7s-2.1-1.1-2.9-2s-1.4-1.8-1.9-2.9c-0.4-1.1-0.7-2.2-0.7-3.4
			c0-1.7,0.4-3.2,1.1-4.6c0.8-1.4,1.8-2.5,3.2-3.3s3.1-1.2,5-1.2s3.6,0.4,4.9,1.2s2.4,1.9,3.1,3.3c0.7,1.4,1.1,2.8,1.1,4.4
			c0,0.3,0,0.5,0,0.8s0,0.5-0.1,0.7h-13.6c0.1,0.9,0.4,1.6,0.8,2.3c0.4,0.7,1,1.2,1.7,1.5s1.4,0.5,2.2,0.5c0.9,0,1.7-0.2,2.5-0.7
			c0.8-0.4,1.3-1,1.6-1.7l3.9,1.1c-0.4,0.9-1,1.7-1.8,2.4s-1.7,1.2-2.8,1.6S1003.3,86.1,1002,86.1z M997.4,75.7h9.2
			c-0.1-0.9-0.3-1.6-0.8-2.3c-0.4-0.6-1-1.1-1.6-1.5c-0.7-0.4-1.4-0.5-2.3-0.5c-0.8,0-1.5,0.2-2.2,0.5s-1.2,0.9-1.6,1.5
			C997.7,74,997.5,74.8,997.4,75.7z"/>
		<path class="st4" d="M1020.5,86.1c-1.5,0-2.9-0.2-4.3-0.7c-1.4-0.5-2.5-1.2-3.5-2.2l1.6-2.9c1.1,0.9,2.1,1.5,3.1,1.9
			s2,0.6,2.9,0.6s1.6-0.2,2.1-0.5s0.8-0.8,0.8-1.4c0-0.4-0.1-0.7-0.4-1c-0.3-0.2-0.7-0.4-1.3-0.6c-0.5-0.2-1.2-0.4-2-0.6
			c-1.3-0.4-2.4-0.8-3.3-1.2c-0.9-0.4-1.5-0.9-2-1.5c-0.4-0.6-0.7-1.4-0.7-2.3c0-1.2,0.3-2.1,0.9-3c0.6-0.8,1.4-1.5,2.5-1.9
			c1.1-0.5,2.3-0.7,3.7-0.7c1.3,0,2.4,0.2,3.6,0.6c1.1,0.4,2.1,1,3.1,1.9l-1.8,2.9c-0.9-0.7-1.7-1.2-2.6-1.5
			c-0.8-0.3-1.6-0.5-2.5-0.5c-0.5,0-0.9,0.1-1.3,0.2s-0.8,0.3-1,0.5c-0.3,0.3-0.4,0.6-0.4,1.1c0,0.4,0.1,0.7,0.4,1s0.6,0.4,1.1,0.6
			c0.5,0.2,1.1,0.4,1.8,0.6c1.4,0.4,2.6,0.8,3.6,1.2s1.7,0.9,2.2,1.5s0.7,1.4,0.7,2.5c0,1.7-0.6,3.1-1.9,4
			C1024.3,85.6,1022.6,86.1,1020.5,86.1z"/>
	</g>
</g>
<g>
	<g>
		<path class="st0" d="M798.7,25.2v17.6h-2.9V19.9h2.5l14,17.9V19.9h2.9v22.9h-2.6L798.7,25.2z"/>
		<path class="st0" d="M830.1,42.9c-1.8,0-3.4-0.3-4.6-1c-1.2-0.6-2.2-1.5-3-2.6s-1.3-2.3-1.6-3.7s-0.5-2.8-0.5-4.3V19.7h2.9v11.6
			c0,1.1,0.1,2.2,0.3,3.3s0.6,2,1.1,2.9c0.5,0.8,1.2,1.5,2.1,2c0.9,0.5,2,0.7,3.3,0.7s2.4-0.3,3.3-0.8c0.9-0.5,1.6-1.2,2.1-2
			s0.9-1.8,1.1-2.9c0.2-1.1,0.3-2.1,0.3-3.2V19.7h2.9v11.6c0,1.5-0.2,3-0.5,4.4c-0.4,1.4-0.9,2.6-1.7,3.7c-0.8,1.1-1.8,1.9-3,2.5
			S831.8,42.9,830.1,42.9z M831.1,17.1l-1.9-0.6l1.9-3.3h2.8L831.1,17.1z"/>
		<path class="st0" d="M864.8,42.8V25.3l-7.6,13.5h-1.8l-7.6-13.5v17.5H845V19.9h3.1l8.3,14.9l8.3-14.9h3v22.9H864.8z"/>
		<path class="st0" d="M888.7,40.2v2.6h-15.6V19.9h15.3v2.6H876v7.4h10.7v2.4H876v7.9H888.7z"/>
		<path class="st0" d="M892.7,42.8V19.9h9.8c1,0,1.9,0.2,2.8,0.6c0.8,0.4,1.6,1,2.2,1.7s1.1,1.5,1.5,2.4c0.3,0.9,0.5,1.8,0.5,2.7
			c0,1.1-0.2,2.1-0.6,3c-0.4,0.9-1,1.8-1.7,2.4c-0.7,0.7-1.6,1.1-2.5,1.4l5.6,8.8H907l-5.2-8.2h-6.1v8.2L892.7,42.8L892.7,42.8z
			 M895.6,31.9h6.9c0.8,0,1.5-0.2,2.1-0.7s1.1-1,1.4-1.8s0.5-1.5,0.5-2.4s-0.2-1.7-0.6-2.4c-0.4-0.7-0.9-1.3-1.5-1.7
			s-1.3-0.6-2.1-0.6h-6.7L895.6,31.9L895.6,31.9z"/>
		<path class="st0" d="M923.2,42.9c-1.6,0-3.1-0.3-4.4-1c-1.3-0.6-2.4-1.5-3.4-2.6s-1.7-2.4-2.2-3.7c-0.5-1.4-0.8-2.8-0.8-4.3
			s0.3-3,0.8-4.4s1.3-2.6,2.3-3.7s2.1-1.9,3.4-2.6c1.3-0.6,2.7-1,4.3-1s3.1,0.3,4.4,1s2.4,1.6,3.4,2.7c0.9,1.1,1.7,2.4,2.2,3.7
			s0.8,2.8,0.8,4.2c0,1.5-0.3,3-0.8,4.4s-1.3,2.6-2.3,3.7s-2.1,1.9-3.4,2.6S924.8,42.9,923.2,42.9z M915.4,31.3
			c0,1.2,0.2,2.3,0.6,3.4c0.4,1.1,0.9,2,1.6,2.9c0.7,0.8,1.5,1.5,2.5,2s2,0.7,3.2,0.7s2.3-0.3,3.3-0.8s1.8-1.2,2.5-2.1
			c0.7-0.9,1.2-1.8,1.5-2.9c0.4-1.1,0.5-2.2,0.5-3.3c0-1.2-0.2-2.3-0.6-3.4c-0.4-1.1-0.9-2-1.6-2.9c-0.7-0.8-1.5-1.5-2.5-2
			s-2-0.7-3.2-0.7s-2.3,0.3-3.3,0.8s-1.8,1.2-2.5,2s-1.2,1.8-1.6,2.9C915.6,29.1,915.4,30.2,915.4,31.3z"/>
		<path class="st0" d="M946.2,42.8V19.9h7.9c2.5,0,4.5,0.5,6.1,1.5s2.9,2.4,3.7,4.1s1.2,3.7,1.2,5.8c0,2.3-0.5,4.3-1.4,6.1
			c-0.9,1.7-2.2,3.1-3.8,4c-1.7,0.9-3.6,1.4-5.9,1.4H946.2z M962.3,31.3c0-1.7-0.3-3.2-1-4.6c-0.6-1.3-1.6-2.4-2.8-3.1
			c-1.2-0.8-2.7-1.1-4.4-1.1h-5v17.8h5c1.8,0,3.2-0.4,4.5-1.2s2.1-1.9,2.7-3.2C962,34.5,962.3,32.9,962.3,31.3z"/>
		<path class="st0" d="M984.9,40.2v2.6h-15.6V19.9h15.3v2.6h-12.4v7.4H983v2.4h-10.7v7.9H984.9z"/>
		<path class="st0" d="M1012.6,40.2v2.6H997V19.9h15.3v2.6h-12.4v7.4h10.7v2.4h-10.7v7.9H1012.6z"/>
		<path class="st0" d="M1030,24.6c-0.3-0.3-0.6-0.6-1-0.9s-0.9-0.5-1.5-0.8c-0.5-0.2-1.1-0.4-1.8-0.5c-0.6-0.1-1.3-0.2-2-0.2
			c-1.8,0-3.1,0.3-3.9,1c-0.8,0.7-1.3,1.6-1.3,2.7c0,0.8,0.2,1.5,0.6,1.9s1.1,0.9,2,1.2c0.9,0.3,2,0.6,3.4,0.9
			c1.6,0.3,3,0.8,4.1,1.3c1.2,0.5,2.1,1.2,2.7,2s0.9,1.9,0.9,3.3c0,1.1-0.2,2-0.6,2.8s-1,1.5-1.8,2s-1.6,0.9-2.6,1.2
			c-1,0.2-2.1,0.4-3.3,0.4s-2.3-0.1-3.4-0.4s-2.2-0.6-3.1-1.1c-1-0.5-1.9-1.1-2.8-1.8l1.4-2.5c0.3,0.4,0.8,0.7,1.3,1.1
			c0.5,0.4,1.2,0.7,1.9,1s1.5,0.5,2.3,0.7s1.7,0.3,2.5,0.3c1.6,0,2.9-0.3,3.8-0.9c0.9-0.6,1.4-1.5,1.4-2.6c0-0.9-0.3-1.5-0.8-2.1
			c-0.5-0.5-1.3-0.9-2.2-1.3c-0.9-0.4-2.2-0.7-3.6-1c-1.5-0.4-2.9-0.8-3.9-1.3c-1.1-0.5-1.8-1.1-2.4-1.8c-0.5-0.8-0.8-1.7-0.8-2.9
			c0-1.5,0.4-2.7,1.1-3.7c0.7-1,1.7-1.8,2.9-2.3s2.7-0.8,4.2-0.8c1,0,2,0.1,2.9,0.3c0.9,0.2,1.7,0.5,2.5,0.9s1.5,0.9,2.1,1.4
			L1030,24.6z"/>
		<path class="st0" d="M1052.7,22.4h-7.9v20.3h-2.9V22.4h-7.9v-2.6h18.7L1052.7,22.4L1052.7,22.4z"/>
		<path class="st0" d="M1065.5,42.9c-1.8,0-3.4-0.3-4.6-1c-1.2-0.6-2.2-1.5-3-2.6s-1.3-2.3-1.6-3.7c-0.3-1.4-0.5-2.8-0.5-4.3V19.7
			h2.9v11.6c0,1.1,0.1,2.2,0.3,3.3c0.2,1.1,0.6,2,1.1,2.9c0.5,0.8,1.2,1.5,2.1,2s2,0.7,3.3,0.7s2.4-0.3,3.3-0.8s1.6-1.2,2.1-2
			s0.9-1.8,1.1-2.9c0.2-1.1,0.3-2.1,0.3-3.2V19.7h2.9v11.6c0,1.5-0.2,3-0.5,4.4c-0.4,1.4-0.9,2.6-1.7,3.7c-0.8,1.1-1.8,1.9-3,2.5
			S1067.2,42.9,1065.5,42.9z"/>
		<path class="st0" d="M1080.4,42.8V19.9h7.9c2.5,0,4.5,0.5,6.1,1.5s2.9,2.4,3.7,4.1c0.8,1.7,1.2,3.7,1.2,5.8c0,2.3-0.5,4.3-1.4,6.1
			c-0.9,1.7-2.2,3.1-3.8,4c-1.7,0.9-3.6,1.4-5.9,1.4H1080.4z M1096.5,31.3c0-1.7-0.3-3.2-1-4.6c-0.6-1.3-1.6-2.4-2.8-3.1
			c-1.2-0.8-2.7-1.1-4.4-1.1h-5v17.8h5c1.8,0,3.2-0.4,4.5-1.2s2.1-1.9,2.7-3.2C1096.2,34.5,1096.5,32.9,1096.5,31.3z"/>
		<path class="st0" d="M1103.5,42.8V19.9h2.9v22.9H1103.5z"/>
		<path class="st0" d="M1118.9,19.8h2.5l9.4,22.9h-3.1l-2.6-6.7h-9.9l-2.6,6.7h-3.1L1118.9,19.8z M1124.1,33.8l-4.1-10.6l-4.1,10.6
			H1124.1z"/>
		<path class="st0" d="M1136.7,25.2v17.6h-2.9V19.9h2.5l14,17.9V19.9h2.9v22.9h-2.6L1136.7,25.2z"/>
		<path class="st0" d="M1175.1,22.4h-7.9v20.3h-2.9V22.4h-7.9v-2.6h18.7L1175.1,22.4L1175.1,22.4z"/>
		<path class="st0" d="M1194,40.2v2.6h-15.6V19.9h15.3v2.6h-12.4v7.4h10.7v2.4h-10.7v7.9H1194z"/>
		<path class="st0" d="M1211.4,24.6c-0.3-0.3-0.6-0.6-1-0.9s-0.9-0.5-1.5-0.8s-1.1-0.4-1.8-0.5c-0.6-0.1-1.3-0.2-2-0.2
			c-1.8,0-3.1,0.3-3.9,1s-1.3,1.6-1.3,2.7c0,0.8,0.2,1.5,0.6,1.9s1.1,0.9,2,1.2c0.9,0.3,2,0.6,3.4,0.9c1.6,0.3,3,0.8,4.1,1.3
			s2.1,1.2,2.7,2s0.9,1.9,0.9,3.3c0,1.1-0.2,2-0.6,2.8s-1,1.5-1.8,2s-1.6,0.9-2.6,1.2c-1,0.2-2.1,0.4-3.3,0.4
			c-1.2,0-2.3-0.1-3.4-0.4s-2.2-0.6-3.1-1.1c-1-0.5-1.9-1.1-2.8-1.8l1.4-2.5c0.3,0.4,0.8,0.7,1.3,1.1c0.5,0.4,1.2,0.7,1.9,1
			c0.7,0.3,1.5,0.5,2.3,0.7s1.7,0.3,2.5,0.3c1.6,0,2.9-0.3,3.8-0.9c0.9-0.6,1.4-1.5,1.4-2.6c0-0.9-0.3-1.5-0.8-2.1
			c-0.5-0.5-1.3-0.9-2.2-1.3c-0.9-0.4-2.2-0.7-3.6-1c-1.5-0.4-2.9-0.8-3.9-1.3c-1.1-0.5-1.8-1.1-2.4-1.8c-0.5-0.8-0.8-1.7-0.8-2.9
			c0-1.5,0.4-2.7,1.1-3.7s1.7-1.8,2.9-2.3c1.2-0.5,2.7-0.8,4.2-0.8c1,0,2,0.1,2.9,0.3s1.7,0.5,2.5,0.9s1.5,0.9,2.1,1.4L1211.4,24.6z
			"/>
	</g>
</g>
<g>
	<g>
		<path class="st0" d="M447.5,25.5v17.6h-2.9V20.2h2.5l14,17.9V20.2h2.9v22.9h-2.6L447.5,25.5z"/>
		<path class="st0" d="M478.9,43.3c-1.8,0-3.4-0.3-4.6-1c-1.2-0.6-2.2-1.5-3-2.6s-1.3-2.3-1.6-3.7s-0.5-2.8-0.5-4.3V20.1h2.9v11.6
			c0,1.1,0.1,2.2,0.3,3.3s0.6,2,1.1,2.9c0.5,0.8,1.2,1.5,2.1,2s2,0.7,3.3,0.7s2.4-0.3,3.3-0.8s1.6-1.2,2.1-2s0.9-1.8,1.1-2.9
			c0.2-1.1,0.3-2.1,0.3-3.2V20.1h2.9v11.6c0,1.5-0.2,3-0.5,4.4c-0.4,1.4-0.9,2.6-1.7,3.7c-0.8,1.1-1.8,1.9-3,2.5
			S480.6,43.3,478.9,43.3z M479.9,17.4l-1.9-0.6l1.9-3.3h2.8L479.9,17.4z"/>
		<path class="st0" d="M513.6,43.1V25.6L506,39.1h-1.8l-7.6-13.5v17.5h-2.9V20.2h3.1l8.3,14.9l8.3-14.9h3v22.9H513.6z"/>
		<path class="st0" d="M537.6,40.5v2.6H522V20.2h15.3v2.6h-12.4v7.4h10.7v2.4h-10.7v7.9H537.6z"/>
		<path class="st0" d="M541.5,43.1V20.2h9.8c1,0,1.9,0.2,2.8,0.6c0.8,0.4,1.6,1,2.2,1.7c0.6,0.7,1.1,1.5,1.5,2.4
			c0.3,0.9,0.5,1.8,0.5,2.7c0,1.1-0.2,2.1-0.6,3c-0.4,0.9-1,1.8-1.7,2.4c-0.7,0.7-1.6,1.1-2.5,1.4l5.6,8.8h-3.3l-5.2-8.2h-6.1v8.2
			L541.5,43.1L541.5,43.1z M544.4,32.3h6.9c0.8,0,1.5-0.2,2.1-0.7s1.1-1,1.4-1.8c0.3-0.7,0.5-1.5,0.5-2.4s-0.2-1.7-0.6-2.4
			s-0.9-1.3-1.5-1.7c-0.6-0.4-1.3-0.6-2.1-0.6h-6.7L544.4,32.3L544.4,32.3z"/>
		<path class="st0" d="M572,43.3c-1.6,0-3.1-0.3-4.4-1s-2.4-1.5-3.4-2.6s-1.7-2.4-2.2-3.7c-0.5-1.4-0.8-2.8-0.8-4.3s0.3-3,0.8-4.4
			s1.3-2.6,2.3-3.7s2.1-1.9,3.4-2.6c1.3-0.6,2.7-1,4.3-1s3.1,0.3,4.4,1c1.3,0.7,2.4,1.6,3.4,2.7c0.9,1.1,1.7,2.4,2.2,3.7
			s0.8,2.8,0.8,4.2c0,1.5-0.3,3-0.8,4.4s-1.3,2.6-2.3,3.7s-2.1,1.9-3.4,2.6S573.6,43.3,572,43.3z M564.2,31.6c0,1.2,0.2,2.3,0.6,3.4
			c0.4,1.1,0.9,2,1.6,2.9c0.7,0.8,1.5,1.5,2.5,2s2,0.7,3.2,0.7s2.3-0.3,3.3-0.8s1.8-1.2,2.5-2.1c0.7-0.9,1.2-1.8,1.5-2.9
			c0.4-1.1,0.5-2.2,0.5-3.3c0-1.2-0.2-2.3-0.6-3.4c-0.4-1.1-0.9-2-1.6-2.9c-0.7-0.8-1.5-1.5-2.5-2s-2-0.7-3.2-0.7s-2.3,0.3-3.3,0.8
			s-1.8,1.2-2.5,2s-1.2,1.8-1.6,2.9C564.4,29.4,564.2,30.5,564.2,31.6z"/>
		<path class="st0" d="M595,43.1V20.2h7.9c2.5,0,4.5,0.5,6.1,1.5s2.9,2.4,3.7,4.1s1.2,3.7,1.2,5.8c0,2.3-0.5,4.3-1.4,6.1
			c-0.9,1.7-2.2,3.1-3.8,4c-1.7,0.9-3.6,1.4-5.9,1.4H595L595,43.1z M611.1,31.6c0-1.7-0.3-3.2-1-4.6c-0.6-1.3-1.6-2.4-2.8-3.1
			c-1.2-0.8-2.7-1.1-4.4-1.1h-5v17.8h5c1.8,0,3.2-0.4,4.5-1.2s2.1-1.9,2.7-3.2C610.8,34.8,611.1,33.3,611.1,31.6z"/>
		<path class="st0" d="M633.7,40.5v2.6h-15.6V20.2h15.3v2.6H621v7.4h10.7v2.4H621v7.9H633.7z"/>
		<path class="st0" d="M444.6,79.4V56.5h7.9c2.5,0,4.5,0.5,6.1,1.5s2.9,2.4,3.7,4.1c0.8,1.7,1.2,3.7,1.2,5.8c0,2.3-0.5,4.3-1.4,6.1
			c-0.9,1.7-2.2,3.1-3.8,4c-1.7,0.9-3.6,1.4-5.9,1.4L444.6,79.4L444.6,79.4z M460.6,67.9c0-1.7-0.3-3.2-1-4.6
			c-0.6-1.3-1.6-2.4-2.8-3.1c-1.2-0.8-2.7-1.1-4.4-1.1h-5v17.8h5c1.8,0,3.2-0.4,4.5-1.2c1.2-0.8,2.1-1.9,2.7-3.2
			C460.3,71.1,460.6,69.6,460.6,67.9z"/>
		<path class="st0" d="M477,79.6c-1.6,0-3.1-0.3-4.4-1c-1.3-0.6-2.4-1.5-3.4-2.6s-1.7-2.4-2.2-3.7c-0.5-1.4-0.8-2.8-0.8-4.3
			s0.3-3,0.8-4.4s1.3-2.6,2.3-3.7c1-1.1,2.1-1.9,3.4-2.6c1.3-0.6,2.7-1,4.3-1c1.6,0,3.1,0.3,4.4,1s2.4,1.6,3.4,2.7
			c0.9,1.1,1.7,2.4,2.2,3.7s0.8,2.8,0.8,4.2c0,1.5-0.3,3-0.8,4.4s-1.3,2.6-2.3,3.7c-1,1.1-2.1,1.9-3.4,2.6S478.5,79.6,477,79.6z
			 M469.1,68c0,1.2,0.2,2.3,0.6,3.4c0.4,1.1,0.9,2,1.6,2.9s1.5,1.5,2.5,2s2,0.7,3.2,0.7s2.3-0.3,3.3-0.8s1.8-1.2,2.5-2.1
			s1.2-1.8,1.5-2.9c0.4-1.1,0.5-2.2,0.5-3.3c0-1.2-0.2-2.3-0.6-3.4c-0.4-1.1-0.9-2-1.6-2.9c-0.7-0.8-1.5-1.5-2.5-2s-2-0.7-3.2-0.7
			s-2.3,0.3-3.3,0.8s-1.8,1.2-2.5,2c-0.7,0.9-1.2,1.8-1.6,2.9C469.3,65.7,469.1,66.8,469.1,68z"/>
		<path class="st0" d="M490.3,67.8c0-1.4,0.2-2.8,0.7-4.1s1.2-2.6,2.1-3.7s2.1-2,3.4-2.6c1.4-0.7,2.9-1,4.6-1c2,0,3.8,0.5,5.3,1.4
			s2.5,2.1,3.3,3.6l-2.3,1.5c-0.5-1-1-1.7-1.7-2.3s-1.5-1-2.3-1.2S501.8,59,501,59c-1.3,0-2.4,0.3-3.4,0.8s-1.8,1.2-2.5,2.1
			c-0.7,0.9-1.2,1.8-1.5,2.9c-0.3,1.1-0.5,2.1-0.5,3.2c0,1.2,0.2,2.3,0.6,3.4c0.4,1.1,1,2.1,1.7,2.9s1.5,1.5,2.5,2s2,0.7,3.2,0.7
			c0.8,0,1.6-0.1,2.5-0.4c0.8-0.3,1.6-0.7,2.4-1.3s1.3-1.4,1.7-2.3l2.4,1.3c-0.5,1.1-1.2,2.1-2.2,2.9s-2.1,1.4-3.3,1.8
			c-1.2,0.4-2.4,0.6-3.6,0.6c-1.6,0-3-0.3-4.3-1s-2.4-1.6-3.4-2.7s-1.7-2.4-2.2-3.8S490.3,69.2,490.3,67.8z"/>
		<path class="st0" d="M529.4,76.8v2.6h-15.6V56.5h15.3v2.6h-12.4v7.4h10.7v2.4h-10.7v7.9H529.4z"/>
		<path class="st0" d="M536.3,61.9v17.6h-2.9V56.6h2.5l14,17.9V56.6h2.9v22.9h-2.6L536.3,61.9z"/>
		<path class="st0" d="M574.7,59.1h-7.9v20.3h-2.9V59.1H556v-2.6h18.7V59.1z"/>
		<path class="st0" d="M593.6,76.8v2.6H578V56.5h15.3v2.6h-12.4v7.4h10.7v2.4h-10.7v7.9H593.6z"/>
		<path class="st0" d="M611,61.3c-0.3-0.3-0.6-0.6-1-0.9s-0.9-0.5-1.5-0.8s-1.1-0.4-1.8-0.5c-0.6-0.1-1.3-0.2-2-0.2
			c-1.8,0-3.1,0.3-3.9,1c-0.8,0.7-1.3,1.6-1.3,2.7c0,0.8,0.2,1.5,0.6,1.9s1.1,0.9,2,1.2s2,0.6,3.4,0.9c1.6,0.3,3,0.8,4.1,1.3
			s2.1,1.2,2.7,2s0.9,1.9,0.9,3.3c0,1.1-0.2,2-0.6,2.8c-0.4,0.8-1,1.5-1.8,2s-1.6,0.9-2.6,1.2c-1,0.2-2.1,0.4-3.3,0.4
			s-2.3-0.1-3.4-0.4s-2.2-0.6-3.1-1.1c-1-0.5-1.9-1.1-2.8-1.8l1.4-2.5c0.3,0.4,0.8,0.7,1.3,1.1c0.5,0.4,1.2,0.7,1.9,1
			s1.5,0.5,2.3,0.7s1.7,0.3,2.5,0.3c1.6,0,2.9-0.3,3.8-0.9c0.9-0.6,1.4-1.5,1.4-2.6c0-0.9-0.3-1.5-0.8-2.1c-0.5-0.5-1.3-0.9-2.2-1.3
			s-2.2-0.7-3.6-1c-1.5-0.4-2.9-0.8-3.9-1.3c-1.1-0.5-1.8-1.1-2.4-1.8c-0.5-0.8-0.8-1.7-0.8-2.9c0-1.5,0.4-2.7,1.1-3.7
			c0.7-1,1.7-1.8,2.9-2.3s2.7-0.8,4.2-0.8c1,0,2,0.1,2.9,0.3s1.7,0.5,2.5,0.9s1.5,0.9,2.1,1.4L611,61.3z"/>
	</g>
</g>
<path class="st5" d="M1306.1,144.2c0,5.5-4.4,9.9-9.9,9.9s-9.9-4.4-9.9-9.9s4.4-9.9,9.9-9.9C1301.6,134.3,1306.1,138.7,1306.1,144.2
	z"/>
<path class="st5" d="M1276.8,144.2c0,5.5-4.4,9.9-9.9,9.9s-9.9-4.4-9.9-9.9s4.4-9.9,9.9-9.9C1272.3,134.3,1276.8,138.7,1276.8,144.2
	z"/>
<path class="st5" d="M1247.4,144.2c0,5.5-4.4,9.9-9.9,9.9s-9.9-4.4-9.9-9.9s4.4-9.9,9.9-9.9S1247.4,138.7,1247.4,144.2z"/>
<path class="st5" d="M1218.1,144.2c0,5.5-4.4,9.9-9.9,9.9s-9.9-4.4-9.9-9.9s4.4-9.9,9.9-9.9S1218.1,138.7,1218.1,144.2z"/>
<path class="st5" d="M1188.8,144.2c0,5.5-4.4,9.9-9.9,9.9s-9.9-4.4-9.9-9.9s4.4-9.9,9.9-9.9S1188.8,138.7,1188.8,144.2z"/>
<path class="st5" d="M1159.5,144.2c0,5.5-4.4,9.9-9.9,9.9s-9.9-4.4-9.9-9.9s4.4-9.9,9.9-9.9C1155,134.3,1159.5,138.7,1159.5,144.2z"
	/>
<linearGradient id="SVGID_3_" gradientUnits="userSpaceOnUse" x1="1110.3459" y1="136.4" x2="1130.146" y2="136.4" gradientTransform="matrix(1 0 0 1 0 7.8)">
	<stop  offset="0" style="stop-color:#00DCCC"/>
	<stop  offset="1" style="stop-color:#C7F0B9"/>
</linearGradient>
<path class="st6" d="M1130.1,144.2c0,5.5-4.4,9.9-9.9,9.9s-9.9-4.4-9.9-9.9s4.4-9.9,9.9-9.9S1130.1,138.7,1130.1,144.2z"/>
<linearGradient id="SVGID_4_" gradientUnits="userSpaceOnUse" x1="1081.022" y1="136.4" x2="1100.822" y2="136.4" gradientTransform="matrix(1 0 0 1 0 7.8)">
	<stop  offset="0" style="stop-color:#00DCCC"/>
	<stop  offset="1" style="stop-color:#C7F0B9"/>
</linearGradient>
<path class="st7" d="M1100.8,144.2c0,5.5-4.4,9.9-9.9,9.9s-9.9-4.4-9.9-9.9s4.4-9.9,9.9-9.9S1100.8,138.7,1100.8,144.2z"/>
<path class="st5" d="M1335.4,144.2c0,5.5-4.4,9.9-9.9,9.9s-9.9-4.4-9.9-9.9s4.4-9.9,9.9-9.9S1335.4,138.7,1335.4,144.2z"/>
<path class="st5" d="M1306.1,170.2c0,5.5-4.4,9.9-9.9,9.9s-9.9-4.4-9.9-9.9s4.4-9.9,9.9-9.9C1301.6,160.3,1306.1,164.8,1306.1,170.2
	z"/>
<circle class="st5" cx="1266.9" cy="170.2" r="9.9"/>
<circle class="st5" cx="1237.5" cy="170.2" r="9.9"/>
<linearGradient id="SVGID_5_" gradientUnits="userSpaceOnUse" x1="1198.2999" y1="162.4" x2="1218.1" y2="162.4" gradientTransform="matrix(1 0 0 1 0 7.8)">
	<stop  offset="0" style="stop-color:#00DCCC"/>
	<stop  offset="1" style="stop-color:#C7F0B9"/>
</linearGradient>
<circle class="st8" cx="1208.2" cy="170.2" r="9.9"/>
<linearGradient id="SVGID_6_" gradientUnits="userSpaceOnUse" x1="1169" y1="162.4" x2="1188.8" y2="162.4" gradientTransform="matrix(1 0 0 1 0 7.8)">
	<stop  offset="0" style="stop-color:#00DCCC"/>
	<stop  offset="1" style="stop-color:#C7F0B9"/>
</linearGradient>
<circle class="st9" cx="1178.9" cy="170.2" r="9.9"/>
<linearGradient id="SVGID_7_" gradientUnits="userSpaceOnUse" x1="1139.6698" y1="162.4" x2="1159.4698" y2="162.4" gradientTransform="matrix(1 0 0 1 0 7.8)">
	<stop  offset="0" style="stop-color:#00DCCC"/>
	<stop  offset="1" style="stop-color:#C7F0B9"/>
</linearGradient>
<circle class="st10" cx="1149.6" cy="170.2" r="9.9"/>
<linearGradient id="SVGID_8_" gradientUnits="userSpaceOnUse" x1="1110.3459" y1="162.4" x2="1130.146" y2="162.4" gradientTransform="matrix(1 0 0 1 0 7.8)">
	<stop  offset="0" style="stop-color:#00DCCC"/>
	<stop  offset="1" style="stop-color:#C7F0B9"/>
</linearGradient>
<circle class="st11" cx="1120.2" cy="170.2" r="9.9"/>
<linearGradient id="SVGID_9_" gradientUnits="userSpaceOnUse" x1="1081.022" y1="162.4" x2="1100.822" y2="162.4" gradientTransform="matrix(1 0 0 1 0 7.8)">
	<stop  offset="0" style="stop-color:#00DCCC"/>
	<stop  offset="1" style="stop-color:#C7F0B9"/>
</linearGradient>
<circle class="st12" cx="1090.9" cy="170.2" r="9.9"/>
<linearGradient id="SVGID_10_" gradientUnits="userSpaceOnUse" x1="1315.6" y1="162.4" x2="1335.4" y2="162.4" gradientTransform="matrix(1 0 0 1 0 7.8)">
	<stop  offset="0" style="stop-color:#00DCCC"/>
	<stop  offset="1" style="stop-color:#C7F0B9"/>
</linearGradient>
<path class="st13" d="M1335.4,170.2c0,5.5-4.4,9.9-9.9,9.9s-9.9-4.4-9.9-9.9s4.4-9.9,9.9-9.9S1335.4,164.8,1335.4,170.2z"/>
<linearGradient id="SVGID_11_" gradientUnits="userSpaceOnUse" x1="1286.2999" y1="188.5" x2="1306.1" y2="188.5" gradientTransform="matrix(1 0 0 1 0 7.8)">
	<stop  offset="0" style="stop-color:#00DCCC"/>
	<stop  offset="1" style="stop-color:#C7F0B9"/>
</linearGradient>
<path class="st14" d="M1306.1,196.3c0,5.5-4.4,9.9-9.9,9.9s-9.9-4.4-9.9-9.9s4.4-9.9,9.9-9.9
	C1301.6,186.4,1306.1,190.8,1306.1,196.3z"/>
<circle class="st5" cx="1266.9" cy="196.3" r="9.9"/>
<circle class="st5" cx="1237.5" cy="196.3" r="9.9"/>
<linearGradient id="SVGID_12_" gradientUnits="userSpaceOnUse" x1="1198.2999" y1="188.5" x2="1218.1" y2="188.5" gradientTransform="matrix(1 0 0 1 0 7.8)">
	<stop  offset="0" style="stop-color:#00DCCC"/>
	<stop  offset="1" style="stop-color:#C7F0B9"/>
</linearGradient>
<circle class="st15" cx="1208.2" cy="196.3" r="9.9"/>
<linearGradient id="SVGID_13_" gradientUnits="userSpaceOnUse" x1="1169" y1="188.5" x2="1188.8" y2="188.5" gradientTransform="matrix(1 0 0 1 0 7.8)">
	<stop  offset="0" style="stop-color:#00DCCC"/>
	<stop  offset="1" style="stop-color:#C7F0B9"/>
</linearGradient>
<circle class="st16" cx="1178.9" cy="196.3" r="9.9"/>
<linearGradient id="SVGID_14_" gradientUnits="userSpaceOnUse" x1="1139.6698" y1="188.5" x2="1159.4698" y2="188.5" gradientTransform="matrix(1 0 0 1 0 7.8)">
	<stop  offset="0" style="stop-color:#00DCCC"/>
	<stop  offset="1" style="stop-color:#C7F0B9"/>
</linearGradient>
<circle class="st17" cx="1149.6" cy="196.3" r="9.9"/>
<linearGradient id="SVGID_15_" gradientUnits="userSpaceOnUse" x1="1110.3459" y1="188.5" x2="1130.146" y2="188.5" gradientTransform="matrix(1 0 0 1 0 7.8)">
	<stop  offset="0" style="stop-color:#00DCCC"/>
	<stop  offset="1" style="stop-color:#C7F0B9"/>
</linearGradient>
<circle class="st18" cx="1120.2" cy="196.3" r="9.9"/>
<linearGradient id="SVGID_16_" gradientUnits="userSpaceOnUse" x1="1081.022" y1="188.5" x2="1100.822" y2="188.5" gradientTransform="matrix(1 0 0 1 0 7.8)">
	<stop  offset="0" style="stop-color:#00DCCC"/>
	<stop  offset="1" style="stop-color:#C7F0B9"/>
</linearGradient>
<circle class="st19" cx="1090.9" cy="196.3" r="9.9"/>
<linearGradient id="SVGID_17_" gradientUnits="userSpaceOnUse" x1="1315.6" y1="188.5" x2="1335.4" y2="188.5" gradientTransform="matrix(1 0 0 1 0 7.8)">
	<stop  offset="0" style="stop-color:#00DCCC"/>
	<stop  offset="1" style="stop-color:#C7F0B9"/>
</linearGradient>
<path class="st20" d="M1335.4,196.3c0,5.5-4.4,9.9-9.9,9.9s-9.9-4.4-9.9-9.9s4.4-9.9,9.9-9.9S1335.4,190.8,1335.4,196.3z"/>
<linearGradient id="SVGID_18_" gradientUnits="userSpaceOnUse" x1="1286.2999" y1="214.5" x2="1306.1" y2="214.5" gradientTransform="matrix(1 0 0 1 0 7.8)">
	<stop  offset="0" style="stop-color:#00DCCC"/>
	<stop  offset="1" style="stop-color:#C7F0B9"/>
</linearGradient>
<path class="st21" d="M1306.1,222.3c0,5.5-4.4,9.9-9.9,9.9s-9.9-4.4-9.9-9.9s4.4-9.9,9.9-9.9
	C1301.6,212.4,1306.1,216.8,1306.1,222.3z"/>
<linearGradient id="SVGID_19_" gradientUnits="userSpaceOnUse" x1="1256.9655" y1="214.5" x2="1276.7655" y2="214.5" gradientTransform="matrix(1 0 0 1 0 7.8)">
	<stop  offset="0" style="stop-color:#00DCCC"/>
	<stop  offset="1" style="stop-color:#C7F0B9"/>
</linearGradient>
<circle class="st22" cx="1266.9" cy="222.3" r="9.9"/>
<linearGradient id="SVGID_20_" gradientUnits="userSpaceOnUse" x1="1227.6416" y1="214.5" x2="1247.4417" y2="214.5" gradientTransform="matrix(1 0 0 1 0 7.8)">
	<stop  offset="0" style="stop-color:#00DCCC"/>
	<stop  offset="1" style="stop-color:#C7F0B9"/>
</linearGradient>
<circle class="st23" cx="1237.5" cy="222.3" r="9.9"/>
<linearGradient id="SVGID_21_" gradientUnits="userSpaceOnUse" x1="1198.2999" y1="214.5" x2="1218.1" y2="214.5" gradientTransform="matrix(1 0 0 1 0 7.8)">
	<stop  offset="0" style="stop-color:#00DCCC"/>
	<stop  offset="1" style="stop-color:#C7F0B9"/>
</linearGradient>
<circle class="st24" cx="1208.2" cy="222.3" r="9.9"/>
<linearGradient id="SVGID_22_" gradientUnits="userSpaceOnUse" x1="1169" y1="214.5" x2="1188.8" y2="214.5" gradientTransform="matrix(1 0 0 1 0 7.8)">
	<stop  offset="0" style="stop-color:#00DCCC"/>
	<stop  offset="1" style="stop-color:#C7F0B9"/>
</linearGradient>
<circle class="st25" cx="1178.9" cy="222.3" r="9.9"/>
<linearGradient id="SVGID_23_" gradientUnits="userSpaceOnUse" x1="1139.6698" y1="214.5" x2="1159.4698" y2="214.5" gradientTransform="matrix(1 0 0 1 0 7.8)">
	<stop  offset="0" style="stop-color:#00DCCC"/>
	<stop  offset="1" style="stop-color:#C7F0B9"/>
</linearGradient>
<circle class="st26" cx="1149.6" cy="222.3" r="9.9"/>
<linearGradient id="SVGID_24_" gradientUnits="userSpaceOnUse" x1="1110.3459" y1="214.5" x2="1130.146" y2="214.5" gradientTransform="matrix(1 0 0 1 0 7.8)">
	<stop  offset="0" style="stop-color:#00DCCC"/>
	<stop  offset="1" style="stop-color:#C7F0B9"/>
</linearGradient>
<circle class="st27" cx="1120.2" cy="222.3" r="9.9"/>
<linearGradient id="SVGID_25_" gradientUnits="userSpaceOnUse" x1="1081.022" y1="214.5" x2="1100.822" y2="214.5" gradientTransform="matrix(1 0 0 1 0 7.8)">
	<stop  offset="0" style="stop-color:#00DCCC"/>
	<stop  offset="1" style="stop-color:#C7F0B9"/>
</linearGradient>
<circle class="st28" cx="1090.9" cy="222.3" r="9.9"/>
<linearGradient id="SVGID_26_" gradientUnits="userSpaceOnUse" x1="1315.6" y1="214.5" x2="1335.4" y2="214.5" gradientTransform="matrix(1 0 0 1 0 7.8)">
	<stop  offset="0" style="stop-color:#00DCCC"/>
	<stop  offset="1" style="stop-color:#C7F0B9"/>
</linearGradient>
<path class="st29" d="M1335.4,222.3c0,5.5-4.4,9.9-9.9,9.9s-9.9-4.4-9.9-9.9s4.4-9.9,9.9-9.9S1335.4,216.8,1335.4,222.3z"/>
<linearGradient id="SVGID_27_" gradientUnits="userSpaceOnUse" x1="994.2999" y1="110.5" x2="1014.1" y2="110.5" gradientTransform="matrix(1 0 0 1 0 7.8)">
	<stop  offset="0" style="stop-color:#00DCCC"/>
	<stop  offset="1" style="stop-color:#C7F0B9"/>
</linearGradient>
<path class="st30" d="M1014.1,118.3c0,5.5-4.4,9.9-9.9,9.9s-9.9-4.4-9.9-9.9s4.4-9.9,9.9-9.9
	C1009.6,108.4,1014.1,112.8,1014.1,118.3z"/>
<linearGradient id="SVGID_28_" gradientUnits="userSpaceOnUse" x1="964.9655" y1="110.5" x2="984.7656" y2="110.5" gradientTransform="matrix(1 0 0 1 0 7.8)">
	<stop  offset="0" style="stop-color:#00DCCC"/>
	<stop  offset="1" style="stop-color:#C7F0B9"/>
</linearGradient>
<circle class="st31" cx="974.9" cy="118.3" r="9.9"/>
<linearGradient id="SVGID_29_" gradientUnits="userSpaceOnUse" x1="935.6416" y1="110.5" x2="955.4417" y2="110.5" gradientTransform="matrix(1 0 0 1 0 7.8)">
	<stop  offset="0" style="stop-color:#00DCCC"/>
	<stop  offset="1" style="stop-color:#C7F0B9"/>
</linearGradient>
<circle class="st32" cx="945.5" cy="118.3" r="9.9"/>
<linearGradient id="SVGID_30_" gradientUnits="userSpaceOnUse" x1="906.3" y1="110.5" x2="926.1" y2="110.5" gradientTransform="matrix(1 0 0 1 0 7.8)">
	<stop  offset="0" style="stop-color:#00DCCC"/>
	<stop  offset="1" style="stop-color:#C7F0B9"/>
</linearGradient>
<circle class="st33" cx="916.2" cy="118.3" r="9.9"/>
<linearGradient id="SVGID_31_" gradientUnits="userSpaceOnUse" x1="877" y1="110.5" x2="896.8" y2="110.5" gradientTransform="matrix(1 0 0 1 0 7.8)">
	<stop  offset="0" style="stop-color:#00DCCC"/>
	<stop  offset="1" style="stop-color:#C7F0B9"/>
</linearGradient>
<circle class="st34" cx="886.9" cy="118.3" r="9.9"/>
<linearGradient id="SVGID_32_" gradientUnits="userSpaceOnUse" x1="847.6699" y1="110.5" x2="867.47" y2="110.5" gradientTransform="matrix(1 0 0 1 0 7.8)">
	<stop  offset="0" style="stop-color:#00DCCC"/>
	<stop  offset="1" style="stop-color:#C7F0B9"/>
</linearGradient>
<circle class="st35" cx="857.6" cy="118.3" r="9.9"/>
<linearGradient id="SVGID_33_" gradientUnits="userSpaceOnUse" x1="818.3459" y1="110.5" x2="838.1459" y2="110.5" gradientTransform="matrix(1 0 0 1 0 7.8)">
	<stop  offset="0" style="stop-color:#00DCCC"/>
	<stop  offset="1" style="stop-color:#C7F0B9"/>
</linearGradient>
<circle class="st36" cx="828.2" cy="118.3" r="9.9"/>
<linearGradient id="SVGID_34_" gradientUnits="userSpaceOnUse" x1="789.022" y1="110.5" x2="808.822" y2="110.5" gradientTransform="matrix(1 0 0 1 0 7.8)">
	<stop  offset="0" style="stop-color:#00DCCC"/>
	<stop  offset="1" style="stop-color:#C7F0B9"/>
</linearGradient>
<circle class="st37" cx="798.9" cy="118.3" r="9.9"/>
<linearGradient id="SVGID_35_" gradientUnits="userSpaceOnUse" x1="1023.6" y1="110.5" x2="1043.4" y2="110.5" gradientTransform="matrix(1 0 0 1 0 7.8)">
	<stop  offset="0" style="stop-color:#00DCCC"/>
	<stop  offset="1" style="stop-color:#C7F0B9"/>
</linearGradient>
<path class="st38" d="M1043.4,118.3c0,5.5-4.4,9.9-9.9,9.9s-9.9-4.4-9.9-9.9s4.4-9.9,9.9-9.9S1043.4,112.8,1043.4,118.3z"/>
<linearGradient id="SVGID_36_" gradientUnits="userSpaceOnUse" x1="994.2999" y1="136.5" x2="1014.1" y2="136.5" gradientTransform="matrix(1 0 0 1 0 7.8)">
	<stop  offset="0" style="stop-color:#00DCCC"/>
	<stop  offset="1" style="stop-color:#C7F0B9"/>
</linearGradient>
<path class="st39" d="M1014.1,144.3c0,5.5-4.4,9.9-9.9,9.9s-9.9-4.4-9.9-9.9s4.4-9.9,9.9-9.9
	C1009.6,134.4,1014.1,138.9,1014.1,144.3z"/>
<linearGradient id="SVGID_37_" gradientUnits="userSpaceOnUse" x1="964.9655" y1="136.5" x2="984.7656" y2="136.5" gradientTransform="matrix(1 0 0 1 0 7.8)">
	<stop  offset="0" style="stop-color:#00DCCC"/>
	<stop  offset="1" style="stop-color:#C7F0B9"/>
</linearGradient>
<path class="st40" d="M984.8,144.3c0,5.5-4.4,9.9-9.9,9.9s-9.9-4.4-9.9-9.9s4.4-9.9,9.9-9.9C980.3,134.4,984.8,138.9,984.8,144.3z"
	/>
<linearGradient id="SVGID_38_" gradientUnits="userSpaceOnUse" x1="935.6416" y1="136.5" x2="955.4417" y2="136.5" gradientTransform="matrix(1 0 0 1 0 7.8)">
	<stop  offset="0" style="stop-color:#00DCCC"/>
	<stop  offset="1" style="stop-color:#C7F0B9"/>
</linearGradient>
<path class="st41" d="M955.4,144.3c0,5.5-4.4,9.9-9.9,9.9s-9.9-4.4-9.9-9.9s4.4-9.9,9.9-9.9S955.4,138.9,955.4,144.3z"/>
<linearGradient id="SVGID_39_" gradientUnits="userSpaceOnUse" x1="906.2999" y1="136.5" x2="926.1" y2="136.5" gradientTransform="matrix(1 0 0 1 0 7.8)">
	<stop  offset="0" style="stop-color:#00DCCC"/>
	<stop  offset="1" style="stop-color:#C7F0B9"/>
</linearGradient>
<path class="st42" d="M926.1,144.3c0,5.5-4.4,9.9-9.9,9.9s-9.9-4.4-9.9-9.9s4.4-9.9,9.9-9.9C921.7,134.4,926.1,138.9,926.1,144.3z"
	/>
<linearGradient id="SVGID_40_" gradientUnits="userSpaceOnUse" x1="876.9999" y1="136.5" x2="896.8" y2="136.5" gradientTransform="matrix(1 0 0 1 0 7.8)">
	<stop  offset="0" style="stop-color:#00DCCC"/>
	<stop  offset="1" style="stop-color:#C7F0B9"/>
</linearGradient>
<path class="st43" d="M896.8,144.3c0,5.5-4.4,9.9-9.9,9.9s-9.9-4.4-9.9-9.9s4.4-9.9,9.9-9.9C892.4,134.4,896.8,138.9,896.8,144.3z"
	/>
<linearGradient id="SVGID_41_" gradientUnits="userSpaceOnUse" x1="847.6699" y1="136.5" x2="867.47" y2="136.5" gradientTransform="matrix(1 0 0 1 0 7.8)">
	<stop  offset="0" style="stop-color:#00DCCC"/>
	<stop  offset="1" style="stop-color:#C7F0B9"/>
</linearGradient>
<path class="st44" d="M867.5,144.3c0,5.5-4.4,9.9-9.9,9.9s-9.9-4.4-9.9-9.9s4.4-9.9,9.9-9.9C863,134.4,867.5,138.9,867.5,144.3z"/>
<linearGradient id="SVGID_42_" gradientUnits="userSpaceOnUse" x1="818.3459" y1="136.5" x2="838.1459" y2="136.5" gradientTransform="matrix(1 0 0 1 0 7.8)">
	<stop  offset="0" style="stop-color:#00DCCC"/>
	<stop  offset="1" style="stop-color:#C7F0B9"/>
</linearGradient>
<path class="st45" d="M838.1,144.3c0,5.5-4.4,9.9-9.9,9.9s-9.9-4.4-9.9-9.9s4.4-9.9,9.9-9.9S838.1,138.9,838.1,144.3z"/>
<linearGradient id="SVGID_43_" gradientUnits="userSpaceOnUse" x1="789.022" y1="136.5" x2="808.822" y2="136.5" gradientTransform="matrix(1 0 0 1 0 7.8)">
	<stop  offset="0" style="stop-color:#00DCCC"/>
	<stop  offset="1" style="stop-color:#C7F0B9"/>
</linearGradient>
<path class="st46" d="M808.8,144.3c0,5.5-4.4,9.9-9.9,9.9s-9.9-4.4-9.9-9.9s4.4-9.9,9.9-9.9S808.8,138.9,808.8,144.3z"/>
<linearGradient id="SVGID_44_" gradientUnits="userSpaceOnUse" x1="1023.6" y1="136.5" x2="1043.4" y2="136.5" gradientTransform="matrix(1 0 0 1 0 7.8)">
	<stop  offset="0" style="stop-color:#00DCCC"/>
	<stop  offset="1" style="stop-color:#C7F0B9"/>
</linearGradient>
<path class="st47" d="M1043.4,144.3c0,5.5-4.4,9.9-9.9,9.9s-9.9-4.4-9.9-9.9s4.4-9.9,9.9-9.9S1043.4,138.9,1043.4,144.3z"/>
<linearGradient id="SVGID_45_" gradientUnits="userSpaceOnUse" x1="994.2999" y1="162.5" x2="1014.1" y2="162.5" gradientTransform="matrix(1 0 0 1 0 7.8)">
	<stop  offset="0" style="stop-color:#00DCCC"/>
	<stop  offset="1" style="stop-color:#C7F0B9"/>
</linearGradient>
<path class="st48" d="M1014.1,170.3c0,5.5-4.4,9.9-9.9,9.9s-9.9-4.4-9.9-9.9s4.4-9.9,9.9-9.9
	C1009.6,160.4,1014.1,164.9,1014.1,170.3z"/>
<linearGradient id="SVGID_46_" gradientUnits="userSpaceOnUse" x1="964.9655" y1="162.5" x2="984.7656" y2="162.5" gradientTransform="matrix(1 0 0 1 0 7.8)">
	<stop  offset="0" style="stop-color:#00DCCC"/>
	<stop  offset="1" style="stop-color:#C7F0B9"/>
</linearGradient>
<path class="st49" d="M984.8,170.3c0,5.5-4.4,9.9-9.9,9.9s-9.9-4.4-9.9-9.9s4.4-9.9,9.9-9.9C980.3,160.4,984.8,164.9,984.8,170.3z"
	/>
<linearGradient id="SVGID_47_" gradientUnits="userSpaceOnUse" x1="935.6416" y1="162.5" x2="955.4417" y2="162.5" gradientTransform="matrix(1 0 0 1 0 7.8)">
	<stop  offset="0" style="stop-color:#00DCCC"/>
	<stop  offset="1" style="stop-color:#C7F0B9"/>
</linearGradient>
<path class="st50" d="M955.4,170.3c0,5.5-4.4,9.9-9.9,9.9s-9.9-4.4-9.9-9.9s4.4-9.9,9.9-9.9S955.4,164.9,955.4,170.3z"/>
<linearGradient id="SVGID_48_" gradientUnits="userSpaceOnUse" x1="906.2999" y1="162.5" x2="926.1" y2="162.5" gradientTransform="matrix(1 0 0 1 0 7.8)">
	<stop  offset="0" style="stop-color:#00DCCC"/>
	<stop  offset="1" style="stop-color:#C7F0B9"/>
</linearGradient>
<path class="st51" d="M926.1,170.3c0,5.5-4.4,9.9-9.9,9.9s-9.9-4.4-9.9-9.9s4.4-9.9,9.9-9.9C921.7,160.4,926.1,164.9,926.1,170.3z"
	/>
<linearGradient id="SVGID_49_" gradientUnits="userSpaceOnUse" x1="876.9999" y1="162.5" x2="896.8" y2="162.5" gradientTransform="matrix(1 0 0 1 0 7.8)">
	<stop  offset="0" style="stop-color:#00DCCC"/>
	<stop  offset="1" style="stop-color:#C7F0B9"/>
</linearGradient>
<path class="st52" d="M896.8,170.3c0,5.5-4.4,9.9-9.9,9.9s-9.9-4.4-9.9-9.9s4.4-9.9,9.9-9.9C892.4,160.4,896.8,164.9,896.8,170.3z"
	/>
<linearGradient id="SVGID_50_" gradientUnits="userSpaceOnUse" x1="847.6699" y1="162.5" x2="867.47" y2="162.5" gradientTransform="matrix(1 0 0 1 0 7.8)">
	<stop  offset="0" style="stop-color:#00DCCC"/>
	<stop  offset="1" style="stop-color:#C7F0B9"/>
</linearGradient>
<path class="st53" d="M867.5,170.3c0,5.5-4.4,9.9-9.9,9.9s-9.9-4.4-9.9-9.9s4.4-9.9,9.9-9.9C863,160.4,867.5,164.9,867.5,170.3z"/>
<linearGradient id="SVGID_51_" gradientUnits="userSpaceOnUse" x1="818.3459" y1="162.5" x2="838.1459" y2="162.5" gradientTransform="matrix(1 0 0 1 0 7.8)">
	<stop  offset="0" style="stop-color:#00DCCC"/>
	<stop  offset="1" style="stop-color:#C7F0B9"/>
</linearGradient>
<path class="st54" d="M838.1,170.3c0,5.5-4.4,9.9-9.9,9.9s-9.9-4.4-9.9-9.9s4.4-9.9,9.9-9.9S838.1,164.9,838.1,170.3z"/>
<linearGradient id="SVGID_52_" gradientUnits="userSpaceOnUse" x1="789.022" y1="162.5" x2="808.822" y2="162.5" gradientTransform="matrix(1 0 0 1 0 7.8)">
	<stop  offset="0" style="stop-color:#00DCCC"/>
	<stop  offset="1" style="stop-color:#C7F0B9"/>
</linearGradient>
<path class="st55" d="M808.8,170.3c0,5.5-4.4,9.9-9.9,9.9s-9.9-4.4-9.9-9.9s4.4-9.9,9.9-9.9S808.8,164.9,808.8,170.3z"/>
<linearGradient id="SVGID_53_" gradientUnits="userSpaceOnUse" x1="1023.6" y1="162.5" x2="1043.4" y2="162.5" gradientTransform="matrix(1 0 0 1 0 7.8)">
	<stop  offset="0" style="stop-color:#00DCCC"/>
	<stop  offset="1" style="stop-color:#C7F0B9"/>
</linearGradient>
<path class="st56" d="M1043.4,170.3c0,5.5-4.4,9.9-9.9,9.9s-9.9-4.4-9.9-9.9s4.4-9.9,9.9-9.9S1043.4,164.9,1043.4,170.3z"/>
<linearGradient id="SVGID_54_" gradientUnits="userSpaceOnUse" x1="994.2999" y1="188.6" x2="1014.1" y2="188.6" gradientTransform="matrix(1 0 0 1 0 7.8)">
	<stop  offset="0" style="stop-color:#00DCCC"/>
	<stop  offset="1" style="stop-color:#C7F0B9"/>
</linearGradient>
<path class="st57" d="M1014.1,196.4c0,5.5-4.4,9.9-9.9,9.9s-9.9-4.4-9.9-9.9s4.4-9.9,9.9-9.9
	C1009.6,186.5,1014.1,190.9,1014.1,196.4z"/>
<linearGradient id="SVGID_55_" gradientUnits="userSpaceOnUse" x1="964.9655" y1="188.6" x2="984.7656" y2="188.6" gradientTransform="matrix(1 0 0 1 0 7.8)">
	<stop  offset="0" style="stop-color:#00DCCC"/>
	<stop  offset="1" style="stop-color:#C7F0B9"/>
</linearGradient>
<circle class="st58" cx="974.9" cy="196.4" r="9.9"/>
<linearGradient id="SVGID_56_" gradientUnits="userSpaceOnUse" x1="935.6416" y1="188.6" x2="955.4417" y2="188.6" gradientTransform="matrix(1 0 0 1 0 7.8)">
	<stop  offset="0" style="stop-color:#00DCCC"/>
	<stop  offset="1" style="stop-color:#C7F0B9"/>
</linearGradient>
<circle class="st59" cx="945.5" cy="196.4" r="9.9"/>
<linearGradient id="SVGID_57_" gradientUnits="userSpaceOnUse" x1="906.3" y1="188.6" x2="926.1" y2="188.6" gradientTransform="matrix(1 0 0 1 0 7.8)">
	<stop  offset="0" style="stop-color:#00DCCC"/>
	<stop  offset="1" style="stop-color:#C7F0B9"/>
</linearGradient>
<circle class="st60" cx="916.2" cy="196.4" r="9.9"/>
<linearGradient id="SVGID_58_" gradientUnits="userSpaceOnUse" x1="877" y1="188.6" x2="896.8" y2="188.6" gradientTransform="matrix(1 0 0 1 0 7.8)">
	<stop  offset="0" style="stop-color:#00DCCC"/>
	<stop  offset="1" style="stop-color:#C7F0B9"/>
</linearGradient>
<circle class="st61" cx="886.9" cy="196.4" r="9.9"/>
<linearGradient id="SVGID_59_" gradientUnits="userSpaceOnUse" x1="847.6699" y1="188.6" x2="867.47" y2="188.6" gradientTransform="matrix(1 0 0 1 0 7.8)">
	<stop  offset="0" style="stop-color:#00DCCC"/>
	<stop  offset="1" style="stop-color:#C7F0B9"/>
</linearGradient>
<circle class="st62" cx="857.6" cy="196.4" r="9.9"/>
<linearGradient id="SVGID_60_" gradientUnits="userSpaceOnUse" x1="818.3459" y1="188.6" x2="838.1459" y2="188.6" gradientTransform="matrix(1 0 0 1 0 7.8)">
	<stop  offset="0" style="stop-color:#00DCCC"/>
	<stop  offset="1" style="stop-color:#C7F0B9"/>
</linearGradient>
<circle class="st63" cx="828.2" cy="196.4" r="9.9"/>
<linearGradient id="SVGID_61_" gradientUnits="userSpaceOnUse" x1="789.022" y1="188.6" x2="808.822" y2="188.6" gradientTransform="matrix(1 0 0 1 0 7.8)">
	<stop  offset="0" style="stop-color:#00DCCC"/>
	<stop  offset="1" style="stop-color:#C7F0B9"/>
</linearGradient>
<circle class="st64" cx="798.9" cy="196.4" r="9.9"/>
<linearGradient id="SVGID_62_" gradientUnits="userSpaceOnUse" x1="1023.6" y1="188.6" x2="1043.4" y2="188.6" gradientTransform="matrix(1 0 0 1 0 7.8)">
	<stop  offset="0" style="stop-color:#00DCCC"/>
	<stop  offset="1" style="stop-color:#C7F0B9"/>
</linearGradient>
<path class="st65" d="M1043.4,196.4c0,5.5-4.4,9.9-9.9,9.9s-9.9-4.4-9.9-9.9s4.4-9.9,9.9-9.9S1043.4,190.9,1043.4,196.4z"/>
<path class="st5" d="M1306.1,118.2c0,5.5-4.4,9.9-9.9,9.9s-9.9-4.4-9.9-9.9s4.4-9.9,9.9-9.9C1301.6,108.3,1306.1,112.7,1306.1,118.2
	z"/>
<path class="st5" d="M1276.8,118.2c0,5.5-4.4,9.9-9.9,9.9s-9.9-4.4-9.9-9.9s4.4-9.9,9.9-9.9C1272.3,108.3,1276.8,112.7,1276.8,118.2
	z"/>
<path class="st5" d="M1247.4,118.2c0,5.5-4.4,9.9-9.9,9.9s-9.9-4.4-9.9-9.9s4.4-9.9,9.9-9.9S1247.4,112.7,1247.4,118.2z"/>
<path class="st5" d="M1218.1,118.2c0,5.5-4.4,9.9-9.9,9.9s-9.9-4.4-9.9-9.9s4.4-9.9,9.9-9.9S1218.1,112.7,1218.1,118.2z"/>
<path class="st5" d="M1188.8,118.2c0,5.5-4.4,9.9-9.9,9.9s-9.9-4.4-9.9-9.9s4.4-9.9,9.9-9.9S1188.8,112.7,1188.8,118.2z"/>
<path class="st5" d="M1159.5,118.2c0,5.5-4.4,9.9-9.9,9.9s-9.9-4.4-9.9-9.9s4.4-9.9,9.9-9.9C1155,108.3,1159.5,112.7,1159.5,118.2z"
	/>
<path class="st5" d="M1130.1,118.2c0,5.5-4.4,9.9-9.9,9.9s-9.9-4.4-9.9-9.9s4.4-9.9,9.9-9.9S1130.1,112.7,1130.1,118.2z"/>
<path class="st5" d="M1100.8,118.2c0,5.5-4.4,9.9-9.9,9.9s-9.9-4.4-9.9-9.9s4.4-9.9,9.9-9.9S1100.8,112.7,1100.8,118.2z"/>
<path class="st5" d="M1335.4,118.2c0,5.5-4.4,9.9-9.9,9.9s-9.9-4.4-9.9-9.9s4.4-9.9,9.9-9.9S1335.4,112.7,1335.4,118.2z"/>
<linearGradient id="SVGID_63_" gradientUnits="userSpaceOnUse" x1="994.2999" y1="214.6" x2="1014.1" y2="214.6" gradientTransform="matrix(1 0 0 1 0 7.8)">
	<stop  offset="0" style="stop-color:#00DCCC"/>
	<stop  offset="1" style="stop-color:#C7F0B9"/>
</linearGradient>
<path class="st66" d="M1014.1,222.4c0,5.5-4.4,9.9-9.9,9.9s-9.9-4.4-9.9-9.9s4.4-9.9,9.9-9.9
	C1009.6,212.5,1014.1,216.9,1014.1,222.4z"/>
<linearGradient id="SVGID_64_" gradientUnits="userSpaceOnUse" x1="964.9655" y1="214.6" x2="984.7656" y2="214.6" gradientTransform="matrix(1 0 0 1 0 7.8)">
	<stop  offset="0" style="stop-color:#00DCCC"/>
	<stop  offset="1" style="stop-color:#C7F0B9"/>
</linearGradient>
<circle class="st67" cx="974.9" cy="222.4" r="9.9"/>
<linearGradient id="SVGID_65_" gradientUnits="userSpaceOnUse" x1="935.6416" y1="214.6" x2="955.4417" y2="214.6" gradientTransform="matrix(1 0 0 1 0 7.8)">
	<stop  offset="0" style="stop-color:#00DCCC"/>
	<stop  offset="1" style="stop-color:#C7F0B9"/>
</linearGradient>
<circle class="st68" cx="945.5" cy="222.4" r="9.9"/>
<linearGradient id="SVGID_66_" gradientUnits="userSpaceOnUse" x1="906.3" y1="214.6" x2="926.1" y2="214.6" gradientTransform="matrix(1 0 0 1 0 7.8)">
	<stop  offset="0" style="stop-color:#00DCCC"/>
	<stop  offset="1" style="stop-color:#C7F0B9"/>
</linearGradient>
<circle class="st69" cx="916.2" cy="222.4" r="9.9"/>
<linearGradient id="SVGID_67_" gradientUnits="userSpaceOnUse" x1="877" y1="214.6" x2="896.8" y2="214.6" gradientTransform="matrix(1 0 0 1 0 7.8)">
	<stop  offset="0" style="stop-color:#00DCCC"/>
	<stop  offset="1" style="stop-color:#C7F0B9"/>
</linearGradient>
<circle class="st70" cx="886.9" cy="222.4" r="9.9"/>
<linearGradient id="SVGID_68_" gradientUnits="userSpaceOnUse" x1="847.6699" y1="214.6" x2="867.47" y2="214.6" gradientTransform="matrix(1 0 0 1 0 7.8)">
	<stop  offset="0" style="stop-color:#00DCCC"/>
	<stop  offset="1" style="stop-color:#C7F0B9"/>
</linearGradient>
<circle class="st71" cx="857.6" cy="222.4" r="9.9"/>
<linearGradient id="SVGID_69_" gradientUnits="userSpaceOnUse" x1="818.3459" y1="214.6" x2="838.1459" y2="214.6" gradientTransform="matrix(1 0 0 1 0 7.8)">
	<stop  offset="0" style="stop-color:#00DCCC"/>
	<stop  offset="1" style="stop-color:#C7F0B9"/>
</linearGradient>
<circle class="st72" cx="828.2" cy="222.4" r="9.9"/>
<linearGradient id="SVGID_70_" gradientUnits="userSpaceOnUse" x1="789.022" y1="214.6" x2="808.822" y2="214.6" gradientTransform="matrix(1 0 0 1 0 7.8)">
	<stop  offset="0" style="stop-color:#00DCCC"/>
	<stop  offset="1" style="stop-color:#C7F0B9"/>
</linearGradient>
<circle class="st73" cx="798.9" cy="222.4" r="9.9"/>
<linearGradient id="SVGID_71_" gradientUnits="userSpaceOnUse" x1="1023.6" y1="214.6" x2="1043.4" y2="214.6" gradientTransform="matrix(1 0 0 1 0 7.8)">
	<stop  offset="0" style="stop-color:#00DCCC"/>
	<stop  offset="1" style="stop-color:#C7F0B9"/>
</linearGradient>
<path class="st74" d="M1043.4,222.4c0,5.5-4.4,9.9-9.9,9.9s-9.9-4.4-9.9-9.9s4.4-9.9,9.9-9.9S1043.4,216.9,1043.4,222.4z"/>
<path class="st5" d="M1365,144.2c0,5.5-4.4,9.9-9.9,9.9s-9.9-4.4-9.9-9.9s4.4-9.9,9.9-9.9S1365,138.7,1365,144.2z"/>
<linearGradient id="SVGID_72_" gradientUnits="userSpaceOnUse" x1="1345.2" y1="162.4" x2="1365" y2="162.4" gradientTransform="matrix(1 0 0 1 0 7.8)">
	<stop  offset="0" style="stop-color:#00DCCC"/>
	<stop  offset="1" style="stop-color:#C7F0B9"/>
</linearGradient>
<path class="st75" d="M1365,170.2c0,5.5-4.4,9.9-9.9,9.9s-9.9-4.4-9.9-9.9s4.4-9.9,9.9-9.9S1365,164.8,1365,170.2z"/>
<linearGradient id="SVGID_73_" gradientUnits="userSpaceOnUse" x1="1345.2" y1="188.5" x2="1365" y2="188.5" gradientTransform="matrix(1 0 0 1 0 7.8)">
	<stop  offset="0" style="stop-color:#00DCCC"/>
	<stop  offset="1" style="stop-color:#C7F0B9"/>
</linearGradient>
<path class="st76" d="M1365,196.3c0,5.5-4.4,9.9-9.9,9.9s-9.9-4.4-9.9-9.9s4.4-9.9,9.9-9.9S1365,190.8,1365,196.3z"/>
<linearGradient id="SVGID_74_" gradientUnits="userSpaceOnUse" x1="1345.2" y1="214.5" x2="1365" y2="214.5" gradientTransform="matrix(1 0 0 1 0 7.8)">
	<stop  offset="0" style="stop-color:#00DCCC"/>
	<stop  offset="1" style="stop-color:#C7F0B9"/>
</linearGradient>
<path class="st77" d="M1365,222.3c0,5.5-4.4,9.9-9.9,9.9s-9.9-4.4-9.9-9.9s4.4-9.9,9.9-9.9S1365,216.8,1365,222.3z"/>
<linearGradient id="SVGID_75_" gradientUnits="userSpaceOnUse" x1="1053.2" y1="110.5" x2="1073" y2="110.5" gradientTransform="matrix(1 0 0 1 0 7.8)">
	<stop  offset="0" style="stop-color:#00DCCC"/>
	<stop  offset="1" style="stop-color:#C7F0B9"/>
</linearGradient>
<path class="st78" d="M1073,118.3c0,5.5-4.4,9.9-9.9,9.9s-9.9-4.4-9.9-9.9s4.4-9.9,9.9-9.9S1073,112.8,1073,118.3z"/>
<linearGradient id="SVGID_76_" gradientUnits="userSpaceOnUse" x1="1053.2" y1="136.5" x2="1073" y2="136.5" gradientTransform="matrix(1 0 0 1 0 7.8)">
	<stop  offset="0" style="stop-color:#00DCCC"/>
	<stop  offset="1" style="stop-color:#C7F0B9"/>
</linearGradient>
<path class="st79" d="M1073,144.3c0,5.5-4.4,9.9-9.9,9.9s-9.9-4.4-9.9-9.9s4.4-9.9,9.9-9.9S1073,138.9,1073,144.3z"/>
<linearGradient id="SVGID_77_" gradientUnits="userSpaceOnUse" x1="1053.2" y1="162.5" x2="1073" y2="162.5" gradientTransform="matrix(1 0 0 1 0 7.8)">
	<stop  offset="0" style="stop-color:#00DCCC"/>
	<stop  offset="1" style="stop-color:#C7F0B9"/>
</linearGradient>
<path class="st80" d="M1073,170.3c0,5.5-4.4,9.9-9.9,9.9s-9.9-4.4-9.9-9.9s4.4-9.9,9.9-9.9S1073,164.9,1073,170.3z"/>
<linearGradient id="SVGID_78_" gradientUnits="userSpaceOnUse" x1="1053.2" y1="188.6" x2="1073" y2="188.6" gradientTransform="matrix(1 0 0 1 0 7.8)">
	<stop  offset="0" style="stop-color:#00DCCC"/>
	<stop  offset="1" style="stop-color:#C7F0B9"/>
</linearGradient>
<path class="st81" d="M1073,196.4c0,5.5-4.4,9.9-9.9,9.9s-9.9-4.4-9.9-9.9s4.4-9.9,9.9-9.9S1073,190.9,1073,196.4z"/>
<path class="st5" d="M1365,118.2c0,5.5-4.4,9.9-9.9,9.9s-9.9-4.4-9.9-9.9s4.4-9.9,9.9-9.9S1365,112.7,1365,118.2z"/>
<linearGradient id="SVGID_79_" gradientUnits="userSpaceOnUse" x1="1053.2" y1="214.6" x2="1073" y2="214.6" gradientTransform="matrix(1 0 0 1 0 7.8)">
	<stop  offset="0" style="stop-color:#00DCCC"/>
	<stop  offset="1" style="stop-color:#C7F0B9"/>
</linearGradient>
<path class="st82" d="M1073,222.4c0,5.5-4.4,9.9-9.9,9.9s-9.9-4.4-9.9-9.9s4.4-9.9,9.9-9.9S1073,216.9,1073,222.4z"/>
<g>
	<path class="st5" d="M521.6,256.8c-42.8,0-77.7-34.8-77.7-77.7c0-42.8,34.8-77.7,77.7-77.7c42.8,0,77.7,34.8,77.7,77.7
		C599.3,221.9,564.5,256.8,521.6,256.8z M521.6,102.4c-42.3,0-76.7,34.4-76.7,76.7s34.4,76.7,76.7,76.7s76.7-34.4,76.7-76.7
		S563.9,102.4,521.6,102.4z"/>
</g>
<g>
	
		<linearGradient id="SVGID_80_" gradientUnits="userSpaceOnUse" x1="517.6819" y1="134.45" x2="599.2858" y2="134.45" gradientTransform="matrix(1 0 0 1 0 7.8)">
		<stop  offset="0" style="stop-color:#FF9996"/>
		<stop  offset="1" style="stop-color:#FFC680"/>
	</linearGradient>
	<path class="st83" d="M595.3,183.1c-2.2,0-4-1.8-4-4c0-38.4-31.3-69.7-69.7-69.7c-2.2,0-4-1.8-4-4s1.8-4,4-4
		c42.8,0,77.6,34.8,77.6,77.6C599.3,181.3,597.5,183.1,595.3,183.1z"/>
</g>
<g>
	<g>
		<g>
			<g>
				<path class="st0" d="M530.6,160.4h-17.9c-7.1,0-12.8,5.7-12.8,12.8v13.7h7.9v-12.6c0-0.4,0.4-0.8,0.8-0.8s0.8,0.4,0.8,0.8v12.6
					h24.7v-12.6c0-0.4,0.4-0.8,0.8-0.8l0,0c0.4,0,0.8,0.4,0.8,0.8v12.6h7.7v-13.8C543.4,166.1,537.7,160.4,530.6,160.4z"/>
			</g>
			<g>
				<path class="st0" d="M521.7,157.6c6.3,0,11.3-5.1,11.3-11.3c0-6.3-5.1-11.3-11.3-11.3c-6.3,0-11.3,5.1-11.3,11.3
					C510.4,152.5,515.5,157.6,521.7,157.6z"/>
			</g>
		</g>
	</g>
</g>
<g>
	<path class="st84" d="M482.6,205.2v2.5h-8.2v-2.5h2.9v-6.1c-0.1,0.2-0.3,0.3-0.6,0.5c-0.3,0.2-0.5,0.3-0.9,0.5s-0.6,0.3-1,0.4
		c-0.3,0.1-0.6,0.1-0.9,0.1v-2.5c0.2,0,0.5-0.1,0.9-0.2c0.3-0.2,0.7-0.3,1-0.6c0.3-0.2,0.6-0.4,0.9-0.6c0.2-0.2,0.4-0.4,0.5-0.5h2.8
		v9.1L482.6,205.2L482.6,205.2z"/>
	<path class="st84" d="M490.1,207.6v-14.4h4.9c1.5,0,2.8,0.3,3.8,1c1,0.6,1.8,1.5,2.3,2.6s0.8,2.3,0.8,3.6c0,1.5-0.3,2.7-0.8,3.8
		c-0.6,1.1-1.4,1.9-2.4,2.5s-2.3,0.9-3.7,0.9H490.1z M500.4,200.4c0-1.1-0.2-2.2-0.6-3.1s-1-1.6-1.9-2.1c-0.8-0.5-1.8-0.8-3-0.8
		h-3.5v11.9h3.5c1.2,0,2.2-0.3,3-0.8s1.4-1.2,1.8-2.1C500.2,202.5,500.4,201.5,500.4,200.4z"/>
	<path class="st84" d="M508.8,207.8c-0.8,0-1.5-0.1-2.1-0.4s-1.2-0.7-1.7-1.2s-0.8-1.1-1.1-1.7c-0.3-0.7-0.4-1.3-0.4-2.1
		c0-0.8,0.1-1.5,0.4-2.1s0.6-1.2,1.1-1.7s1-0.9,1.7-1.2s1.3-0.4,2.1-0.4c0.8,0,1.5,0.1,2.1,0.4s1.2,0.7,1.7,1.2s0.8,1.1,1.1,1.7
		s0.4,1.4,0.4,2.1s-0.1,1.4-0.4,2.1s-0.6,1.2-1.1,1.7s-1,0.9-1.7,1.2C510.3,207.7,509.6,207.8,508.8,207.8z M505,202.4
		c0,0.8,0.2,1.5,0.5,2.1s0.8,1.1,1.4,1.5s1.2,0.6,1.9,0.6c0.7,0,1.3-0.2,1.9-0.6s1-0.9,1.4-1.5c0.4-0.6,0.5-1.4,0.5-2.1
		c0-0.8-0.2-1.5-0.5-2.1c-0.4-0.6-0.8-1.2-1.4-1.5c-0.6-0.4-1.2-0.6-1.9-0.6c-0.7,0-1.3,0.2-1.9,0.6s-1,0.9-1.4,1.5
		S505,201.6,505,202.4z"/>
	<path class="st84" d="M520.9,207.8c-0.8,0-1.5-0.1-2.1-0.4s-1.2-0.7-1.7-1.2s-0.9-1.1-1.1-1.8s-0.4-1.4-0.4-2.1
		c0-1,0.2-1.9,0.7-2.7c0.4-0.8,1.1-1.5,1.9-2c0.8-0.5,1.7-0.7,2.8-0.7c1,0,1.9,0.2,2.6,0.7c0.8,0.5,1.3,1.1,1.7,1.8l-1.3,0.4
		c-0.3-0.5-0.7-1-1.2-1.3s-1.1-0.5-1.8-0.5s-1.3,0.2-1.9,0.5c-0.6,0.4-1,0.9-1.4,1.5c-0.3,0.6-0.5,1.3-0.5,2.2
		c0,0.8,0.2,1.5,0.5,2.2s0.8,1.2,1.4,1.5c0.6,0.4,1.2,0.6,1.9,0.6c0.5,0,0.9-0.1,1.3-0.2s0.8-0.4,1.1-0.7s0.5-0.6,0.6-0.9l1.4,0.4
		c-0.2,0.5-0.5,1-0.9,1.3c-0.4,0.4-1,0.7-1.5,0.9C522.3,207.7,521.6,207.8,520.9,207.8z"/>
	<path class="st84" d="M532,207.8c-0.8,0-1.5-0.1-2.1-0.4s-1.2-0.7-1.7-1.2s-0.8-1.1-1.1-1.7s-0.4-1.4-0.4-2.1c0-1,0.2-1.9,0.7-2.7
		c0.5-0.8,1.1-1.5,1.9-2c0.8-0.5,1.7-0.7,2.7-0.7s2,0.2,2.7,0.7c0.8,0.5,1.4,1.2,1.8,2c0.4,0.8,0.7,1.7,0.7,2.7c0,0.1,0,0.2,0,0.3
		s0,0.2,0,0.2h-9c0.1,0.8,0.3,1.4,0.6,2c0.4,0.6,0.8,1,1.4,1.4c0.6,0.3,1.2,0.5,1.9,0.5s1.3-0.2,2-0.5c0.6-0.4,1-0.8,1.3-1.4
		l1.2,0.3c-0.2,0.5-0.5,1-1,1.4c-0.4,0.4-1,0.7-1.6,0.9C533.3,207.7,532.6,207.8,532,207.8z M528.1,201.9h7.8
		c-0.1-0.8-0.3-1.4-0.6-2c-0.4-0.6-0.8-1-1.4-1.4c-0.6-0.3-1.2-0.5-1.9-0.5s-1.3,0.2-1.9,0.5c-0.6,0.3-1,0.8-1.4,1.4
		C528.3,200.5,528.1,201.1,528.1,201.9z"/>
	<path class="st84" d="M548.2,207.6h-1.4v-5.9c0-1.2-0.2-2.1-0.5-2.7s-0.9-0.9-1.7-0.9c-0.5,0-1.1,0.1-1.6,0.4s-1,0.6-1.4,1.1
		c-0.4,0.4-0.7,1-0.9,1.5v6.4h-1.4V197h1.3v2.4c0.3-0.5,0.7-1,1.1-1.3c0.5-0.4,1-0.7,1.6-0.9c0.6-0.2,1.2-0.3,1.8-0.3
		s1.1,0.1,1.5,0.3c0.4,0.2,0.7,0.5,1,0.9c0.2,0.4,0.4,0.9,0.5,1.4c0.1,0.6,0.2,1.2,0.2,1.9L548.2,207.6L548.2,207.6z"/>
	<path class="st84" d="M556.1,207.2c-0.1,0-0.3,0.1-0.5,0.2s-0.5,0.2-0.8,0.3c-0.3,0.1-0.7,0.1-1.1,0.1c-0.4,0-0.8-0.1-1.1-0.2
		s-0.6-0.4-0.8-0.7s-0.3-0.7-0.3-1.1v-7.6H550v-1.1h1.5v-3.6h1.4v3.6h2.4v1.1h-2.4v7.2c0,0.4,0.2,0.7,0.4,0.9
		c0.2,0.2,0.5,0.3,0.9,0.3s0.7-0.1,1-0.2s0.5-0.2,0.6-0.3L556.1,207.2z"/>
	<path class="st84" d="M562.2,207.8c-0.8,0-1.5-0.1-2.1-0.4c-0.7-0.3-1.2-0.7-1.7-1.2s-0.8-1.1-1.1-1.7s-0.4-1.4-0.4-2.1
		c0-1,0.2-1.9,0.7-2.7c0.5-0.8,1.1-1.5,1.9-2s1.7-0.7,2.7-0.7s2,0.2,2.7,0.7c0.8,0.5,1.4,1.2,1.8,2c0.4,0.8,0.7,1.7,0.7,2.7
		c0,0.1,0,0.2,0,0.3s0,0.2,0,0.2h-9c0.1,0.8,0.3,1.4,0.6,2c0.4,0.6,0.8,1,1.4,1.4c0.6,0.3,1.2,0.5,1.9,0.5s1.3-0.2,2-0.5
		c0.6-0.4,1-0.8,1.3-1.4l1.2,0.3c-0.2,0.5-0.5,1-1,1.4c-0.4,0.4-1,0.7-1.6,0.9C563.5,207.7,562.9,207.8,562.2,207.8z M558.3,201.9
		h7.8c-0.1-0.8-0.3-1.4-0.6-2c-0.4-0.6-0.8-1-1.4-1.4c-0.6-0.3-1.2-0.5-1.9-0.5s-1.3,0.2-1.9,0.5c-0.6,0.3-1,0.8-1.4,1.4
		C558.6,200.5,558.4,201.1,558.3,201.9z"/>
</g>
</svg>
