<?xml version="1.0" encoding="utf-8"?>
<!-- Generator: Adobe Illustrator 25.2.3, SVG Export Plug-In . SVG Version: 6.00 Build 0)  -->
<svg version="1.1" id="Layer_1" xmlns="http://www.w3.org/2000/svg" xmlns:xlink="http://www.w3.org/1999/xlink" x="0px" y="0px"
	 viewBox="0 0 1371 360.9" style="enable-background:new 0 0 1371 360.9;" xml:space="preserve">
<style type="text/css">
	.st0{fill:#811435;}
	.st1{fill:#810C33;}
	.st2{fill:#77787B;}
	.st3{fill:none;stroke:url(#SVGID_1_);stroke-width:8;stroke-linecap:round;stroke-miterlimit:10;}
	.st4{fill:none;stroke:url(#SVGID_2_);stroke-width:8;stroke-linecap:round;stroke-miterlimit:10;}
	.st5{fill:#FCE0F1;}
	.st6{fill:#E2E2E2;}
	.st7{fill:url(#SVGID_3_);}
	.st8{fill:url(#SVGID_4_);}
	.st9{fill:url(#SVGID_5_);}
	.st10{fill:url(#SVGID_6_);}
	.st11{fill:url(#SVGID_7_);}
	.st12{fill:url(#SVGID_8_);}
	.st13{fill:url(#SVGID_9_);}
	.st14{fill:url(#SVGID_10_);}
	.st15{fill:url(#SVGID_11_);}
	.st16{fill:url(#SVGID_12_);}
	.st17{fill:url(#SVGID_13_);}
	.st18{fill:url(#SVGID_14_);}
	.st19{fill:url(#SVGID_15_);}
	.st20{fill:url(#SVGID_16_);}
	.st21{fill:url(#SVGID_17_);}
	.st22{fill:url(#SVGID_18_);}
	.st23{fill:url(#SVGID_19_);}
	.st24{fill:url(#SVGID_20_);}
	.st25{fill:url(#SVGID_21_);}
	.st26{fill:url(#SVGID_22_);}
	.st27{fill:url(#SVGID_23_);}
	.st28{fill:url(#SVGID_24_);}
	.st29{fill:url(#SVGID_25_);}
	.st30{fill:url(#SVGID_26_);}
	.st31{fill:url(#SVGID_27_);}
	.st32{fill:url(#SVGID_28_);}
	.st33{fill:url(#SVGID_29_);}
	.st34{fill:url(#SVGID_30_);}
	.st35{fill:url(#SVGID_31_);}
	.st36{fill:url(#SVGID_32_);}
	.st37{fill:url(#SVGID_33_);}
	.st38{fill:url(#SVGID_34_);}
	.st39{fill:url(#SVGID_35_);}
	.st40{fill:url(#SVGID_36_);}
	.st41{fill:url(#SVGID_37_);}
	.st42{fill:url(#SVGID_38_);}
	.st43{fill:url(#SVGID_39_);}
	.st44{fill:url(#SVGID_40_);}
	.st45{fill:url(#SVGID_41_);}
	.st46{fill:url(#SVGID_42_);}
	.st47{fill:url(#SVGID_43_);}
	.st48{fill:url(#SVGID_44_);}
	.st49{fill:url(#SVGID_45_);}
	.st50{fill:url(#SVGID_46_);}
	.st51{fill:url(#SVGID_47_);}
	.st52{fill:url(#SVGID_48_);}
	.st53{fill:url(#SVGID_49_);}
	.st54{fill:url(#SVGID_50_);}
	.st55{fill:url(#SVGID_51_);}
	.st56{fill:url(#SVGID_52_);}
	.st57{fill:url(#SVGID_53_);}
	.st58{fill:url(#SVGID_54_);}
	.st59{fill:url(#SVGID_55_);}
	.st60{fill:url(#SVGID_56_);}
	.st61{fill:url(#SVGID_57_);}
	.st62{fill:url(#SVGID_58_);}
	.st63{fill:url(#SVGID_59_);}
	.st64{fill:url(#SVGID_60_);}
	.st65{fill:url(#SVGID_61_);}
	.st66{fill:url(#SVGID_62_);}
	.st67{fill:url(#SVGID_63_);}
	.st68{fill:url(#SVGID_64_);}
	.st69{fill:url(#SVGID_65_);}
	.st70{fill:url(#SVGID_66_);}
	.st71{fill:url(#SVGID_67_);}
	.st72{fill:url(#SVGID_68_);}
	.st73{fill:url(#SVGID_69_);}
	.st74{fill:url(#SVGID_70_);}
	.st75{fill:url(#SVGID_71_);}
	.st76{fill:url(#SVGID_72_);}
	.st77{fill:url(#SVGID_73_);}
	.st78{fill:url(#SVGID_74_);}
	.st79{fill:url(#SVGID_75_);}
	.st80{fill:url(#SVGID_76_);}
	.st81{fill:url(#SVGID_77_);}
	.st82{fill:url(#SVGID_78_);}
	.st83{fill:url(#SVGID_79_);}
	.st84{fill:url(#SVGID_80_);}
</style>
<g>
	<g>
		<path class="st0" d="M606.5,51.3V21.1h13.4c1.4,0,2.7,0.3,3.8,0.9s2.2,1.3,3.1,2.3c0.9,1,1.5,2,2,3.2s0.7,2.4,0.7,3.7
			c0,1.3-0.2,2.5-0.7,3.7s-1.1,2.2-1.9,3.1c-0.8,0.9-1.8,1.6-2.9,2l6.9,11.4h-6.5l-6.2-10.1h-5.9v10.1L606.5,51.3L606.5,51.3z
			 M612.4,36.1h7.4c0.7,0,1.4-0.2,2-0.7c0.6-0.4,1-1,1.4-1.8c0.3-0.7,0.5-1.6,0.5-2.5c0-1-0.2-1.8-0.6-2.5c-0.4-0.7-0.9-1.3-1.5-1.7
			c-0.6-0.4-1.3-0.6-2-0.6h-7.1v9.8H612.4z"/>
		<path class="st0" d="M655.8,46.2v5.1h-21V21.1h20.6v5.1h-14.7v7.3h12.7v4.8h-12.7v7.9H655.8z"/>
		<path class="st0" d="M658,36c0-1.8,0.3-3.7,1-5.4c0.7-1.8,1.6-3.4,2.9-4.8c1.3-1.5,2.8-2.6,4.7-3.5c1.8-0.9,3.9-1.3,6.3-1.3
			c2.8,0,5.2,0.6,7.2,1.8c2,1.2,3.5,2.8,4.5,4.8l-4.5,3.1c-0.5-1.1-1.2-2-2-2.7s-1.7-1.1-2.6-1.4c-0.9-0.3-1.9-0.4-2.8-0.4
			c-1.5,0-2.8,0.3-3.8,0.9c-1.1,0.6-2,1.4-2.7,2.3c-0.7,1-1.3,2-1.6,3.2c-0.4,1.2-0.5,2.4-0.5,3.6c0,1.3,0.2,2.6,0.6,3.8
			c0.4,1.2,1,2.3,1.8,3.3s1.7,1.7,2.8,2.3s2.3,0.8,3.6,0.8c0.9,0,1.9-0.2,2.8-0.5c1-0.3,1.9-0.8,2.7-1.5c0.8-0.7,1.5-1.6,1.9-2.6
			l4.8,2.8c-0.6,1.5-1.6,2.8-2.9,3.8c-1.3,1-2.9,1.8-4.5,2.4c-1.7,0.5-3.3,0.8-5,0.8c-2.2,0-4.1-0.4-5.9-1.3
			c-1.8-0.9-3.3-2.1-4.6-3.6s-2.3-3.2-3-5C658.4,39.8,658,37.9,658,36z"/>
		<path class="st0" d="M701.8,51.5c-2.4,0-4.5-0.4-6.1-1.2c-1.7-0.8-3-1.9-4.1-3.3c-1.1-1.4-1.8-3-2.3-4.8c-0.5-1.8-0.7-3.7-0.7-5.6
			V21.1h5.9v15.4c0,1.2,0.1,2.5,0.4,3.6c0.2,1.2,0.6,2.2,1.2,3.2c0.6,0.9,1.3,1.7,2.3,2.2c0.9,0.5,2.1,0.8,3.5,0.8s2.6-0.3,3.6-0.8
			c0.9-0.6,1.7-1.3,2.3-2.2s1-2,1.2-3.2c0.3-1.2,0.4-2.4,0.4-3.6V21.1h5.8v15.4c0,2.1-0.2,4-0.7,5.8c-0.5,1.8-1.3,3.4-2.3,4.8
			c-1.1,1.4-2.4,2.5-4.1,3.2C706.1,51.2,704.1,51.5,701.8,51.5z"/>
		<path class="st0" d="M720.9,51.3V21.1h13.4c1.4,0,2.7,0.3,3.8,0.9s2.2,1.3,3.1,2.3c0.9,1,1.5,2,2,3.2s0.7,2.4,0.7,3.7
			c0,1.3-0.2,2.5-0.7,3.7c-0.4,1.2-1.1,2.2-1.9,3.1c-0.8,0.9-1.8,1.6-2.9,2l6.9,11.4h-6.5l-6.2-10.1h-5.9v10.1L720.9,51.3
			L720.9,51.3z M726.8,36.1h7.4c0.7,0,1.4-0.2,2-0.7c0.6-0.4,1-1,1.4-1.8c0.3-0.7,0.5-1.6,0.5-2.5c0-1-0.2-1.8-0.6-2.5
			c-0.4-0.7-0.9-1.3-1.5-1.7c-0.6-0.4-1.3-0.6-2-0.6h-7.1v9.8H726.8z"/>
		<path class="st0" d="M767.2,29c-0.2-0.2-0.6-0.5-1.1-0.8s-1.2-0.7-1.9-1c-0.8-0.3-1.6-0.6-2.4-0.8S760,26,759.1,26
			c-1.6,0-2.8,0.3-3.6,0.9s-1.2,1.4-1.2,2.5c0,0.8,0.3,1.5,0.8,1.9c0.5,0.5,1.3,0.9,2.3,1.2c1,0.3,2.3,0.7,3.8,1.1
			c2,0.5,3.7,1.1,5.2,1.8c1.5,0.7,2.6,1.6,3.4,2.7c0.8,1.1,1.2,2.6,1.2,4.4c0,1.6-0.3,3-0.9,4.1c-0.6,1.1-1.4,2.1-2.5,2.8
			c-1,0.7-2.2,1.2-3.6,1.5c-1.3,0.3-2.8,0.5-4.3,0.5s-3-0.2-4.5-0.5c-1.5-0.3-2.9-0.8-4.3-1.3c-1.4-0.6-2.7-1.3-3.8-2.1l2.6-5.1
			c0.3,0.3,0.7,0.6,1.4,1s1.4,0.8,2.4,1.2s2,0.8,3.1,1c1.1,0.2,2.2,0.4,3.4,0.4c1.6,0,2.8-0.3,3.6-0.8s1.2-1.3,1.2-2.3
			c0-0.9-0.3-1.6-1-2.1s-1.6-1-2.7-1.3c-1.2-0.4-2.5-0.8-4.1-1.2c-1.9-0.5-3.5-1.1-4.8-1.8c-1.3-0.7-2.2-1.5-2.8-2.5
			s-0.9-2.3-0.9-3.8c0-2.1,0.5-3.8,1.5-5.2c1-1.4,2.3-2.5,4-3.2c1.7-0.7,3.5-1.1,5.6-1.1c1.4,0,2.8,0.2,4,0.5
			c1.3,0.3,2.4,0.7,3.6,1.2c1.1,0.5,2.1,1.1,3,1.7L767.2,29z"/>
		<path class="st0" d="M788.1,51.5c-2.2,0-4.2-0.4-6-1.3c-1.8-0.9-3.3-2-4.6-3.5s-2.3-3.1-3-4.9c-0.7-1.8-1.1-3.7-1.1-5.6
			c0-2,0.4-3.9,1.1-5.8c0.7-1.9,1.8-3.5,3.1-4.9s2.9-2.6,4.7-3.4c1.8-0.8,3.8-1.3,5.9-1.3c2.2,0,4.2,0.4,6,1.3s3.3,2.1,4.6,3.5
			c1.3,1.5,2.3,3.1,3,4.9s1.1,3.7,1.1,5.6c0,2-0.4,3.9-1.1,5.7c-0.7,1.8-1.8,3.5-3.1,4.9s-2.9,2.6-4.7,3.4
			C792.2,51.1,790.3,51.5,788.1,51.5z M779.4,36.2c0,1.3,0.2,2.6,0.6,3.8c0.4,1.2,1,2.3,1.7,3.3c0.8,1,1.7,1.7,2.8,2.3
			s2.3,0.8,3.7,0.8s2.7-0.3,3.8-0.9c1.1-0.6,2-1.4,2.8-2.3c0.7-1,1.3-2.1,1.7-3.3c0.4-1.2,0.6-2.4,0.6-3.6c0-1.3-0.2-2.6-0.6-3.8
			c-0.4-1.2-1-2.3-1.7-3.2c-0.8-0.9-1.7-1.7-2.8-2.3c-1.1-0.6-2.3-0.8-3.7-0.8s-2.7,0.3-3.8,0.9s-2,1.4-2.7,2.3
			c-0.7,1-1.3,2-1.7,3.2C779.6,33.8,779.4,35,779.4,36.2z"/>
		<path class="st0" d="M825.3,29c-0.2-0.2-0.6-0.5-1.1-0.8s-1.2-0.7-1.9-1c-0.8-0.3-1.6-0.6-2.4-0.8s-1.8-0.4-2.7-0.4
			c-1.6,0-2.8,0.3-3.6,0.9s-1.2,1.4-1.2,2.5c0,0.8,0.3,1.5,0.8,1.9c0.5,0.5,1.3,0.9,2.3,1.2c1,0.3,2.3,0.7,3.8,1.1
			c2,0.5,3.7,1.1,5.2,1.8c1.5,0.7,2.6,1.6,3.4,2.7c0.8,1.1,1.2,2.6,1.2,4.4c0,1.6-0.3,3-0.9,4.1c-0.6,1.1-1.4,2.1-2.5,2.8
			c-1,0.7-2.2,1.2-3.6,1.5c-1.3,0.3-2.8,0.5-4.3,0.5s-3-0.2-4.5-0.5c-1.5-0.3-2.9-0.8-4.3-1.3c-1.4-0.6-2.7-1.3-3.8-2.1l2.6-5.1
			c0.3,0.3,0.7,0.6,1.4,1s1.4,0.8,2.4,1.2s2,0.8,3.1,1c1.1,0.2,2.2,0.4,3.4,0.4c1.6,0,2.8-0.3,3.6-0.8s1.2-1.3,1.2-2.3
			c0-0.9-0.3-1.6-1-2.1s-1.6-1-2.7-1.3c-1.2-0.4-2.5-0.8-4.1-1.2c-1.9-0.5-3.5-1.1-4.8-1.8c-1.3-0.7-2.2-1.5-2.8-2.5
			s-0.9-2.3-0.9-3.8c0-2.1,0.5-3.8,1.5-5.2c1-1.4,2.3-2.5,4-3.2c1.7-0.7,3.5-1.1,5.6-1.1c1.4,0,2.8,0.2,4,0.5
			c1.3,0.3,2.4,0.7,3.6,1.2c1.1,0.5,2.1,1.1,3,1.7L825.3,29z"/>
	</g>
</g>
<g>
	<path class="st1" d="M599.5,35.3c0-5.6-4.3-10.2-10-10.5c-2.3-4.1-5.6-7.4-10-9.5l0,0c0-5.4-4.3-9.5-9.5-9.5
		c-5.1,0-9.5,4.1-9.5,9.5l0,0c-4.3,2-7.7,5.4-10,9.5c-5.9,0-10.5,4.9-10.5,10.5s4.9,10.5,10.5,10.5c2,3.6,5.1,6.9,8.9,8.9v4.9
		c0,0.5,0.3,0.8,0.5,1l9.5,4.3c0.3,0,0.5,0,0.8,0l9.5-4.3c0.5-0.3,0.5-0.5,0.5-1v-4.9c3.8-2,6.9-5.1,8.9-8.9
		C595.2,45.8,599.5,40.9,599.5,35.3z M570.1,7.9c4.1,0,7.4,3.3,7.4,7.4c0,2.6-1.3,5.1-3.6,6.4c-0.3,0.3-0.5,0.5-0.5,1l0,0h-2v-4.3
		c1.8,0.5,3.6-0.3,4.1-1.8c0.3-1.8-0.5-3.6-2.3-4.1c-0.3,0-0.8-0.3-1-0.3c-0.8,0-1.5,0.3-2,0.8c-0.5-0.5-1.3-0.8-2-0.8
		c-1.8,0-3.1,1.3-3.1,3.1s1.3,3.1,3.1,3.1c0.5,0,0.8,0,1-0.3v4.6h-2l0,0c0-0.5-0.3-0.8-0.5-1c-3.6-2-4.9-6.6-2.8-10.2
		C565,9.5,567.6,7.9,570.1,7.9z M571.2,28.9h-2v-1h2V28.9z M572.2,25.8h-4.3c-0.5,0-1-0.5-1-1h6.4C573.2,25.3,572.9,25.8,572.2,25.8
		z M571.2,15.4c0-0.5,0.5-1,1-1s1,0.5,1,1s-0.5,1-1,1S571.2,15.9,571.2,15.4z M569.1,15.4c0,0.5-0.5,1-1,1s-1-0.5-1-1s0.5-1,1-1
		S569.1,14.8,569.1,15.4z M542.8,35.3c0-4.6,3.8-8.4,8.4-8.4s8.4,3.8,8.4,8.4s-3.8,8.4-8.4,8.4S542.8,39.9,542.8,35.3z M561.7,50.6
		l7.4,3.3v8.2l-7.4-3.3V50.6z M570.1,52.1l-6.9-3.1l6.9-3.1L577,49L570.1,52.1z M571.2,62.1v-8.2l7.4-3.3v8.2L571.2,62.1z
		 M580.6,52.4v-3.3c0-0.5-0.3-0.8-0.5-1l-9.5-4.3c-0.3,0-0.5,0-0.8,0l-9.7,4.6c-0.5,0-0.5,0.5-0.5,0.8v3.3c-2.8-1.8-5.1-4.1-6.6-6.6
		c5.6-1,9.5-6.6,8.4-12.3c-0.8-4.3-4.1-7.7-8.4-8.4c1.8-3.3,4.6-5.6,7.9-7.4c0.5,2.3,2,4.3,3.8,5.6v1.5c0,1.3,0.8,2.6,2,3.1v1.3
		c0,1.3,1,2,2,2h2c1.3,0,2-1,2-2v-1.4c1.3-0.5,2-1.8,2-3.1v-1.5c2-1.3,3.3-3.3,3.8-5.6c3.8,1.8,6.4,4.1,8.4,7.4
		c-5.6,1-9.5,6.6-8.4,12.3c0.8,4.3,4.3,7.7,8.4,8.4C585.5,48.3,583.4,50.6,580.6,52.4z M589,43.7c-4.6,0-8.4-3.8-8.4-8.4
		s3.8-8.4,8.4-8.4s8.4,3.8,8.4,8.4S593.6,43.7,589,43.7z"/>
	<path class="st1" d="M592.1,33.2c0.5,0,1-0.5,1-1c0-1.3-1-2-2-2h-1c0-0.5-0.5-1-1-1s-1,0.5-1,1h-1c-1.3,0-2,1-2,2v2c0,1.3,1,2,2,2
		h4.3v2H587c0-0.5-0.5-1-1-1s-1,0.5-1,1c0,1.3,1,2,2,2h1c0,0.5,0.5,1,1,1s1-0.5,1-1h1c1.3,0,2-1,2-2v-2c0-1.3-1-2-2-2h-4.3v-2h4.3
		C591.1,32.7,591.6,33.2,592.1,33.2z"/>
	<path class="st1" d="M552.5,38.1l2,2.3c0.5,0.5,1,0.5,1.5,0s0.5-1,0-1.5l-2-2c0.3-0.5,0.3-0.8,0.3-1.3c0-1.3-0.8-2.6-2-3.1v-2.3
		c0-0.5-0.5-1-1-1s-1,0.5-1,1v2.3c-1.5,0.5-2.3,2.3-1.8,4.1c0.5,1.3,1.5,2,3.1,2C551.7,38.6,552,38.3,552.5,38.1z M550,35.3
		c0-0.5,0.5-1,1-1s1,0.5,1,1c0,0.3,0,0.5-0.3,0.8l0,0c-0.3,0.3-0.5,0.3-0.8,0.3S550,36.1,550,35.3z"/>
</g>
<g>
	<g>
		<path class="st2" d="M7.7,136.9V114h9.6c1,0,1.9,0.2,2.8,0.6c0.8,0.4,1.6,1,2.2,1.7s1.1,1.5,1.5,2.4c0.3,0.9,0.5,1.8,0.5,2.7
			c0,1.2-0.3,2.4-0.8,3.6s-1.3,2-2.4,2.7c-1,0.7-2.2,1-3.6,1h-6.9v8.2L7.7,136.9L7.7,136.9z M10.6,126.1h6.7c0.8,0,1.5-0.2,2.1-0.6
			s1.1-1,1.4-1.7s0.5-1.5,0.5-2.4s-0.2-1.7-0.6-2.4s-0.9-1.3-1.5-1.7c-0.6-0.4-1.3-0.6-2.1-0.6h-6.5V126.1z"/>
		<path class="st2" d="M27.8,136.9V114h9.8c1,0,1.9,0.2,2.8,0.6c0.8,0.4,1.6,1,2.2,1.7c0.6,0.7,1.1,1.5,1.5,2.4
			c0.3,0.9,0.5,1.8,0.5,2.7c0,1.1-0.2,2.1-0.6,3c-0.4,0.9-1,1.8-1.7,2.4c-0.7,0.7-1.6,1.1-2.5,1.4l5.6,8.8H42l-5.2-8.2h-6.1v8.2
			L27.8,136.9L27.8,136.9z M30.7,126.1h6.9c0.8,0,1.5-0.2,2.1-0.7s1.1-1,1.4-1.8c0.3-0.7,0.5-1.5,0.5-2.4s-0.2-1.7-0.6-2.4
			s-0.9-1.3-1.5-1.7c-0.6-0.4-1.3-0.6-2.1-0.6h-6.7C30.7,116.5,30.7,126.1,30.7,126.1z"/>
		<path class="st2" d="M64.6,134.3v2.6H49V114h15.3v2.6H51.9v7.4h10.7v2.4H51.9v7.9H64.6z"/>
		<path class="st2" d="M82,118.8c-0.3-0.3-0.6-0.6-1-0.9s-0.9-0.5-1.5-0.8c-0.5-0.2-1.1-0.4-1.8-0.5c-0.6-0.1-1.3-0.2-2-0.2
			c-1.8,0-3.1,0.3-3.9,1s-1.3,1.6-1.3,2.7c0,0.8,0.2,1.5,0.6,1.9c0.4,0.5,1.1,0.9,2,1.2c0.9,0.3,2,0.6,3.4,0.9
			c1.6,0.3,3,0.8,4.1,1.3c1.2,0.5,2.1,1.2,2.7,2c0.6,0.8,0.9,1.9,0.9,3.3c0,1.1-0.2,2-0.6,2.8s-1,1.5-1.8,2s-1.6,0.9-2.6,1.2
			c-1,0.2-2.1,0.4-3.3,0.4c-1.2,0-2.3-0.1-3.4-0.4s-2.2-0.6-3.1-1.1c-1-0.5-1.9-1.1-2.8-1.8l1.4-2.5c0.3,0.4,0.8,0.7,1.3,1.1
			c0.5,0.4,1.2,0.7,1.9,1c0.7,0.3,1.5,0.5,2.3,0.7s1.7,0.3,2.5,0.3c1.6,0,2.9-0.3,3.8-0.9c0.9-0.6,1.4-1.5,1.4-2.6
			c0-0.9-0.3-1.5-0.8-2.1c-0.5-0.5-1.3-0.9-2.2-1.3s-2.2-0.7-3.6-1c-1.5-0.4-2.9-0.8-3.9-1.3c-1.1-0.5-1.8-1.1-2.4-1.8
			c-0.5-0.8-0.8-1.7-0.8-2.9c0-1.5,0.4-2.7,1.1-3.7c0.7-1,1.7-1.8,2.9-2.3c1.2-0.5,2.7-0.8,4.2-0.8c1,0,2,0.1,2.9,0.3
			s1.7,0.5,2.5,0.9s1.5,0.9,2.1,1.4L82,118.8z"/>
		<path class="st2" d="M97.7,137.1c-1.8,0-3.4-0.3-4.6-1c-1.2-0.6-2.2-1.5-3-2.6c-0.8-1.1-1.3-2.3-1.6-3.7S88,127,88,125.5v-11.6
			h2.9v11.6c0,1.1,0.1,2.2,0.3,3.3s0.6,2,1.1,2.9c0.5,0.8,1.2,1.5,2.1,2s2,0.7,3.3,0.7s2.4-0.3,3.3-0.8s1.6-1.2,2.1-2
			s0.9-1.8,1.1-2.9c0.2-1.1,0.3-2.1,0.3-3.2v-11.6h2.9v11.6c0,1.5-0.2,3-0.5,4.4c-0.4,1.4-0.9,2.6-1.7,3.7c-0.8,1.1-1.8,1.9-3,2.5
			S99.4,137.1,97.7,137.1z"/>
		<path class="st2" d="M112.6,136.9V114h9.6c1,0,1.9,0.2,2.8,0.6c0.8,0.4,1.6,1,2.2,1.7s1.1,1.5,1.5,2.4c0.3,0.9,0.5,1.8,0.5,2.7
			c0,1.2-0.3,2.4-0.8,3.6c-0.6,1.1-1.3,2-2.4,2.7c-1.1,0.7-2.2,1-3.5,1h-6.8v8.2L112.6,136.9L112.6,136.9z M115.5,126.1h6.7
			c0.8,0,1.5-0.2,2.1-0.6s1.1-1,1.4-1.7s0.5-1.5,0.5-2.4s-0.2-1.7-0.6-2.4c-0.4-0.7-0.9-1.3-1.5-1.7c-0.6-0.4-1.3-0.6-2.1-0.6h-6.5
			V126.1z"/>
		<path class="st2" d="M142.2,137.1c-1.8,0-3.4-0.3-4.6-1c-1.2-0.6-2.2-1.5-3-2.6c-0.8-1.1-1.3-2.3-1.6-3.7s-0.5-2.8-0.5-4.3v-11.6
			h2.9v11.6c0,1.1,0.1,2.2,0.3,3.3s0.6,2,1.1,2.9c0.5,0.8,1.2,1.5,2.1,2c0.9,0.5,2,0.7,3.3,0.7s2.4-0.3,3.3-0.8
			c0.9-0.5,1.6-1.2,2.1-2s0.9-1.8,1.1-2.9c0.2-1.1,0.3-2.1,0.3-3.2v-11.6h2.9v11.6c0,1.5-0.2,3-0.5,4.4c-0.4,1.4-0.9,2.6-1.7,3.7
			c-0.8,1.1-1.8,1.9-3,2.5S143.9,137.1,142.2,137.1z"/>
		<path class="st2" d="M172.6,134.3v2.6H157V114h15.3v2.6H160v7.4h10.7v2.4H160v7.9H172.6z"/>
		<path class="st2" d="M190.1,118.8c-0.3-0.3-0.6-0.6-1-0.9s-0.9-0.5-1.5-0.8c-0.5-0.2-1.1-0.4-1.8-0.5c-0.6-0.1-1.3-0.2-2-0.2
			c-1.8,0-3.1,0.3-3.9,1c-0.8,0.7-1.3,1.6-1.3,2.7c0,0.8,0.2,1.5,0.6,1.9c0.4,0.5,1.1,0.9,2,1.2c0.9,0.3,2,0.6,3.4,0.9
			c1.6,0.3,3,0.8,4.1,1.3c1.2,0.5,2.1,1.2,2.7,2c0.6,0.8,0.9,1.9,0.9,3.3c0,1.1-0.2,2-0.6,2.8c-0.4,0.8-1,1.5-1.8,2
			s-1.6,0.9-2.6,1.2c-1,0.2-2.1,0.4-3.3,0.4s-2.3-0.1-3.4-0.4s-2.2-0.6-3.1-1.1c-1-0.5-1.9-1.1-2.8-1.8l1.4-2.5
			c0.3,0.4,0.8,0.7,1.3,1.1c0.5,0.4,1.2,0.7,1.9,1s1.5,0.5,2.3,0.7s1.7,0.3,2.5,0.3c1.6,0,2.9-0.3,3.8-0.9c0.9-0.6,1.4-1.5,1.4-2.6
			c0-0.9-0.3-1.5-0.8-2.1c-0.5-0.5-1.3-0.9-2.2-1.3s-2.2-0.7-3.6-1c-1.5-0.4-2.9-0.8-3.9-1.3c-1.1-0.5-1.8-1.1-2.4-1.8
			s-0.8-1.7-0.8-2.9c0-1.5,0.4-2.7,1.1-3.7c0.7-1,1.7-1.8,2.9-2.3s2.7-0.8,4.2-0.8c1,0,2,0.1,2.9,0.3s1.7,0.5,2.5,0.9
			s1.5,0.9,2.1,1.4L190.1,118.8z"/>
		<path class="st2" d="M212.8,116.6h-7.9v20.3H202v-20.3h-7.9V114h18.7V116.6z"/>
		<path class="st2" d="M224.7,137.1c-1.6,0-3.1-0.3-4.4-1s-2.4-1.5-3.4-2.6c-1-1.1-1.7-2.4-2.2-3.7c-0.5-1.4-0.8-2.8-0.8-4.3
			s0.3-3,0.8-4.4s1.3-2.6,2.3-3.7s2.1-1.9,3.4-2.6c1.3-0.6,2.7-1,4.3-1s3.1,0.3,4.4,1s2.4,1.6,3.4,2.7c0.9,1.1,1.7,2.4,2.2,3.7
			c0.5,1.4,0.8,2.8,0.8,4.2c0,1.5-0.3,3-0.8,4.4c-0.5,1.4-1.3,2.6-2.3,3.7c-1,1.1-2.1,1.9-3.4,2.6S226.2,137.1,224.7,137.1z
			 M216.8,125.5c0,1.2,0.2,2.3,0.6,3.4c0.4,1.1,0.9,2,1.6,2.9c0.7,0.9,1.5,1.5,2.5,2c1,0.5,2,0.7,3.2,0.7s2.3-0.3,3.3-0.8
			s1.8-1.2,2.5-2.1c0.7-0.9,1.2-1.8,1.5-2.9c0.4-1.1,0.5-2.2,0.5-3.3c0-1.2-0.2-2.3-0.6-3.4c-0.4-1.1-0.9-2-1.6-2.9
			c-0.7-0.8-1.5-1.5-2.5-2s-2-0.7-3.2-0.7s-2.3,0.3-3.3,0.8s-1.8,1.2-2.5,2c-0.7,0.9-1.2,1.8-1.6,2.9
			C217,123.3,216.8,124.4,216.8,125.5z"/>
		<path class="st2" d="M14.7,150.3h2.5l9.4,22.9h-3.1l-2.6-6.7H11l-2.6,6.7H5.3L14.7,150.3z M20,164.3l-4.1-10.6l-4.1,10.6H20z"/>
		<path class="st2" d="M42.7,155.1c-0.3-0.3-0.6-0.6-1-0.9c-0.4-0.3-0.9-0.5-1.5-0.8c-0.5-0.2-1.1-0.4-1.8-0.5
			c-0.6-0.1-1.3-0.2-2-0.2c-1.8,0-3.1,0.3-3.9,1c-0.8,0.7-1.3,1.6-1.3,2.7c0,0.8,0.2,1.5,0.6,1.9c0.4,0.5,1.1,0.9,2,1.2
			s2,0.6,3.4,0.9c1.6,0.3,3,0.8,4.1,1.3c1.2,0.5,2.1,1.2,2.7,2s0.9,1.9,0.9,3.3c0,1.1-0.2,2-0.6,2.8c-0.4,0.8-1,1.5-1.8,2
			s-1.6,0.9-2.6,1.2c-1,0.2-2.1,0.4-3.3,0.4s-2.3-0.1-3.4-0.4c-1.1-0.3-2.2-0.6-3.1-1.1c-1-0.5-1.9-1.1-2.8-1.8l1.4-2.5
			c0.3,0.4,0.8,0.7,1.3,1.1c0.5,0.4,1.2,0.7,1.9,1c0.7,0.3,1.5,0.5,2.3,0.7s1.7,0.3,2.5,0.3c1.6,0,2.9-0.3,3.8-0.9
			c0.9-0.6,1.4-1.5,1.4-2.6c0-0.9-0.3-1.5-0.8-2.1c-0.5-0.5-1.3-0.9-2.2-1.3s-2.2-0.7-3.6-1c-1.5-0.4-2.9-0.8-3.9-1.3
			c-1.1-0.5-1.8-1.1-2.4-1.8s-0.8-1.7-0.8-2.9c0-1.5,0.4-2.7,1.1-3.7s1.7-1.8,2.9-2.3c1.2-0.5,2.7-0.8,4.2-0.8c1,0,2,0.1,2.9,0.3
			s1.7,0.5,2.5,0.9s1.5,0.9,2.1,1.4L42.7,155.1z"/>
		<path class="st2" d="M48.9,173.2v-22.9h2.9v22.9H48.9z"/>
		<path class="st2" d="M66.5,173.4c-1.5,0-2.9-0.3-4.2-1s-2.4-1.5-3.4-2.6s-1.7-2.4-2.3-3.7c-0.5-1.4-0.8-2.8-0.8-4.3s0.3-3,0.8-4.4
			s1.3-2.6,2.2-3.7s2.1-1.9,3.4-2.5s2.7-0.9,4.2-0.9c2.2,0,4,0.5,5.5,1.4c1.4,0.9,2.5,2.1,3.3,3.6l-2.2,1.5c-0.7-1.3-1.6-2.3-2.7-3
			c-1.2-0.6-2.4-1-3.8-1c-1.2,0-2.2,0.2-3.2,0.7c-0.9,0.5-1.8,1.2-2.4,2c-0.7,0.9-1.2,1.8-1.5,2.9c-0.4,1.1-0.5,2.2-0.5,3.4
			s0.2,2.4,0.6,3.5c0.4,1.1,1,2,1.7,2.9s1.6,1.5,2.5,2c1,0.5,2,0.7,3.1,0.7c1.3,0,2.6-0.3,3.7-1c1.2-0.7,2.3-1.7,3.4-3.1v3
			C71.8,172.2,69.3,173.4,66.5,173.4z M73.5,164h-4.9v-2.2H76v11.4h-2.5V164z"/>
		<path class="st2" d="M83.3,155.7v17.6h-2.9v-22.9h2.5l14,17.9v-17.9h2.9v22.9h-2.6L83.3,155.7z"/>
		<path class="st2" d="M112.2,150.3h2.5l9.4,22.9H121l-2.6-6.7h-9.9l-2.6,6.7h-3.1L112.2,150.3z M117.5,164.3l-4.1-10.6l-4.1,10.6
			H117.5z"/>
		<path class="st2" d="M127.1,173.2v-22.9h7.9c2.5,0,4.5,0.5,6.1,1.5s2.9,2.4,3.7,4.1c0.8,1.7,1.2,3.7,1.2,5.8
			c0,2.3-0.5,4.3-1.4,6.1c-0.9,1.7-2.2,3.1-3.8,4c-1.7,0.9-3.6,1.4-5.9,1.4L127.1,173.2L127.1,173.2z M143.1,161.8
			c0-1.7-0.3-3.2-1-4.6c-0.6-1.3-1.6-2.4-2.8-3.1c-1.2-0.8-2.7-1.1-4.4-1.1h-5v17.8h5c1.8,0,3.2-0.4,4.5-1.2
			c1.2-0.8,2.1-1.9,2.7-3.2C142.8,164.9,143.1,163.4,143.1,161.8z"/>
		<path class="st2" d="M159.5,173.4c-1.6,0-3.1-0.3-4.4-1c-1.3-0.6-2.4-1.5-3.4-2.6s-1.7-2.4-2.2-3.7c-0.5-1.4-0.8-2.8-0.8-4.3
			s0.3-3,0.8-4.4s1.3-2.6,2.3-3.7c1-1.1,2.1-1.9,3.4-2.6c1.3-0.6,2.7-1,4.3-1s3.1,0.3,4.4,1c1.3,0.7,2.4,1.6,3.4,2.7
			c0.9,1.1,1.7,2.4,2.2,3.7c0.5,1.4,0.8,2.8,0.8,4.2c0,1.5-0.3,3-0.8,4.4s-1.3,2.6-2.3,3.7c-1,1.1-2.1,1.9-3.4,2.6
			S161,173.4,159.5,173.4z M151.6,161.8c0,1.2,0.2,2.3,0.6,3.4c0.4,1.1,0.9,2,1.6,2.9c0.7,0.8,1.5,1.5,2.5,2s2,0.7,3.2,0.7
			s2.3-0.3,3.3-0.8s1.8-1.2,2.5-2.1s1.2-1.8,1.5-2.9c0.4-1.1,0.5-2.2,0.5-3.3c0-1.2-0.2-2.3-0.6-3.4c-0.4-1.1-0.9-2-1.6-2.9
			c-0.7-0.8-1.5-1.5-2.5-2s-2-0.7-3.2-0.7s-2.3,0.3-3.3,0.8s-1.8,1.2-2.5,2s-1.2,1.8-1.6,2.9C151.8,159.6,151.6,160.7,151.6,161.8z"
			/>
	</g>
</g>
<linearGradient id="SVGID_1_" gradientUnits="userSpaceOnUse" x1="276.6638" y1="441.2248" x2="52.2362" y2="589.5753" gradientTransform="matrix(1 0 0 -1 0 775.8)">
	<stop  offset="0" style="stop-color:#FF9996"/>
	<stop  offset="1" style="stop-color:#FFC680"/>
</linearGradient>
<line class="st3" x1="8" y1="260.4" x2="320.9" y2="260.4"/>
<linearGradient id="SVGID_2_" gradientUnits="userSpaceOnUse" x1="53.3109" y1="501.8089" x2="12.1891" y2="528.9911" gradientTransform="matrix(1 0 0 -1 0 775.8)">
	<stop  offset="0" style="stop-color:#00DCCC"/>
	<stop  offset="1" style="stop-color:#C7F0B9"/>
</linearGradient>
<line class="st4" x1="8" y1="260.4" x2="57.5" y2="260.4"/>
<circle class="st5" cx="57.5" cy="260.4" r="18.9"/>
<g>
	<g>
		<path class="st0" d="M29.1,203.7c-0.2-0.2-0.4-0.4-0.9-0.6c-0.4-0.3-0.9-0.5-1.5-0.8c-0.6-0.2-1.2-0.5-1.9-0.7
			c-0.7-0.2-1.4-0.3-2.1-0.3c-1.3,0-2.2,0.2-2.8,0.7c-0.6,0.5-1,1.1-1,2c0,0.7,0.2,1.2,0.6,1.5c0.4,0.4,1,0.7,1.8,1
			c0.8,0.3,1.8,0.6,3,0.9c1.6,0.4,2.9,0.8,4.1,1.4c1.2,0.5,2,1.3,2.7,2.2c0.6,0.9,0.9,2.1,0.9,3.5c0,1.3-0.2,2.4-0.7,3.3
			c-0.5,0.9-1.1,1.6-2,2.2c-0.8,0.6-1.8,1-2.8,1.2c-1.1,0.3-2.2,0.4-3.3,0.4c-1.2,0-2.4-0.1-3.6-0.4c-1.2-0.2-2.3-0.6-3.4-1.1
			s-2.1-1-3-1.7l2.1-4c0.2,0.2,0.6,0.5,1.1,0.8s1.1,0.7,1.9,1s1.5,0.6,2.4,0.8s1.8,0.3,2.7,0.3c1.3,0,2.2-0.2,2.9-0.6
			c0.6-0.4,1-1,1-1.8c0-0.7-0.3-1.3-0.8-1.7s-1.2-0.8-2.2-1.1c-0.9-0.3-2-0.6-3.2-1c-1.5-0.4-2.8-0.9-3.8-1.4s-1.8-1.2-2.3-2
			s-0.7-1.8-0.7-3c0-1.6,0.4-3,1.2-4.1c0.8-1.1,1.8-2,3.2-2.5c1.3-0.6,2.8-0.9,4.4-0.9c1.1,0,2.2,0.1,3.2,0.4c1,0.2,1.9,0.6,2.8,1
			s1.7,0.8,2.4,1.3L29.1,203.7z M21.6,193.9h2.3v5.5l-2.3,0.3V193.9z M21.6,219.2h2.3v6.1h-2.3V219.2z M21.9,218.6v-18.4l1.6-0.4
			v18.8L21.9,218.6z"/>
		<path class="st0" d="M52.3,211.6c0,1.9-0.4,3.7-1.1,5.2s-1.8,2.7-3.1,3.6c-1.3,0.9-2.8,1.3-4.5,1.3s-3.1-0.4-4.5-1.3
			c-1.3-0.9-2.3-2-3.1-3.6c-0.8-1.5-1.1-3.2-1.1-5.2s0.4-3.7,1.1-5.2c0.8-1.5,1.8-2.7,3.1-3.6c1.3-0.9,2.8-1.3,4.5-1.3
			s3.1,0.4,4.5,1.3c1.3,0.9,2.3,2.1,3.1,3.6S52.3,209.7,52.3,211.6z M47.7,211.6c0-1.2-0.2-2.2-0.5-3.1c-0.3-0.9-0.8-1.6-1.5-2.1
			c-0.6-0.5-1.3-0.8-2.2-0.8c-0.8,0-1.6,0.3-2.2,0.8s-1.1,1.2-1.5,2.1c-0.3,0.9-0.5,1.9-0.5,3.1c0,1.2,0.2,2.2,0.5,3.1
			s0.8,1.6,1.5,2.1s1.4,0.8,2.2,0.8s1.5-0.3,2.1-0.8s1.1-1.2,1.5-2.1S47.7,212.8,47.7,211.6z"/>
		<path class="st0" d="M55.9,221.3v-4.8h3.7v4.8H55.9z"/>
		<path class="st0" d="M80.5,211.6c0,1.9-0.4,3.7-1.1,5.2s-1.8,2.7-3.1,3.6c-1.3,0.9-2.8,1.3-4.5,1.3s-3.1-0.4-4.5-1.3
			c-1.3-0.9-2.3-2-3.1-3.6c-0.8-1.6-1.1-3.2-1.1-5.2s0.4-3.7,1.1-5.2s1.8-2.7,3.1-3.6c1.3-0.9,2.8-1.3,4.5-1.3s3.1,0.4,4.5,1.3
			c1.3,0.9,2.3,2.1,3.1,3.6S80.5,209.7,80.5,211.6z M75.9,211.6c0-1.2-0.2-2.2-0.5-3.1c-0.3-0.9-0.8-1.6-1.5-2.1
			c-0.6-0.5-1.3-0.8-2.2-0.8c-0.8,0-1.6,0.3-2.2,0.8s-1.1,1.2-1.5,2.1c-0.3,0.9-0.5,1.9-0.5,3.1c0,1.2,0.2,2.2,0.5,3.1
			c0.3,0.9,0.8,1.6,1.5,2.1s1.4,0.8,2.2,0.8c0.8,0,1.5-0.3,2.1-0.8s1.1-1.2,1.5-2.1C75.7,213.8,75.9,212.8,75.9,211.6z"/>
		<path class="st0" d="M101.1,211.6c0,1.9-0.4,3.7-1.1,5.2s-1.8,2.7-3.1,3.6c-1.3,0.9-2.8,1.3-4.5,1.3s-3.1-0.4-4.5-1.3
			c-1.3-0.9-2.3-2-3.1-3.6s-1.1-3.2-1.1-5.2s0.4-3.7,1.1-5.2s1.8-2.7,3.1-3.6c1.3-0.9,2.8-1.3,4.5-1.3s3.1,0.4,4.5,1.3
			c1.3,0.9,2.3,2.1,3.1,3.6S101.1,209.7,101.1,211.6z M96.6,211.6c0-1.2-0.2-2.2-0.5-3.1c-0.3-0.9-0.8-1.6-1.5-2.1
			c-0.6-0.5-1.3-0.8-2.2-0.8c-0.8,0-1.6,0.3-2.2,0.8s-1.1,1.2-1.5,2.1c-0.3,0.9-0.5,1.9-0.5,3.1c0,1.2,0.2,2.2,0.5,3.1
			s0.8,1.6,1.5,2.1s1.4,0.8,2.2,0.8c0.8,0,1.5-0.3,2.1-0.8s1.1-1.2,1.5-2.1S96.6,212.8,96.6,211.6z"/>
	</g>
</g>
<g>
	<g>
		<path class="st0" d="M804.8,166.7H794v-4.1h18l-11.8,23.5H795L804.8,166.7z"/>
		<path class="st0" d="M823.9,166.7H813v-4.1h18l-11.8,23.5H814L823.9,166.7z"/>
		<path class="st0" d="M858.1,177.7v4.1h-16.6v-23.9h16.3v4.1h-11.6v5.7h10.1v3.8h-10.1v6.2H858.1z"/>
		<path class="st0" d="M867.7,182.1c-1.5,0-2.9-0.2-4.3-0.7c-1.4-0.5-2.5-1.2-3.5-2.2l1.6-2.9c1.1,0.9,2.1,1.5,3.1,1.9
			s2,0.6,2.9,0.6s1.6-0.2,2.1-0.5s0.8-0.8,0.8-1.4c0-0.4-0.1-0.7-0.4-1c-0.3-0.2-0.7-0.4-1.3-0.6c-0.5-0.2-1.2-0.4-2-0.6
			c-1.3-0.4-2.4-0.8-3.3-1.2c-0.9-0.4-1.5-0.9-2-1.5c-0.4-0.6-0.7-1.4-0.7-2.3c0-1.2,0.3-2.1,0.9-3c0.6-0.8,1.4-1.5,2.5-1.9
			c1.1-0.5,2.3-0.7,3.7-0.7c1.3,0,2.4,0.2,3.6,0.6c1.1,0.4,2.1,1,3.1,1.9l-1.8,2.9c-0.9-0.7-1.7-1.2-2.6-1.5
			c-0.8-0.3-1.6-0.5-2.5-0.5c-0.5,0-0.9,0.1-1.3,0.2s-0.8,0.3-1,0.5c-0.3,0.3-0.4,0.6-0.4,1.1c0,0.4,0.1,0.7,0.4,1s0.6,0.4,1.1,0.6
			c0.5,0.2,1.1,0.4,1.8,0.6c1.4,0.4,2.6,0.8,3.6,1.2s1.7,0.9,2.2,1.5s0.7,1.4,0.7,2.5c0,1.7-0.6,3.1-1.9,4
			C871.6,181.6,869.8,182.1,867.7,182.1z"/>
		<path class="st0" d="M888.3,180.9c-0.4,0.2-0.8,0.3-1.4,0.5c-0.5,0.2-1.1,0.4-1.7,0.5c-0.6,0.1-1.2,0.2-1.9,0.2
			c-0.8,0-1.6-0.1-2.3-0.4c-0.7-0.3-1.2-0.8-1.7-1.4c-0.4-0.6-0.6-1.5-0.6-2.5v-10h-2.3v-3.5h2.3v-5.7h4.5v5.7h3.7v3.5h-3.7v8.5
			c0,0.6,0.2,1,0.5,1.3s0.7,0.4,1.2,0.4s0.9-0.1,1.4-0.2c0.4-0.2,0.8-0.3,1.1-0.4L888.3,180.9z"/>
		<path class="st0" d="M890.5,175.3v-10.9h4.5v9.9c0,1.3,0.2,2.3,0.7,3s1.2,1,2.2,1c0.6,0,1.2-0.1,1.7-0.3s1.1-0.6,1.6-1
			s0.9-1,1.2-1.7v-10.8h4.5v12.4c0,0.5,0.1,0.8,0.3,1s0.4,0.3,0.8,0.4v3.7c-0.4,0.1-0.8,0.1-1.1,0.2c-0.3,0-0.6,0.1-0.8,0.1
			c-0.8,0-1.5-0.2-2-0.6c-0.5-0.4-0.8-0.9-0.9-1.5l-0.1-1.4c-0.8,1.2-1.8,2.1-3,2.7c-1.2,0.6-2.6,0.9-4.1,0.9
			c-1.8,0-3.2-0.6-4.1-1.7S890.5,177.5,890.5,175.3z"/>
		<path class="st0" d="M910.3,173.1c0-1.7,0.3-3.2,1-4.6c0.7-1.4,1.6-2.4,2.8-3.2s2.5-1.2,4.1-1.2c1.3,0,2.5,0.3,3.5,1
			s1.9,1.5,2.4,2.4v-10.2h4.5v19.5c0,0.5,0.1,0.8,0.2,1c0.2,0.2,0.4,0.3,0.8,0.4v3.7c-0.8,0.2-1.4,0.2-1.9,0.2c-0.8,0-1.5-0.2-2-0.6
			c-0.5-0.4-0.8-0.9-0.9-1.6l-0.1-1.1c-0.7,1.1-1.5,1.9-2.6,2.5s-2.3,0.9-3.5,0.9s-2.3-0.2-3.3-0.7s-1.9-1.1-2.7-1.9
			s-1.3-1.8-1.7-2.9C910.5,175.5,910.3,174.4,910.3,173.1z M924.1,175.4v-4.1c-0.2-0.6-0.6-1.2-1.1-1.7s-1-0.9-1.6-1.2
			s-1.2-0.4-1.8-0.4c-0.7,0-1.3,0.1-1.9,0.4c-0.6,0.3-1,0.7-1.5,1.2c-0.4,0.5-0.7,1-0.9,1.7c-0.2,0.6-0.3,1.3-0.3,2s0.1,1.4,0.4,2
			c0.2,0.6,0.6,1.2,1,1.6s1,0.8,1.6,1.1s1.2,0.4,1.9,0.4c0.4,0,0.9-0.1,1.3-0.2s0.9-0.3,1.2-0.6c0.4-0.3,0.7-0.6,1-0.9
			C923.8,176.2,924,175.8,924.1,175.4z"/>
		<path class="st0" d="M933.1,161.7v-4.5h4.5v4.5H933.1z M933.1,181.8v-17.6h4.5v17.6H933.1z"/>
		<path class="st0" d="M940.4,176.7c0-1.1,0.3-2.1,1-3c0.6-0.9,1.5-1.5,2.7-2c1.1-0.5,2.5-0.7,3.9-0.7c0.7,0,1.5,0.1,2.3,0.2
			c0.8,0.1,1.4,0.3,2,0.5v-0.9c0-1.1-0.3-1.9-1-2.5s-1.6-0.9-2.9-0.9c-1,0-1.9,0.2-2.8,0.5c-0.9,0.3-1.8,0.8-2.8,1.5l-1.4-3
			c1.2-0.8,2.4-1.3,3.6-1.7c1.2-0.4,2.5-0.6,3.8-0.6c2.5,0,4.5,0.6,5.9,1.9c1.4,1.2,2.1,3,2.1,5.3v5.5c0,0.5,0.1,0.8,0.3,1
			s0.4,0.3,0.8,0.4v3.7c-0.4,0.1-0.8,0.1-1.1,0.2s-0.6,0.1-0.8,0.1c-0.9,0-1.6-0.2-2-0.6s-0.7-0.9-0.9-1.5l-0.1-0.9
			c-0.8,1-1.7,1.7-2.9,2.3c-1.1,0.5-2.3,0.8-3.5,0.8s-2.2-0.2-3.1-0.7c-0.9-0.5-1.7-1.1-2.2-2C940.7,178.6,940.4,177.7,940.4,176.7z
			 M951.4,177.5c0.2-0.3,0.4-0.5,0.6-0.8c0.2-0.3,0.2-0.5,0.2-0.7v-1.7c-0.5-0.2-1.1-0.4-1.7-0.5c-0.6-0.1-1.2-0.2-1.8-0.2
			c-1.2,0-2.1,0.2-2.9,0.7c-0.8,0.5-1.1,1.1-1.1,2c0,0.4,0.1,0.9,0.4,1.2c0.2,0.4,0.6,0.7,1.1,1c0.5,0.2,1,0.4,1.7,0.4
			s1.3-0.1,2-0.4C950.5,178.2,951,177.9,951.4,177.5z"/>
		<path class="st0" d="M977.3,181.8h-4.5v-9.7c0-1.4-0.2-2.4-0.7-3s-1.2-1-2.1-1c-0.6,0-1.2,0.2-1.8,0.5s-1.2,0.7-1.7,1.3
			c-0.5,0.5-0.9,1.2-1.1,1.9V182H961v-17.4h4.1v3.3c0.4-0.8,1-1.4,1.7-1.9s1.5-0.9,2.4-1.2s1.9-0.4,2.9-0.4c1.1,0,2,0.2,2.7,0.6
			s1.2,0.9,1.6,1.6c0.4,0.7,0.6,1.4,0.8,2.2c0.1,0.8,0.2,1.7,0.2,2.5v10.5H977.3z"/>
		<path class="st0" d="M991.7,180.9c-0.4,0.2-0.8,0.3-1.4,0.5c-0.5,0.2-1.1,0.4-1.7,0.5c-0.6,0.1-1.2,0.2-1.9,0.2
			c-0.8,0-1.6-0.1-2.3-0.4c-0.7-0.3-1.2-0.8-1.7-1.4c-0.4-0.6-0.6-1.5-0.6-2.5v-10h-2.3v-3.5h2.3v-5.7h4.5v5.7h3.7v3.5h-3.7v8.5
			c0,0.6,0.2,1,0.5,1.3s0.7,0.4,1.2,0.4s0.9-0.1,1.4-0.2c0.4-0.2,0.8-0.3,1.1-0.4L991.7,180.9z"/>
		<path class="st0" d="M1002,182.1c-1.4,0-2.7-0.2-3.8-0.7s-2.1-1.1-2.9-2s-1.4-1.8-1.9-2.9c-0.4-1.1-0.7-2.2-0.7-3.4
			c0-1.7,0.4-3.2,1.1-4.6c0.8-1.4,1.8-2.5,3.2-3.3s3.1-1.2,5-1.2s3.6,0.4,4.9,1.2s2.4,1.9,3.1,3.3c0.7,1.4,1.1,2.8,1.1,4.4
			c0,0.3,0,0.5,0,0.8s0,0.5-0.1,0.7h-13.6c0.1,0.9,0.4,1.6,0.8,2.3c0.4,0.7,1,1.2,1.7,1.5s1.4,0.5,2.2,0.5c0.9,0,1.7-0.2,2.5-0.7
			c0.8-0.4,1.3-1,1.6-1.7l3.9,1.1c-0.4,0.9-1,1.7-1.8,2.4s-1.7,1.2-2.8,1.6S1003.3,182.1,1002,182.1z M997.4,171.7h9.2
			c-0.1-0.9-0.3-1.6-0.8-2.3c-0.4-0.6-1-1.1-1.6-1.5c-0.7-0.4-1.4-0.5-2.3-0.5c-0.8,0-1.5,0.2-2.2,0.5s-1.2,0.9-1.6,1.5
			C997.7,170,997.5,170.8,997.4,171.7z"/>
		<path class="st0" d="M1020.5,182.1c-1.5,0-2.9-0.2-4.3-0.7c-1.4-0.5-2.5-1.2-3.5-2.2l1.6-2.9c1.1,0.9,2.1,1.5,3.1,1.9
			s2,0.6,2.9,0.6s1.6-0.2,2.1-0.5s0.8-0.8,0.8-1.4c0-0.4-0.1-0.7-0.4-1c-0.3-0.2-0.7-0.4-1.3-0.6c-0.5-0.2-1.2-0.4-2-0.6
			c-1.3-0.4-2.4-0.8-3.3-1.2c-0.9-0.4-1.5-0.9-2-1.5c-0.4-0.6-0.7-1.4-0.7-2.3c0-1.2,0.3-2.1,0.9-3c0.6-0.8,1.4-1.5,2.5-1.9
			c1.1-0.5,2.3-0.7,3.7-0.7c1.3,0,2.4,0.2,3.6,0.6c1.1,0.4,2.1,1,3.1,1.9l-1.8,2.9c-0.9-0.7-1.7-1.2-2.6-1.5
			c-0.8-0.3-1.6-0.5-2.5-0.5c-0.5,0-0.9,0.1-1.3,0.2s-0.8,0.3-1,0.5c-0.3,0.3-0.4,0.6-0.4,1.1c0,0.4,0.1,0.7,0.4,1s0.6,0.4,1.1,0.6
			c0.5,0.2,1.1,0.4,1.8,0.6c1.4,0.4,2.6,0.8,3.6,1.2c1,0.4,1.7,0.9,2.2,1.5s0.7,1.4,0.7,2.5c0,1.7-0.6,3.1-1.9,4
			C1024.3,181.6,1022.6,182.1,1020.5,182.1z"/>
	</g>
</g>
<g>
	<g>
		<path class="st2" d="M798.7,121.2v17.6h-2.9v-22.9h2.5l14,17.9v-17.9h2.9v22.9h-2.6L798.7,121.2z"/>
		<path class="st2" d="M830.1,138.9c-1.8,0-3.4-0.3-4.6-1c-1.2-0.6-2.2-1.5-3-2.6s-1.3-2.3-1.6-3.7s-0.5-2.8-0.5-4.3v-11.6h2.9v11.6
			c0,1.1,0.1,2.2,0.3,3.3s0.6,2,1.1,2.9c0.5,0.8,1.2,1.5,2.1,2c0.9,0.5,2,0.7,3.3,0.7s2.4-0.3,3.3-0.8c0.9-0.5,1.6-1.2,2.1-2
			s0.9-1.8,1.1-2.9c0.2-1.1,0.3-2.1,0.3-3.2v-11.6h2.9v11.6c0,1.5-0.2,3-0.5,4.4c-0.4,1.4-0.9,2.6-1.7,3.7c-0.8,1.1-1.8,1.9-3,2.5
			S831.8,138.9,830.1,138.9z M831.1,113.1l-1.9-0.6l1.9-3.3h2.8L831.1,113.1z"/>
		<path class="st2" d="M864.8,138.8v-17.5l-7.6,13.5h-1.8l-7.6-13.5v17.5H845v-22.9h3.1l8.3,14.9l8.3-14.9h3v22.9H864.8z"/>
		<path class="st2" d="M888.7,136.2v2.6h-15.6v-22.9h15.3v2.6H876v7.4h10.7v2.4H876v7.9H888.7z"/>
		<path class="st2" d="M892.7,138.8v-22.9h9.8c1,0,1.9,0.2,2.8,0.6c0.8,0.4,1.6,1,2.2,1.7s1.1,1.5,1.5,2.4c0.3,0.9,0.5,1.8,0.5,2.7
			c0,1.1-0.2,2.1-0.6,3c-0.4,0.9-1,1.8-1.7,2.4c-0.7,0.7-1.6,1.1-2.5,1.4l5.6,8.8H907l-5.2-8.2h-6.1v8.2L892.7,138.8L892.7,138.8z
			 M895.6,127.9h6.9c0.8,0,1.5-0.2,2.1-0.7s1.1-1,1.4-1.8s0.5-1.5,0.5-2.4s-0.2-1.7-0.6-2.4c-0.4-0.7-0.9-1.3-1.5-1.7
			s-1.3-0.6-2.1-0.6h-6.7L895.6,127.9L895.6,127.9z"/>
		<path class="st2" d="M923.2,138.9c-1.6,0-3.1-0.3-4.4-1c-1.3-0.6-2.4-1.5-3.4-2.6s-1.7-2.4-2.2-3.7c-0.5-1.4-0.8-2.8-0.8-4.3
			c0-1.5,0.3-3,0.8-4.4s1.3-2.6,2.3-3.7s2.1-1.9,3.4-2.6c1.3-0.6,2.7-1,4.3-1s3.1,0.3,4.4,1s2.4,1.6,3.4,2.7
			c0.9,1.1,1.7,2.4,2.2,3.7s0.8,2.8,0.8,4.2c0,1.5-0.3,3-0.8,4.4c-0.5,1.4-1.3,2.6-2.3,3.7s-2.1,1.9-3.4,2.6
			S924.8,138.9,923.2,138.9z M915.4,127.3c0,1.2,0.2,2.3,0.6,3.4c0.4,1.1,0.9,2,1.6,2.9c0.7,0.8,1.5,1.5,2.5,2s2,0.7,3.2,0.7
			s2.3-0.3,3.3-0.8s1.8-1.2,2.5-2.1c0.7-0.9,1.2-1.8,1.5-2.9c0.4-1.1,0.5-2.2,0.5-3.3c0-1.2-0.2-2.3-0.6-3.4c-0.4-1.1-0.9-2-1.6-2.9
			c-0.7-0.8-1.5-1.5-2.5-2s-2-0.7-3.2-0.7s-2.3,0.3-3.3,0.8s-1.8,1.2-2.5,2s-1.2,1.8-1.6,2.9C915.6,125.1,915.4,126.2,915.4,127.3z"
			/>
		<path class="st2" d="M946.2,138.8v-22.9h7.9c2.5,0,4.5,0.5,6.1,1.5s2.9,2.4,3.7,4.1s1.2,3.7,1.2,5.8c0,2.3-0.5,4.3-1.4,6.1
			c-0.9,1.7-2.2,3.1-3.8,4c-1.7,0.9-3.6,1.4-5.9,1.4H946.2z M962.3,127.3c0-1.7-0.3-3.2-1-4.6c-0.6-1.3-1.6-2.4-2.8-3.1
			c-1.2-0.8-2.7-1.1-4.4-1.1h-5v17.8h5c1.8,0,3.2-0.4,4.5-1.2s2.1-1.9,2.7-3.2C962,130.5,962.3,128.9,962.3,127.3z"/>
		<path class="st2" d="M984.9,136.2v2.6h-15.6v-22.9h15.3v2.6h-12.4v7.4H983v2.4h-10.7v7.9H984.9z"/>
		<path class="st2" d="M1012.6,136.2v2.6H997v-22.9h15.3v2.6h-12.4v7.4h10.7v2.4h-10.7v7.9H1012.6z"/>
		<path class="st2" d="M1030,120.6c-0.3-0.3-0.6-0.6-1-0.9s-0.9-0.5-1.5-0.8c-0.5-0.2-1.1-0.4-1.8-0.5c-0.6-0.1-1.3-0.2-2-0.2
			c-1.8,0-3.1,0.3-3.9,1c-0.8,0.7-1.3,1.6-1.3,2.7c0,0.8,0.2,1.5,0.6,1.9s1.1,0.9,2,1.2c0.9,0.3,2,0.6,3.4,0.9
			c1.6,0.3,3,0.8,4.1,1.3c1.2,0.5,2.1,1.2,2.7,2s0.9,1.9,0.9,3.3c0,1.1-0.2,2-0.6,2.8c-0.4,0.8-1,1.5-1.8,2s-1.6,0.9-2.6,1.2
			c-1,0.2-2.1,0.4-3.3,0.4s-2.3-0.1-3.4-0.4s-2.2-0.6-3.1-1.1c-1-0.5-1.9-1.1-2.8-1.8l1.4-2.5c0.3,0.4,0.8,0.7,1.3,1.1
			c0.5,0.4,1.2,0.7,1.9,1s1.5,0.5,2.3,0.7s1.7,0.3,2.5,0.3c1.6,0,2.9-0.3,3.8-0.9c0.9-0.6,1.4-1.5,1.4-2.6c0-0.9-0.3-1.5-0.8-2.1
			c-0.5-0.5-1.3-0.9-2.2-1.3c-0.9-0.4-2.2-0.7-3.6-1c-1.5-0.4-2.9-0.8-3.9-1.3c-1.1-0.5-1.8-1.1-2.4-1.8c-0.5-0.8-0.8-1.7-0.8-2.9
			c0-1.5,0.4-2.7,1.1-3.7c0.7-1,1.7-1.8,2.9-2.3s2.7-0.8,4.2-0.8c1,0,2,0.1,2.9,0.3c0.9,0.2,1.7,0.5,2.5,0.9
			c0.8,0.4,1.5,0.9,2.1,1.4L1030,120.6z"/>
		<path class="st2" d="M1052.7,118.4h-7.9v20.3h-2.9v-20.3h-7.9v-2.6h18.7L1052.7,118.4L1052.7,118.4z"/>
		<path class="st2" d="M1065.5,138.9c-1.8,0-3.4-0.3-4.6-1c-1.2-0.6-2.2-1.5-3-2.6s-1.3-2.3-1.6-3.7c-0.3-1.4-0.5-2.8-0.5-4.3v-11.6
			h2.9v11.6c0,1.1,0.1,2.2,0.3,3.3c0.2,1.1,0.6,2,1.1,2.9c0.5,0.8,1.2,1.5,2.1,2s2,0.7,3.3,0.7s2.4-0.3,3.3-0.8s1.6-1.2,2.1-2
			s0.9-1.8,1.1-2.9c0.2-1.1,0.3-2.1,0.3-3.2v-11.6h2.9v11.6c0,1.5-0.2,3-0.5,4.4c-0.4,1.4-0.9,2.6-1.7,3.7c-0.8,1.1-1.8,1.9-3,2.5
			S1067.2,138.9,1065.5,138.9z"/>
		<path class="st2" d="M1080.4,138.8v-22.9h7.9c2.5,0,4.5,0.5,6.1,1.5s2.9,2.4,3.7,4.1c0.8,1.7,1.2,3.7,1.2,5.8
			c0,2.3-0.5,4.3-1.4,6.1c-0.9,1.7-2.2,3.1-3.8,4c-1.7,0.9-3.6,1.4-5.9,1.4H1080.4z M1096.5,127.3c0-1.7-0.3-3.2-1-4.6
			c-0.6-1.3-1.6-2.4-2.8-3.1c-1.2-0.8-2.7-1.1-4.4-1.1h-5v17.8h5c1.8,0,3.2-0.4,4.5-1.2s2.1-1.9,2.7-3.2
			C1096.2,130.5,1096.5,128.9,1096.5,127.3z"/>
		<path class="st2" d="M1103.5,138.8v-22.9h2.9v22.9H1103.5z"/>
		<path class="st2" d="M1118.9,115.8h2.5l9.4,22.9h-3.1l-2.6-6.7h-9.9l-2.6,6.7h-3.1L1118.9,115.8z M1124.1,129.8l-4.1-10.6
			l-4.1,10.6H1124.1z"/>
		<path class="st2" d="M1136.7,121.2v17.6h-2.9v-22.9h2.5l14,17.9v-17.9h2.9v22.9h-2.6L1136.7,121.2z"/>
		<path class="st2" d="M1175.1,118.4h-7.9v20.3h-2.9v-20.3h-7.9v-2.6h18.7L1175.1,118.4L1175.1,118.4z"/>
		<path class="st2" d="M1194,136.2v2.6h-15.6v-22.9h15.3v2.6h-12.4v7.4h10.7v2.4h-10.7v7.9H1194z"/>
		<path class="st2" d="M1211.4,120.6c-0.3-0.3-0.6-0.6-1-0.9s-0.9-0.5-1.5-0.8s-1.1-0.4-1.8-0.5c-0.6-0.1-1.3-0.2-2-0.2
			c-1.8,0-3.1,0.3-3.9,1s-1.3,1.6-1.3,2.7c0,0.8,0.2,1.5,0.6,1.9s1.1,0.9,2,1.2c0.9,0.3,2,0.6,3.4,0.9c1.6,0.3,3,0.8,4.1,1.3
			s2.1,1.2,2.7,2s0.9,1.9,0.9,3.3c0,1.1-0.2,2-0.6,2.8c-0.4,0.8-1,1.5-1.8,2s-1.6,0.9-2.6,1.2c-1,0.2-2.1,0.4-3.3,0.4
			c-1.2,0-2.3-0.1-3.4-0.4s-2.2-0.6-3.1-1.1c-1-0.5-1.9-1.1-2.8-1.8l1.4-2.5c0.3,0.4,0.8,0.7,1.3,1.1c0.5,0.4,1.2,0.7,1.9,1
			c0.7,0.3,1.5,0.5,2.3,0.7s1.7,0.3,2.5,0.3c1.6,0,2.9-0.3,3.8-0.9c0.9-0.6,1.4-1.5,1.4-2.6c0-0.9-0.3-1.5-0.8-2.1
			c-0.5-0.5-1.3-0.9-2.2-1.3c-0.9-0.4-2.2-0.7-3.6-1c-1.5-0.4-2.9-0.8-3.9-1.3c-1.1-0.5-1.8-1.1-2.4-1.8c-0.5-0.8-0.8-1.7-0.8-2.9
			c0-1.5,0.4-2.7,1.1-3.7s1.7-1.8,2.9-2.3c1.2-0.5,2.7-0.8,4.2-0.8c1,0,2,0.1,2.9,0.3s1.7,0.5,2.5,0.9s1.5,0.9,2.1,1.4L1211.4,120.6
			z"/>
	</g>
</g>
<g>
	<g>
		<path class="st2" d="M447.5,121.5v17.6h-2.9v-22.9h2.5l14,17.9v-17.9h2.9v22.9h-2.6L447.5,121.5z"/>
		<path class="st2" d="M478.9,139.3c-1.8,0-3.4-0.3-4.6-1c-1.2-0.6-2.2-1.5-3-2.6s-1.3-2.3-1.6-3.7s-0.5-2.8-0.5-4.3v-11.6h2.9v11.6
			c0,1.1,0.1,2.2,0.3,3.3s0.6,2,1.1,2.9c0.5,0.8,1.2,1.5,2.1,2s2,0.7,3.3,0.7s2.4-0.3,3.3-0.8s1.6-1.2,2.1-2s0.9-1.8,1.1-2.9
			c0.2-1.1,0.3-2.1,0.3-3.2v-11.6h2.9v11.6c0,1.5-0.2,3-0.5,4.4c-0.4,1.4-0.9,2.6-1.7,3.7c-0.8,1.1-1.8,1.9-3,2.5
			S480.6,139.3,478.9,139.3z M479.9,113.4l-1.9-0.6l1.9-3.3h2.8L479.9,113.4z"/>
		<path class="st2" d="M513.6,139.1v-17.5l-7.6,13.5h-1.8l-7.6-13.5v17.5h-2.9v-22.9h3.1l8.3,14.9l8.3-14.9h3v22.9H513.6z"/>
		<path class="st2" d="M537.6,136.5v2.6H522v-22.9h15.3v2.6h-12.4v7.4h10.7v2.4h-10.7v7.9H537.6z"/>
		<path class="st2" d="M541.5,139.1v-22.9h9.8c1,0,1.9,0.2,2.8,0.6c0.8,0.4,1.6,1,2.2,1.7c0.6,0.7,1.1,1.5,1.5,2.4
			c0.3,0.9,0.5,1.8,0.5,2.7c0,1.1-0.2,2.1-0.6,3c-0.4,0.9-1,1.8-1.7,2.4c-0.7,0.7-1.6,1.1-2.5,1.4l5.6,8.8h-3.3l-5.2-8.2h-6.1v8.2
			L541.5,139.1L541.5,139.1z M544.4,128.3h6.9c0.8,0,1.5-0.2,2.1-0.7s1.1-1,1.4-1.8c0.3-0.7,0.5-1.5,0.5-2.4s-0.2-1.7-0.6-2.4
			s-0.9-1.3-1.5-1.7c-0.6-0.4-1.3-0.6-2.1-0.6h-6.7L544.4,128.3L544.4,128.3z"/>
		<path class="st2" d="M572,139.3c-1.6,0-3.1-0.3-4.4-1s-2.4-1.5-3.4-2.6s-1.7-2.4-2.2-3.7c-0.5-1.4-0.8-2.8-0.8-4.3
			c0-1.5,0.3-3,0.8-4.4s1.3-2.6,2.3-3.7s2.1-1.9,3.4-2.6c1.3-0.6,2.7-1,4.3-1s3.1,0.3,4.4,1c1.3,0.7,2.4,1.6,3.4,2.7
			c0.9,1.1,1.7,2.4,2.2,3.7s0.8,2.8,0.8,4.2c0,1.5-0.3,3-0.8,4.4c-0.5,1.4-1.3,2.6-2.3,3.7s-2.1,1.9-3.4,2.6S573.6,139.3,572,139.3z
			 M564.2,127.6c0,1.2,0.2,2.3,0.6,3.4c0.4,1.1,0.9,2,1.6,2.9c0.7,0.8,1.5,1.5,2.5,2s2,0.7,3.2,0.7s2.3-0.3,3.3-0.8s1.8-1.2,2.5-2.1
			c0.7-0.9,1.2-1.8,1.5-2.9c0.4-1.1,0.5-2.2,0.5-3.3c0-1.2-0.2-2.3-0.6-3.4c-0.4-1.1-0.9-2-1.6-2.9c-0.7-0.8-1.5-1.5-2.5-2
			s-2-0.7-3.2-0.7s-2.3,0.3-3.3,0.8s-1.8,1.2-2.5,2s-1.2,1.8-1.6,2.9C564.4,125.4,564.2,126.5,564.2,127.6z"/>
		<path class="st2" d="M595,139.1v-22.9h7.9c2.5,0,4.5,0.5,6.1,1.5s2.9,2.4,3.7,4.1s1.2,3.7,1.2,5.8c0,2.3-0.5,4.3-1.4,6.1
			c-0.9,1.7-2.2,3.1-3.8,4c-1.7,0.9-3.6,1.4-5.9,1.4L595,139.1L595,139.1z M611.1,127.6c0-1.7-0.3-3.2-1-4.6
			c-0.6-1.3-1.6-2.4-2.8-3.1c-1.2-0.8-2.7-1.1-4.4-1.1h-5v17.8h5c1.8,0,3.2-0.4,4.5-1.2s2.1-1.9,2.7-3.2
			C610.8,130.8,611.1,129.3,611.1,127.6z"/>
		<path class="st2" d="M633.7,136.5v2.6h-15.6v-22.9h15.3v2.6H621v7.4h10.7v2.4H621v7.9H633.7z"/>
		<path class="st2" d="M444.6,175.4v-22.9h7.9c2.5,0,4.5,0.5,6.1,1.5s2.9,2.4,3.7,4.1c0.8,1.7,1.2,3.7,1.2,5.8
			c0,2.3-0.5,4.3-1.4,6.1c-0.9,1.7-2.2,3.1-3.8,4c-1.7,0.9-3.6,1.4-5.9,1.4L444.6,175.4L444.6,175.4z M460.6,163.9
			c0-1.7-0.3-3.2-1-4.6c-0.6-1.3-1.6-2.4-2.8-3.1c-1.2-0.8-2.7-1.1-4.4-1.1h-5v17.8h5c1.8,0,3.2-0.4,4.5-1.2
			c1.2-0.8,2.1-1.9,2.7-3.2C460.3,167.1,460.6,165.6,460.6,163.9z"/>
		<path class="st2" d="M477,175.6c-1.6,0-3.1-0.3-4.4-1c-1.3-0.6-2.4-1.5-3.4-2.6s-1.7-2.4-2.2-3.7c-0.5-1.4-0.8-2.8-0.8-4.3
			s0.3-3,0.8-4.4s1.3-2.6,2.3-3.7c1-1.1,2.1-1.9,3.4-2.6c1.3-0.6,2.7-1,4.3-1c1.6,0,3.1,0.3,4.4,1s2.4,1.6,3.4,2.7
			c0.9,1.1,1.7,2.4,2.2,3.7s0.8,2.8,0.8,4.2c0,1.5-0.3,3-0.8,4.4s-1.3,2.6-2.3,3.7c-1,1.1-2.1,1.9-3.4,2.6S478.5,175.6,477,175.6z
			 M469.1,164c0,1.2,0.2,2.3,0.6,3.4c0.4,1.1,0.9,2,1.6,2.9s1.5,1.5,2.5,2s2,0.7,3.2,0.7s2.3-0.3,3.3-0.8s1.8-1.2,2.5-2.1
			s1.2-1.8,1.5-2.9c0.4-1.1,0.5-2.2,0.5-3.3c0-1.2-0.2-2.3-0.6-3.4c-0.4-1.1-0.9-2-1.6-2.9c-0.7-0.8-1.5-1.5-2.5-2s-2-0.7-3.2-0.7
			s-2.3,0.3-3.3,0.8s-1.8,1.2-2.5,2c-0.7,0.9-1.2,1.8-1.6,2.9C469.3,161.7,469.1,162.8,469.1,164z"/>
		<path class="st2" d="M490.3,163.8c0-1.4,0.2-2.8,0.7-4.1s1.2-2.6,2.1-3.7s2.1-2,3.4-2.6c1.4-0.7,2.9-1,4.6-1c2,0,3.8,0.5,5.3,1.4
			s2.5,2.1,3.3,3.6l-2.3,1.5c-0.5-1-1-1.7-1.7-2.3s-1.5-1-2.3-1.2s-1.6-0.4-2.4-0.4c-1.3,0-2.4,0.3-3.4,0.8s-1.8,1.2-2.5,2.1
			c-0.7,0.9-1.2,1.8-1.5,2.9c-0.3,1.1-0.5,2.1-0.5,3.2c0,1.2,0.2,2.3,0.6,3.4c0.4,1.1,1,2.1,1.7,2.9s1.5,1.5,2.5,2s2,0.7,3.2,0.7
			c0.8,0,1.6-0.1,2.5-0.4c0.8-0.3,1.6-0.7,2.4-1.3s1.3-1.4,1.7-2.3l2.4,1.3c-0.5,1.1-1.2,2.1-2.2,2.9s-2.1,1.4-3.3,1.8
			c-1.2,0.4-2.4,0.6-3.6,0.6c-1.6,0-3-0.3-4.3-1s-2.4-1.6-3.4-2.7s-1.7-2.4-2.2-3.8S490.3,165.2,490.3,163.8z"/>
		<path class="st2" d="M529.4,172.8v2.6h-15.6v-22.9h15.3v2.6h-12.4v7.4h10.7v2.4h-10.7v7.9H529.4z"/>
		<path class="st2" d="M536.3,157.9v17.6h-2.9v-22.9h2.5l14,17.9v-17.9h2.9v22.9h-2.6L536.3,157.9z"/>
		<path class="st2" d="M574.7,155.1h-7.9v20.3h-2.9v-20.3H556v-2.6h18.7V155.1z"/>
		<path class="st2" d="M593.6,172.8v2.6H578v-22.9h15.3v2.6h-12.4v7.4h10.7v2.4h-10.7v7.9H593.6z"/>
		<path class="st2" d="M611,157.3c-0.3-0.3-0.6-0.6-1-0.9s-0.9-0.5-1.5-0.8s-1.1-0.4-1.8-0.5c-0.6-0.1-1.3-0.2-2-0.2
			c-1.8,0-3.1,0.3-3.9,1c-0.8,0.7-1.3,1.6-1.3,2.7c0,0.8,0.2,1.5,0.6,1.9s1.1,0.9,2,1.2s2,0.6,3.4,0.9c1.6,0.3,3,0.8,4.1,1.3
			s2.1,1.2,2.7,2s0.9,1.9,0.9,3.3c0,1.1-0.2,2-0.6,2.8c-0.4,0.8-1,1.5-1.8,2s-1.6,0.9-2.6,1.2c-1,0.2-2.1,0.4-3.3,0.4
			s-2.3-0.1-3.4-0.4s-2.2-0.6-3.1-1.1c-1-0.5-1.9-1.1-2.8-1.8l1.4-2.5c0.3,0.4,0.8,0.7,1.3,1.1c0.5,0.4,1.2,0.7,1.9,1
			s1.5,0.5,2.3,0.7s1.7,0.3,2.5,0.3c1.6,0,2.9-0.3,3.8-0.9c0.9-0.6,1.4-1.5,1.4-2.6c0-0.9-0.3-1.5-0.8-2.1c-0.5-0.5-1.3-0.9-2.2-1.3
			s-2.2-0.7-3.6-1c-1.5-0.4-2.9-0.8-3.9-1.3c-1.1-0.5-1.8-1.1-2.4-1.8c-0.5-0.8-0.8-1.7-0.8-2.9c0-1.5,0.4-2.7,1.1-3.7
			c0.7-1,1.7-1.8,2.9-2.3s2.7-0.8,4.2-0.8c1,0,2,0.1,2.9,0.3s1.7,0.5,2.5,0.9s1.5,0.9,2.1,1.4L611,157.3z"/>
	</g>
</g>
<path class="st6" d="M1306.1,240.2c0,5.5-4.4,9.9-9.9,9.9s-9.9-4.4-9.9-9.9s4.4-9.9,9.9-9.9C1301.6,230.3,1306.1,234.7,1306.1,240.2
	z"/>
<path class="st6" d="M1276.8,240.2c0,5.5-4.4,9.9-9.9,9.9s-9.9-4.4-9.9-9.9s4.4-9.9,9.9-9.9C1272.3,230.3,1276.8,234.7,1276.8,240.2
	z"/>
<path class="st6" d="M1247.4,240.2c0,5.5-4.4,9.9-9.9,9.9s-9.9-4.4-9.9-9.9s4.4-9.9,9.9-9.9C1243,230.3,1247.4,234.7,1247.4,240.2z"
	/>
<path class="st6" d="M1218.1,240.2c0,5.5-4.4,9.9-9.9,9.9s-9.9-4.4-9.9-9.9s4.4-9.9,9.9-9.9C1213.7,230.3,1218.1,234.7,1218.1,240.2
	z"/>
<path class="st6" d="M1188.8,240.2c0,5.5-4.4,9.9-9.9,9.9s-9.9-4.4-9.9-9.9s4.4-9.9,9.9-9.9C1184.4,230.3,1188.8,234.7,1188.8,240.2
	z"/>
<path class="st6" d="M1159.5,240.2c0,5.5-4.4,9.9-9.9,9.9s-9.9-4.4-9.9-9.9s4.4-9.9,9.9-9.9C1155,230.3,1159.5,234.7,1159.5,240.2z"
	/>
<linearGradient id="SVGID_3_" gradientUnits="userSpaceOnUse" x1="1110.3459" y1="535.6" x2="1130.146" y2="535.6" gradientTransform="matrix(1 0 0 -1 0 775.8)">
	<stop  offset="0" style="stop-color:#00DCCC"/>
	<stop  offset="1" style="stop-color:#C7F0B9"/>
</linearGradient>
<path class="st7" d="M1130.1,240.2c0,5.5-4.4,9.9-9.9,9.9s-9.9-4.4-9.9-9.9s4.4-9.9,9.9-9.9C1125.7,230.3,1130.1,234.7,1130.1,240.2
	z"/>
<linearGradient id="SVGID_4_" gradientUnits="userSpaceOnUse" x1="1081.022" y1="535.6" x2="1100.822" y2="535.6" gradientTransform="matrix(1 0 0 -1 0 775.8)">
	<stop  offset="0" style="stop-color:#00DCCC"/>
	<stop  offset="1" style="stop-color:#C7F0B9"/>
</linearGradient>
<path class="st8" d="M1100.8,240.2c0,5.5-4.4,9.9-9.9,9.9s-9.9-4.4-9.9-9.9s4.4-9.9,9.9-9.9C1096.4,230.3,1100.8,234.7,1100.8,240.2
	z"/>
<path class="st6" d="M1335.4,240.2c0,5.5-4.4,9.9-9.9,9.9s-9.9-4.4-9.9-9.9s4.4-9.9,9.9-9.9C1331,230.3,1335.4,234.7,1335.4,240.2z"
	/>
<path class="st6" d="M1306.1,266.2c0,5.5-4.4,9.9-9.9,9.9s-9.9-4.4-9.9-9.9s4.4-9.9,9.9-9.9C1301.6,256.3,1306.1,260.8,1306.1,266.2
	z"/>
<circle class="st6" cx="1266.9" cy="266.2" r="9.9"/>
<circle class="st6" cx="1237.5" cy="266.2" r="9.9"/>
<linearGradient id="SVGID_5_" gradientUnits="userSpaceOnUse" x1="1198.2999" y1="509.6" x2="1218.1" y2="509.6" gradientTransform="matrix(1 0 0 -1 0 775.8)">
	<stop  offset="0" style="stop-color:#00DCCC"/>
	<stop  offset="1" style="stop-color:#C7F0B9"/>
</linearGradient>
<circle class="st9" cx="1208.2" cy="266.2" r="9.9"/>
<linearGradient id="SVGID_6_" gradientUnits="userSpaceOnUse" x1="1169" y1="509.6" x2="1188.8" y2="509.6" gradientTransform="matrix(1 0 0 -1 0 775.8)">
	<stop  offset="0" style="stop-color:#00DCCC"/>
	<stop  offset="1" style="stop-color:#C7F0B9"/>
</linearGradient>
<circle class="st10" cx="1178.9" cy="266.2" r="9.9"/>
<linearGradient id="SVGID_7_" gradientUnits="userSpaceOnUse" x1="1139.6698" y1="509.6" x2="1159.4698" y2="509.6" gradientTransform="matrix(1 0 0 -1 0 775.8)">
	<stop  offset="0" style="stop-color:#00DCCC"/>
	<stop  offset="1" style="stop-color:#C7F0B9"/>
</linearGradient>
<circle class="st11" cx="1149.6" cy="266.2" r="9.9"/>
<linearGradient id="SVGID_8_" gradientUnits="userSpaceOnUse" x1="1110.3459" y1="509.6" x2="1130.146" y2="509.6" gradientTransform="matrix(1 0 0 -1 0 775.8)">
	<stop  offset="0" style="stop-color:#00DCCC"/>
	<stop  offset="1" style="stop-color:#C7F0B9"/>
</linearGradient>
<circle class="st12" cx="1120.2" cy="266.2" r="9.9"/>
<linearGradient id="SVGID_9_" gradientUnits="userSpaceOnUse" x1="1081.022" y1="509.6" x2="1100.822" y2="509.6" gradientTransform="matrix(1 0 0 -1 0 775.8)">
	<stop  offset="0" style="stop-color:#00DCCC"/>
	<stop  offset="1" style="stop-color:#C7F0B9"/>
</linearGradient>
<circle class="st13" cx="1090.9" cy="266.2" r="9.9"/>
<linearGradient id="SVGID_10_" gradientUnits="userSpaceOnUse" x1="1315.6" y1="509.6" x2="1335.4" y2="509.6" gradientTransform="matrix(1 0 0 -1 0 775.8)">
	<stop  offset="0" style="stop-color:#00DCCC"/>
	<stop  offset="1" style="stop-color:#C7F0B9"/>
</linearGradient>
<path class="st14" d="M1335.4,266.2c0,5.5-4.4,9.9-9.9,9.9s-9.9-4.4-9.9-9.9s4.4-9.9,9.9-9.9S1335.4,260.8,1335.4,266.2z"/>
<linearGradient id="SVGID_11_" gradientUnits="userSpaceOnUse" x1="1286.2999" y1="483.5" x2="1306.1" y2="483.5" gradientTransform="matrix(1 0 0 -1 0 775.8)">
	<stop  offset="0" style="stop-color:#00DCCC"/>
	<stop  offset="1" style="stop-color:#C7F0B9"/>
</linearGradient>
<path class="st15" d="M1306.1,292.3c0,5.5-4.4,9.9-9.9,9.9s-9.9-4.4-9.9-9.9s4.4-9.9,9.9-9.9
	C1301.6,282.4,1306.1,286.8,1306.1,292.3z"/>
<circle class="st6" cx="1266.9" cy="292.3" r="9.9"/>
<circle class="st6" cx="1237.5" cy="292.3" r="9.9"/>
<linearGradient id="SVGID_12_" gradientUnits="userSpaceOnUse" x1="1198.2999" y1="483.5" x2="1218.1" y2="483.5" gradientTransform="matrix(1 0 0 -1 0 775.8)">
	<stop  offset="0" style="stop-color:#00DCCC"/>
	<stop  offset="1" style="stop-color:#C7F0B9"/>
</linearGradient>
<circle class="st16" cx="1208.2" cy="292.3" r="9.9"/>
<linearGradient id="SVGID_13_" gradientUnits="userSpaceOnUse" x1="1169" y1="483.5" x2="1188.8" y2="483.5" gradientTransform="matrix(1 0 0 -1 0 775.8)">
	<stop  offset="0" style="stop-color:#00DCCC"/>
	<stop  offset="1" style="stop-color:#C7F0B9"/>
</linearGradient>
<circle class="st17" cx="1178.9" cy="292.3" r="9.9"/>
<linearGradient id="SVGID_14_" gradientUnits="userSpaceOnUse" x1="1139.6698" y1="483.5" x2="1159.4698" y2="483.5" gradientTransform="matrix(1 0 0 -1 0 775.8)">
	<stop  offset="0" style="stop-color:#00DCCC"/>
	<stop  offset="1" style="stop-color:#C7F0B9"/>
</linearGradient>
<circle class="st18" cx="1149.6" cy="292.3" r="9.9"/>
<linearGradient id="SVGID_15_" gradientUnits="userSpaceOnUse" x1="1110.3459" y1="483.5" x2="1130.146" y2="483.5" gradientTransform="matrix(1 0 0 -1 0 775.8)">
	<stop  offset="0" style="stop-color:#00DCCC"/>
	<stop  offset="1" style="stop-color:#C7F0B9"/>
</linearGradient>
<circle class="st19" cx="1120.2" cy="292.3" r="9.9"/>
<linearGradient id="SVGID_16_" gradientUnits="userSpaceOnUse" x1="1081.022" y1="483.5" x2="1100.822" y2="483.5" gradientTransform="matrix(1 0 0 -1 0 775.8)">
	<stop  offset="0" style="stop-color:#00DCCC"/>
	<stop  offset="1" style="stop-color:#C7F0B9"/>
</linearGradient>
<circle class="st20" cx="1090.9" cy="292.3" r="9.9"/>
<linearGradient id="SVGID_17_" gradientUnits="userSpaceOnUse" x1="1315.6" y1="483.5" x2="1335.4" y2="483.5" gradientTransform="matrix(1 0 0 -1 0 775.8)">
	<stop  offset="0" style="stop-color:#00DCCC"/>
	<stop  offset="1" style="stop-color:#C7F0B9"/>
</linearGradient>
<path class="st21" d="M1335.4,292.3c0,5.5-4.4,9.9-9.9,9.9s-9.9-4.4-9.9-9.9s4.4-9.9,9.9-9.9S1335.4,286.8,1335.4,292.3z"/>
<linearGradient id="SVGID_18_" gradientUnits="userSpaceOnUse" x1="1286.2999" y1="457.5" x2="1306.1" y2="457.5" gradientTransform="matrix(1 0 0 -1 0 775.8)">
	<stop  offset="0" style="stop-color:#00DCCC"/>
	<stop  offset="1" style="stop-color:#C7F0B9"/>
</linearGradient>
<path class="st22" d="M1306.1,318.3c0,5.5-4.4,9.9-9.9,9.9s-9.9-4.4-9.9-9.9s4.4-9.9,9.9-9.9
	C1301.6,308.4,1306.1,312.8,1306.1,318.3z"/>
<linearGradient id="SVGID_19_" gradientUnits="userSpaceOnUse" x1="1256.9655" y1="457.5" x2="1276.7655" y2="457.5" gradientTransform="matrix(1 0 0 -1 0 775.8)">
	<stop  offset="0" style="stop-color:#00DCCC"/>
	<stop  offset="1" style="stop-color:#C7F0B9"/>
</linearGradient>
<circle class="st23" cx="1266.9" cy="318.3" r="9.9"/>
<linearGradient id="SVGID_20_" gradientUnits="userSpaceOnUse" x1="1227.6416" y1="457.5" x2="1247.4417" y2="457.5" gradientTransform="matrix(1 0 0 -1 0 775.8)">
	<stop  offset="0" style="stop-color:#00DCCC"/>
	<stop  offset="1" style="stop-color:#C7F0B9"/>
</linearGradient>
<circle class="st24" cx="1237.5" cy="318.3" r="9.9"/>
<linearGradient id="SVGID_21_" gradientUnits="userSpaceOnUse" x1="1198.2999" y1="457.5" x2="1218.1" y2="457.5" gradientTransform="matrix(1 0 0 -1 0 775.8)">
	<stop  offset="0" style="stop-color:#00DCCC"/>
	<stop  offset="1" style="stop-color:#C7F0B9"/>
</linearGradient>
<circle class="st25" cx="1208.2" cy="318.3" r="9.9"/>
<linearGradient id="SVGID_22_" gradientUnits="userSpaceOnUse" x1="1169" y1="457.5" x2="1188.8" y2="457.5" gradientTransform="matrix(1 0 0 -1 0 775.8)">
	<stop  offset="0" style="stop-color:#00DCCC"/>
	<stop  offset="1" style="stop-color:#C7F0B9"/>
</linearGradient>
<circle class="st26" cx="1178.9" cy="318.3" r="9.9"/>
<linearGradient id="SVGID_23_" gradientUnits="userSpaceOnUse" x1="1139.6698" y1="457.5" x2="1159.4698" y2="457.5" gradientTransform="matrix(1 0 0 -1 0 775.8)">
	<stop  offset="0" style="stop-color:#00DCCC"/>
	<stop  offset="1" style="stop-color:#C7F0B9"/>
</linearGradient>
<circle class="st27" cx="1149.6" cy="318.3" r="9.9"/>
<linearGradient id="SVGID_24_" gradientUnits="userSpaceOnUse" x1="1110.3459" y1="457.5" x2="1130.146" y2="457.5" gradientTransform="matrix(1 0 0 -1 0 775.8)">
	<stop  offset="0" style="stop-color:#00DCCC"/>
	<stop  offset="1" style="stop-color:#C7F0B9"/>
</linearGradient>
<circle class="st28" cx="1120.2" cy="318.3" r="9.9"/>
<linearGradient id="SVGID_25_" gradientUnits="userSpaceOnUse" x1="1081.022" y1="457.5" x2="1100.822" y2="457.5" gradientTransform="matrix(1 0 0 -1 0 775.8)">
	<stop  offset="0" style="stop-color:#00DCCC"/>
	<stop  offset="1" style="stop-color:#C7F0B9"/>
</linearGradient>
<circle class="st29" cx="1090.9" cy="318.3" r="9.9"/>
<linearGradient id="SVGID_26_" gradientUnits="userSpaceOnUse" x1="1315.6" y1="457.5" x2="1335.4" y2="457.5" gradientTransform="matrix(1 0 0 -1 0 775.8)">
	<stop  offset="0" style="stop-color:#00DCCC"/>
	<stop  offset="1" style="stop-color:#C7F0B9"/>
</linearGradient>
<path class="st30" d="M1335.4,318.3c0,5.5-4.4,9.9-9.9,9.9s-9.9-4.4-9.9-9.9s4.4-9.9,9.9-9.9S1335.4,312.8,1335.4,318.3z"/>
<linearGradient id="SVGID_27_" gradientUnits="userSpaceOnUse" x1="994.2999" y1="561.5" x2="1014.1" y2="561.5" gradientTransform="matrix(1 0 0 -1 0 775.8)">
	<stop  offset="0" style="stop-color:#00DCCC"/>
	<stop  offset="1" style="stop-color:#C7F0B9"/>
</linearGradient>
<path class="st31" d="M1014.1,214.3c0,5.5-4.4,9.9-9.9,9.9s-9.9-4.4-9.9-9.9s4.4-9.9,9.9-9.9
	C1009.6,204.4,1014.1,208.8,1014.1,214.3z"/>
<linearGradient id="SVGID_28_" gradientUnits="userSpaceOnUse" x1="964.9655" y1="561.5" x2="984.7656" y2="561.5" gradientTransform="matrix(1 0 0 -1 0 775.8)">
	<stop  offset="0" style="stop-color:#00DCCC"/>
	<stop  offset="1" style="stop-color:#C7F0B9"/>
</linearGradient>
<circle class="st32" cx="974.9" cy="214.3" r="9.9"/>
<linearGradient id="SVGID_29_" gradientUnits="userSpaceOnUse" x1="935.6416" y1="561.5" x2="955.4417" y2="561.5" gradientTransform="matrix(1 0 0 -1 0 775.8)">
	<stop  offset="0" style="stop-color:#00DCCC"/>
	<stop  offset="1" style="stop-color:#C7F0B9"/>
</linearGradient>
<circle class="st33" cx="945.5" cy="214.3" r="9.9"/>
<linearGradient id="SVGID_30_" gradientUnits="userSpaceOnUse" x1="906.3" y1="561.5" x2="926.1" y2="561.5" gradientTransform="matrix(1 0 0 -1 0 775.8)">
	<stop  offset="0" style="stop-color:#00DCCC"/>
	<stop  offset="1" style="stop-color:#C7F0B9"/>
</linearGradient>
<circle class="st34" cx="916.2" cy="214.3" r="9.9"/>
<linearGradient id="SVGID_31_" gradientUnits="userSpaceOnUse" x1="877" y1="561.5" x2="896.8" y2="561.5" gradientTransform="matrix(1 0 0 -1 0 775.8)">
	<stop  offset="0" style="stop-color:#00DCCC"/>
	<stop  offset="1" style="stop-color:#C7F0B9"/>
</linearGradient>
<circle class="st35" cx="886.9" cy="214.3" r="9.9"/>
<linearGradient id="SVGID_32_" gradientUnits="userSpaceOnUse" x1="847.6699" y1="561.5" x2="867.47" y2="561.5" gradientTransform="matrix(1 0 0 -1 0 775.8)">
	<stop  offset="0" style="stop-color:#00DCCC"/>
	<stop  offset="1" style="stop-color:#C7F0B9"/>
</linearGradient>
<circle class="st36" cx="857.6" cy="214.3" r="9.9"/>
<linearGradient id="SVGID_33_" gradientUnits="userSpaceOnUse" x1="818.3459" y1="561.5" x2="838.1459" y2="561.5" gradientTransform="matrix(1 0 0 -1 0 775.8)">
	<stop  offset="0" style="stop-color:#00DCCC"/>
	<stop  offset="1" style="stop-color:#C7F0B9"/>
</linearGradient>
<circle class="st37" cx="828.2" cy="214.3" r="9.9"/>
<linearGradient id="SVGID_34_" gradientUnits="userSpaceOnUse" x1="789.022" y1="561.5" x2="808.822" y2="561.5" gradientTransform="matrix(1 0 0 -1 0 775.8)">
	<stop  offset="0" style="stop-color:#00DCCC"/>
	<stop  offset="1" style="stop-color:#C7F0B9"/>
</linearGradient>
<circle class="st38" cx="798.9" cy="214.3" r="9.9"/>
<linearGradient id="SVGID_35_" gradientUnits="userSpaceOnUse" x1="1023.6" y1="561.5" x2="1043.4" y2="561.5" gradientTransform="matrix(1 0 0 -1 0 775.8)">
	<stop  offset="0" style="stop-color:#00DCCC"/>
	<stop  offset="1" style="stop-color:#C7F0B9"/>
</linearGradient>
<path class="st39" d="M1043.4,214.3c0,5.5-4.4,9.9-9.9,9.9s-9.9-4.4-9.9-9.9s4.4-9.9,9.9-9.9S1043.4,208.8,1043.4,214.3z"/>
<linearGradient id="SVGID_36_" gradientUnits="userSpaceOnUse" x1="994.2999" y1="535.5" x2="1014.1" y2="535.5" gradientTransform="matrix(1 0 0 -1 0 775.8)">
	<stop  offset="0" style="stop-color:#00DCCC"/>
	<stop  offset="1" style="stop-color:#C7F0B9"/>
</linearGradient>
<path class="st40" d="M1014.1,240.3c0,5.5-4.4,9.9-9.9,9.9s-9.9-4.4-9.9-9.9s4.4-9.9,9.9-9.9
	C1009.6,230.4,1014.1,234.9,1014.1,240.3z"/>
<linearGradient id="SVGID_37_" gradientUnits="userSpaceOnUse" x1="964.9655" y1="535.5" x2="984.7656" y2="535.5" gradientTransform="matrix(1 0 0 -1 0 775.8)">
	<stop  offset="0" style="stop-color:#00DCCC"/>
	<stop  offset="1" style="stop-color:#C7F0B9"/>
</linearGradient>
<path class="st41" d="M984.8,240.3c0,5.5-4.4,9.9-9.9,9.9s-9.9-4.4-9.9-9.9s4.4-9.9,9.9-9.9C980.3,230.4,984.8,234.9,984.8,240.3z"
	/>
<linearGradient id="SVGID_38_" gradientUnits="userSpaceOnUse" x1="935.6416" y1="535.5" x2="955.4417" y2="535.5" gradientTransform="matrix(1 0 0 -1 0 775.8)">
	<stop  offset="0" style="stop-color:#00DCCC"/>
	<stop  offset="1" style="stop-color:#C7F0B9"/>
</linearGradient>
<path class="st42" d="M955.4,240.3c0,5.5-4.4,9.9-9.9,9.9s-9.9-4.4-9.9-9.9s4.4-9.9,9.9-9.9S955.4,234.9,955.4,240.3z"/>
<linearGradient id="SVGID_39_" gradientUnits="userSpaceOnUse" x1="906.2999" y1="535.5" x2="926.1" y2="535.5" gradientTransform="matrix(1 0 0 -1 0 775.8)">
	<stop  offset="0" style="stop-color:#00DCCC"/>
	<stop  offset="1" style="stop-color:#C7F0B9"/>
</linearGradient>
<path class="st43" d="M926.1,240.3c0,5.5-4.4,9.9-9.9,9.9s-9.9-4.4-9.9-9.9s4.4-9.9,9.9-9.9C921.7,230.4,926.1,234.9,926.1,240.3z"
	/>
<linearGradient id="SVGID_40_" gradientUnits="userSpaceOnUse" x1="876.9999" y1="535.5" x2="896.8" y2="535.5" gradientTransform="matrix(1 0 0 -1 0 775.8)">
	<stop  offset="0" style="stop-color:#00DCCC"/>
	<stop  offset="1" style="stop-color:#C7F0B9"/>
</linearGradient>
<path class="st44" d="M896.8,240.3c0,5.5-4.4,9.9-9.9,9.9s-9.9-4.4-9.9-9.9s4.4-9.9,9.9-9.9C892.4,230.4,896.8,234.9,896.8,240.3z"
	/>
<linearGradient id="SVGID_41_" gradientUnits="userSpaceOnUse" x1="847.6699" y1="535.5" x2="867.47" y2="535.5" gradientTransform="matrix(1 0 0 -1 0 775.8)">
	<stop  offset="0" style="stop-color:#00DCCC"/>
	<stop  offset="1" style="stop-color:#C7F0B9"/>
</linearGradient>
<path class="st45" d="M867.5,240.3c0,5.5-4.4,9.9-9.9,9.9s-9.9-4.4-9.9-9.9s4.4-9.9,9.9-9.9C863,230.4,867.5,234.9,867.5,240.3z"/>
<linearGradient id="SVGID_42_" gradientUnits="userSpaceOnUse" x1="818.3459" y1="535.5" x2="838.1459" y2="535.5" gradientTransform="matrix(1 0 0 -1 0 775.8)">
	<stop  offset="0" style="stop-color:#00DCCC"/>
	<stop  offset="1" style="stop-color:#C7F0B9"/>
</linearGradient>
<path class="st46" d="M838.1,240.3c0,5.5-4.4,9.9-9.9,9.9s-9.9-4.4-9.9-9.9s4.4-9.9,9.9-9.9S838.1,234.9,838.1,240.3z"/>
<linearGradient id="SVGID_43_" gradientUnits="userSpaceOnUse" x1="789.022" y1="535.5" x2="808.822" y2="535.5" gradientTransform="matrix(1 0 0 -1 0 775.8)">
	<stop  offset="0" style="stop-color:#00DCCC"/>
	<stop  offset="1" style="stop-color:#C7F0B9"/>
</linearGradient>
<path class="st47" d="M808.8,240.3c0,5.5-4.4,9.9-9.9,9.9s-9.9-4.4-9.9-9.9s4.4-9.9,9.9-9.9S808.8,234.9,808.8,240.3z"/>
<linearGradient id="SVGID_44_" gradientUnits="userSpaceOnUse" x1="1023.6" y1="535.5" x2="1043.4" y2="535.5" gradientTransform="matrix(1 0 0 -1 0 775.8)">
	<stop  offset="0" style="stop-color:#00DCCC"/>
	<stop  offset="1" style="stop-color:#C7F0B9"/>
</linearGradient>
<path class="st48" d="M1043.4,240.3c0,5.5-4.4,9.9-9.9,9.9s-9.9-4.4-9.9-9.9s4.4-9.9,9.9-9.9S1043.4,234.9,1043.4,240.3z"/>
<linearGradient id="SVGID_45_" gradientUnits="userSpaceOnUse" x1="994.2999" y1="509.5" x2="1014.1" y2="509.5" gradientTransform="matrix(1 0 0 -1 0 775.8)">
	<stop  offset="0" style="stop-color:#00DCCC"/>
	<stop  offset="1" style="stop-color:#C7F0B9"/>
</linearGradient>
<path class="st49" d="M1014.1,266.3c0,5.5-4.4,9.9-9.9,9.9s-9.9-4.4-9.9-9.9s4.4-9.9,9.9-9.9
	C1009.6,256.4,1014.1,260.9,1014.1,266.3z"/>
<linearGradient id="SVGID_46_" gradientUnits="userSpaceOnUse" x1="964.9655" y1="509.5" x2="984.7656" y2="509.5" gradientTransform="matrix(1 0 0 -1 0 775.8)">
	<stop  offset="0" style="stop-color:#00DCCC"/>
	<stop  offset="1" style="stop-color:#C7F0B9"/>
</linearGradient>
<path class="st50" d="M984.8,266.3c0,5.5-4.4,9.9-9.9,9.9s-9.9-4.4-9.9-9.9s4.4-9.9,9.9-9.9C980.3,256.4,984.8,260.9,984.8,266.3z"
	/>
<linearGradient id="SVGID_47_" gradientUnits="userSpaceOnUse" x1="935.6416" y1="509.5" x2="955.4417" y2="509.5" gradientTransform="matrix(1 0 0 -1 0 775.8)">
	<stop  offset="0" style="stop-color:#00DCCC"/>
	<stop  offset="1" style="stop-color:#C7F0B9"/>
</linearGradient>
<path class="st51" d="M955.4,266.3c0,5.5-4.4,9.9-9.9,9.9s-9.9-4.4-9.9-9.9s4.4-9.9,9.9-9.9S955.4,260.9,955.4,266.3z"/>
<linearGradient id="SVGID_48_" gradientUnits="userSpaceOnUse" x1="906.2999" y1="509.5" x2="926.1" y2="509.5" gradientTransform="matrix(1 0 0 -1 0 775.8)">
	<stop  offset="0" style="stop-color:#00DCCC"/>
	<stop  offset="1" style="stop-color:#C7F0B9"/>
</linearGradient>
<path class="st52" d="M926.1,266.3c0,5.5-4.4,9.9-9.9,9.9s-9.9-4.4-9.9-9.9s4.4-9.9,9.9-9.9C921.7,256.4,926.1,260.9,926.1,266.3z"
	/>
<linearGradient id="SVGID_49_" gradientUnits="userSpaceOnUse" x1="876.9999" y1="509.5" x2="896.8" y2="509.5" gradientTransform="matrix(1 0 0 -1 0 775.8)">
	<stop  offset="0" style="stop-color:#00DCCC"/>
	<stop  offset="1" style="stop-color:#C7F0B9"/>
</linearGradient>
<path class="st53" d="M896.8,266.3c0,5.5-4.4,9.9-9.9,9.9s-9.9-4.4-9.9-9.9s4.4-9.9,9.9-9.9C892.4,256.4,896.8,260.9,896.8,266.3z"
	/>
<linearGradient id="SVGID_50_" gradientUnits="userSpaceOnUse" x1="847.6699" y1="509.5" x2="867.47" y2="509.5" gradientTransform="matrix(1 0 0 -1 0 775.8)">
	<stop  offset="0" style="stop-color:#00DCCC"/>
	<stop  offset="1" style="stop-color:#C7F0B9"/>
</linearGradient>
<path class="st54" d="M867.5,266.3c0,5.5-4.4,9.9-9.9,9.9s-9.9-4.4-9.9-9.9s4.4-9.9,9.9-9.9C863,256.4,867.5,260.9,867.5,266.3z"/>
<linearGradient id="SVGID_51_" gradientUnits="userSpaceOnUse" x1="818.3459" y1="509.5" x2="838.1459" y2="509.5" gradientTransform="matrix(1 0 0 -1 0 775.8)">
	<stop  offset="0" style="stop-color:#00DCCC"/>
	<stop  offset="1" style="stop-color:#C7F0B9"/>
</linearGradient>
<path class="st55" d="M838.1,266.3c0,5.5-4.4,9.9-9.9,9.9s-9.9-4.4-9.9-9.9s4.4-9.9,9.9-9.9S838.1,260.9,838.1,266.3z"/>
<linearGradient id="SVGID_52_" gradientUnits="userSpaceOnUse" x1="789.022" y1="509.5" x2="808.822" y2="509.5" gradientTransform="matrix(1 0 0 -1 0 775.8)">
	<stop  offset="0" style="stop-color:#00DCCC"/>
	<stop  offset="1" style="stop-color:#C7F0B9"/>
</linearGradient>
<path class="st56" d="M808.8,266.3c0,5.5-4.4,9.9-9.9,9.9s-9.9-4.4-9.9-9.9s4.4-9.9,9.9-9.9S808.8,260.9,808.8,266.3z"/>
<linearGradient id="SVGID_53_" gradientUnits="userSpaceOnUse" x1="1023.6" y1="509.5" x2="1043.4" y2="509.5" gradientTransform="matrix(1 0 0 -1 0 775.8)">
	<stop  offset="0" style="stop-color:#00DCCC"/>
	<stop  offset="1" style="stop-color:#C7F0B9"/>
</linearGradient>
<path class="st57" d="M1043.4,266.3c0,5.5-4.4,9.9-9.9,9.9s-9.9-4.4-9.9-9.9s4.4-9.9,9.9-9.9S1043.4,260.9,1043.4,266.3z"/>
<linearGradient id="SVGID_54_" gradientUnits="userSpaceOnUse" x1="994.2999" y1="483.4" x2="1014.1" y2="483.4" gradientTransform="matrix(1 0 0 -1 0 775.8)">
	<stop  offset="0" style="stop-color:#00DCCC"/>
	<stop  offset="1" style="stop-color:#C7F0B9"/>
</linearGradient>
<path class="st58" d="M1014.1,292.4c0,5.5-4.4,9.9-9.9,9.9s-9.9-4.4-9.9-9.9s4.4-9.9,9.9-9.9
	C1009.6,282.5,1014.1,286.9,1014.1,292.4z"/>
<linearGradient id="SVGID_55_" gradientUnits="userSpaceOnUse" x1="964.9655" y1="483.4" x2="984.7656" y2="483.4" gradientTransform="matrix(1 0 0 -1 0 775.8)">
	<stop  offset="0" style="stop-color:#00DCCC"/>
	<stop  offset="1" style="stop-color:#C7F0B9"/>
</linearGradient>
<circle class="st59" cx="974.9" cy="292.4" r="9.9"/>
<linearGradient id="SVGID_56_" gradientUnits="userSpaceOnUse" x1="935.6416" y1="483.4" x2="955.4417" y2="483.4" gradientTransform="matrix(1 0 0 -1 0 775.8)">
	<stop  offset="0" style="stop-color:#00DCCC"/>
	<stop  offset="1" style="stop-color:#C7F0B9"/>
</linearGradient>
<circle class="st60" cx="945.5" cy="292.4" r="9.9"/>
<linearGradient id="SVGID_57_" gradientUnits="userSpaceOnUse" x1="906.3" y1="483.4" x2="926.1" y2="483.4" gradientTransform="matrix(1 0 0 -1 0 775.8)">
	<stop  offset="0" style="stop-color:#00DCCC"/>
	<stop  offset="1" style="stop-color:#C7F0B9"/>
</linearGradient>
<circle class="st61" cx="916.2" cy="292.4" r="9.9"/>
<linearGradient id="SVGID_58_" gradientUnits="userSpaceOnUse" x1="877" y1="483.4" x2="896.8" y2="483.4" gradientTransform="matrix(1 0 0 -1 0 775.8)">
	<stop  offset="0" style="stop-color:#00DCCC"/>
	<stop  offset="1" style="stop-color:#C7F0B9"/>
</linearGradient>
<circle class="st62" cx="886.9" cy="292.4" r="9.9"/>
<linearGradient id="SVGID_59_" gradientUnits="userSpaceOnUse" x1="847.6699" y1="483.4" x2="867.47" y2="483.4" gradientTransform="matrix(1 0 0 -1 0 775.8)">
	<stop  offset="0" style="stop-color:#00DCCC"/>
	<stop  offset="1" style="stop-color:#C7F0B9"/>
</linearGradient>
<circle class="st63" cx="857.6" cy="292.4" r="9.9"/>
<linearGradient id="SVGID_60_" gradientUnits="userSpaceOnUse" x1="818.3459" y1="483.4" x2="838.1459" y2="483.4" gradientTransform="matrix(1 0 0 -1 0 775.8)">
	<stop  offset="0" style="stop-color:#00DCCC"/>
	<stop  offset="1" style="stop-color:#C7F0B9"/>
</linearGradient>
<circle class="st64" cx="828.2" cy="292.4" r="9.9"/>
<linearGradient id="SVGID_61_" gradientUnits="userSpaceOnUse" x1="789.022" y1="483.4" x2="808.822" y2="483.4" gradientTransform="matrix(1 0 0 -1 0 775.8)">
	<stop  offset="0" style="stop-color:#00DCCC"/>
	<stop  offset="1" style="stop-color:#C7F0B9"/>
</linearGradient>
<circle class="st65" cx="798.9" cy="292.4" r="9.9"/>
<linearGradient id="SVGID_62_" gradientUnits="userSpaceOnUse" x1="1023.6" y1="483.4" x2="1043.4" y2="483.4" gradientTransform="matrix(1 0 0 -1 0 775.8)">
	<stop  offset="0" style="stop-color:#00DCCC"/>
	<stop  offset="1" style="stop-color:#C7F0B9"/>
</linearGradient>
<path class="st66" d="M1043.4,292.4c0,5.5-4.4,9.9-9.9,9.9s-9.9-4.4-9.9-9.9s4.4-9.9,9.9-9.9S1043.4,286.9,1043.4,292.4z"/>
<path class="st6" d="M1306.1,214.2c0,5.5-4.4,9.9-9.9,9.9s-9.9-4.4-9.9-9.9s4.4-9.9,9.9-9.9C1301.6,204.3,1306.1,208.7,1306.1,214.2
	z"/>
<path class="st6" d="M1276.8,214.2c0,5.5-4.4,9.9-9.9,9.9s-9.9-4.4-9.9-9.9s4.4-9.9,9.9-9.9C1272.3,204.3,1276.8,208.7,1276.8,214.2
	z"/>
<path class="st6" d="M1247.4,214.2c0,5.5-4.4,9.9-9.9,9.9s-9.9-4.4-9.9-9.9s4.4-9.9,9.9-9.9C1243,204.3,1247.4,208.7,1247.4,214.2z"
	/>
<path class="st6" d="M1218.1,214.2c0,5.5-4.4,9.9-9.9,9.9s-9.9-4.4-9.9-9.9s4.4-9.9,9.9-9.9C1213.7,204.3,1218.1,208.7,1218.1,214.2
	z"/>
<path class="st6" d="M1188.8,214.2c0,5.5-4.4,9.9-9.9,9.9s-9.9-4.4-9.9-9.9s4.4-9.9,9.9-9.9C1184.4,204.3,1188.8,208.7,1188.8,214.2
	z"/>
<path class="st6" d="M1159.5,214.2c0,5.5-4.4,9.9-9.9,9.9s-9.9-4.4-9.9-9.9s4.4-9.9,9.9-9.9C1155,204.3,1159.5,208.7,1159.5,214.2z"
	/>
<path class="st6" d="M1130.1,214.2c0,5.5-4.4,9.9-9.9,9.9s-9.9-4.4-9.9-9.9s4.4-9.9,9.9-9.9C1125.7,204.3,1130.1,208.7,1130.1,214.2
	z"/>
<path class="st6" d="M1100.8,214.2c0,5.5-4.4,9.9-9.9,9.9s-9.9-4.4-9.9-9.9s4.4-9.9,9.9-9.9C1096.4,204.3,1100.8,208.7,1100.8,214.2
	z"/>
<path class="st6" d="M1335.4,214.2c0,5.5-4.4,9.9-9.9,9.9s-9.9-4.4-9.9-9.9s4.4-9.9,9.9-9.9C1331,204.3,1335.4,208.7,1335.4,214.2z"
	/>
<linearGradient id="SVGID_63_" gradientUnits="userSpaceOnUse" x1="994.2999" y1="457.4" x2="1014.1" y2="457.4" gradientTransform="matrix(1 0 0 -1 0 775.8)">
	<stop  offset="0" style="stop-color:#00DCCC"/>
	<stop  offset="1" style="stop-color:#C7F0B9"/>
</linearGradient>
<path class="st67" d="M1014.1,318.4c0,5.5-4.4,9.9-9.9,9.9s-9.9-4.4-9.9-9.9s4.4-9.9,9.9-9.9
	C1009.6,308.5,1014.1,312.9,1014.1,318.4z"/>
<linearGradient id="SVGID_64_" gradientUnits="userSpaceOnUse" x1="964.9655" y1="457.4" x2="984.7656" y2="457.4" gradientTransform="matrix(1 0 0 -1 0 775.8)">
	<stop  offset="0" style="stop-color:#00DCCC"/>
	<stop  offset="1" style="stop-color:#C7F0B9"/>
</linearGradient>
<circle class="st68" cx="974.9" cy="318.4" r="9.9"/>
<linearGradient id="SVGID_65_" gradientUnits="userSpaceOnUse" x1="935.6416" y1="457.4" x2="955.4417" y2="457.4" gradientTransform="matrix(1 0 0 -1 0 775.8)">
	<stop  offset="0" style="stop-color:#00DCCC"/>
	<stop  offset="1" style="stop-color:#C7F0B9"/>
</linearGradient>
<circle class="st69" cx="945.5" cy="318.4" r="9.9"/>
<linearGradient id="SVGID_66_" gradientUnits="userSpaceOnUse" x1="906.3" y1="457.4" x2="926.1" y2="457.4" gradientTransform="matrix(1 0 0 -1 0 775.8)">
	<stop  offset="0" style="stop-color:#00DCCC"/>
	<stop  offset="1" style="stop-color:#C7F0B9"/>
</linearGradient>
<circle class="st70" cx="916.2" cy="318.4" r="9.9"/>
<linearGradient id="SVGID_67_" gradientUnits="userSpaceOnUse" x1="877" y1="457.4" x2="896.8" y2="457.4" gradientTransform="matrix(1 0 0 -1 0 775.8)">
	<stop  offset="0" style="stop-color:#00DCCC"/>
	<stop  offset="1" style="stop-color:#C7F0B9"/>
</linearGradient>
<circle class="st71" cx="886.9" cy="318.4" r="9.9"/>
<linearGradient id="SVGID_68_" gradientUnits="userSpaceOnUse" x1="847.6699" y1="457.4" x2="867.47" y2="457.4" gradientTransform="matrix(1 0 0 -1 0 775.8)">
	<stop  offset="0" style="stop-color:#00DCCC"/>
	<stop  offset="1" style="stop-color:#C7F0B9"/>
</linearGradient>
<circle class="st72" cx="857.6" cy="318.4" r="9.9"/>
<linearGradient id="SVGID_69_" gradientUnits="userSpaceOnUse" x1="818.3459" y1="457.4" x2="838.1459" y2="457.4" gradientTransform="matrix(1 0 0 -1 0 775.8)">
	<stop  offset="0" style="stop-color:#00DCCC"/>
	<stop  offset="1" style="stop-color:#C7F0B9"/>
</linearGradient>
<circle class="st73" cx="828.2" cy="318.4" r="9.9"/>
<linearGradient id="SVGID_70_" gradientUnits="userSpaceOnUse" x1="789.022" y1="457.4" x2="808.822" y2="457.4" gradientTransform="matrix(1 0 0 -1 0 775.8)">
	<stop  offset="0" style="stop-color:#00DCCC"/>
	<stop  offset="1" style="stop-color:#C7F0B9"/>
</linearGradient>
<circle class="st74" cx="798.9" cy="318.4" r="9.9"/>
<linearGradient id="SVGID_71_" gradientUnits="userSpaceOnUse" x1="1023.6" y1="457.4" x2="1043.4" y2="457.4" gradientTransform="matrix(1 0 0 -1 0 775.8)">
	<stop  offset="0" style="stop-color:#00DCCC"/>
	<stop  offset="1" style="stop-color:#C7F0B9"/>
</linearGradient>
<path class="st75" d="M1043.4,318.4c0,5.5-4.4,9.9-9.9,9.9s-9.9-4.4-9.9-9.9s4.4-9.9,9.9-9.9S1043.4,312.9,1043.4,318.4z"/>
<path class="st6" d="M1365,240.2c0,5.5-4.4,9.9-9.9,9.9s-9.9-4.4-9.9-9.9s4.4-9.9,9.9-9.9C1360.6,230.3,1365,234.7,1365,240.2z"/>
<linearGradient id="SVGID_72_" gradientUnits="userSpaceOnUse" x1="1345.2" y1="509.6" x2="1365" y2="509.6" gradientTransform="matrix(1 0 0 -1 0 775.8)">
	<stop  offset="0" style="stop-color:#00DCCC"/>
	<stop  offset="1" style="stop-color:#C7F0B9"/>
</linearGradient>
<path class="st76" d="M1365,266.2c0,5.5-4.4,9.9-9.9,9.9s-9.9-4.4-9.9-9.9s4.4-9.9,9.9-9.9S1365,260.8,1365,266.2z"/>
<linearGradient id="SVGID_73_" gradientUnits="userSpaceOnUse" x1="1345.2" y1="483.5" x2="1365" y2="483.5" gradientTransform="matrix(1 0 0 -1 0 775.8)">
	<stop  offset="0" style="stop-color:#00DCCC"/>
	<stop  offset="1" style="stop-color:#C7F0B9"/>
</linearGradient>
<path class="st77" d="M1365,292.3c0,5.5-4.4,9.9-9.9,9.9s-9.9-4.4-9.9-9.9s4.4-9.9,9.9-9.9S1365,286.8,1365,292.3z"/>
<linearGradient id="SVGID_74_" gradientUnits="userSpaceOnUse" x1="1345.2" y1="457.5" x2="1365" y2="457.5" gradientTransform="matrix(1 0 0 -1 0 775.8)">
	<stop  offset="0" style="stop-color:#00DCCC"/>
	<stop  offset="1" style="stop-color:#C7F0B9"/>
</linearGradient>
<path class="st78" d="M1365,318.3c0,5.5-4.4,9.9-9.9,9.9s-9.9-4.4-9.9-9.9s4.4-9.9,9.9-9.9S1365,312.8,1365,318.3z"/>
<linearGradient id="SVGID_75_" gradientUnits="userSpaceOnUse" x1="1053.2" y1="561.5" x2="1073" y2="561.5" gradientTransform="matrix(1 0 0 -1 0 775.8)">
	<stop  offset="0" style="stop-color:#00DCCC"/>
	<stop  offset="1" style="stop-color:#C7F0B9"/>
</linearGradient>
<path class="st79" d="M1073,214.3c0,5.5-4.4,9.9-9.9,9.9s-9.9-4.4-9.9-9.9s4.4-9.9,9.9-9.9S1073,208.8,1073,214.3z"/>
<linearGradient id="SVGID_76_" gradientUnits="userSpaceOnUse" x1="1053.2" y1="535.5" x2="1073" y2="535.5" gradientTransform="matrix(1 0 0 -1 0 775.8)">
	<stop  offset="0" style="stop-color:#00DCCC"/>
	<stop  offset="1" style="stop-color:#C7F0B9"/>
</linearGradient>
<path class="st80" d="M1073,240.3c0,5.5-4.4,9.9-9.9,9.9s-9.9-4.4-9.9-9.9s4.4-9.9,9.9-9.9S1073,234.9,1073,240.3z"/>
<linearGradient id="SVGID_77_" gradientUnits="userSpaceOnUse" x1="1053.2" y1="509.5" x2="1073" y2="509.5" gradientTransform="matrix(1 0 0 -1 0 775.8)">
	<stop  offset="0" style="stop-color:#00DCCC"/>
	<stop  offset="1" style="stop-color:#C7F0B9"/>
</linearGradient>
<path class="st81" d="M1073,266.3c0,5.5-4.4,9.9-9.9,9.9s-9.9-4.4-9.9-9.9s4.4-9.9,9.9-9.9S1073,260.9,1073,266.3z"/>
<linearGradient id="SVGID_78_" gradientUnits="userSpaceOnUse" x1="1053.2" y1="483.4" x2="1073" y2="483.4" gradientTransform="matrix(1 0 0 -1 0 775.8)">
	<stop  offset="0" style="stop-color:#00DCCC"/>
	<stop  offset="1" style="stop-color:#C7F0B9"/>
</linearGradient>
<path class="st82" d="M1073,292.4c0,5.5-4.4,9.9-9.9,9.9s-9.9-4.4-9.9-9.9s4.4-9.9,9.9-9.9S1073,286.9,1073,292.4z"/>
<path class="st6" d="M1365,214.2c0,5.5-4.4,9.9-9.9,9.9s-9.9-4.4-9.9-9.9s4.4-9.9,9.9-9.9C1360.6,204.3,1365,208.7,1365,214.2z"/>
<linearGradient id="SVGID_79_" gradientUnits="userSpaceOnUse" x1="1053.2" y1="457.4" x2="1073" y2="457.4" gradientTransform="matrix(1 0 0 -1 0 775.8)">
	<stop  offset="0" style="stop-color:#00DCCC"/>
	<stop  offset="1" style="stop-color:#C7F0B9"/>
</linearGradient>
<path class="st83" d="M1073,318.4c0,5.5-4.4,9.9-9.9,9.9s-9.9-4.4-9.9-9.9s4.4-9.9,9.9-9.9S1073,312.9,1073,318.4z"/>
<g>
	<path class="st6" d="M521.6,352.8c-42.8,0-77.7-34.8-77.7-77.7c0-42.8,34.8-77.7,77.7-77.7c42.8,0,77.7,34.8,77.7,77.7
		C599.3,317.9,564.5,352.8,521.6,352.8z M521.6,198.4c-42.3,0-76.7,34.4-76.7,76.7s34.4,76.7,76.7,76.7s76.7-34.4,76.7-76.7
		S563.9,198.4,521.6,198.4z"/>
</g>
<g>
	
		<linearGradient id="SVGID_80_" gradientUnits="userSpaceOnUse" x1="517.6819" y1="537.55" x2="599.2858" y2="537.55" gradientTransform="matrix(1 0 0 -1 0 775.8)">
		<stop  offset="0" style="stop-color:#FF9996"/>
		<stop  offset="1" style="stop-color:#FFC680"/>
	</linearGradient>
	<path class="st84" d="M595.3,279.1c-2.2,0-4-1.8-4-4c0-38.4-31.3-69.7-69.7-69.7c-2.2,0-4-1.8-4-4s1.8-4,4-4
		c42.8,0,77.6,34.8,77.6,77.6C599.3,277.3,597.5,279.1,595.3,279.1z"/>
</g>
<g>
	<g>
		<g>
			<g>
				<path class="st2" d="M530.6,256.4h-17.9c-7.1,0-12.8,5.7-12.8,12.8v13.7h7.9v-12.6c0-0.4,0.4-0.8,0.8-0.8s0.8,0.4,0.8,0.8v12.6
					h24.7v-12.6c0-0.4,0.4-0.8,0.8-0.8l0,0c0.4,0,0.8,0.4,0.8,0.8v12.6h7.7v-13.8C543.4,262.1,537.7,256.4,530.6,256.4z"/>
			</g>
			<g>
				<path class="st2" d="M521.7,253.6c6.3,0,11.3-5.1,11.3-11.3c0-6.3-5.1-11.3-11.3-11.3c-6.3,0-11.3,5.1-11.3,11.3
					C510.4,248.5,515.5,253.6,521.7,253.6z"/>
			</g>
		</g>
	</g>
</g>
<g>
	<path class="st1" d="M482.6,301.2v2.5h-8.2v-2.5h2.9v-6.1c-0.1,0.2-0.3,0.3-0.6,0.5c-0.3,0.2-0.5,0.3-0.9,0.5s-0.6,0.3-1,0.4
		c-0.3,0.1-0.6,0.1-0.9,0.1v-2.5c0.2,0,0.5-0.1,0.9-0.2c0.3-0.2,0.7-0.3,1-0.6c0.3-0.2,0.6-0.4,0.9-0.6c0.2-0.2,0.4-0.4,0.5-0.5h2.8
		v9.1L482.6,301.2L482.6,301.2z"/>
	<path class="st1" d="M490.1,303.6v-14.4h4.9c1.5,0,2.8,0.3,3.8,1c1,0.6,1.8,1.5,2.3,2.6s0.8,2.3,0.8,3.6c0,1.5-0.3,2.7-0.8,3.8
		c-0.6,1.1-1.4,1.9-2.4,2.5s-2.3,0.9-3.7,0.9H490.1z M500.4,296.4c0-1.1-0.2-2.2-0.6-3.1s-1-1.6-1.9-2.1c-0.8-0.5-1.8-0.8-3-0.8
		h-3.5v11.9h3.5c1.2,0,2.2-0.3,3-0.8s1.4-1.2,1.8-2.1C500.2,298.5,500.4,297.5,500.4,296.4z"/>
	<path class="st1" d="M508.8,303.8c-0.8,0-1.5-0.1-2.1-0.4s-1.2-0.7-1.7-1.2s-0.8-1.1-1.1-1.7c-0.3-0.7-0.4-1.3-0.4-2.1
		c0-0.8,0.1-1.5,0.4-2.1s0.6-1.2,1.1-1.7s1-0.9,1.7-1.2s1.3-0.4,2.1-0.4c0.8,0,1.5,0.1,2.1,0.4s1.2,0.7,1.7,1.2s0.8,1.1,1.1,1.7
		s0.4,1.4,0.4,2.1s-0.1,1.4-0.4,2.1s-0.6,1.2-1.1,1.7s-1,0.9-1.7,1.2C510.3,303.7,509.6,303.8,508.8,303.8z M505,298.4
		c0,0.8,0.2,1.5,0.5,2.1s0.8,1.1,1.4,1.5s1.2,0.6,1.9,0.6c0.7,0,1.3-0.2,1.9-0.6s1-0.9,1.4-1.5c0.4-0.6,0.5-1.4,0.5-2.1
		c0-0.8-0.2-1.5-0.5-2.1c-0.4-0.6-0.8-1.2-1.4-1.5c-0.6-0.4-1.2-0.6-1.9-0.6c-0.7,0-1.3,0.2-1.9,0.6s-1,0.9-1.4,1.5
		S505,297.6,505,298.4z"/>
	<path class="st1" d="M520.9,303.8c-0.8,0-1.5-0.1-2.1-0.4s-1.2-0.7-1.7-1.2s-0.9-1.1-1.1-1.8s-0.4-1.4-0.4-2.1c0-1,0.2-1.9,0.7-2.7
		c0.4-0.8,1.1-1.5,1.9-2c0.8-0.5,1.7-0.7,2.8-0.7c1,0,1.9,0.2,2.6,0.7c0.8,0.5,1.3,1.1,1.7,1.8l-1.3,0.4c-0.3-0.5-0.7-1-1.2-1.3
		s-1.1-0.5-1.8-0.5s-1.3,0.2-1.9,0.5c-0.6,0.4-1,0.9-1.4,1.5c-0.3,0.6-0.5,1.3-0.5,2.2c0,0.8,0.2,1.5,0.5,2.2s0.8,1.2,1.4,1.5
		c0.6,0.4,1.2,0.6,1.9,0.6c0.5,0,0.9-0.1,1.3-0.2s0.8-0.4,1.1-0.7s0.5-0.6,0.6-0.9l1.4,0.4c-0.2,0.5-0.5,1-0.9,1.3
		c-0.4,0.4-1,0.7-1.5,0.9C522.3,303.7,521.6,303.8,520.9,303.8z"/>
	<path class="st1" d="M532,303.8c-0.8,0-1.5-0.1-2.1-0.4s-1.2-0.7-1.7-1.2s-0.8-1.1-1.1-1.7s-0.4-1.4-0.4-2.1c0-1,0.2-1.9,0.7-2.7
		c0.5-0.8,1.1-1.5,1.9-2c0.8-0.5,1.7-0.7,2.7-0.7s2,0.2,2.7,0.7c0.8,0.5,1.4,1.2,1.8,2c0.4,0.8,0.7,1.7,0.7,2.7c0,0.1,0,0.2,0,0.3
		s0,0.2,0,0.2h-9c0.1,0.8,0.3,1.4,0.6,2c0.4,0.6,0.8,1,1.4,1.4c0.6,0.3,1.2,0.5,1.9,0.5s1.3-0.2,2-0.5c0.6-0.4,1-0.8,1.3-1.4
		l1.2,0.3c-0.2,0.5-0.5,1-1,1.4c-0.4,0.4-1,0.7-1.6,0.9C533.3,303.7,532.6,303.8,532,303.8z M528.1,297.9h7.8
		c-0.1-0.8-0.3-1.4-0.6-2c-0.4-0.6-0.8-1-1.4-1.4c-0.6-0.3-1.2-0.5-1.9-0.5s-1.3,0.2-1.9,0.5c-0.6,0.3-1,0.8-1.4,1.4
		C528.3,296.5,528.1,297.1,528.1,297.9z"/>
	<path class="st1" d="M548.2,303.6h-1.4v-5.9c0-1.2-0.2-2.1-0.5-2.7s-0.9-0.9-1.7-0.9c-0.5,0-1.1,0.1-1.6,0.4s-1,0.6-1.4,1.1
		c-0.4,0.4-0.7,1-0.9,1.5v6.4h-1.4V293h1.3v2.4c0.3-0.5,0.7-1,1.1-1.3c0.5-0.4,1-0.7,1.6-0.9c0.6-0.2,1.2-0.3,1.8-0.3
		s1.1,0.1,1.5,0.3c0.4,0.2,0.7,0.5,1,0.9c0.2,0.4,0.4,0.9,0.5,1.4c0.1,0.6,0.2,1.2,0.2,1.9L548.2,303.6L548.2,303.6z"/>
	<path class="st1" d="M556.1,303.2c-0.1,0-0.3,0.1-0.5,0.2s-0.5,0.2-0.8,0.3c-0.3,0.1-0.7,0.1-1.1,0.1c-0.4,0-0.8-0.1-1.1-0.2
		s-0.6-0.4-0.8-0.7s-0.3-0.7-0.3-1.1v-7.6H550v-1.1h1.5v-3.6h1.4v3.6h2.4v1.1h-2.4v7.2c0,0.4,0.2,0.7,0.4,0.9
		c0.2,0.2,0.5,0.3,0.9,0.3s0.7-0.1,1-0.2s0.5-0.2,0.6-0.3L556.1,303.2z"/>
	<path class="st1" d="M562.2,303.8c-0.8,0-1.5-0.1-2.1-0.4c-0.7-0.3-1.2-0.7-1.7-1.2s-0.8-1.1-1.1-1.7s-0.4-1.4-0.4-2.1
		c0-1,0.2-1.9,0.7-2.7c0.5-0.8,1.1-1.5,1.9-2s1.7-0.7,2.7-0.7s2,0.2,2.7,0.7c0.8,0.5,1.4,1.2,1.8,2c0.4,0.8,0.7,1.7,0.7,2.7
		c0,0.1,0,0.2,0,0.3s0,0.2,0,0.2h-9c0.1,0.8,0.3,1.4,0.6,2c0.4,0.6,0.8,1,1.4,1.4c0.6,0.3,1.2,0.5,1.9,0.5s1.3-0.2,2-0.5
		c0.6-0.4,1-0.8,1.3-1.4l1.2,0.3c-0.2,0.5-0.5,1-1,1.4c-0.4,0.4-1,0.7-1.6,0.9C563.5,303.7,562.9,303.8,562.2,303.8z M558.3,297.9
		h7.8c-0.1-0.8-0.3-1.4-0.6-2c-0.4-0.6-0.8-1-1.4-1.4c-0.6-0.3-1.2-0.5-1.9-0.5s-1.3,0.2-1.9,0.5c-0.6,0.3-1,0.8-1.4,1.4
		C558.6,296.5,558.4,297.1,558.3,297.9z"/>
</g>
</svg>
