<?xml version="1.0" encoding="utf-8"?>
<!-- Generator: Adobe Illustrator 25.2.3, SVG Export Plug-In . SVG Version: 6.00 Build 0)  -->
<svg version="1.1" id="Layer_1" xmlns="http://www.w3.org/2000/svg" xmlns:xlink="http://www.w3.org/1999/xlink" x="0px" y="0px"
	 viewBox="0 0 648 524.9" style="enable-background:new 0 0 648 524.9;" xml:space="preserve">
<style type="text/css">
	.st0{fill:#811435;}
	.st1{fill:#77787B;}
	.st2{fill:#E2E2E2;}
	.st3{fill:url(#SVGID_1_);}
	.st4{fill:url(#SVGID_2_);}
	.st5{fill:url(#SVGID_3_);}
	.st6{fill:url(#SVGID_4_);}
	.st7{fill:url(#SVGID_5_);}
	.st8{fill:url(#SVGID_6_);}
	.st9{fill:url(#SVGID_7_);}
	.st10{fill:url(#SVGID_8_);}
	.st11{fill:url(#SVGID_9_);}
	.st12{fill:url(#SVGID_10_);}
	.st13{fill:url(#SVGID_11_);}
	.st14{fill:url(#SVGID_12_);}
	.st15{fill:url(#SVGID_13_);}
	.st16{fill:url(#SVGID_14_);}
	.st17{fill:url(#SVGID_15_);}
	.st18{fill:url(#SVGID_16_);}
	.st19{fill:url(#SVGID_17_);}
	.st20{fill:url(#SVGID_18_);}
	.st21{fill:url(#SVGID_19_);}
	.st22{fill:url(#SVGID_20_);}
	.st23{fill:url(#SVGID_21_);}
	.st24{fill:url(#SVGID_22_);}
	.st25{fill:url(#SVGID_23_);}
	.st26{fill:url(#SVGID_24_);}
	.st27{fill:url(#SVGID_25_);}
	.st28{fill:url(#SVGID_26_);}
	.st29{fill:url(#SVGID_27_);}
	.st30{fill:url(#SVGID_28_);}
	.st31{fill:url(#SVGID_29_);}
	.st32{fill:url(#SVGID_30_);}
	.st33{fill:url(#SVGID_31_);}
	.st34{fill:url(#SVGID_32_);}
	.st35{fill:url(#SVGID_33_);}
	.st36{fill:url(#SVGID_34_);}
	.st37{fill:url(#SVGID_35_);}
	.st38{fill:url(#SVGID_36_);}
	.st39{fill:url(#SVGID_37_);}
	.st40{fill:url(#SVGID_38_);}
	.st41{fill:url(#SVGID_39_);}
	.st42{fill:url(#SVGID_40_);}
	.st43{fill:url(#SVGID_41_);}
	.st44{fill:url(#SVGID_42_);}
	.st45{fill:url(#SVGID_43_);}
	.st46{fill:url(#SVGID_44_);}
	.st47{fill:url(#SVGID_45_);}
	.st48{fill:url(#SVGID_46_);}
	.st49{fill:url(#SVGID_47_);}
	.st50{fill:url(#SVGID_48_);}
	.st51{fill:url(#SVGID_49_);}
	.st52{fill:url(#SVGID_50_);}
	.st53{fill:url(#SVGID_51_);}
	.st54{fill:url(#SVGID_52_);}
	.st55{fill:url(#SVGID_53_);}
	.st56{fill:url(#SVGID_54_);}
	.st57{fill:url(#SVGID_55_);}
	.st58{fill:url(#SVGID_56_);}
	.st59{fill:url(#SVGID_57_);}
	.st60{fill:url(#SVGID_58_);}
	.st61{fill:url(#SVGID_59_);}
	.st62{fill:url(#SVGID_60_);}
	.st63{fill:url(#SVGID_61_);}
	.st64{fill:url(#SVGID_62_);}
	.st65{fill:url(#SVGID_63_);}
	.st66{fill:url(#SVGID_64_);}
	.st67{fill:url(#SVGID_65_);}
	.st68{fill:url(#SVGID_66_);}
	.st69{fill:url(#SVGID_67_);}
	.st70{fill:url(#SVGID_68_);}
	.st71{fill:url(#SVGID_69_);}
	.st72{fill:url(#SVGID_70_);}
	.st73{fill:url(#SVGID_71_);}
	.st74{fill:url(#SVGID_72_);}
	.st75{fill:url(#SVGID_73_);}
	.st76{fill:url(#SVGID_74_);}
	.st77{fill:url(#SVGID_75_);}
	.st78{fill:url(#SVGID_76_);}
	.st79{fill:url(#SVGID_77_);}
	.st80{fill:none;stroke:url(#SVGID_78_);stroke-width:8;stroke-linecap:round;stroke-miterlimit:10;}
	.st81{fill:none;stroke:url(#SVGID_79_);stroke-width:8;stroke-linecap:round;stroke-miterlimit:10;}
	.st82{fill:#FCE0F1;}
	.st83{fill:url(#SVGID_80_);}
	.st84{fill:#810C33;}
</style>
<g>
	<g>
		<g>
			<path class="st0" d="M51.8,349.3H41v-4.1h18l-11.8,23.5H42L51.8,349.3z"/>
			<path class="st0" d="M70.9,349.3H60v-4.1h18l-11.8,23.5H61L70.9,349.3z"/>
			<path class="st0" d="M105.1,360.3v4.1H88.5v-23.9h16.3v4.1H93.2v5.7h10.1v3.8H93.2v6.2H105.1L105.1,360.3z"/>
			<path class="st0" d="M114.7,364.7c-1.5,0-2.9-0.2-4.3-0.7c-1.4-0.5-2.5-1.2-3.5-2.2l1.6-2.9c1.1,0.9,2.1,1.5,3.1,1.9
				c1,0.4,2,0.6,2.9,0.6s1.6-0.2,2.1-0.5c0.5-0.3,0.8-0.8,0.8-1.4c0-0.4-0.1-0.7-0.4-1c-0.3-0.2-0.7-0.4-1.3-0.6
				c-0.5-0.2-1.2-0.4-2-0.6c-1.3-0.4-2.4-0.8-3.3-1.2c-0.9-0.4-1.5-0.9-2-1.5c-0.4-0.6-0.7-1.4-0.7-2.3c0-1.2,0.3-2.1,0.9-3
				c0.6-0.8,1.4-1.5,2.5-1.9c1.1-0.5,2.3-0.7,3.7-0.7c1.3,0,2.4,0.2,3.6,0.6c1.1,0.4,2.1,1,3.1,1.9l-1.8,2.9
				c-0.9-0.7-1.7-1.2-2.6-1.5c-0.8-0.3-1.6-0.5-2.5-0.5c-0.5,0-0.9,0.1-1.3,0.2c-0.4,0.1-0.8,0.3-1,0.5c-0.3,0.3-0.4,0.6-0.4,1.1
				c0,0.4,0.1,0.7,0.4,1c0.3,0.3,0.6,0.4,1.1,0.6c0.5,0.2,1.1,0.4,1.8,0.6c1.4,0.4,2.6,0.8,3.6,1.2s1.7,0.9,2.2,1.5s0.7,1.4,0.7,2.5
				c0,1.7-0.6,3.1-1.9,4C118.6,364.2,116.8,364.7,114.7,364.7z"/>
			<path class="st0" d="M135.3,363.5c-0.4,0.2-0.8,0.3-1.4,0.5c-0.5,0.2-1.1,0.4-1.7,0.5c-0.6,0.1-1.2,0.2-1.9,0.2
				c-0.8,0-1.6-0.1-2.3-0.4c-0.7-0.3-1.2-0.8-1.7-1.4c-0.4-0.6-0.6-1.5-0.6-2.5v-10h-2.3v-3.5h2.3v-5.7h4.5v5.7h3.7v3.5h-3.7v8.5
				c0,0.6,0.2,1,0.5,1.3c0.3,0.3,0.7,0.4,1.2,0.4s0.9-0.1,1.4-0.2c0.4-0.2,0.8-0.3,1.1-0.4L135.3,363.5z"/>
			<path class="st0" d="M137.5,357.9V347h4.5v9.9c0,1.3,0.2,2.3,0.7,3c0.5,0.7,1.2,1,2.2,1c0.6,0,1.2-0.1,1.7-0.3
				c0.5-0.2,1.1-0.6,1.6-1c0.5-0.4,0.9-1,1.2-1.7v-10.8h4.5v12.4c0,0.5,0.1,0.8,0.3,1c0.2,0.2,0.4,0.3,0.8,0.4v3.7
				c-0.4,0.1-0.8,0.1-1.1,0.2c-0.3,0-0.6,0.1-0.8,0.1c-0.8,0-1.5-0.2-2-0.6s-0.8-0.9-0.9-1.5l-0.1-1.4c-0.8,1.2-1.8,2.1-3,2.7
				c-1.2,0.6-2.6,0.9-4.1,0.9c-1.8,0-3.2-0.6-4.1-1.7S137.5,360.1,137.5,357.9z"/>
			<path class="st0" d="M157.3,355.7c0-1.7,0.3-3.2,1-4.6c0.7-1.4,1.6-2.4,2.8-3.2s2.5-1.2,4.1-1.2c1.3,0,2.5,0.3,3.5,1
				c1,0.7,1.9,1.5,2.4,2.4v-10.2h4.5v19.5c0,0.5,0.1,0.8,0.2,1c0.2,0.2,0.4,0.3,0.8,0.4v3.7c-0.8,0.2-1.4,0.2-1.9,0.2
				c-0.8,0-1.5-0.2-2-0.6c-0.5-0.4-0.8-0.9-0.9-1.6l-0.1-1.1c-0.7,1.1-1.5,1.9-2.6,2.5s-2.3,0.9-3.5,0.9s-2.3-0.2-3.3-0.7
				s-1.9-1.1-2.7-1.9c-0.8-0.8-1.3-1.8-1.7-2.9C157.5,358.1,157.3,357,157.3,355.7z M171.1,358v-4.1c-0.2-0.6-0.6-1.2-1.1-1.7
				s-1-0.9-1.6-1.2s-1.2-0.4-1.8-0.4c-0.7,0-1.3,0.1-1.9,0.4c-0.6,0.3-1,0.7-1.5,1.2c-0.4,0.5-0.7,1-0.9,1.7c-0.2,0.6-0.3,1.3-0.3,2
				c0,0.7,0.1,1.4,0.4,2c0.2,0.6,0.6,1.2,1,1.6s1,0.8,1.6,1.1c0.6,0.3,1.2,0.4,1.9,0.4c0.4,0,0.9-0.1,1.3-0.2
				c0.4-0.1,0.9-0.3,1.2-0.6c0.4-0.3,0.7-0.6,1-0.9C170.8,358.8,171,358.4,171.1,358z"/>
			<path class="st0" d="M180.1,344.3v-4.5h4.5v4.5H180.1z M180.1,364.4v-17.6h4.5v17.6C184.6,364.4,180.1,364.4,180.1,364.4z"/>
			<path class="st0" d="M187.4,359.3c0-1.1,0.3-2.1,1-3c0.6-0.9,1.5-1.5,2.7-2c1.1-0.5,2.5-0.7,3.9-0.7c0.7,0,1.5,0.1,2.3,0.2
				s1.4,0.3,2,0.5v-0.9c0-1.1-0.3-1.9-1-2.5s-1.6-0.9-2.9-0.9c-1,0-1.9,0.2-2.8,0.5c-0.9,0.3-1.8,0.8-2.8,1.5l-1.4-3
				c1.2-0.8,2.4-1.3,3.6-1.7c1.2-0.4,2.5-0.6,3.8-0.6c2.5,0,4.5,0.6,5.9,1.9c1.4,1.2,2.1,3,2.1,5.3v5.5c0,0.5,0.1,0.8,0.3,1
				c0.2,0.2,0.4,0.3,0.8,0.4v3.7c-0.4,0.1-0.8,0.1-1.1,0.2c-0.3,0.1-0.6,0.1-0.8,0.1c-0.9,0-1.6-0.2-2-0.6c-0.4-0.4-0.7-0.9-0.9-1.5
				l-0.1-0.9c-0.8,1-1.7,1.7-2.9,2.3c-1.1,0.5-2.3,0.8-3.5,0.8s-2.2-0.2-3.1-0.7c-0.9-0.5-1.7-1.1-2.2-2
				C187.7,361.2,187.4,360.3,187.4,359.3z M198.4,360.1c0.2-0.3,0.4-0.5,0.6-0.8c0.2-0.3,0.2-0.5,0.2-0.7v-1.7
				c-0.5-0.2-1.1-0.4-1.7-0.5c-0.6-0.1-1.2-0.2-1.8-0.2c-1.2,0-2.1,0.2-2.9,0.7c-0.8,0.5-1.1,1.1-1.1,2c0,0.4,0.1,0.9,0.4,1.2
				c0.2,0.4,0.6,0.7,1.1,1c0.5,0.2,1,0.4,1.7,0.4s1.3-0.1,2-0.4C197.5,360.8,198,360.5,198.4,360.1z"/>
			<path class="st0" d="M224.3,364.4h-4.5v-9.7c0-1.4-0.2-2.4-0.7-3c-0.5-0.6-1.2-1-2.1-1c-0.6,0-1.2,0.2-1.8,0.5
				c-0.6,0.3-1.2,0.7-1.7,1.3c-0.5,0.5-0.9,1.2-1.1,1.9v10.2H208v-17.4h4.1v3.3c0.4-0.8,1-1.4,1.7-1.9s1.5-0.9,2.4-1.2
				s1.9-0.4,2.9-0.4c1.1,0,2,0.2,2.7,0.6c0.7,0.4,1.2,0.9,1.6,1.6c0.4,0.7,0.6,1.4,0.8,2.2c0.1,0.8,0.2,1.7,0.2,2.5v10.5H224.3
				L224.3,364.4z"/>
			<path class="st0" d="M238.7,363.5c-0.4,0.2-0.8,0.3-1.4,0.5c-0.5,0.2-1.1,0.4-1.7,0.5c-0.6,0.1-1.2,0.2-1.9,0.2
				c-0.8,0-1.6-0.1-2.3-0.4c-0.7-0.3-1.2-0.8-1.7-1.4c-0.4-0.6-0.6-1.5-0.6-2.5v-10h-2.3v-3.5h2.3v-5.7h4.5v5.7h3.7v3.5h-3.7v8.5
				c0,0.6,0.2,1,0.5,1.3c0.3,0.3,0.7,0.4,1.2,0.4s0.9-0.1,1.4-0.2c0.4-0.2,0.8-0.3,1.1-0.4L238.7,363.5z"/>
			<path class="st0" d="M249,364.7c-1.4,0-2.7-0.2-3.8-0.7s-2.1-1.1-2.9-2s-1.4-1.8-1.9-2.9c-0.4-1.1-0.7-2.2-0.7-3.4
				c0-1.7,0.4-3.2,1.1-4.6c0.8-1.4,1.8-2.5,3.2-3.3c1.4-0.8,3.1-1.2,5-1.2s3.6,0.4,4.9,1.2s2.4,1.9,3.1,3.3c0.7,1.4,1.1,2.8,1.1,4.4
				c0,0.3,0,0.5,0,0.8c0,0.3,0,0.5-0.1,0.7h-13.6c0.1,0.9,0.4,1.6,0.8,2.3c0.4,0.7,1,1.2,1.7,1.5c0.7,0.3,1.4,0.5,2.2,0.5
				c0.9,0,1.7-0.2,2.5-0.7c0.8-0.4,1.3-1,1.6-1.7l3.9,1.1c-0.4,0.9-1,1.7-1.8,2.4c-0.8,0.7-1.7,1.2-2.8,1.6S250.3,364.7,249,364.7z
				 M244.4,354.3h9.2c-0.1-0.9-0.3-1.6-0.8-2.3c-0.4-0.6-1-1.1-1.6-1.5c-0.7-0.4-1.4-0.5-2.3-0.5c-0.8,0-1.5,0.2-2.2,0.5
				c-0.7,0.3-1.2,0.9-1.6,1.5C244.7,352.6,244.5,353.4,244.4,354.3z"/>
			<path class="st0" d="M267.5,364.7c-1.5,0-2.9-0.2-4.3-0.7c-1.4-0.5-2.5-1.2-3.5-2.2l1.6-2.9c1.1,0.9,2.1,1.5,3.1,1.9
				c1,0.4,2,0.6,2.9,0.6s1.6-0.2,2.1-0.5c0.5-0.3,0.8-0.8,0.8-1.4c0-0.4-0.1-0.7-0.4-1c-0.3-0.2-0.7-0.4-1.3-0.6
				c-0.5-0.2-1.2-0.4-2-0.6c-1.3-0.4-2.4-0.8-3.3-1.2c-0.9-0.4-1.5-0.9-2-1.5c-0.4-0.6-0.7-1.4-0.7-2.3c0-1.2,0.3-2.1,0.9-3
				c0.6-0.8,1.4-1.5,2.5-1.9c1.1-0.5,2.3-0.7,3.7-0.7c1.3,0,2.4,0.2,3.6,0.6c1.1,0.4,2.1,1,3.1,1.9l-1.8,2.9
				c-0.9-0.7-1.7-1.2-2.6-1.5c-0.8-0.3-1.6-0.5-2.5-0.5c-0.5,0-0.9,0.1-1.3,0.2c-0.4,0.1-0.8,0.3-1,0.5c-0.3,0.3-0.4,0.6-0.4,1.1
				c0,0.4,0.1,0.7,0.4,1c0.3,0.3,0.6,0.4,1.1,0.6c0.5,0.2,1.1,0.4,1.8,0.6c1.4,0.4,2.6,0.8,3.6,1.2s1.7,0.9,2.2,1.5s0.7,1.4,0.7,2.5
				c0,1.7-0.6,3.1-1.9,4C271.3,364.2,269.6,364.7,267.5,364.7z"/>
		</g>
	</g>
	<g>
		<g>
			<path class="st1" d="M45.7,303.8v17.6h-2.9v-22.9h2.5l14,17.9v-17.9h2.9v22.9h-2.6L45.7,303.8z"/>
			<path class="st1" d="M77.1,321.5c-1.8,0-3.4-0.3-4.6-1c-1.2-0.6-2.2-1.5-3-2.6s-1.3-2.3-1.6-3.7c-0.3-1.4-0.5-2.8-0.5-4.3v-11.6
				h2.9v11.6c0,1.1,0.1,2.2,0.3,3.3c0.2,1.1,0.6,2,1.1,2.9c0.5,0.8,1.2,1.5,2.1,2c0.9,0.5,2,0.7,3.3,0.7s2.4-0.3,3.3-0.8
				c0.9-0.5,1.6-1.2,2.1-2s0.9-1.8,1.1-2.9c0.2-1.1,0.3-2.1,0.3-3.2v-11.6h2.9v11.6c0,1.5-0.2,3-0.5,4.4c-0.4,1.4-0.9,2.6-1.7,3.7
				s-1.8,1.9-3,2.5S78.8,321.5,77.1,321.5z M78.1,295.7l-1.9-0.6l1.9-3.3h2.8L78.1,295.7z"/>
			<path class="st1" d="M111.8,321.4v-17.5l-7.6,13.5h-1.8l-7.6-13.5v17.5H92v-22.9h3.1l8.3,14.9l8.3-14.9h3v22.9H111.8z"/>
			<path class="st1" d="M135.7,318.8v2.6h-15.6v-22.9h15.3v2.6H123v7.4h10.7v2.4H123v7.9H135.7z"/>
			<path class="st1" d="M139.7,321.4v-22.9h9.8c1,0,1.9,0.2,2.8,0.6c0.8,0.4,1.6,1,2.2,1.7c0.6,0.7,1.1,1.5,1.5,2.4
				c0.3,0.9,0.5,1.8,0.5,2.7c0,1.1-0.2,2.1-0.6,3c-0.4,0.9-1,1.8-1.7,2.4c-0.7,0.7-1.6,1.1-2.5,1.4l5.6,8.8H154l-5.2-8.2h-6.1v8.2
				L139.7,321.4L139.7,321.4z M142.6,310.5h6.9c0.8,0,1.5-0.2,2.1-0.7s1.1-1,1.4-1.8c0.3-0.8,0.5-1.5,0.5-2.4c0-0.9-0.2-1.7-0.6-2.4
				c-0.4-0.7-0.9-1.3-1.5-1.7c-0.6-0.4-1.3-0.6-2.1-0.6h-6.7L142.6,310.5L142.6,310.5z"/>
			<path class="st1" d="M170.2,321.5c-1.6,0-3.1-0.3-4.4-1c-1.3-0.6-2.4-1.5-3.4-2.6s-1.7-2.4-2.2-3.7c-0.5-1.4-0.8-2.8-0.8-4.3
				s0.3-3,0.8-4.4s1.3-2.6,2.3-3.7s2.1-1.9,3.4-2.6c1.3-0.6,2.7-1,4.3-1s3.1,0.3,4.4,1c1.3,0.7,2.4,1.6,3.4,2.7
				c0.9,1.1,1.7,2.4,2.2,3.7c0.5,1.3,0.8,2.8,0.8,4.2c0,1.5-0.3,3-0.8,4.4c-0.5,1.4-1.3,2.6-2.3,3.7s-2.1,1.9-3.4,2.6
				C173.2,321.2,171.8,321.5,170.2,321.5z M162.4,309.9c0,1.2,0.2,2.3,0.6,3.4c0.4,1.1,0.9,2,1.6,2.9c0.7,0.8,1.5,1.5,2.5,2
				s2,0.7,3.2,0.7s2.3-0.3,3.3-0.8s1.8-1.2,2.5-2.1s1.2-1.8,1.5-2.9c0.4-1.1,0.5-2.2,0.5-3.3c0-1.2-0.2-2.3-0.6-3.4
				c-0.4-1.1-0.9-2-1.6-2.9c-0.7-0.8-1.5-1.5-2.5-2s-2-0.7-3.2-0.7s-2.3,0.3-3.3,0.8s-1.8,1.2-2.5,2c-0.7,0.8-1.2,1.8-1.6,2.9
				C162.6,307.7,162.4,308.8,162.4,309.9z"/>
			<path class="st1" d="M193.2,321.4v-22.9h7.9c2.5,0,4.5,0.5,6.1,1.5s2.9,2.4,3.7,4.1c0.8,1.7,1.2,3.7,1.2,5.8
				c0,2.3-0.5,4.3-1.4,6.1c-0.9,1.7-2.2,3.1-3.8,4c-1.7,0.9-3.6,1.4-5.9,1.4H193.2z M209.3,309.9c0-1.7-0.3-3.2-1-4.6
				c-0.6-1.3-1.6-2.4-2.8-3.1c-1.2-0.8-2.7-1.1-4.4-1.1h-5v17.8h5c1.8,0,3.2-0.4,4.5-1.2c1.3-0.8,2.1-1.9,2.7-3.2
				C209,313.1,209.3,311.5,209.3,309.9z"/>
			<path class="st1" d="M231.9,318.8v2.6h-15.6v-22.9h15.3v2.6h-12.4v7.4H230v2.4h-10.7v7.9H231.9z"/>
			<path class="st1" d="M259.6,318.8v2.6H244v-22.9h15.3v2.6h-12.4v7.4h10.7v2.4h-10.7v7.9H259.6z"/>
			<path class="st1" d="M277,303.2c-0.3-0.3-0.6-0.6-1-0.9c-0.4-0.3-0.9-0.5-1.5-0.8c-0.5-0.2-1.1-0.4-1.8-0.5
				c-0.6-0.1-1.3-0.2-2-0.2c-1.8,0-3.1,0.3-3.9,1c-0.8,0.7-1.3,1.6-1.3,2.7c0,0.8,0.2,1.5,0.6,1.9s1.1,0.9,2,1.2
				c0.9,0.3,2,0.6,3.4,0.9c1.6,0.3,3,0.8,4.1,1.3c1.2,0.5,2.1,1.2,2.7,2c0.6,0.8,0.9,1.9,0.9,3.3c0,1.1-0.2,2-0.6,2.8s-1,1.5-1.8,2
				s-1.6,0.9-2.6,1.2c-1,0.2-2.1,0.4-3.3,0.4s-2.3-0.1-3.4-0.4c-1.1-0.3-2.2-0.6-3.1-1.1c-1-0.5-1.9-1.1-2.8-1.8l1.4-2.5
				c0.3,0.4,0.8,0.7,1.3,1.1s1.2,0.7,1.9,1c0.7,0.3,1.5,0.5,2.3,0.7c0.8,0.2,1.7,0.3,2.5,0.3c1.6,0,2.9-0.3,3.8-0.9s1.4-1.5,1.4-2.6
				c0-0.9-0.3-1.5-0.8-2.1c-0.5-0.5-1.3-0.9-2.2-1.3c-0.9-0.4-2.2-0.7-3.6-1c-1.5-0.4-2.9-0.8-3.9-1.3c-1.1-0.5-1.8-1.1-2.4-1.8
				c-0.5-0.8-0.8-1.7-0.8-2.9c0-1.5,0.4-2.7,1.1-3.7c0.7-1,1.7-1.8,2.9-2.3s2.7-0.8,4.2-0.8c1,0,2,0.1,2.9,0.3
				c0.9,0.2,1.7,0.5,2.5,0.9s1.5,0.9,2.1,1.4L277,303.2z"/>
			<path class="st1" d="M299.7,301h-7.9v20.3h-2.9V301H281v-2.6h18.7L299.7,301L299.7,301z"/>
			<path class="st1" d="M312.5,321.5c-1.8,0-3.4-0.3-4.6-1c-1.2-0.6-2.2-1.5-3-2.6s-1.3-2.3-1.6-3.7c-0.3-1.4-0.5-2.8-0.5-4.3v-11.6
				h2.9v11.6c0,1.1,0.1,2.2,0.3,3.3c0.2,1.1,0.6,2,1.1,2.9c0.5,0.8,1.2,1.5,2.1,2s2,0.7,3.3,0.7s2.4-0.3,3.3-0.8s1.6-1.2,2.1-2
				s0.9-1.8,1.1-2.9s0.3-2.1,0.3-3.2v-11.6h2.9v11.6c0,1.5-0.2,3-0.5,4.4c-0.4,1.4-0.9,2.6-1.7,3.7c-0.8,1.1-1.8,1.9-3,2.5
				S314.2,321.5,312.5,321.5z"/>
			<path class="st1" d="M327.4,321.4v-22.9h7.9c2.5,0,4.5,0.5,6.1,1.5s2.9,2.4,3.7,4.1c0.8,1.7,1.2,3.7,1.2,5.8
				c0,2.3-0.5,4.3-1.4,6.1c-0.9,1.7-2.2,3.1-3.8,4c-1.7,0.9-3.6,1.4-5.9,1.4H327.4z M343.5,309.9c0-1.7-0.3-3.2-1-4.6
				c-0.6-1.3-1.6-2.4-2.8-3.1c-1.2-0.8-2.7-1.1-4.4-1.1h-5v17.8h5c1.8,0,3.2-0.4,4.5-1.2c1.3-0.8,2.1-1.9,2.7-3.2
				C343.2,313.1,343.5,311.5,343.5,309.9z"/>
			<path class="st1" d="M350.5,321.4v-22.9h2.9v22.9H350.5z"/>
			<path class="st1" d="M365.9,298.4h2.5l9.4,22.9h-3.1l-2.6-6.7h-9.9l-2.6,6.7h-3.1L365.9,298.4z M371.1,312.4l-4.1-10.6l-4.1,10.6
				H371.1z"/>
			<path class="st1" d="M383.7,303.8v17.6h-2.9v-22.9h2.5l14,17.9v-17.9h2.9v22.9h-2.6L383.7,303.8z"/>
			<path class="st1" d="M422.1,301h-7.9v20.3h-2.9V301h-7.9v-2.6h18.7L422.1,301L422.1,301z"/>
			<path class="st1" d="M441,318.8v2.6h-15.6v-22.9h15.3v2.6h-12.4v7.4H439v2.4h-10.7v7.9H441z"/>
			<path class="st1" d="M458.4,303.2c-0.3-0.3-0.6-0.6-1-0.9c-0.4-0.3-0.9-0.5-1.5-0.8c-0.6-0.3-1.1-0.4-1.8-0.5
				c-0.6-0.1-1.3-0.2-2-0.2c-1.8,0-3.1,0.3-3.9,1c-0.8,0.7-1.3,1.6-1.3,2.7c0,0.8,0.2,1.5,0.6,1.9s1.1,0.9,2,1.2
				c0.9,0.3,2,0.6,3.4,0.9c1.6,0.3,3,0.8,4.1,1.3s2.1,1.2,2.7,2c0.6,0.8,0.9,1.9,0.9,3.3c0,1.1-0.2,2-0.6,2.8s-1,1.5-1.8,2
				s-1.6,0.9-2.6,1.2c-1,0.2-2.1,0.4-3.3,0.4c-1.2,0-2.3-0.1-3.4-0.4c-1.1-0.3-2.2-0.6-3.1-1.1c-1-0.5-1.9-1.1-2.8-1.8l1.4-2.5
				c0.3,0.4,0.8,0.7,1.3,1.1s1.2,0.7,1.9,1c0.7,0.3,1.5,0.5,2.3,0.7c0.8,0.2,1.7,0.3,2.5,0.3c1.6,0,2.9-0.3,3.8-0.9s1.4-1.5,1.4-2.6
				c0-0.9-0.3-1.5-0.8-2.1c-0.5-0.5-1.3-0.9-2.2-1.3c-0.9-0.4-2.2-0.7-3.6-1c-1.5-0.4-2.9-0.8-3.9-1.3c-1.1-0.5-1.8-1.1-2.4-1.8
				c-0.5-0.8-0.8-1.7-0.8-2.9c0-1.5,0.4-2.7,1.1-3.7s1.7-1.8,2.9-2.3c1.2-0.5,2.7-0.8,4.2-0.8c1,0,2,0.1,2.9,0.3
				c0.9,0.2,1.7,0.5,2.5,0.9s1.5,0.9,2.1,1.4L458.4,303.2z"/>
		</g>
	</g>
	<path class="st2" d="M553.1,422.8c0,5.5-4.4,9.9-9.9,9.9s-9.9-4.4-9.9-9.9s4.4-9.9,9.9-9.9C548.6,412.9,553.1,417.3,553.1,422.8z"
		/>
	<path class="st2" d="M523.8,422.8c0,5.5-4.4,9.9-9.9,9.9c-5.5,0-9.9-4.4-9.9-9.9s4.4-9.9,9.9-9.9
		C519.3,412.9,523.8,417.3,523.8,422.8z"/>
	<path class="st2" d="M494.4,422.8c0,5.5-4.4,9.9-9.9,9.9s-9.9-4.4-9.9-9.9s4.4-9.9,9.9-9.9S494.4,417.3,494.4,422.8z"/>
	<path class="st2" d="M465.1,422.8c0,5.5-4.4,9.9-9.9,9.9s-9.9-4.4-9.9-9.9s4.4-9.9,9.9-9.9S465.1,417.3,465.1,422.8z"/>
	<path class="st2" d="M435.8,422.8c0,5.5-4.4,9.9-9.9,9.9s-9.9-4.4-9.9-9.9s4.4-9.9,9.9-9.9S435.8,417.3,435.8,422.8z"/>
	<path class="st2" d="M406.5,422.8c0,5.5-4.4,9.9-9.9,9.9s-9.9-4.4-9.9-9.9s4.4-9.9,9.9-9.9C402,412.9,406.5,417.3,406.5,422.8z"/>
	
		<linearGradient id="SVGID_1_" gradientUnits="userSpaceOnUse" x1="357.3928" y1="-148.978" x2="377.1928" y2="-148.978" gradientTransform="matrix(1 0 0 -1 0 273.8)">
		<stop  offset="0" style="stop-color:#00DCCC"/>
		<stop  offset="1" style="stop-color:#C7F0B9"/>
	</linearGradient>
	<path class="st3" d="M377.1,422.8c0,5.5-4.4,9.9-9.9,9.9s-9.9-4.4-9.9-9.9s4.4-9.9,9.9-9.9S377.1,417.3,377.1,422.8z"/>
	
		<linearGradient id="SVGID_2_" gradientUnits="userSpaceOnUse" x1="328.0688" y1="-148.978" x2="347.8689" y2="-148.978" gradientTransform="matrix(1 0 0 -1 0 273.8)">
		<stop  offset="0" style="stop-color:#00DCCC"/>
		<stop  offset="1" style="stop-color:#C7F0B9"/>
	</linearGradient>
	<path class="st4" d="M347.8,422.8c0,5.5-4.4,9.9-9.9,9.9s-9.9-4.4-9.9-9.9s4.4-9.9,9.9-9.9S347.8,417.3,347.8,422.8z"/>
	<path class="st2" d="M582.4,422.8c0,5.5-4.4,9.9-9.9,9.9s-9.9-4.4-9.9-9.9s4.4-9.9,9.9-9.9S582.4,417.3,582.4,422.8z"/>
	<path class="st2" d="M553.1,448.8c0,5.5-4.4,9.9-9.9,9.9s-9.9-4.4-9.9-9.9s4.4-9.9,9.9-9.9C548.6,438.9,553.1,443.4,553.1,448.8z"
		/>
	<circle class="st2" cx="513.9" cy="448.8" r="9.9"/>
	<circle class="st2" cx="484.5" cy="448.8" r="9.9"/>
	
		<linearGradient id="SVGID_3_" gradientUnits="userSpaceOnUse" x1="445.3468" y1="-174.978" x2="465.1468" y2="-174.978" gradientTransform="matrix(1 0 0 -1 0 273.8)">
		<stop  offset="0" style="stop-color:#00DCCC"/>
		<stop  offset="1" style="stop-color:#C7F0B9"/>
	</linearGradient>
	<circle class="st5" cx="455.2" cy="448.8" r="9.9"/>
	
		<linearGradient id="SVGID_4_" gradientUnits="userSpaceOnUse" x1="416.0468" y1="-174.978" x2="435.8469" y2="-174.978" gradientTransform="matrix(1 0 0 -1 0 273.8)">
		<stop  offset="0" style="stop-color:#00DCCC"/>
		<stop  offset="1" style="stop-color:#C7F0B9"/>
	</linearGradient>
	<circle class="st6" cx="425.9" cy="448.8" r="9.9"/>
	
		<linearGradient id="SVGID_5_" gradientUnits="userSpaceOnUse" x1="386.7166" y1="-174.978" x2="406.5167" y2="-174.978" gradientTransform="matrix(1 0 0 -1 0 273.8)">
		<stop  offset="0" style="stop-color:#00DCCC"/>
		<stop  offset="1" style="stop-color:#C7F0B9"/>
	</linearGradient>
	<circle class="st7" cx="396.6" cy="448.8" r="9.9"/>
	
		<linearGradient id="SVGID_6_" gradientUnits="userSpaceOnUse" x1="357.3928" y1="-174.978" x2="377.1928" y2="-174.978" gradientTransform="matrix(1 0 0 -1 0 273.8)">
		<stop  offset="0" style="stop-color:#00DCCC"/>
		<stop  offset="1" style="stop-color:#C7F0B9"/>
	</linearGradient>
	<circle class="st8" cx="367.2" cy="448.8" r="9.9"/>
	
		<linearGradient id="SVGID_7_" gradientUnits="userSpaceOnUse" x1="328.0688" y1="-174.978" x2="347.8689" y2="-174.978" gradientTransform="matrix(1 0 0 -1 0 273.8)">
		<stop  offset="0" style="stop-color:#00DCCC"/>
		<stop  offset="1" style="stop-color:#C7F0B9"/>
	</linearGradient>
	<circle class="st9" cx="337.9" cy="448.8" r="9.9"/>
	
		<linearGradient id="SVGID_8_" gradientUnits="userSpaceOnUse" x1="562.6469" y1="-174.978" x2="582.4469" y2="-174.978" gradientTransform="matrix(1 0 0 -1 0 273.8)">
		<stop  offset="0" style="stop-color:#00DCCC"/>
		<stop  offset="1" style="stop-color:#C7F0B9"/>
	</linearGradient>
	<path class="st10" d="M582.4,448.8c0,5.5-4.4,9.9-9.9,9.9s-9.9-4.4-9.9-9.9s4.4-9.9,9.9-9.9S582.4,443.4,582.4,448.8z"/>
	
		<linearGradient id="SVGID_9_" gradientUnits="userSpaceOnUse" x1="533.3468" y1="-201.078" x2="553.1469" y2="-201.078" gradientTransform="matrix(1 0 0 -1 0 273.8)">
		<stop  offset="0" style="stop-color:#00DCCC"/>
		<stop  offset="1" style="stop-color:#C7F0B9"/>
	</linearGradient>
	<path class="st11" d="M553.1,474.9c0,5.5-4.4,9.9-9.9,9.9s-9.9-4.4-9.9-9.9s4.4-9.9,9.9-9.9C548.6,465,553.1,469.4,553.1,474.9z"/>
	<circle class="st2" cx="513.9" cy="474.9" r="9.9"/>
	<circle class="st2" cx="484.5" cy="474.9" r="9.9"/>
	
		<linearGradient id="SVGID_10_" gradientUnits="userSpaceOnUse" x1="445.3468" y1="-201.078" x2="465.1468" y2="-201.078" gradientTransform="matrix(1 0 0 -1 0 273.8)">
		<stop  offset="0" style="stop-color:#00DCCC"/>
		<stop  offset="1" style="stop-color:#C7F0B9"/>
	</linearGradient>
	<circle class="st12" cx="455.2" cy="474.9" r="9.9"/>
	
		<linearGradient id="SVGID_11_" gradientUnits="userSpaceOnUse" x1="416.0468" y1="-201.078" x2="435.8469" y2="-201.078" gradientTransform="matrix(1 0 0 -1 0 273.8)">
		<stop  offset="0" style="stop-color:#00DCCC"/>
		<stop  offset="1" style="stop-color:#C7F0B9"/>
	</linearGradient>
	<circle class="st13" cx="425.9" cy="474.9" r="9.9"/>
	
		<linearGradient id="SVGID_12_" gradientUnits="userSpaceOnUse" x1="386.7166" y1="-201.078" x2="406.5167" y2="-201.078" gradientTransform="matrix(1 0 0 -1 0 273.8)">
		<stop  offset="0" style="stop-color:#00DCCC"/>
		<stop  offset="1" style="stop-color:#C7F0B9"/>
	</linearGradient>
	<circle class="st14" cx="396.6" cy="474.9" r="9.9"/>
	
		<linearGradient id="SVGID_13_" gradientUnits="userSpaceOnUse" x1="357.3928" y1="-201.078" x2="377.1928" y2="-201.078" gradientTransform="matrix(1 0 0 -1 0 273.8)">
		<stop  offset="0" style="stop-color:#00DCCC"/>
		<stop  offset="1" style="stop-color:#C7F0B9"/>
	</linearGradient>
	<circle class="st15" cx="367.2" cy="474.9" r="9.9"/>
	
		<linearGradient id="SVGID_14_" gradientUnits="userSpaceOnUse" x1="328.0688" y1="-201.078" x2="347.8689" y2="-201.078" gradientTransform="matrix(1 0 0 -1 0 273.8)">
		<stop  offset="0" style="stop-color:#00DCCC"/>
		<stop  offset="1" style="stop-color:#C7F0B9"/>
	</linearGradient>
	<circle class="st16" cx="337.9" cy="474.9" r="9.9"/>
	
		<linearGradient id="SVGID_15_" gradientUnits="userSpaceOnUse" x1="562.6469" y1="-201.078" x2="582.4469" y2="-201.078" gradientTransform="matrix(1 0 0 -1 0 273.8)">
		<stop  offset="0" style="stop-color:#00DCCC"/>
		<stop  offset="1" style="stop-color:#C7F0B9"/>
	</linearGradient>
	<path class="st17" d="M582.4,474.9c0,5.5-4.4,9.9-9.9,9.9s-9.9-4.4-9.9-9.9s4.4-9.9,9.9-9.9S582.4,469.4,582.4,474.9z"/>
	
		<linearGradient id="SVGID_16_" gradientUnits="userSpaceOnUse" x1="533.3468" y1="-227.078" x2="553.1469" y2="-227.078" gradientTransform="matrix(1 0 0 -1 0 273.8)">
		<stop  offset="0" style="stop-color:#00DCCC"/>
		<stop  offset="1" style="stop-color:#C7F0B9"/>
	</linearGradient>
	<path class="st18" d="M553.1,500.9c0,5.5-4.4,9.9-9.9,9.9s-9.9-4.4-9.9-9.9s4.4-9.9,9.9-9.9C548.6,491,553.1,495.4,553.1,500.9z"/>
	
		<linearGradient id="SVGID_17_" gradientUnits="userSpaceOnUse" x1="504.0123" y1="-227.078" x2="523.8124" y2="-227.078" gradientTransform="matrix(1 0 0 -1 0 273.8)">
		<stop  offset="0" style="stop-color:#00DCCC"/>
		<stop  offset="1" style="stop-color:#C7F0B9"/>
	</linearGradient>
	<circle class="st19" cx="513.9" cy="500.9" r="9.9"/>
	
		<linearGradient id="SVGID_18_" gradientUnits="userSpaceOnUse" x1="474.6884" y1="-227.078" x2="494.4885" y2="-227.078" gradientTransform="matrix(1 0 0 -1 0 273.8)">
		<stop  offset="0" style="stop-color:#00DCCC"/>
		<stop  offset="1" style="stop-color:#C7F0B9"/>
	</linearGradient>
	<circle class="st20" cx="484.5" cy="500.9" r="9.9"/>
	
		<linearGradient id="SVGID_19_" gradientUnits="userSpaceOnUse" x1="445.3468" y1="-227.078" x2="465.1468" y2="-227.078" gradientTransform="matrix(1 0 0 -1 0 273.8)">
		<stop  offset="0" style="stop-color:#00DCCC"/>
		<stop  offset="1" style="stop-color:#C7F0B9"/>
	</linearGradient>
	<circle class="st21" cx="455.2" cy="500.9" r="9.9"/>
	
		<linearGradient id="SVGID_20_" gradientUnits="userSpaceOnUse" x1="416.0468" y1="-227.078" x2="435.8469" y2="-227.078" gradientTransform="matrix(1 0 0 -1 0 273.8)">
		<stop  offset="0" style="stop-color:#00DCCC"/>
		<stop  offset="1" style="stop-color:#C7F0B9"/>
	</linearGradient>
	<circle class="st22" cx="425.9" cy="500.9" r="9.9"/>
	
		<linearGradient id="SVGID_21_" gradientUnits="userSpaceOnUse" x1="386.7166" y1="-227.078" x2="406.5167" y2="-227.078" gradientTransform="matrix(1 0 0 -1 0 273.8)">
		<stop  offset="0" style="stop-color:#00DCCC"/>
		<stop  offset="1" style="stop-color:#C7F0B9"/>
	</linearGradient>
	<circle class="st23" cx="396.6" cy="500.9" r="9.9"/>
	
		<linearGradient id="SVGID_22_" gradientUnits="userSpaceOnUse" x1="357.3928" y1="-227.078" x2="377.1928" y2="-227.078" gradientTransform="matrix(1 0 0 -1 0 273.8)">
		<stop  offset="0" style="stop-color:#00DCCC"/>
		<stop  offset="1" style="stop-color:#C7F0B9"/>
	</linearGradient>
	<circle class="st24" cx="367.2" cy="500.9" r="9.9"/>
	
		<linearGradient id="SVGID_23_" gradientUnits="userSpaceOnUse" x1="328.0688" y1="-227.078" x2="347.8689" y2="-227.078" gradientTransform="matrix(1 0 0 -1 0 273.8)">
		<stop  offset="0" style="stop-color:#00DCCC"/>
		<stop  offset="1" style="stop-color:#C7F0B9"/>
	</linearGradient>
	<circle class="st25" cx="337.9" cy="500.9" r="9.9"/>
	
		<linearGradient id="SVGID_24_" gradientUnits="userSpaceOnUse" x1="562.6469" y1="-227.078" x2="582.4469" y2="-227.078" gradientTransform="matrix(1 0 0 -1 0 273.8)">
		<stop  offset="0" style="stop-color:#00DCCC"/>
		<stop  offset="1" style="stop-color:#C7F0B9"/>
	</linearGradient>
	<path class="st26" d="M582.4,500.9c0,5.5-4.4,9.9-9.9,9.9s-9.9-4.4-9.9-9.9s4.4-9.9,9.9-9.9S582.4,495.4,582.4,500.9z"/>
	
		<linearGradient id="SVGID_25_" gradientUnits="userSpaceOnUse" x1="241.3468" y1="-123.0779" x2="261.1468" y2="-123.0779" gradientTransform="matrix(1 0 0 -1 0 273.8)">
		<stop  offset="0" style="stop-color:#00DCCC"/>
		<stop  offset="1" style="stop-color:#C7F0B9"/>
	</linearGradient>
	<path class="st27" d="M261.1,396.9c0,5.5-4.4,9.9-9.9,9.9s-9.9-4.4-9.9-9.9s4.4-9.9,9.9-9.9C256.6,387,261.1,391.4,261.1,396.9z"/>
	
		<linearGradient id="SVGID_26_" gradientUnits="userSpaceOnUse" x1="212.0124" y1="-123.078" x2="231.8124" y2="-123.078" gradientTransform="matrix(1 0 0 -1 0 273.8)">
		<stop  offset="0" style="stop-color:#00DCCC"/>
		<stop  offset="1" style="stop-color:#C7F0B9"/>
	</linearGradient>
	<circle class="st28" cx="221.9" cy="396.9" r="9.9"/>
	
		<linearGradient id="SVGID_27_" gradientUnits="userSpaceOnUse" x1="182.6884" y1="-123.078" x2="202.4885" y2="-123.078" gradientTransform="matrix(1 0 0 -1 0 273.8)">
		<stop  offset="0" style="stop-color:#00DCCC"/>
		<stop  offset="1" style="stop-color:#C7F0B9"/>
	</linearGradient>
	<circle class="st29" cx="192.5" cy="396.9" r="9.9"/>
	
		<linearGradient id="SVGID_28_" gradientUnits="userSpaceOnUse" x1="153.3468" y1="-123.078" x2="173.1469" y2="-123.078" gradientTransform="matrix(1 0 0 -1 0 273.8)">
		<stop  offset="0" style="stop-color:#00DCCC"/>
		<stop  offset="1" style="stop-color:#C7F0B9"/>
	</linearGradient>
	<circle class="st30" cx="163.2" cy="396.9" r="9.9"/>
	
		<linearGradient id="SVGID_29_" gradientUnits="userSpaceOnUse" x1="124.0469" y1="-123.078" x2="143.8469" y2="-123.078" gradientTransform="matrix(1 0 0 -1 0 273.8)">
		<stop  offset="0" style="stop-color:#00DCCC"/>
		<stop  offset="1" style="stop-color:#C7F0B9"/>
	</linearGradient>
	<circle class="st31" cx="133.9" cy="396.9" r="9.9"/>
	
		<linearGradient id="SVGID_30_" gradientUnits="userSpaceOnUse" x1="94.7168" y1="-123.078" x2="114.5168" y2="-123.078" gradientTransform="matrix(1 0 0 -1 0 273.8)">
		<stop  offset="0" style="stop-color:#00DCCC"/>
		<stop  offset="1" style="stop-color:#C7F0B9"/>
	</linearGradient>
	<circle class="st32" cx="104.6" cy="396.9" r="9.9"/>
	
		<linearGradient id="SVGID_31_" gradientUnits="userSpaceOnUse" x1="65.3927" y1="-123.078" x2="85.1928" y2="-123.078" gradientTransform="matrix(1 0 0 -1 0 273.8)">
		<stop  offset="0" style="stop-color:#00DCCC"/>
		<stop  offset="1" style="stop-color:#C7F0B9"/>
	</linearGradient>
	<circle class="st33" cx="75.2" cy="396.9" r="9.9"/>
	
		<linearGradient id="SVGID_32_" gradientUnits="userSpaceOnUse" x1="36.0688" y1="-123.078" x2="55.8689" y2="-123.078" gradientTransform="matrix(1 0 0 -1 0 273.8)">
		<stop  offset="0" style="stop-color:#00DCCC"/>
		<stop  offset="1" style="stop-color:#C7F0B9"/>
	</linearGradient>
	<circle class="st34" cx="45.9" cy="396.9" r="9.9"/>
	
		<linearGradient id="SVGID_33_" gradientUnits="userSpaceOnUse" x1="270.6468" y1="-123.0779" x2="290.4469" y2="-123.0779" gradientTransform="matrix(1 0 0 -1 0 273.8)">
		<stop  offset="0" style="stop-color:#00DCCC"/>
		<stop  offset="1" style="stop-color:#C7F0B9"/>
	</linearGradient>
	<path class="st35" d="M290.4,396.9c0,5.5-4.4,9.9-9.9,9.9s-9.9-4.4-9.9-9.9s4.4-9.9,9.9-9.9S290.4,391.4,290.4,396.9z"/>
	
		<linearGradient id="SVGID_34_" gradientUnits="userSpaceOnUse" x1="241.3468" y1="-149.078" x2="261.1468" y2="-149.078" gradientTransform="matrix(1 0 0 -1 0 273.8)">
		<stop  offset="0" style="stop-color:#00DCCC"/>
		<stop  offset="1" style="stop-color:#C7F0B9"/>
	</linearGradient>
	<path class="st36" d="M261.1,422.9c0,5.5-4.4,9.9-9.9,9.9s-9.9-4.4-9.9-9.9s4.4-9.9,9.9-9.9C256.6,413,261.1,417.5,261.1,422.9z"/>
	
		<linearGradient id="SVGID_35_" gradientUnits="userSpaceOnUse" x1="212.0124" y1="-149.078" x2="231.8124" y2="-149.078" gradientTransform="matrix(1 0 0 -1 0 273.8)">
		<stop  offset="0" style="stop-color:#00DCCC"/>
		<stop  offset="1" style="stop-color:#C7F0B9"/>
	</linearGradient>
	<path class="st37" d="M231.8,422.9c0,5.5-4.4,9.9-9.9,9.9s-9.9-4.4-9.9-9.9s4.4-9.9,9.9-9.9C227.3,413,231.8,417.5,231.8,422.9z"/>
	
		<linearGradient id="SVGID_36_" gradientUnits="userSpaceOnUse" x1="182.6884" y1="-149.078" x2="202.4885" y2="-149.078" gradientTransform="matrix(1 0 0 -1 0 273.8)">
		<stop  offset="0" style="stop-color:#00DCCC"/>
		<stop  offset="1" style="stop-color:#C7F0B9"/>
	</linearGradient>
	<path class="st38" d="M202.4,422.9c0,5.5-4.4,9.9-9.9,9.9s-9.9-4.4-9.9-9.9s4.4-9.9,9.9-9.9S202.4,417.5,202.4,422.9z"/>
	
		<linearGradient id="SVGID_37_" gradientUnits="userSpaceOnUse" x1="153.3468" y1="-149.078" x2="173.1468" y2="-149.078" gradientTransform="matrix(1 0 0 -1 0 273.8)">
		<stop  offset="0" style="stop-color:#00DCCC"/>
		<stop  offset="1" style="stop-color:#C7F0B9"/>
	</linearGradient>
	<path class="st39" d="M173.1,422.9c0,5.5-4.4,9.9-9.9,9.9s-9.9-4.4-9.9-9.9s4.4-9.9,9.9-9.9C168.7,413,173.1,417.5,173.1,422.9z"/>
	
		<linearGradient id="SVGID_38_" gradientUnits="userSpaceOnUse" x1="124.0468" y1="-149.078" x2="143.8468" y2="-149.078" gradientTransform="matrix(1 0 0 -1 0 273.8)">
		<stop  offset="0" style="stop-color:#00DCCC"/>
		<stop  offset="1" style="stop-color:#C7F0B9"/>
	</linearGradient>
	<path class="st40" d="M143.8,422.9c0,5.5-4.4,9.9-9.9,9.9s-9.9-4.4-9.9-9.9s4.4-9.9,9.9-9.9C139.4,413,143.8,417.5,143.8,422.9z"/>
	
		<linearGradient id="SVGID_39_" gradientUnits="userSpaceOnUse" x1="94.7168" y1="-149.078" x2="114.5168" y2="-149.078" gradientTransform="matrix(1 0 0 -1 0 273.8)">
		<stop  offset="0" style="stop-color:#00DCCC"/>
		<stop  offset="1" style="stop-color:#C7F0B9"/>
	</linearGradient>
	<path class="st41" d="M114.5,422.9c0,5.5-4.4,9.9-9.9,9.9s-9.9-4.4-9.9-9.9s4.4-9.9,9.9-9.9C110,413,114.5,417.5,114.5,422.9z"/>
	
		<linearGradient id="SVGID_40_" gradientUnits="userSpaceOnUse" x1="65.3927" y1="-149.078" x2="85.1928" y2="-149.078" gradientTransform="matrix(1 0 0 -1 0 273.8)">
		<stop  offset="0" style="stop-color:#00DCCC"/>
		<stop  offset="1" style="stop-color:#C7F0B9"/>
	</linearGradient>
	<path class="st42" d="M85.1,422.9c0,5.5-4.4,9.9-9.9,9.9s-9.9-4.4-9.9-9.9s4.4-9.9,9.9-9.9S85.1,417.5,85.1,422.9z"/>
	
		<linearGradient id="SVGID_41_" gradientUnits="userSpaceOnUse" x1="36.0688" y1="-149.078" x2="55.8689" y2="-149.078" gradientTransform="matrix(1 0 0 -1 0 273.8)">
		<stop  offset="0" style="stop-color:#00DCCC"/>
		<stop  offset="1" style="stop-color:#C7F0B9"/>
	</linearGradient>
	<path class="st43" d="M55.8,422.9c0,5.5-4.4,9.9-9.9,9.9s-9.9-4.4-9.9-9.9s4.4-9.9,9.9-9.9S55.8,417.5,55.8,422.9z"/>
	
		<linearGradient id="SVGID_42_" gradientUnits="userSpaceOnUse" x1="270.6468" y1="-149.078" x2="290.4469" y2="-149.078" gradientTransform="matrix(1 0 0 -1 0 273.8)">
		<stop  offset="0" style="stop-color:#00DCCC"/>
		<stop  offset="1" style="stop-color:#C7F0B9"/>
	</linearGradient>
	<path class="st44" d="M290.4,422.9c0,5.5-4.4,9.9-9.9,9.9s-9.9-4.4-9.9-9.9s4.4-9.9,9.9-9.9S290.4,417.5,290.4,422.9z"/>
	
		<linearGradient id="SVGID_43_" gradientUnits="userSpaceOnUse" x1="241.3468" y1="-175.078" x2="261.1468" y2="-175.078" gradientTransform="matrix(1 0 0 -1 0 273.8)">
		<stop  offset="0" style="stop-color:#00DCCC"/>
		<stop  offset="1" style="stop-color:#C7F0B9"/>
	</linearGradient>
	<path class="st45" d="M261.1,448.9c0,5.5-4.4,9.9-9.9,9.9s-9.9-4.4-9.9-9.9s4.4-9.9,9.9-9.9C256.6,439,261.1,443.5,261.1,448.9z"/>
	
		<linearGradient id="SVGID_44_" gradientUnits="userSpaceOnUse" x1="212.0124" y1="-175.078" x2="231.8124" y2="-175.078" gradientTransform="matrix(1 0 0 -1 0 273.8)">
		<stop  offset="0" style="stop-color:#00DCCC"/>
		<stop  offset="1" style="stop-color:#C7F0B9"/>
	</linearGradient>
	<path class="st46" d="M231.8,448.9c0,5.5-4.4,9.9-9.9,9.9s-9.9-4.4-9.9-9.9s4.4-9.9,9.9-9.9C227.3,439,231.8,443.5,231.8,448.9z"/>
	
		<linearGradient id="SVGID_45_" gradientUnits="userSpaceOnUse" x1="182.6884" y1="-175.078" x2="202.4885" y2="-175.078" gradientTransform="matrix(1 0 0 -1 0 273.8)">
		<stop  offset="0" style="stop-color:#00DCCC"/>
		<stop  offset="1" style="stop-color:#C7F0B9"/>
	</linearGradient>
	<path class="st47" d="M202.4,448.9c0,5.5-4.4,9.9-9.9,9.9s-9.9-4.4-9.9-9.9s4.4-9.9,9.9-9.9S202.4,443.5,202.4,448.9z"/>
	
		<linearGradient id="SVGID_46_" gradientUnits="userSpaceOnUse" x1="153.3468" y1="-175.078" x2="173.1468" y2="-175.078" gradientTransform="matrix(1 0 0 -1 0 273.8)">
		<stop  offset="0" style="stop-color:#00DCCC"/>
		<stop  offset="1" style="stop-color:#C7F0B9"/>
	</linearGradient>
	<path class="st48" d="M173.1,448.9c0,5.5-4.4,9.9-9.9,9.9s-9.9-4.4-9.9-9.9s4.4-9.9,9.9-9.9C168.7,439,173.1,443.5,173.1,448.9z"/>
	
		<linearGradient id="SVGID_47_" gradientUnits="userSpaceOnUse" x1="124.0468" y1="-175.078" x2="143.8468" y2="-175.078" gradientTransform="matrix(1 0 0 -1 0 273.8)">
		<stop  offset="0" style="stop-color:#00DCCC"/>
		<stop  offset="1" style="stop-color:#C7F0B9"/>
	</linearGradient>
	<path class="st49" d="M143.8,448.9c0,5.5-4.4,9.9-9.9,9.9s-9.9-4.4-9.9-9.9s4.4-9.9,9.9-9.9C139.4,439,143.8,443.5,143.8,448.9z"/>
	
		<linearGradient id="SVGID_48_" gradientUnits="userSpaceOnUse" x1="94.7168" y1="-175.078" x2="114.5168" y2="-175.078" gradientTransform="matrix(1 0 0 -1 0 273.8)">
		<stop  offset="0" style="stop-color:#00DCCC"/>
		<stop  offset="1" style="stop-color:#C7F0B9"/>
	</linearGradient>
	<path class="st50" d="M114.5,448.9c0,5.5-4.4,9.9-9.9,9.9s-9.9-4.4-9.9-9.9s4.4-9.9,9.9-9.9C110,439,114.5,443.5,114.5,448.9z"/>
	
		<linearGradient id="SVGID_49_" gradientUnits="userSpaceOnUse" x1="65.3927" y1="-175.078" x2="85.1928" y2="-175.078" gradientTransform="matrix(1 0 0 -1 0 273.8)">
		<stop  offset="0" style="stop-color:#00DCCC"/>
		<stop  offset="1" style="stop-color:#C7F0B9"/>
	</linearGradient>
	<path class="st51" d="M85.1,448.9c0,5.5-4.4,9.9-9.9,9.9s-9.9-4.4-9.9-9.9s4.4-9.9,9.9-9.9S85.1,443.5,85.1,448.9z"/>
	
		<linearGradient id="SVGID_50_" gradientUnits="userSpaceOnUse" x1="36.0688" y1="-175.078" x2="55.8689" y2="-175.078" gradientTransform="matrix(1 0 0 -1 0 273.8)">
		<stop  offset="0" style="stop-color:#00DCCC"/>
		<stop  offset="1" style="stop-color:#C7F0B9"/>
	</linearGradient>
	<path class="st52" d="M55.8,448.9c0,5.5-4.4,9.9-9.9,9.9s-9.9-4.4-9.9-9.9s4.4-9.9,9.9-9.9S55.8,443.5,55.8,448.9z"/>
	
		<linearGradient id="SVGID_51_" gradientUnits="userSpaceOnUse" x1="270.6468" y1="-175.078" x2="290.4469" y2="-175.078" gradientTransform="matrix(1 0 0 -1 0 273.8)">
		<stop  offset="0" style="stop-color:#00DCCC"/>
		<stop  offset="1" style="stop-color:#C7F0B9"/>
	</linearGradient>
	<path class="st53" d="M290.4,448.9c0,5.5-4.4,9.9-9.9,9.9s-9.9-4.4-9.9-9.9s4.4-9.9,9.9-9.9S290.4,443.5,290.4,448.9z"/>
	
		<linearGradient id="SVGID_52_" gradientUnits="userSpaceOnUse" x1="241.3468" y1="-201.1779" x2="261.1468" y2="-201.1779" gradientTransform="matrix(1 0 0 -1 0 273.8)">
		<stop  offset="0" style="stop-color:#00DCCC"/>
		<stop  offset="1" style="stop-color:#C7F0B9"/>
	</linearGradient>
	<path class="st54" d="M261.1,475c0,5.5-4.4,9.9-9.9,9.9s-9.9-4.4-9.9-9.9s4.4-9.9,9.9-9.9C256.6,465.1,261.1,469.5,261.1,475z"/>
	
		<linearGradient id="SVGID_53_" gradientUnits="userSpaceOnUse" x1="212.0124" y1="-201.1779" x2="231.8124" y2="-201.1779" gradientTransform="matrix(1 0 0 -1 0 273.8)">
		<stop  offset="0" style="stop-color:#00DCCC"/>
		<stop  offset="1" style="stop-color:#C7F0B9"/>
	</linearGradient>
	<circle class="st55" cx="221.9" cy="475" r="9.9"/>
	
		<linearGradient id="SVGID_54_" gradientUnits="userSpaceOnUse" x1="182.6884" y1="-201.1779" x2="202.4885" y2="-201.1779" gradientTransform="matrix(1 0 0 -1 0 273.8)">
		<stop  offset="0" style="stop-color:#00DCCC"/>
		<stop  offset="1" style="stop-color:#C7F0B9"/>
	</linearGradient>
	<circle class="st56" cx="192.5" cy="475" r="9.9"/>
	
		<linearGradient id="SVGID_55_" gradientUnits="userSpaceOnUse" x1="153.3468" y1="-201.1779" x2="173.1469" y2="-201.1779" gradientTransform="matrix(1 0 0 -1 0 273.8)">
		<stop  offset="0" style="stop-color:#00DCCC"/>
		<stop  offset="1" style="stop-color:#C7F0B9"/>
	</linearGradient>
	<circle class="st57" cx="163.2" cy="475" r="9.9"/>
	
		<linearGradient id="SVGID_56_" gradientUnits="userSpaceOnUse" x1="124.0469" y1="-201.1779" x2="143.8469" y2="-201.1779" gradientTransform="matrix(1 0 0 -1 0 273.8)">
		<stop  offset="0" style="stop-color:#00DCCC"/>
		<stop  offset="1" style="stop-color:#C7F0B9"/>
	</linearGradient>
	<circle class="st58" cx="133.9" cy="475" r="9.9"/>
	
		<linearGradient id="SVGID_57_" gradientUnits="userSpaceOnUse" x1="94.7168" y1="-201.1779" x2="114.5168" y2="-201.1779" gradientTransform="matrix(1 0 0 -1 0 273.8)">
		<stop  offset="0" style="stop-color:#00DCCC"/>
		<stop  offset="1" style="stop-color:#C7F0B9"/>
	</linearGradient>
	<circle class="st59" cx="104.6" cy="475" r="9.9"/>
	
		<linearGradient id="SVGID_58_" gradientUnits="userSpaceOnUse" x1="65.3927" y1="-201.1779" x2="85.1928" y2="-201.1779" gradientTransform="matrix(1 0 0 -1 0 273.8)">
		<stop  offset="0" style="stop-color:#00DCCC"/>
		<stop  offset="1" style="stop-color:#C7F0B9"/>
	</linearGradient>
	<circle class="st60" cx="75.2" cy="475" r="9.9"/>
	
		<linearGradient id="SVGID_59_" gradientUnits="userSpaceOnUse" x1="36.0688" y1="-201.1779" x2="55.8689" y2="-201.1779" gradientTransform="matrix(1 0 0 -1 0 273.8)">
		<stop  offset="0" style="stop-color:#00DCCC"/>
		<stop  offset="1" style="stop-color:#C7F0B9"/>
	</linearGradient>
	<circle class="st61" cx="45.9" cy="475" r="9.9"/>
	
		<linearGradient id="SVGID_60_" gradientUnits="userSpaceOnUse" x1="270.6468" y1="-201.1779" x2="290.4469" y2="-201.1779" gradientTransform="matrix(1 0 0 -1 0 273.8)">
		<stop  offset="0" style="stop-color:#00DCCC"/>
		<stop  offset="1" style="stop-color:#C7F0B9"/>
	</linearGradient>
	<path class="st62" d="M290.4,475c0,5.5-4.4,9.9-9.9,9.9s-9.9-4.4-9.9-9.9s4.4-9.9,9.9-9.9S290.4,469.5,290.4,475z"/>
	<path class="st2" d="M553.1,396.8c0,5.5-4.4,9.9-9.9,9.9s-9.9-4.4-9.9-9.9s4.4-9.9,9.9-9.9C548.6,386.9,553.1,391.3,553.1,396.8z"
		/>
	<path class="st2" d="M523.8,396.8c0,5.5-4.4,9.9-9.9,9.9c-5.5,0-9.9-4.4-9.9-9.9s4.4-9.9,9.9-9.9
		C519.3,386.9,523.8,391.3,523.8,396.8z"/>
	<path class="st2" d="M494.4,396.8c0,5.5-4.4,9.9-9.9,9.9s-9.9-4.4-9.9-9.9s4.4-9.9,9.9-9.9S494.4,391.3,494.4,396.8z"/>
	<path class="st2" d="M465.1,396.8c0,5.5-4.4,9.9-9.9,9.9s-9.9-4.4-9.9-9.9s4.4-9.9,9.9-9.9S465.1,391.3,465.1,396.8z"/>
	<path class="st2" d="M435.8,396.8c0,5.5-4.4,9.9-9.9,9.9s-9.9-4.4-9.9-9.9s4.4-9.9,9.9-9.9S435.8,391.3,435.8,396.8z"/>
	<path class="st2" d="M406.5,396.8c0,5.5-4.4,9.9-9.9,9.9s-9.9-4.4-9.9-9.9s4.4-9.9,9.9-9.9C402,386.9,406.5,391.3,406.5,396.8z"/>
	<path class="st2" d="M377.1,396.8c0,5.5-4.4,9.9-9.9,9.9s-9.9-4.4-9.9-9.9s4.4-9.9,9.9-9.9S377.1,391.3,377.1,396.8z"/>
	<path class="st2" d="M347.8,396.8c0,5.5-4.4,9.9-9.9,9.9s-9.9-4.4-9.9-9.9s4.4-9.9,9.9-9.9S347.8,391.3,347.8,396.8z"/>
	<path class="st2" d="M582.4,396.8c0,5.5-4.4,9.9-9.9,9.9s-9.9-4.4-9.9-9.9s4.4-9.9,9.9-9.9S582.4,391.3,582.4,396.8z"/>
	
		<linearGradient id="SVGID_61_" gradientUnits="userSpaceOnUse" x1="241.3468" y1="-227.1779" x2="261.1468" y2="-227.1779" gradientTransform="matrix(1 0 0 -1 0 273.8)">
		<stop  offset="0" style="stop-color:#00DCCC"/>
		<stop  offset="1" style="stop-color:#C7F0B9"/>
	</linearGradient>
	<path class="st63" d="M261.1,501c0,5.5-4.4,9.9-9.9,9.9s-9.9-4.4-9.9-9.9s4.4-9.9,9.9-9.9C256.6,491.1,261.1,495.5,261.1,501z"/>
	
		<linearGradient id="SVGID_62_" gradientUnits="userSpaceOnUse" x1="212.0124" y1="-227.1779" x2="231.8124" y2="-227.1779" gradientTransform="matrix(1 0 0 -1 0 273.8)">
		<stop  offset="0" style="stop-color:#00DCCC"/>
		<stop  offset="1" style="stop-color:#C7F0B9"/>
	</linearGradient>
	<circle class="st64" cx="221.9" cy="501" r="9.9"/>
	
		<linearGradient id="SVGID_63_" gradientUnits="userSpaceOnUse" x1="182.6884" y1="-227.1779" x2="202.4885" y2="-227.1779" gradientTransform="matrix(1 0 0 -1 0 273.8)">
		<stop  offset="0" style="stop-color:#00DCCC"/>
		<stop  offset="1" style="stop-color:#C7F0B9"/>
	</linearGradient>
	<circle class="st65" cx="192.5" cy="501" r="9.9"/>
	
		<linearGradient id="SVGID_64_" gradientUnits="userSpaceOnUse" x1="153.3468" y1="-227.1779" x2="173.1469" y2="-227.1779" gradientTransform="matrix(1 0 0 -1 0 273.8)">
		<stop  offset="0" style="stop-color:#00DCCC"/>
		<stop  offset="1" style="stop-color:#C7F0B9"/>
	</linearGradient>
	<circle class="st66" cx="163.2" cy="501" r="9.9"/>
	
		<linearGradient id="SVGID_65_" gradientUnits="userSpaceOnUse" x1="124.0469" y1="-227.1779" x2="143.8469" y2="-227.1779" gradientTransform="matrix(1 0 0 -1 0 273.8)">
		<stop  offset="0" style="stop-color:#00DCCC"/>
		<stop  offset="1" style="stop-color:#C7F0B9"/>
	</linearGradient>
	<circle class="st67" cx="133.9" cy="501" r="9.9"/>
	
		<linearGradient id="SVGID_66_" gradientUnits="userSpaceOnUse" x1="94.7168" y1="-227.1779" x2="114.5168" y2="-227.1779" gradientTransform="matrix(1 0 0 -1 0 273.8)">
		<stop  offset="0" style="stop-color:#00DCCC"/>
		<stop  offset="1" style="stop-color:#C7F0B9"/>
	</linearGradient>
	<circle class="st68" cx="104.6" cy="501" r="9.9"/>
	
		<linearGradient id="SVGID_67_" gradientUnits="userSpaceOnUse" x1="65.3927" y1="-227.1779" x2="85.1928" y2="-227.1779" gradientTransform="matrix(1 0 0 -1 0 273.8)">
		<stop  offset="0" style="stop-color:#00DCCC"/>
		<stop  offset="1" style="stop-color:#C7F0B9"/>
	</linearGradient>
	<circle class="st69" cx="75.2" cy="501" r="9.9"/>
	
		<linearGradient id="SVGID_68_" gradientUnits="userSpaceOnUse" x1="36.0688" y1="-227.1779" x2="55.8689" y2="-227.1779" gradientTransform="matrix(1 0 0 -1 0 273.8)">
		<stop  offset="0" style="stop-color:#00DCCC"/>
		<stop  offset="1" style="stop-color:#C7F0B9"/>
	</linearGradient>
	<circle class="st70" cx="45.9" cy="501" r="9.9"/>
	
		<linearGradient id="SVGID_69_" gradientUnits="userSpaceOnUse" x1="270.6468" y1="-227.1779" x2="290.4469" y2="-227.1779" gradientTransform="matrix(1 0 0 -1 0 273.8)">
		<stop  offset="0" style="stop-color:#00DCCC"/>
		<stop  offset="1" style="stop-color:#C7F0B9"/>
	</linearGradient>
	<path class="st71" d="M290.4,501c0,5.5-4.4,9.9-9.9,9.9s-9.9-4.4-9.9-9.9s4.4-9.9,9.9-9.9S290.4,495.5,290.4,501z"/>
	<path class="st2" d="M612,422.8c0,5.5-4.4,9.9-9.9,9.9s-9.9-4.4-9.9-9.9s4.4-9.9,9.9-9.9S612,417.3,612,422.8z"/>
	
		<linearGradient id="SVGID_70_" gradientUnits="userSpaceOnUse" x1="592.2468" y1="-174.978" x2="612.0469" y2="-174.978" gradientTransform="matrix(1 0 0 -1 0 273.8)">
		<stop  offset="0" style="stop-color:#00DCCC"/>
		<stop  offset="1" style="stop-color:#C7F0B9"/>
	</linearGradient>
	<path class="st72" d="M612,448.8c0,5.5-4.4,9.9-9.9,9.9s-9.9-4.4-9.9-9.9s4.4-9.9,9.9-9.9S612,443.4,612,448.8z"/>
	
		<linearGradient id="SVGID_71_" gradientUnits="userSpaceOnUse" x1="592.2468" y1="-201.078" x2="612.0469" y2="-201.078" gradientTransform="matrix(1 0 0 -1 0 273.8)">
		<stop  offset="0" style="stop-color:#00DCCC"/>
		<stop  offset="1" style="stop-color:#C7F0B9"/>
	</linearGradient>
	<path class="st73" d="M612,474.9c0,5.5-4.4,9.9-9.9,9.9s-9.9-4.4-9.9-9.9s4.4-9.9,9.9-9.9S612,469.4,612,474.9z"/>
	
		<linearGradient id="SVGID_72_" gradientUnits="userSpaceOnUse" x1="592.2468" y1="-227.078" x2="612.0469" y2="-227.078" gradientTransform="matrix(1 0 0 -1 0 273.8)">
		<stop  offset="0" style="stop-color:#00DCCC"/>
		<stop  offset="1" style="stop-color:#C7F0B9"/>
	</linearGradient>
	<path class="st74" d="M612,500.9c0,5.5-4.4,9.9-9.9,9.9s-9.9-4.4-9.9-9.9s4.4-9.9,9.9-9.9S612,495.4,612,500.9z"/>
	
		<linearGradient id="SVGID_73_" gradientUnits="userSpaceOnUse" x1="300.2468" y1="-123.0779" x2="320.0468" y2="-123.0779" gradientTransform="matrix(1 0 0 -1 0 273.8)">
		<stop  offset="0" style="stop-color:#00DCCC"/>
		<stop  offset="1" style="stop-color:#C7F0B9"/>
	</linearGradient>
	<path class="st75" d="M320,396.9c0,5.5-4.4,9.9-9.9,9.9s-9.9-4.4-9.9-9.9s4.4-9.9,9.9-9.9S320,391.4,320,396.9z"/>
	
		<linearGradient id="SVGID_74_" gradientUnits="userSpaceOnUse" x1="300.2468" y1="-149.078" x2="320.0468" y2="-149.078" gradientTransform="matrix(1 0 0 -1 0 273.8)">
		<stop  offset="0" style="stop-color:#00DCCC"/>
		<stop  offset="1" style="stop-color:#C7F0B9"/>
	</linearGradient>
	<path class="st76" d="M320,422.9c0,5.5-4.4,9.9-9.9,9.9s-9.9-4.4-9.9-9.9s4.4-9.9,9.9-9.9S320,417.5,320,422.9z"/>
	
		<linearGradient id="SVGID_75_" gradientUnits="userSpaceOnUse" x1="300.2468" y1="-175.078" x2="320.0468" y2="-175.078" gradientTransform="matrix(1 0 0 -1 0 273.8)">
		<stop  offset="0" style="stop-color:#00DCCC"/>
		<stop  offset="1" style="stop-color:#C7F0B9"/>
	</linearGradient>
	<path class="st77" d="M320,448.9c0,5.5-4.4,9.9-9.9,9.9s-9.9-4.4-9.9-9.9s4.4-9.9,9.9-9.9S320,443.5,320,448.9z"/>
	
		<linearGradient id="SVGID_76_" gradientUnits="userSpaceOnUse" x1="300.2468" y1="-201.1779" x2="320.0468" y2="-201.1779" gradientTransform="matrix(1 0 0 -1 0 273.8)">
		<stop  offset="0" style="stop-color:#00DCCC"/>
		<stop  offset="1" style="stop-color:#C7F0B9"/>
	</linearGradient>
	<path class="st78" d="M320,475c0,5.5-4.4,9.9-9.9,9.9s-9.9-4.4-9.9-9.9s4.4-9.9,9.9-9.9S320,469.5,320,475z"/>
	<path class="st2" d="M612,396.8c0,5.5-4.4,9.9-9.9,9.9s-9.9-4.4-9.9-9.9s4.4-9.9,9.9-9.9S612,391.3,612,396.8z"/>
	
		<linearGradient id="SVGID_77_" gradientUnits="userSpaceOnUse" x1="300.2468" y1="-227.1779" x2="320.0468" y2="-227.1779" gradientTransform="matrix(1 0 0 -1 0 273.8)">
		<stop  offset="0" style="stop-color:#00DCCC"/>
		<stop  offset="1" style="stop-color:#C7F0B9"/>
	</linearGradient>
	<path class="st79" d="M320,501c0,5.5-4.4,9.9-9.9,9.9s-9.9-4.4-9.9-9.9s4.4-9.9,9.9-9.9S320,495.5,320,501z"/>
</g>
<g>
	<g>
		<g>
			<g>
				<path class="st1" d="M310.6,68.2V45.3h9.6c1,0,1.9,0.2,2.8,0.6c0.8,0.4,1.6,1,2.2,1.7c0.6,0.7,1.1,1.5,1.5,2.4
					c0.3,0.9,0.5,1.8,0.5,2.7c0,1.2-0.3,2.4-0.8,3.6s-1.3,2-2.4,2.7c-1,0.7-2.2,1-3.6,1h-6.9v8.2H310.6L310.6,68.2z M313.5,57.4h6.7
					c0.8,0,1.5-0.2,2.1-0.6c0.6-0.4,1.1-1,1.4-1.7c0.3-0.7,0.5-1.5,0.5-2.4c0-0.9-0.2-1.7-0.6-2.4c-0.4-0.7-0.9-1.3-1.5-1.7
					c-0.6-0.4-1.3-0.6-2.1-0.6h-6.5C313.5,48,313.5,57.4,313.5,57.4z"/>
				<path class="st1" d="M330.7,68.2V45.3h9.8c1,0,1.9,0.2,2.8,0.6c0.8,0.4,1.6,1,2.2,1.7s1.1,1.5,1.5,2.4c0.3,0.9,0.5,1.8,0.5,2.7
					c0,1.1-0.2,2.1-0.6,3c-0.4,0.9-1,1.8-1.7,2.4c-0.7,0.7-1.6,1.1-2.5,1.4l5.6,8.8h-3.4l-5.2-8.2h-6.1v8.2L330.7,68.2L330.7,68.2z
					 M333.6,57.4h6.9c0.8,0,1.5-0.2,2.1-0.7c0.6-0.5,1.1-1,1.4-1.8c0.3-0.7,0.5-1.5,0.5-2.4c0-0.9-0.2-1.7-0.6-2.4
					c-0.4-0.7-0.9-1.3-1.5-1.7c-0.6-0.4-1.3-0.6-2.1-0.6h-6.7C333.6,47.8,333.6,57.4,333.6,57.4z"/>
				<path class="st1" d="M367.5,65.6v2.6h-15.6V45.3h15.3v2.6h-12.4v7.4h10.7v2.4h-10.7v7.9H367.5z"/>
				<path class="st1" d="M384.9,50.1c-0.3-0.3-0.6-0.6-1-0.9s-0.9-0.5-1.5-0.8c-0.5-0.2-1.1-0.4-1.8-0.5c-0.6-0.1-1.3-0.2-2-0.2
					c-1.8,0-3.1,0.3-3.9,1c-0.8,0.7-1.3,1.6-1.3,2.7c0,0.8,0.2,1.5,0.6,1.9c0.4,0.5,1.1,0.9,2,1.2c0.9,0.3,2,0.6,3.4,0.9
					c1.6,0.3,3,0.8,4.1,1.3c1.2,0.5,2.1,1.2,2.7,2c0.6,0.8,0.9,1.9,0.9,3.3c0,1.1-0.2,2-0.6,2.8c-0.4,0.8-1,1.5-1.8,2
					c-0.8,0.5-1.6,0.9-2.6,1.2c-1,0.2-2.1,0.4-3.3,0.4s-2.3-0.1-3.4-0.4c-1.1-0.3-2.2-0.6-3.1-1.1c-1-0.5-1.9-1.1-2.8-1.8l1.4-2.5
					c0.3,0.4,0.8,0.7,1.3,1.1c0.5,0.4,1.2,0.7,1.9,1c0.7,0.3,1.5,0.5,2.3,0.7c0.8,0.2,1.7,0.3,2.5,0.3c1.6,0,2.9-0.3,3.8-0.9
					c0.9-0.6,1.4-1.5,1.4-2.6c0-0.9-0.3-1.5-0.8-2.1c-0.5-0.5-1.3-0.9-2.2-1.3c-0.9-0.4-2.2-0.7-3.6-1c-1.5-0.4-2.9-0.8-3.9-1.3
					c-1.1-0.5-1.8-1.1-2.4-1.8c-0.5-0.8-0.8-1.7-0.8-2.9c0-1.5,0.4-2.7,1.1-3.7c0.7-1,1.7-1.8,2.9-2.3c1.2-0.5,2.7-0.8,4.2-0.8
					c1,0,2,0.1,2.9,0.3c0.9,0.2,1.7,0.5,2.5,0.9c0.8,0.4,1.5,0.9,2.1,1.4L384.9,50.1z"/>
				<path class="st1" d="M400.6,68.4c-1.8,0-3.4-0.3-4.6-1c-1.2-0.6-2.2-1.5-3-2.6c-0.8-1.1-1.3-2.3-1.6-3.7s-0.5-2.8-0.5-4.3V45.2
					h2.9v11.6c0,1.1,0.1,2.2,0.3,3.3s0.6,2,1.1,2.9c0.5,0.8,1.2,1.5,2.1,2c0.9,0.5,2,0.7,3.3,0.7c1.3,0,2.4-0.3,3.3-0.8
					c0.9-0.5,1.6-1.2,2.1-2s0.9-1.8,1.1-2.9c0.2-1.1,0.3-2.1,0.3-3.2V45.2h2.9v11.6c0,1.5-0.2,3-0.5,4.4c-0.4,1.4-0.9,2.6-1.7,3.7
					s-1.8,1.9-3,2.5C403.9,68,402.3,68.4,400.6,68.4z"/>
				<path class="st1" d="M415.5,68.2V45.3h9.6c1,0,1.9,0.2,2.8,0.6c0.8,0.4,1.6,1,2.2,1.7c0.6,0.7,1.1,1.5,1.5,2.4
					c0.3,0.9,0.5,1.8,0.5,2.7c0,1.2-0.3,2.4-0.8,3.6c-0.6,1.1-1.3,2-2.4,2.7s-2.2,1-3.5,1h-6.8v8.2H415.5L415.5,68.2z M418.4,57.4
					h6.7c0.8,0,1.5-0.2,2.1-0.6c0.6-0.4,1.1-1,1.4-1.7c0.3-0.7,0.5-1.5,0.5-2.4c0-0.9-0.2-1.7-0.6-2.4c-0.4-0.7-0.9-1.3-1.5-1.7
					s-1.3-0.6-2.1-0.6h-6.5V57.4z"/>
				<path class="st1" d="M445.1,68.4c-1.8,0-3.4-0.3-4.6-1c-1.2-0.6-2.2-1.5-3-2.6c-0.8-1.1-1.3-2.3-1.6-3.7
					c-0.3-1.4-0.5-2.8-0.5-4.3V45.2h2.9v11.6c0,1.1,0.1,2.2,0.3,3.3c0.2,1.1,0.6,2,1.1,2.9c0.5,0.8,1.2,1.5,2.1,2s2,0.7,3.3,0.7
					c1.3,0,2.4-0.3,3.3-0.8s1.6-1.2,2.1-2s0.9-1.8,1.1-2.9s0.3-2.1,0.3-3.2V45.2h2.9v11.6c0,1.5-0.2,3-0.5,4.4
					c-0.4,1.4-0.9,2.6-1.7,3.7c-0.8,1.1-1.8,1.9-3,2.5C448.4,68,446.8,68.4,445.1,68.4z"/>
				<path class="st1" d="M475.5,65.6v2.6h-15.6V45.3h15.3v2.6h-12.3v7.4h10.7v2.4h-10.7v7.9H475.5z"/>
				<path class="st1" d="M493,50.1c-0.3-0.3-0.6-0.6-1-0.9s-0.9-0.5-1.5-0.8c-0.5-0.2-1.1-0.4-1.8-0.5c-0.6-0.1-1.3-0.2-2-0.2
					c-1.8,0-3.1,0.3-3.9,1c-0.8,0.7-1.3,1.6-1.3,2.7c0,0.8,0.2,1.5,0.6,1.9c0.4,0.5,1.1,0.9,2,1.2c0.9,0.3,2,0.6,3.4,0.9
					c1.6,0.3,3,0.8,4.1,1.3c1.2,0.5,2.1,1.2,2.7,2c0.6,0.8,0.9,1.9,0.9,3.3c0,1.1-0.2,2-0.6,2.8c-0.4,0.8-1,1.5-1.8,2
					c-0.8,0.5-1.6,0.9-2.6,1.2c-1,0.2-2.1,0.4-3.3,0.4c-1.2,0-2.3-0.1-3.4-0.4c-1.1-0.3-2.2-0.6-3.1-1.1c-1-0.5-1.9-1.1-2.8-1.8
					l1.4-2.5c0.3,0.4,0.8,0.7,1.3,1.1c0.5,0.4,1.2,0.7,1.9,1c0.7,0.3,1.5,0.5,2.3,0.7c0.8,0.2,1.7,0.3,2.5,0.3
					c1.6,0,2.9-0.3,3.8-0.9c0.9-0.6,1.4-1.5,1.4-2.6c0-0.9-0.3-1.5-0.8-2.1c-0.5-0.5-1.3-0.9-2.2-1.3c-0.9-0.4-2.2-0.7-3.6-1
					c-1.5-0.4-2.9-0.8-3.9-1.3c-1.1-0.5-1.8-1.1-2.4-1.8c-0.6-0.7-0.8-1.7-0.8-2.9c0-1.5,0.4-2.7,1.1-3.7s1.7-1.8,2.9-2.3
					c1.2-0.5,2.7-0.8,4.2-0.8c1,0,2,0.1,2.9,0.3c0.9,0.2,1.7,0.5,2.5,0.9c0.8,0.4,1.5,0.9,2.1,1.4L493,50.1z"/>
				<path class="st1" d="M515.7,47.9h-7.9v20.3h-2.9V47.9H497v-2.6h18.7V47.9z"/>
				<path class="st1" d="M527.6,68.4c-1.6,0-3.1-0.3-4.4-1c-1.3-0.7-2.4-1.5-3.4-2.6s-1.7-2.4-2.2-3.7c-0.5-1.4-0.8-2.8-0.8-4.3
					s0.3-3,0.8-4.4c0.5-1.4,1.3-2.6,2.3-3.7c1-1.1,2.1-1.9,3.4-2.6c1.3-0.6,2.7-1,4.3-1c1.6,0,3.1,0.3,4.4,1s2.4,1.6,3.4,2.7
					c0.9,1.1,1.7,2.4,2.2,3.7c0.5,1.4,0.8,2.8,0.8,4.2c0,1.5-0.3,3-0.8,4.4s-1.3,2.6-2.3,3.7s-2.1,1.9-3.4,2.6
					S529.1,68.4,527.6,68.4z M519.7,56.8c0,1.2,0.2,2.3,0.6,3.4c0.4,1.1,0.9,2,1.6,2.9s1.5,1.5,2.5,2s2,0.7,3.2,0.7
					c1.2,0,2.3-0.3,3.3-0.8s1.8-1.2,2.5-2.1c0.7-0.9,1.2-1.8,1.5-2.9c0.4-1.1,0.5-2.2,0.5-3.3c0-1.2-0.2-2.3-0.6-3.4
					c-0.4-1.1-0.9-2-1.6-2.9c-0.7-0.8-1.5-1.5-2.5-2s-2-0.7-3.2-0.7s-2.3,0.3-3.3,0.8s-1.8,1.2-2.5,2c-0.7,0.9-1.2,1.8-1.6,2.9
					C519.9,54.6,519.7,55.7,519.7,56.8z"/>
				<path class="st1" d="M317.6,81.6h2.5l9.4,22.9h-3.1l-2.6-6.7h-9.9l-2.6,6.7h-3.1L317.6,81.6z M322.9,95.6L318.8,85l-4.1,10.6
					H322.9z"/>
				<path class="st1" d="M345.6,86.4c-0.3-0.3-0.6-0.6-1-0.9c-0.4-0.3-0.9-0.5-1.5-0.8c-0.5-0.2-1.1-0.4-1.8-0.5
					c-0.6-0.1-1.3-0.2-2-0.2c-1.8,0-3.1,0.3-3.9,1c-0.8,0.7-1.3,1.6-1.3,2.7c0,0.8,0.2,1.5,0.6,1.9c0.4,0.5,1.1,0.9,2,1.2
					c0.9,0.3,2,0.6,3.4,0.9c1.6,0.3,3,0.8,4.1,1.3c1.2,0.5,2.1,1.2,2.7,2s0.9,1.9,0.9,3.3c0,1.1-0.2,2-0.6,2.8c-0.4,0.8-1,1.5-1.8,2
					c-0.8,0.5-1.6,0.9-2.6,1.2c-1,0.2-2.1,0.4-3.3,0.4c-1.2,0-2.3-0.1-3.4-0.4s-2.2-0.6-3.1-1.1c-1-0.5-1.9-1.1-2.8-1.8l1.4-2.5
					c0.3,0.4,0.8,0.7,1.3,1.1s1.2,0.7,1.9,1c0.7,0.3,1.5,0.5,2.3,0.7s1.7,0.3,2.5,0.3c1.6,0,2.9-0.3,3.8-0.9
					c0.9-0.6,1.4-1.5,1.4-2.6c0-0.9-0.3-1.5-0.8-2.1c-0.5-0.5-1.3-0.9-2.2-1.3c-0.9-0.4-2.2-0.7-3.6-1c-1.5-0.4-2.9-0.8-3.9-1.3
					c-1.1-0.5-1.8-1.1-2.4-1.8c-0.6-0.7-0.8-1.7-0.8-2.9c0-1.5,0.4-2.7,1.1-3.7s1.7-1.8,2.9-2.3c1.2-0.5,2.7-0.8,4.2-0.8
					c1,0,2,0.1,2.9,0.3c0.9,0.2,1.7,0.5,2.5,0.9s1.5,0.9,2.1,1.4L345.6,86.4z"/>
				<path class="st1" d="M351.8,104.5V81.6h2.9v22.9H351.8z"/>
				<path class="st1" d="M369.4,104.7c-1.5,0-2.9-0.3-4.2-1c-1.3-0.7-2.4-1.5-3.4-2.6s-1.7-2.4-2.3-3.7c-0.5-1.4-0.8-2.8-0.8-4.3
					s0.3-3,0.8-4.4s1.3-2.6,2.2-3.7c0.9-1.1,2.1-1.9,3.4-2.5c1.3-0.6,2.7-0.9,4.2-0.9c2.2,0,4,0.5,5.5,1.4c1.4,0.9,2.5,2.1,3.3,3.6
					l-2.2,1.5c-0.7-1.3-1.6-2.3-2.7-3c-1.2-0.6-2.4-1-3.8-1c-1.2,0-2.2,0.2-3.2,0.7c-0.9,0.5-1.8,1.2-2.4,2
					c-0.7,0.9-1.2,1.8-1.5,2.9c-0.4,1.1-0.5,2.2-0.5,3.4s0.2,2.4,0.6,3.5s1,2,1.7,2.9c0.7,0.9,1.6,1.5,2.5,2c1,0.5,2,0.7,3.1,0.7
					c1.3,0,2.6-0.3,3.7-1c1.2-0.7,2.3-1.7,3.4-3.1v3C374.7,103.5,372.2,104.7,369.4,104.7z M376.4,95.3h-4.9v-2.2h7.4v11.4h-2.5
					V95.3z"/>
				<path class="st1" d="M386.2,87v17.6h-2.9V81.7h2.5l14,17.9V81.7h2.9v22.9h-2.6L386.2,87z"/>
				<path class="st1" d="M415.1,81.6h2.5l9.4,22.9h-3.1l-2.6-6.7h-9.9l-2.6,6.7h-3.1L415.1,81.6z M420.4,95.6L416.3,85l-4.1,10.6
					H420.4z"/>
				<path class="st1" d="M430,104.5V81.6h7.9c2.5,0,4.5,0.5,6.1,1.5s2.9,2.4,3.7,4.1c0.8,1.7,1.2,3.7,1.2,5.8c0,2.3-0.5,4.3-1.4,6.1
					c-0.9,1.7-2.2,3.1-3.8,4c-1.7,0.9-3.6,1.4-5.9,1.4H430L430,104.5z M446,93.1c0-1.7-0.3-3.2-1-4.6c-0.6-1.3-1.6-2.4-2.8-3.1
					c-1.2-0.8-2.7-1.1-4.4-1.1h-5v17.8h5c1.8,0,3.2-0.4,4.5-1.2c1.2-0.8,2.1-1.9,2.7-3.2C445.7,96.2,446,94.7,446,93.1z"/>
				<path class="st1" d="M462.4,104.7c-1.6,0-3.1-0.3-4.4-1c-1.3-0.6-2.4-1.5-3.4-2.6s-1.7-2.4-2.2-3.7c-0.5-1.4-0.8-2.8-0.8-4.3
					s0.3-3,0.8-4.4s1.3-2.6,2.3-3.7c1-1.1,2.1-1.9,3.4-2.6c1.3-0.6,2.7-1,4.3-1s3.1,0.3,4.4,1c1.3,0.7,2.4,1.6,3.4,2.7
					c0.9,1.1,1.7,2.4,2.2,3.7c0.5,1.4,0.8,2.8,0.8,4.2c0,1.5-0.3,3-0.8,4.4s-1.3,2.6-2.3,3.7s-2.1,1.9-3.4,2.6
					S463.9,104.7,462.4,104.7z M454.5,93.1c0,1.2,0.2,2.3,0.6,3.4s0.9,2,1.6,2.9c0.7,0.8,1.5,1.5,2.5,2s2,0.7,3.2,0.7
					c1.2,0,2.3-0.3,3.3-0.8s1.8-1.2,2.5-2.1c0.7-0.9,1.2-1.8,1.5-2.9c0.4-1.1,0.5-2.2,0.5-3.3c0-1.2-0.2-2.3-0.6-3.4
					c-0.4-1.1-0.9-2-1.6-2.9c-0.7-0.8-1.5-1.5-2.5-2s-2-0.7-3.2-0.7c-1.2,0-2.3,0.3-3.3,0.8s-1.8,1.2-2.5,2
					c-0.7,0.8-1.2,1.8-1.6,2.9C454.7,90.9,454.5,92,454.5,93.1z"/>
			</g>
		</g>
		
			<linearGradient id="SVGID_78_" gradientUnits="userSpaceOnUse" x1="579.5981" y1="7.9248" x2="355.1705" y2="156.2753" gradientTransform="matrix(1 0 0 -1 0 273.8)">
			<stop  offset="0" style="stop-color:#FF9996"/>
			<stop  offset="1" style="stop-color:#FFC680"/>
		</linearGradient>
		<line class="st80" x1="310.9" y1="191.7" x2="623.8" y2="191.7"/>
		
			<linearGradient id="SVGID_79_" gradientUnits="userSpaceOnUse" x1="356.2452" y1="68.5089" x2="315.1234" y2="95.6911" gradientTransform="matrix(1 0 0 -1 0 273.8)">
			<stop  offset="0" style="stop-color:#00DCCC"/>
			<stop  offset="1" style="stop-color:#C7F0B9"/>
		</linearGradient>
		<line class="st81" x1="310.9" y1="191.7" x2="360.4" y2="191.7"/>
		<circle class="st82" cx="360.4" cy="191.7" r="18.9"/>
		<g>
			<g>
				<path class="st0" d="M332,135c-0.2-0.2-0.4-0.4-0.9-0.6c-0.4-0.3-0.9-0.5-1.5-0.8c-0.6-0.2-1.2-0.5-1.9-0.7
					c-0.7-0.2-1.4-0.3-2.1-0.3c-1.3,0-2.2,0.2-2.8,0.7c-0.6,0.5-1,1.1-1,2c0,0.7,0.2,1.2,0.6,1.5c0.4,0.4,1,0.7,1.8,1
					c0.8,0.3,1.8,0.6,3,0.9c1.6,0.4,2.9,0.8,4.1,1.4c1.2,0.5,2,1.3,2.7,2.2c0.6,0.9,0.9,2.1,0.9,3.5c0,1.3-0.2,2.4-0.7,3.3
					c-0.5,0.9-1.1,1.6-2,2.2c-0.8,0.6-1.8,1-2.8,1.2c-1.1,0.3-2.2,0.4-3.3,0.4c-1.2,0-2.4-0.1-3.6-0.4c-1.2-0.2-2.3-0.6-3.4-1.1
					s-2.1-1-3-1.7l2.1-4c0.2,0.2,0.6,0.5,1.1,0.8s1.1,0.7,1.9,1c0.8,0.3,1.5,0.6,2.4,0.8c0.9,0.2,1.8,0.3,2.7,0.3
					c1.3,0,2.2-0.2,2.9-0.6c0.6-0.4,1-1,1-1.8c0-0.7-0.3-1.3-0.8-1.7s-1.2-0.8-2.2-1.1c-0.9-0.3-2-0.6-3.2-1
					c-1.5-0.4-2.8-0.9-3.8-1.4s-1.8-1.2-2.3-2s-0.7-1.8-0.7-3c0-1.6,0.4-3,1.2-4.1c0.8-1.1,1.8-2,3.2-2.5c1.3-0.6,2.8-0.9,4.4-0.9
					c1.1,0,2.2,0.1,3.2,0.4c1,0.2,1.9,0.6,2.8,1c0.9,0.4,1.7,0.8,2.4,1.3L332,135z M324.5,125.2h2.3v5.5l-2.3,0.3V125.2z
					 M324.5,150.5h2.3v6.1h-2.3V150.5z M324.8,149.9v-18.4l1.6-0.4v18.8H324.8z"/>
				<path class="st0" d="M355.2,142.9c0,1.9-0.4,3.7-1.1,5.2c-0.7,1.5-1.8,2.7-3.1,3.6c-1.3,0.9-2.8,1.3-4.5,1.3s-3.1-0.4-4.5-1.3
					c-1.3-0.9-2.3-2-3.1-3.6c-0.8-1.5-1.1-3.2-1.1-5.2s0.4-3.7,1.1-5.2c0.8-1.5,1.8-2.7,3.1-3.6c1.3-0.9,2.8-1.3,4.5-1.3
					s3.1,0.4,4.5,1.3c1.3,0.9,2.3,2.1,3.1,3.6C354.9,139.2,355.2,141,355.2,142.9z M350.6,142.9c0-1.2-0.2-2.2-0.5-3.1
					c-0.3-0.9-0.8-1.6-1.5-2.1c-0.6-0.5-1.3-0.8-2.2-0.8c-0.8,0-1.6,0.3-2.2,0.8c-0.6,0.5-1.1,1.2-1.5,2.1c-0.3,0.9-0.5,1.9-0.5,3.1
					s0.2,2.2,0.5,3.1c0.3,0.9,0.8,1.6,1.5,2.1c0.7,0.5,1.4,0.8,2.2,0.8s1.5-0.3,2.1-0.8s1.1-1.2,1.5-2.1
					C350.4,145.1,350.6,144.1,350.6,142.9z"/>
				<path class="st0" d="M358.8,152.6v-4.8h3.7v4.8H358.8z"/>
				<path class="st0" d="M383.4,142.9c0,1.9-0.4,3.7-1.1,5.2c-0.7,1.5-1.8,2.7-3.1,3.6c-1.3,0.9-2.8,1.3-4.5,1.3
					c-1.7,0-3.1-0.4-4.5-1.3c-1.3-0.9-2.3-2-3.1-3.6c-0.8-1.6-1.1-3.2-1.1-5.2s0.4-3.7,1.1-5.2c0.7-1.5,1.8-2.7,3.1-3.6
					c1.3-0.9,2.8-1.3,4.5-1.3c1.7,0,3.1,0.4,4.5,1.3c1.3,0.9,2.3,2.1,3.1,3.6C383.1,139.2,383.4,141,383.4,142.9z M378.8,142.9
					c0-1.2-0.2-2.2-0.5-3.1c-0.3-0.9-0.8-1.6-1.5-2.1c-0.6-0.5-1.3-0.8-2.2-0.8c-0.8,0-1.6,0.3-2.2,0.8c-0.6,0.5-1.1,1.2-1.5,2.1
					c-0.3,0.9-0.5,1.9-0.5,3.1s0.2,2.2,0.5,3.1c0.3,0.9,0.8,1.6,1.5,2.1c0.7,0.5,1.4,0.8,2.2,0.8s1.5-0.3,2.1-0.8
					c0.6-0.5,1.1-1.2,1.5-2.1C378.6,145.1,378.8,144.1,378.8,142.9z"/>
				<path class="st0" d="M404,142.9c0,1.9-0.4,3.7-1.1,5.2c-0.7,1.5-1.8,2.7-3.1,3.6c-1.3,0.9-2.8,1.3-4.5,1.3
					c-1.7,0-3.1-0.4-4.5-1.3c-1.3-0.9-2.3-2-3.1-3.6c-0.8-1.6-1.1-3.2-1.1-5.2s0.4-3.7,1.1-5.2c0.7-1.5,1.8-2.7,3.1-3.6
					c1.3-0.9,2.8-1.3,4.5-1.3c1.7,0,3.1,0.4,4.5,1.3c1.3,0.9,2.3,2.1,3.1,3.6S404,141,404,142.9z M399.5,142.9
					c0-1.2-0.2-2.2-0.5-3.1c-0.3-0.9-0.8-1.6-1.5-2.1c-0.6-0.5-1.3-0.8-2.2-0.8c-0.8,0-1.6,0.3-2.2,0.8s-1.1,1.2-1.5,2.1
					c-0.3,0.9-0.5,1.9-0.5,3.1s0.2,2.2,0.5,3.1c0.3,0.9,0.8,1.6,1.5,2.1c0.7,0.5,1.4,0.8,2.2,0.8c0.8,0,1.5-0.3,2.1-0.8
					s1.1-1.2,1.5-2.1C399.3,145.1,399.5,144.1,399.5,142.9z"/>
			</g>
		</g>
	</g>
	<g>
		<g>
			<g>
				<path class="st1" d="M27.2,18.2v17.6h-2.9V12.9h2.5l14,17.9V12.9h2.9v22.9h-2.6L27.2,18.2z"/>
				<path class="st1" d="M58.6,36c-1.8,0-3.4-0.3-4.6-1c-1.2-0.6-2.2-1.5-3-2.6s-1.3-2.3-1.6-3.7s-0.5-2.8-0.5-4.3V12.8h2.9v11.6
					c0,1.1,0.1,2.2,0.3,3.3s0.6,2,1.1,2.9c0.5,0.8,1.2,1.5,2.1,2s2,0.7,3.3,0.7s2.4-0.3,3.3-0.8s1.6-1.2,2.1-2s0.9-1.8,1.1-2.9
					c0.2-1.1,0.3-2.1,0.3-3.2V12.8h2.9v11.6c0,1.5-0.2,3-0.5,4.4c-0.4,1.4-0.9,2.6-1.7,3.7c-0.8,1.1-1.8,1.9-3,2.5S60.3,36,58.6,36z
					 M59.6,10.1l-1.9-0.6l1.9-3.3h2.8L59.6,10.1z"/>
				<path class="st1" d="M93.3,35.8V18.3l-7.6,13.5h-1.8l-7.6-13.5v17.5h-2.9V12.9h3.1l8.3,14.9l8.3-14.9h3v22.9H93.3z"/>
				<path class="st1" d="M117.3,33.2v2.6h-15.6V12.9H117v2.6h-12.4v7.4h10.7v2.4h-10.7v7.9C104.6,33.2,117.3,33.2,117.3,33.2z"/>
				<path class="st1" d="M121.2,35.8V12.9h9.8c1,0,1.9,0.2,2.8,0.6c0.8,0.4,1.6,1,2.2,1.7c0.6,0.7,1.1,1.5,1.5,2.4
					c0.3,0.9,0.5,1.8,0.5,2.7c0,1.1-0.2,2.1-0.6,3c-0.4,0.9-1,1.8-1.7,2.4c-0.7,0.7-1.6,1.1-2.5,1.4l5.6,8.8h-3.3l-5.2-8.2h-6.1v8.2
					L121.2,35.8L121.2,35.8z M124.1,25h6.9c0.8,0,1.5-0.2,2.1-0.7s1.1-1,1.4-1.8c0.3-0.7,0.5-1.5,0.5-2.4c0-0.9-0.2-1.7-0.6-2.4
					c-0.4-0.7-0.9-1.3-1.5-1.7c-0.6-0.4-1.3-0.6-2.1-0.6h-6.7L124.1,25L124.1,25z"/>
				<path class="st1" d="M151.7,36c-1.6,0-3.1-0.3-4.4-1s-2.4-1.5-3.4-2.6s-1.7-2.4-2.2-3.7c-0.5-1.4-0.8-2.8-0.8-4.3s0.3-3,0.8-4.4
					c0.5-1.4,1.3-2.6,2.3-3.7c1-1.1,2.1-1.9,3.4-2.6c1.3-0.6,2.7-1,4.3-1s3.1,0.3,4.4,1c1.3,0.7,2.4,1.6,3.4,2.7
					c0.9,1.1,1.7,2.4,2.2,3.7c0.5,1.3,0.8,2.8,0.8,4.2c0,1.5-0.3,3-0.8,4.4s-1.3,2.6-2.3,3.7s-2.1,1.9-3.4,2.6S153.3,36,151.7,36z
					 M143.9,24.3c0,1.2,0.2,2.3,0.6,3.4c0.4,1.1,0.9,2,1.6,2.9c0.7,0.8,1.5,1.5,2.5,2s2,0.7,3.2,0.7s2.3-0.3,3.3-0.8
					s1.8-1.2,2.5-2.1c0.7-0.9,1.2-1.8,1.5-2.9c0.4-1.1,0.5-2.2,0.5-3.3c0-1.2-0.2-2.3-0.6-3.4c-0.4-1.1-0.9-2-1.6-2.9
					c-0.7-0.8-1.5-1.5-2.5-2c-1-0.5-2-0.7-3.2-0.7s-2.3,0.3-3.3,0.8c-1,0.5-1.8,1.2-2.5,2s-1.2,1.8-1.6,2.9
					C144.1,22.1,143.9,23.2,143.9,24.3z"/>
				<path class="st1" d="M174.7,35.8V12.9h7.9c2.5,0,4.5,0.5,6.1,1.5s2.9,2.4,3.7,4.1s1.2,3.7,1.2,5.8c0,2.3-0.5,4.3-1.4,6.1
					c-0.9,1.7-2.2,3.1-3.8,4c-1.7,0.9-3.6,1.4-5.9,1.4L174.7,35.8L174.7,35.8z M190.8,24.3c0-1.7-0.3-3.2-1-4.6
					c-0.6-1.3-1.6-2.4-2.8-3.1c-1.2-0.8-2.7-1.1-4.4-1.1h-5v17.8h5c1.8,0,3.2-0.4,4.5-1.2s2.1-1.9,2.7-3.2
					C190.5,27.5,190.8,26,190.8,24.3z"/>
				<path class="st1" d="M213.4,33.2v2.6h-15.6V12.9h15.3v2.6h-12.4v7.4h10.7v2.4h-10.7v7.9C200.7,33.2,213.4,33.2,213.4,33.2z"/>
				<path class="st1" d="M24.3,72.1V49.2h7.9c2.5,0,4.5,0.5,6.1,1.5s2.9,2.4,3.7,4.1c0.8,1.7,1.2,3.7,1.2,5.8c0,2.3-0.5,4.3-1.4,6.1
					c-0.9,1.7-2.2,3.1-3.8,4c-1.7,0.9-3.6,1.4-5.9,1.4H24.3L24.3,72.1z M40.3,60.6c0-1.7-0.3-3.2-1-4.6c-0.6-1.3-1.6-2.4-2.8-3.1
					c-1.2-0.8-2.7-1.1-4.4-1.1h-5v17.8h5c1.8,0,3.2-0.4,4.5-1.2c1.2-0.8,2.1-1.9,2.7-3.2C40,63.8,40.3,62.3,40.3,60.6z"/>
				<path class="st1" d="M56.7,72.3c-1.6,0-3.1-0.3-4.4-1c-1.3-0.6-2.4-1.5-3.4-2.6s-1.7-2.4-2.2-3.7c-0.5-1.4-0.8-2.8-0.8-4.3
					s0.3-3,0.8-4.4s1.3-2.6,2.3-3.7c1-1.1,2.1-1.9,3.4-2.6c1.3-0.6,2.7-1,4.3-1c1.6,0,3.1,0.3,4.4,1s2.4,1.6,3.4,2.7
					c0.9,1.1,1.7,2.4,2.2,3.7s0.8,2.8,0.8,4.2c0,1.5-0.3,3-0.8,4.4c-0.5,1.4-1.3,2.6-2.3,3.7s-2.1,1.9-3.4,2.6S58.2,72.3,56.7,72.3z
					 M48.8,60.7c0,1.2,0.2,2.3,0.6,3.4c0.4,1.1,0.9,2,1.6,2.9s1.5,1.5,2.5,2s2,0.7,3.2,0.7s2.3-0.3,3.3-0.8s1.8-1.2,2.5-2.1
					s1.2-1.8,1.5-2.9c0.4-1.1,0.5-2.2,0.5-3.3c0-1.2-0.2-2.3-0.6-3.4s-0.9-2-1.6-2.9c-0.7-0.8-1.5-1.5-2.5-2s-2-0.7-3.2-0.7
					s-2.3,0.3-3.3,0.8s-1.8,1.2-2.5,2c-0.7,0.9-1.2,1.8-1.6,2.9C49,58.4,48.8,59.5,48.8,60.7z"/>
				<path class="st1" d="M70,60.5c0-1.4,0.2-2.8,0.7-4.1s1.2-2.6,2.1-3.7s2.1-2,3.4-2.6c1.4-0.7,2.9-1,4.6-1c2,0,3.8,0.5,5.3,1.4
					s2.5,2.1,3.3,3.6l-2.3,1.5c-0.5-1-1-1.7-1.7-2.3s-1.5-1-2.3-1.2s-1.6-0.4-2.4-0.4c-1.3,0-2.4,0.3-3.4,0.8s-1.8,1.2-2.5,2.1
					c-0.7,0.9-1.2,1.8-1.5,2.9s-0.5,2.1-0.5,3.2c0,1.2,0.2,2.3,0.6,3.4c0.4,1.1,1,2.1,1.7,2.9s1.5,1.5,2.5,2s2,0.7,3.2,0.7
					c0.8,0,1.6-0.1,2.5-0.4c0.8-0.3,1.6-0.7,2.4-1.3s1.3-1.4,1.7-2.3l2.4,1.3c-0.5,1.1-1.2,2.1-2.2,2.9s-2.1,1.4-3.3,1.8
					c-1.2,0.4-2.4,0.6-3.6,0.6c-1.6,0-3-0.3-4.3-1S74,69.7,73,68.6s-1.7-2.4-2.2-3.8C70.3,63.3,70,61.9,70,60.5z"/>
				<path class="st1" d="M109.1,69.5v2.6H93.5V49.2h15.3v2.6H96.4v7.4h10.7v2.4H96.4v7.9H109.1z"/>
				<path class="st1" d="M116,54.6v17.6h-2.9V49.3h2.5l14,17.9V49.3h2.9v22.9h-2.6L116,54.6z"/>
				<path class="st1" d="M154.4,51.8h-7.9v20.3h-2.9V51.8h-7.9v-2.6h18.7V51.8z"/>
				<path class="st1" d="M173.3,69.5v2.6h-15.6V49.2H173v2.6h-12.4v7.4h10.7v2.4h-10.7v7.9H173.3z"/>
				<path class="st1" d="M190.7,54c-0.3-0.3-0.6-0.6-1-0.9s-0.9-0.5-1.5-0.8s-1.1-0.4-1.8-0.5c-0.6-0.1-1.3-0.2-2-0.2
					c-1.8,0-3.1,0.3-3.9,1c-0.8,0.7-1.3,1.6-1.3,2.7c0,0.8,0.2,1.5,0.6,1.9s1.1,0.9,2,1.2s2,0.6,3.4,0.9c1.6,0.3,3,0.8,4.1,1.3
					s2.1,1.2,2.7,2s0.9,1.9,0.9,3.3c0,1.1-0.2,2-0.6,2.8c-0.4,0.8-1,1.5-1.8,2s-1.6,0.9-2.6,1.2c-1,0.2-2.1,0.4-3.3,0.4
					s-2.3-0.1-3.4-0.4s-2.2-0.6-3.1-1.1c-1-0.5-1.9-1.1-2.8-1.8l1.4-2.5c0.3,0.4,0.8,0.7,1.3,1.1s1.2,0.7,1.9,1s1.5,0.5,2.3,0.7
					s1.7,0.3,2.5,0.3c1.6,0,2.9-0.3,3.8-0.9c0.9-0.6,1.4-1.5,1.4-2.6c0-0.9-0.3-1.5-0.8-2.1c-0.5-0.5-1.3-0.9-2.2-1.3
					s-2.2-0.7-3.6-1c-1.5-0.4-2.9-0.8-3.9-1.3c-1.1-0.5-1.8-1.1-2.4-1.8c-0.5-0.8-0.8-1.7-0.8-2.9c0-1.5,0.4-2.7,1.1-3.7
					c0.7-1,1.7-1.8,2.9-2.3s2.7-0.8,4.2-0.8c1,0,2,0.1,2.9,0.3s1.7,0.5,2.5,0.9s1.5,0.9,2.1,1.4L190.7,54z"/>
			</g>
		</g>
		<g>
			<g>
				<path class="st2" d="M118.8,249.4c-42.8,0-77.7-34.8-77.7-77.7c0-42.8,34.8-77.7,77.7-77.7c42.8,0,77.7,34.8,77.7,77.7
					C196.5,214.6,161.7,249.4,118.8,249.4z M118.8,95.1c-42.3,0-76.7,34.4-76.7,76.7s34.4,76.7,76.7,76.7s76.7-34.4,76.7-76.7
					S161.1,95.1,118.8,95.1z"/>
			</g>
			<g>
				
					<linearGradient id="SVGID_80_" gradientUnits="userSpaceOnUse" x1="114.8913" y1="138.9" x2="196.4952" y2="138.9" gradientTransform="matrix(1 0 0 -1 0 273.8)">
					<stop  offset="0" style="stop-color:#FF9996"/>
					<stop  offset="1" style="stop-color:#FFC680"/>
				</linearGradient>
				<path class="st83" d="M192.5,175.8c-2.2,0-4-1.8-4-4c0-38.4-31.3-69.7-69.7-69.7c-2.2,0-4-1.8-4-4s1.8-4,4-4
					c42.8,0,77.6,34.8,77.6,77.6C196.5,174,194.7,175.8,192.5,175.8z"/>
			</g>
			<g>
				<g>
					<g>
						<g>
							<path class="st1" d="M127.8,153.1h-17.9c-7.1,0-12.8,5.7-12.8,12.8v13.7h7.9v-12.6c0-0.4,0.4-0.8,0.8-0.8s0.8,0.4,0.8,0.8
								v12.6h24.7v-12.6c0-0.4,0.4-0.8,0.8-0.8l0,0c0.4,0,0.8,0.4,0.8,0.8v12.6h7.7v-13.8C140.6,158.8,134.9,153.1,127.8,153.1z"/>
						</g>
						<g>
							<path class="st1" d="M118.9,150.3c6.3,0,11.3-5.1,11.3-11.3c0-6.3-5.1-11.3-11.3-11.3c-6.3,0-11.3,5.1-11.3,11.3
								C107.6,145.2,112.7,150.3,118.9,150.3z"/>
						</g>
					</g>
				</g>
			</g>
			<g>
				<path class="st84" d="M79.8,197.9v2.5h-8.2v-2.5h2.9v-6.1c-0.1,0.2-0.3,0.3-0.6,0.5c-0.3,0.2-0.5,0.3-0.9,0.5s-0.6,0.3-1,0.4
					c-0.3,0.1-0.6,0.1-0.9,0.1v-2.5c0.2,0,0.5-0.1,0.9-0.2c0.3-0.2,0.7-0.3,1-0.6c0.3-0.2,0.6-0.4,0.9-0.6c0.2-0.2,0.4-0.4,0.5-0.5
					h2.8v9.1L79.8,197.9L79.8,197.9z"/>
				<path class="st84" d="M87.3,200.3v-14.4h4.9c1.5,0,2.8,0.3,3.8,1c1,0.6,1.8,1.5,2.3,2.6s0.8,2.3,0.8,3.6c0,1.5-0.3,2.7-0.8,3.8
					c-0.6,1.1-1.4,1.9-2.4,2.5s-2.3,0.9-3.7,0.9L87.3,200.3L87.3,200.3z M97.6,193.1c0-1.1-0.2-2.2-0.6-3.1s-1-1.6-1.9-2.1
					c-0.8-0.5-1.8-0.8-3-0.8h-3.5v11.9h3.5c1.2,0,2.2-0.3,3-0.8s1.4-1.2,1.8-2.1C97.4,195.2,97.6,194.2,97.6,193.1z"/>
				<path class="st84" d="M106,200.5c-0.8,0-1.5-0.1-2.1-0.4s-1.2-0.7-1.7-1.2s-0.8-1.1-1.1-1.7c-0.3-0.7-0.4-1.3-0.4-2.1
					s0.1-1.5,0.4-2.1s0.6-1.2,1.1-1.7s1-0.9,1.7-1.2s1.3-0.4,2.1-0.4c0.8,0,1.5,0.1,2.1,0.4s1.2,0.7,1.7,1.2s0.8,1.1,1.1,1.7
					s0.4,1.4,0.4,2.1s-0.1,1.4-0.4,2.1s-0.6,1.2-1.1,1.7s-1,0.9-1.7,1.2C107.5,200.4,106.8,200.5,106,200.5z M102.2,195.1
					c0,0.8,0.2,1.5,0.5,2.1s0.8,1.1,1.4,1.5s1.2,0.6,1.9,0.6c0.7,0,1.3-0.2,1.9-0.6s1-0.9,1.4-1.5c0.4-0.6,0.5-1.4,0.5-2.1
					c0-0.8-0.2-1.5-0.5-2.1c-0.4-0.6-0.8-1.2-1.4-1.5c-0.6-0.4-1.2-0.6-1.9-0.6c-0.7,0-1.3,0.2-1.9,0.6s-1,0.9-1.4,1.5
					S102.2,194.3,102.2,195.1z"/>
				<path class="st84" d="M118.1,200.5c-0.8,0-1.5-0.1-2.1-0.4s-1.2-0.7-1.7-1.2s-0.9-1.1-1.1-1.8s-0.4-1.4-0.4-2.1
					c0-1,0.2-1.9,0.7-2.7c0.4-0.8,1.1-1.5,1.9-2c0.8-0.5,1.7-0.7,2.8-0.7c1,0,1.9,0.2,2.6,0.7c0.8,0.5,1.3,1.1,1.7,1.8l-1.3,0.4
					c-0.3-0.5-0.7-1-1.2-1.3s-1.1-0.5-1.8-0.5s-1.3,0.2-1.9,0.5c-0.6,0.4-1,0.9-1.4,1.5c-0.3,0.6-0.5,1.3-0.5,2.2
					c0,0.8,0.2,1.5,0.5,2.2s0.8,1.2,1.4,1.5c0.6,0.4,1.2,0.6,1.9,0.6c0.5,0,0.9-0.1,1.3-0.2s0.8-0.4,1.1-0.7s0.5-0.6,0.6-0.9
					l1.4,0.4c-0.2,0.5-0.5,1-0.9,1.3c-0.4,0.4-1,0.7-1.5,0.9C119.5,200.4,118.8,200.5,118.1,200.5z"/>
				<path class="st84" d="M129.2,200.5c-0.8,0-1.5-0.1-2.1-0.4s-1.2-0.7-1.7-1.2s-0.8-1.1-1.1-1.7s-0.4-1.4-0.4-2.1
					c0-1,0.2-1.9,0.7-2.7s1.1-1.5,1.9-2c0.8-0.5,1.7-0.7,2.7-0.7s2,0.2,2.7,0.7c0.8,0.5,1.4,1.2,1.8,2c0.4,0.8,0.7,1.7,0.7,2.7
					c0,0.1,0,0.2,0,0.3s0,0.2,0,0.2h-9c0.1,0.8,0.3,1.4,0.6,2c0.4,0.6,0.8,1,1.4,1.4c0.6,0.3,1.2,0.5,1.9,0.5s1.3-0.2,2-0.5
					c0.6-0.4,1-0.8,1.3-1.4l1.2,0.3c-0.2,0.5-0.5,1-1,1.4c-0.4,0.4-1,0.7-1.6,0.9C130.5,200.4,129.8,200.5,129.2,200.5z
					 M125.3,194.6h7.8c-0.1-0.8-0.3-1.4-0.6-2c-0.4-0.6-0.8-1-1.4-1.4c-0.6-0.3-1.2-0.5-1.9-0.5s-1.3,0.2-1.9,0.5
					c-0.6,0.3-1,0.8-1.4,1.4C125.5,193.2,125.3,193.8,125.3,194.6z"/>
				<path class="st84" d="M145.4,200.3H144v-5.9c0-1.2-0.2-2.1-0.5-2.7s-0.9-0.9-1.7-0.9c-0.5,0-1.1,0.1-1.6,0.4s-1,0.6-1.4,1.1
					c-0.4,0.4-0.7,1-0.9,1.5v6.4h-1.4v-10.5h1.3v2.4c0.3-0.5,0.7-1,1.1-1.3c0.5-0.4,1-0.7,1.6-0.9s1.2-0.3,1.8-0.3s1.1,0.1,1.5,0.3
					s0.7,0.5,1,0.9c0.2,0.4,0.4,0.9,0.5,1.4c0.1,0.6,0.2,1.2,0.2,1.9L145.4,200.3L145.4,200.3z"/>
				<path class="st84" d="M153.3,199.9c-0.1,0-0.3,0.1-0.5,0.2s-0.5,0.2-0.8,0.3s-0.7,0.1-1.1,0.1c-0.4,0-0.8-0.1-1.1-0.2
					s-0.6-0.4-0.8-0.7s-0.3-0.7-0.3-1.1v-7.6h-1.5v-1.1h1.5v-3.6h1.4v3.6h2.4v1.1h-2.4v7.2c0,0.4,0.2,0.7,0.4,0.9s0.5,0.3,0.9,0.3
					s0.7-0.1,1-0.2s0.5-0.2,0.6-0.3L153.3,199.9z"/>
				<path class="st84" d="M159.4,200.5c-0.8,0-1.5-0.1-2.1-0.4c-0.7-0.3-1.2-0.7-1.7-1.2s-0.8-1.1-1.1-1.7s-0.4-1.4-0.4-2.1
					c0-1,0.2-1.9,0.7-2.7s1.1-1.5,1.9-2s1.7-0.7,2.7-0.7s2,0.2,2.7,0.7c0.8,0.5,1.4,1.2,1.8,2c0.4,0.8,0.7,1.7,0.7,2.7
					c0,0.1,0,0.2,0,0.3s0,0.2,0,0.2h-9c0.1,0.8,0.3,1.4,0.6,2c0.4,0.6,0.8,1,1.4,1.4c0.6,0.3,1.2,0.5,1.9,0.5s1.3-0.2,2-0.5
					c0.6-0.4,1-0.8,1.3-1.4l1.2,0.3c-0.2,0.5-0.5,1-1,1.4c-0.4,0.4-1,0.7-1.6,0.9C160.7,200.4,160.1,200.5,159.4,200.5z
					 M155.5,194.6h7.8c-0.1-0.8-0.3-1.4-0.6-2c-0.4-0.6-0.8-1-1.4-1.4c-0.6-0.3-1.2-0.5-1.9-0.5s-1.3,0.2-1.9,0.5
					c-0.6,0.3-1,0.8-1.4,1.4C155.8,193.2,155.6,193.8,155.5,194.6z"/>
			</g>
		</g>
	</g>
</g>
</svg>
